<?xml version="1.0" standalone="no"?><!DOCTYPE svg PUBLIC "-//W3C//DTD SVG 1.1//EN" "http://www.w3.org/Graphics/SVG/1.1/DTD/svg11.dtd" ><svg version="1.1" xmlns="http://www.w3.org/2000/svg"><defs><font horiz-adv-x="0" id="font"><font-face ascent="750" bbox="-146 -202 1060 989" cap-height="713" descent="-250" font-family="Flama Semicondensed Ultralight" font-stretch="normal" font-style="normal" font-weight="600" units-per-em="1000" x-height="528" /><missing-glyph d="M707 42V638H115V42ZM55 698H767V-18H55ZM195 158 380 343 195 528 235 568 420 383 605 568 645 528 460 343 645 158 605 118 420 303 235 118Z" horiz-adv-x="822" /><glyph glyph-name=".null" horiz-adv-x="16" /><glyph d="M382 286 266 679H265L147 286ZM248 716H287L499 0H466L390 259H140L63 0H32Z" glyph-name="A" horiz-adv-x="530" unicode="A" /><glyph d="M394 274V678H392L192 274ZM378 713H746V684H425V388H681V360H425V29H746V0H394V246H178L57 0H23Z" glyph-name="AE" horiz-adv-x="773" unicode="&#198;" /><glyph d="M491 913H530L429 772H401ZM394 274V678H392L192 274ZM378 713H746V684H425V388H681V360H425V29H746V0H394V246H178L57 0H23Z" glyph-name="AEacute" horiz-adv-x="773" unicode="&#508;" /><glyph d="M343 911H382L281 770H253ZM382 286 266 679H265L147 286ZM248 716H287L499 0H466L390 259H140L63 0H32Z" glyph-name="Aacute" horiz-adv-x="530" unicode="&#193;" /><glyph d="M265 776Q212 776 175 806Q138 836 136 889H164Q168 852 193 827Q218 802 269 802Q311 802 336.5 827Q362 852 367 889H394Q392 860 380 839Q368 818 349.5 804Q331 790 309 783Q287 776 265 776ZM382 286 266 679H265L147 286ZM248 716H287L499 0H466L390 259H140L63 0H32Z" glyph-name="Abreve" horiz-adv-x="530" unicode="&#258;" /><glyph d="M251 906H276L354 765H321L262 875L202 765H170ZM382 286 266 679H265L147 286ZM248 716H287L499 0H466L390 259H140L63 0H32Z" glyph-name="Acircumflex" horiz-adv-x="530" unicode="&#194;" /><glyph d="M314 890H345V805H314ZM180 890H211V805H180ZM382 286 266 679H265L147 286ZM248 716H287L499 0H466L390 259H140L63 0H32Z" glyph-name="Adieresis" horiz-adv-x="530" unicode="&#196;" /><glyph d="M150 911H189L280 770H252ZM382 286 266 679H265L147 286ZM248 716H287L499 0H466L390 259H140L63 0H32Z" glyph-name="Agrave" horiz-adv-x="530" unicode="&#192;" /><glyph d="M143 833H387V804H143ZM382 286 266 679H265L147 286ZM248 716H287L499 0H466L390 259H140L63 0H32Z" glyph-name="Amacron" horiz-adv-x="530" unicode="&#256;" /><glyph d="M382 286 266 679H265L147 286ZM477 -184Q446 -184 423 -165.5Q400 -147 400 -109Q400 -74 421 -44.5Q442 -15 465 1L390 259H140L63 0H32L248 716H287L498 2L499 0H495Q485 -6 473.5 -15.5Q462 -25 452 -38Q442 -51 435.5 -67.5Q429 -84 429 -104Q429 -127 440.5 -143Q452 -159 481 -159Q492 -159 506 -155.5Q520 -152 528 -147L538 -167Q529 -173 514.5 -178.5Q500 -184 477 -184Z" glyph-name="Aogonek" horiz-adv-x="530" unicode="&#260;" /><glyph d="M268 770Q289 770 304.5 784Q320 798 320 826Q320 852 306 867Q292 882 267 882Q245 882 232 866Q219 850 219 824Q219 796 233.5 783Q248 770 268 770ZM269 748Q249 748 234.5 755Q220 762 210.5 772.5Q201 783 196.5 796.5Q192 810 192 824Q192 857 213 881Q234 905 267 905Q307 905 326 883Q345 861 345 829Q345 795 324.5 771.5Q304 748 269 748ZM382 286 266 679H265L147 286ZM248 716H287L499 0H466L390 259H140L63 0H32Z" glyph-name="Aring" horiz-adv-x="530" unicode="&#197;" /><glyph d="M268 770Q289 770 304.5 784Q320 798 320 826Q320 852 306 867Q292 882 267 882Q245 882 232 866Q219 850 219 824Q219 796 233.5 783Q248 770 268 770ZM269 748Q249 748 234.5 755Q220 762 210.5 772.5Q201 783 196.5 796.5Q192 810 192 824Q192 854 209 877L292 989L330 978L263 905Q306 905 325.5 883Q345 861 345 829Q345 795 324.5 771.5Q304 748 269 748ZM382 286 266 679H265L147 286ZM248 716H287L499 0H466L390 259H140L63 0H32Z" glyph-name="Aringacute" horiz-adv-x="530" unicode="&#506;" /><glyph d="M127 777Q130 806 147.5 826.5Q165 847 195 847Q212 847 229.5 841Q247 835 264.5 828.5Q282 822 299.5 816Q317 810 335 810Q355 810 365 822.5Q375 835 381 855L403 851Q398 821 379.5 801Q361 781 334 781Q316 781 297 787Q278 793 260 800Q242 807 225 813Q208 819 193 819Q170 819 162.5 805Q155 791 150 775ZM382 286 266 679H265L147 286ZM248 716H287L499 0H466L390 259H140L63 0H32Z" glyph-name="Atilde" horiz-adv-x="530" unicode="&#195;" /><glyph d="M254 381Q284 381 314 390Q344 399 367.5 418Q391 437 405.5 466.5Q420 496 420 538Q420 577 408.5 605Q397 633 377 650.5Q357 668 330.5 676.5Q304 685 274 685H114V381ZM280 29Q353 29 396.5 68.5Q440 108 440 195Q440 237 424.5 267Q409 297 384 316Q359 335 326.5 344Q294 353 261 353H114V29ZM83 713H278Q357 713 404 668Q451 623 451 542Q451 510 441.5 480.5Q432 451 415 427.5Q398 404 374 389Q350 374 320 370V367Q357 362 385.5 346.5Q414 331 433.5 307.5Q453 284 463 255Q473 226 473 193Q473 141 457 104.5Q441 68 414.5 44.5Q388 21 354 10.5Q320 0 284 0H83Z" glyph-name="B" horiz-adv-x="523" unicode="B" /><glyph d="M279 -11Q181 -11 122.5 38.5Q64 88 64 186V522Q64 566 78.5 603Q93 640 121 667Q149 694 189 709.5Q229 725 279 725Q327 725 363.5 711.5Q400 698 425 675Q450 652 462.5 622Q475 592 475 559V495H446V544Q446 575 436 603Q426 631 405.5 652Q385 673 352.5 685Q320 697 275 697Q230 697 196.5 683.5Q163 670 140.5 646Q118 622 106.5 589Q95 556 95 518V198Q95 150 108.5 115.5Q122 81 146.5 59Q171 37 205 27Q239 17 279 17Q321 17 352.5 28Q384 39 404.5 58.5Q425 78 435.5 104.5Q446 131 446 162V219H475V158Q475 122 462 91Q449 60 424.5 37.5Q400 15 363.5 2Q327 -11 279 -11Z" glyph-name="C" horiz-adv-x="536" unicode="C" /><glyph d="M353 913H392L291 772H263ZM279 -11Q181 -11 122.5 38.5Q64 88 64 186V522Q64 566 78.5 603Q93 640 121 667Q149 694 189 709.5Q229 725 279 725Q327 725 363.5 711.5Q400 698 425 675Q450 652 462.5 622Q475 592 475 559V495H446V544Q446 575 436 603Q426 631 405.5 652Q385 673 352.5 685Q320 697 275 697Q230 697 196.5 683.5Q163 670 140.5 646Q118 622 106.5 589Q95 556 95 518V198Q95 150 108.5 115.5Q122 81 146.5 59Q171 37 205 27Q239 17 279 17Q321 17 352.5 28Q384 39 404.5 58.5Q425 78 435.5 104.5Q446 131 446 162V219H475V158Q475 122 462 91Q449 60 424.5 37.5Q400 15 363.5 2Q327 -11 279 -11Z" glyph-name="Cacute" horiz-adv-x="536" unicode="&#262;" /><glyph d="M184 908H217L276 798L336 908H368L287 767H262ZM279 -11Q181 -11 122.5 38.5Q64 88 64 186V522Q64 566 78.5 603Q93 640 121 667Q149 694 189 709.5Q229 725 279 725Q327 725 363.5 711.5Q400 698 425 675Q450 652 462.5 622Q475 592 475 559V495H446V544Q446 575 436 603Q426 631 405.5 652Q385 673 352.5 685Q320 697 275 697Q230 697 196.5 683.5Q163 670 140.5 646Q118 622 106.5 589Q95 556 95 518V198Q95 150 108.5 115.5Q122 81 146.5 59Q171 37 205 27Q239 17 279 17Q321 17 352.5 28Q384 39 404.5 58.5Q425 78 435.5 104.5Q446 131 446 162V219H475V158Q475 122 462 91Q449 60 424.5 37.5Q400 15 363.5 2Q327 -11 279 -11Z" glyph-name="Ccaron" horiz-adv-x="536" unicode="&#268;" /><glyph d="M289 -189Q275 -189 255 -186Q235 -183 218 -178V-151Q235 -156 253 -159Q271 -162 292 -162Q315 -162 331.5 -153.5Q348 -145 348 -125Q348 -89 284 -85L256 -83L275 -11Q179 -10 121.5 39.5Q64 89 64 186V522Q64 566 78.5 603Q93 640 121 667Q149 694 189 709.5Q229 725 279 725Q327 725 363.5 711.5Q400 698 425 675Q450 652 462.5 622Q475 592 475 559V495H446V544Q446 575 436 603Q426 631 405.5 652Q385 673 352.5 685Q320 697 275 697Q230 697 196.5 683.5Q163 670 140.5 646Q118 622 106.5 589Q95 556 95 518V198Q95 150 108.5 115.5Q122 81 146.5 59Q171 37 205 27Q239 17 279 17Q321 17 352.5 28Q384 39 404.5 58.5Q425 78 435.5 104.5Q446 131 446 162V219H475V158Q475 89 430.5 42.5Q386 -4 301 -10L288 -61Q326 -63 352.5 -77.5Q379 -92 379 -125Q379 -151 356 -170Q333 -189 289 -189Z" glyph-name="Ccedilla" horiz-adv-x="536" unicode="&#199;" /><glyph d="M265 908H290L368 767H335L276 877L216 767H184ZM279 -11Q181 -11 122.5 38.5Q64 88 64 186V522Q64 566 78.5 603Q93 640 121 667Q149 694 189 709.5Q229 725 279 725Q327 725 363.5 711.5Q400 698 425 675Q450 652 462.5 622Q475 592 475 559V495H446V544Q446 575 436 603Q426 631 405.5 652Q385 673 352.5 685Q320 697 275 697Q230 697 196.5 683.5Q163 670 140.5 646Q118 622 106.5 589Q95 556 95 518V198Q95 150 108.5 115.5Q122 81 146.5 59Q171 37 205 27Q239 17 279 17Q321 17 352.5 28Q384 39 404.5 58.5Q425 78 435.5 104.5Q446 131 446 162V219H475V158Q475 122 462 91Q449 60 424.5 37.5Q400 15 363.5 2Q327 -11 279 -11Z" glyph-name="Ccircumflex" horiz-adv-x="536" unicode="&#264;" /><glyph d="M263 893H295V805H263ZM279 -11Q181 -11 122.5 38.5Q64 88 64 186V522Q64 566 78.5 603Q93 640 121 667Q149 694 189 709.5Q229 725 279 725Q327 725 363.5 711.5Q400 698 425 675Q450 652 462.5 622Q475 592 475 559V495H446V544Q446 575 436 603Q426 631 405.5 652Q385 673 352.5 685Q320 697 275 697Q230 697 196.5 683.5Q163 670 140.5 646Q118 622 106.5 589Q95 556 95 518V198Q95 150 108.5 115.5Q122 81 146.5 59Q171 37 205 27Q239 17 279 17Q321 17 352.5 28Q384 39 404.5 58.5Q425 78 435.5 104.5Q446 131 446 162V219H475V158Q475 122 462 91Q449 60 424.5 37.5Q400 15 363.5 2Q327 -11 279 -11Z" glyph-name="Cdotaccent" horiz-adv-x="536" unicode="&#266;" /><glyph d="M288 29Q334 29 367 41.5Q400 54 421 76.5Q442 99 451.5 129Q461 159 461 194V519Q461 553 451 583Q441 613 420.5 635.5Q400 658 368 671Q336 684 291 684H114V29ZM83 713H295Q339 713 375.5 701.5Q412 690 438 666.5Q464 643 478.5 608Q493 573 493 526V198Q493 151 478.5 114Q464 77 438 51.5Q412 26 375.5 13Q339 0 294 0H83Z" glyph-name="D" horiz-adv-x="557" unicode="D" /><glyph glyph-name="DEL" horiz-adv-x="0" /><glyph d="M175 908H208L267 798L327 908H359L278 767H253ZM288 29Q334 29 367 41.5Q400 54 421 76.5Q442 99 451.5 129Q461 159 461 194V519Q461 553 451 583Q441 613 420.5 635.5Q400 658 368 671Q336 684 291 684H114V29ZM83 713H295Q339 713 375.5 701.5Q412 690 438 666.5Q464 643 478.5 608Q493 573 493 526V198Q493 151 478.5 114Q464 77 438 51.5Q412 26 375.5 13Q339 0 294 0H83Z" glyph-name="Dcaron" horiz-adv-x="557" unicode="&#270;" /><glyph d="M307 29Q353 29 386 41.5Q419 54 440 76.5Q461 99 470.5 129Q480 159 480 194V519Q480 553 470 583Q460 613 439.5 635.5Q419 658 387 671Q355 684 310 684H133V390H319V364H133V29ZM32 390H102V713H314Q358 713 394.5 701.5Q431 690 457 666.5Q483 643 497.5 608Q512 573 512 526V198Q512 151 497.5 114Q483 77 457 51.5Q431 26 394.5 13Q358 0 313 0H102V364H32Z" glyph-name="Dcroat" horiz-adv-x="576" unicode="&#272;" /><glyph d="M458 27 267 675H264L71 27ZM38 22 249 715H287L494 22V0H38Z" glyph-name="Delta" horiz-adv-x="496" unicode="&#8710;" /><glyph d="M83 713H435V684H114V388H370V360H114V29H435V0H83Z" glyph-name="E" horiz-adv-x="485" unicode="E" /><glyph d="M83 713H435V684H114V388H370V360H114V29H435V0H83ZM328 911H367L266 770H238Z" glyph-name="Eacute" horiz-adv-x="485" unicode="&#201;" /><glyph d="M264 776Q211 776 174 806Q137 836 135 889H163Q167 852 192 827Q217 802 268 802Q310 802 335.5 827Q361 852 366 889H393Q391 860 379 839Q367 818 348.5 804Q330 790 308 783Q286 776 264 776ZM83 713H435V684H114V388H370V360H114V29H435V0H83Z" glyph-name="Ebreve" horiz-adv-x="485" unicode="&#276;" /><glyph d="M171 908H204L263 798L323 908H355L274 767H249ZM83 713H435V684H114V388H370V360H114V29H435V0H83Z" glyph-name="Ecaron" horiz-adv-x="485" unicode="&#282;" /><glyph d="M83 713H435V684H114V388H370V360H114V29H435V0H83ZM249 906H274L352 765H319L260 875L200 765H168Z" glyph-name="Ecircumflex" horiz-adv-x="485" unicode="&#202;" /><glyph d="M83 713H435V684H114V388H370V360H114V29H435V0H83ZM318 887H349V802H318ZM184 887H215V802H184Z" glyph-name="Edieresis" horiz-adv-x="485" unicode="&#203;" /><glyph d="M252 893H284V805H252ZM83 713H435V684H114V388H370V360H114V29H435V0H83Z" glyph-name="Edotaccent" horiz-adv-x="485" unicode="&#278;" /><glyph d="M163 911H202L293 770H265ZM83 713H435V684H114V388H370V360H114V29H435V0H83Z" glyph-name="Egrave" horiz-adv-x="485" unicode="&#200;" /><glyph d="M138 833H382V804H138ZM83 713H435V684H114V388H370V360H114V29H435V0H83Z" glyph-name="Emacron" horiz-adv-x="485" unicode="&#274;" /><glyph d="M390 -189Q382 -189 372.5 -188.5Q363 -188 355 -187V-158Q361 -159 369.5 -159.5Q378 -160 385 -160Q433 -160 449.5 -134.5Q466 -109 466 -67V2L113 666H111V0H83V713H118L468 62H470V713H497V-74Q497 -189 390 -189Z" glyph-name="Eng" horiz-adv-x="580" unicode="&#330;" /><glyph d="M83 713H435V684H114V388H370V360H114V29H435V0H428Q418 -6 406.5 -15.5Q395 -25 385 -38Q375 -51 368.5 -67.5Q362 -84 362 -104Q362 -127 373.5 -143Q385 -159 414 -159Q425 -159 439 -155.5Q453 -152 461 -147L471 -167Q462 -173 447.5 -178.5Q433 -184 410 -184Q379 -184 356 -165.5Q333 -147 333 -109Q333 -74 353.5 -45.5Q374 -17 397 0H83Z" glyph-name="Eogonek" horiz-adv-x="485" unicode="&#280;" /><glyph d="M307 29Q353 29 386 41.5Q419 54 440 76.5Q461 99 470.5 129Q480 159 480 194V519Q480 553 470 583Q460 613 439.5 635.5Q419 658 387 671Q355 684 310 684H133V390H319V364H133V29ZM32 390H102V713H314Q358 713 394.5 701.5Q431 690 457 666.5Q483 643 497.5 608Q512 573 512 526V198Q512 151 497.5 114Q483 77 457 51.5Q431 26 394.5 13Q358 0 313 0H102V364H32Z" glyph-name="Eth" horiz-adv-x="576" unicode="&#208;" /><glyph d="M346 -11Q250 -11 193.5 38.5Q137 88 137 186V270H50V296H137V420H50V447H137V520Q137 563 151 601Q165 639 192 667Q219 695 257.5 711Q296 727 346 727Q394 727 431.5 713Q469 699 494.5 676Q520 653 533.5 622.5Q547 592 547 559V491H517V550Q517 582 506.5 609Q496 636 474.5 656Q453 676 420 687.5Q387 699 342 699Q298 699 265.5 684.5Q233 670 211.5 645.5Q190 621 179.5 587.5Q169 554 169 516V447H427V420H169V296H427V270H169V196Q169 113 214 64Q259 15 346 15Q391 15 423.5 27Q456 39 477 59.5Q498 80 507.5 107.5Q517 135 517 166V212H547V158Q547 122 533.5 91Q520 60 494 37.5Q468 15 431 2Q394 -11 346 -11Z" glyph-name="Euro" horiz-adv-x="595" unicode="&#8364;" /><glyph d="M83 713H435V684H114V388H369V360H114V0H83Z" glyph-name="F" horiz-adv-x="467" unicode="F" /><glyph d="M280 -11Q232 -11 192 1.5Q152 14 123.5 38.5Q95 63 79.5 100Q64 137 64 186V517Q64 560 79 598Q94 636 122 664.5Q150 693 190 709Q230 725 280 725Q328 725 365.5 711Q403 697 428.5 674Q454 651 467.5 620.5Q481 590 481 557V501H451V548Q451 611 406 653Q361 695 276 695Q231 695 197.5 680.5Q164 666 141 641Q118 616 106.5 582.5Q95 549 95 511V191Q95 108 143.5 63Q192 18 280 18Q329 18 363 31Q397 44 417 66Q437 88 446 117Q455 146 455 177V326H285V356H486V168Q486 132 473 99.5Q460 67 434 42.5Q408 18 369.5 3.5Q331 -11 280 -11Z" glyph-name="G" horiz-adv-x="560" unicode="G" /><glyph d="M280 776Q227 776 190 806Q153 836 151 889H179Q183 852 208 827Q233 802 284 802Q326 802 351.5 827Q377 852 382 889H409Q407 860 395 839Q383 818 364.5 804Q346 790 324 783Q302 776 280 776ZM280 -11Q232 -11 192 1.5Q152 14 123.5 38.5Q95 63 79.5 100Q64 137 64 186V517Q64 560 79 598Q94 636 122 664.5Q150 693 190 709Q230 725 280 725Q328 725 365.5 711Q403 697 428.5 674Q454 651 467.5 620.5Q481 590 481 557V501H451V548Q451 611 406 653Q361 695 276 695Q231 695 197.5 680.5Q164 666 141 641Q118 616 106.5 582.5Q95 549 95 511V191Q95 108 143.5 63Q192 18 280 18Q329 18 363 31Q397 44 417 66Q437 88 446 117Q455 146 455 177V326H285V356H486V168Q486 132 473 99.5Q460 67 434 42.5Q408 18 369.5 3.5Q331 -11 280 -11Z" glyph-name="Gbreve" horiz-adv-x="560" unicode="&#286;" /><glyph d="M269 908H294L372 767H339L280 877L220 767H188ZM280 -11Q232 -11 192 1.5Q152 14 123.5 38.5Q95 63 79.5 100Q64 137 64 186V517Q64 560 79 598Q94 636 122 664.5Q150 693 190 709Q230 725 280 725Q328 725 365.5 711Q403 697 428.5 674Q454 651 467.5 620.5Q481 590 481 557V501H451V548Q451 611 406 653Q361 695 276 695Q231 695 197.5 680.5Q164 666 141 641Q118 616 106.5 582.5Q95 549 95 511V191Q95 108 143.5 63Q192 18 280 18Q329 18 363 31Q397 44 417 66Q437 88 446 117Q455 146 455 177V326H285V356H486V168Q486 132 473 99.5Q460 67 434 42.5Q408 18 369.5 3.5Q331 -11 280 -11Z" glyph-name="Gcircumflex" horiz-adv-x="560" unicode="&#284;" /><glyph d="M264 -39H297L283 -183H260ZM280 -11Q232 -11 192 1.5Q152 14 123.5 38.5Q95 63 79.5 100Q64 137 64 186V517Q64 560 79 598Q94 636 122 664.5Q150 693 190 709Q230 725 280 725Q328 725 365.5 711Q403 697 428.5 674Q454 651 467.5 620.5Q481 590 481 557V501H451V548Q451 611 406 653Q361 695 276 695Q231 695 197.5 680.5Q164 666 141 641Q118 616 106.5 582.5Q95 549 95 511V191Q95 108 143.5 63Q192 18 280 18Q329 18 363 31Q397 44 417 66Q437 88 446 117Q455 146 455 177V326H285V356H486V168Q486 132 473 99.5Q460 67 434 42.5Q408 18 369.5 3.5Q331 -11 280 -11Z" glyph-name="Gcommaaccent" horiz-adv-x="560" unicode="&#290;" /><glyph d="M264 893H296V805H264ZM280 -11Q232 -11 192 1.5Q152 14 123.5 38.5Q95 63 79.5 100Q64 137 64 186V517Q64 560 79 598Q94 636 122 664.5Q150 693 190 709Q230 725 280 725Q328 725 365.5 711Q403 697 428.5 674Q454 651 467.5 620.5Q481 590 481 557V501H451V548Q451 611 406 653Q361 695 276 695Q231 695 197.5 680.5Q164 666 141 641Q118 616 106.5 582.5Q95 549 95 511V191Q95 108 143.5 63Q192 18 280 18Q329 18 363 31Q397 44 417 66Q437 88 446 117Q455 146 455 177V326H285V356H486V168Q486 132 473 99.5Q460 67 434 42.5Q408 18 369.5 3.5Q331 -11 280 -11Z" glyph-name="Gdotaccent" horiz-adv-x="560" unicode="&#288;" /><glyph d="M83 713H114V386H472V713H503V0H472V357H114V0H83Z" glyph-name="H" horiz-adv-x="586" unicode="H" /><glyph d="M490 386V570H132V386ZM32 598H101V713H132V598H490V713H521V598H591V570H521V0H490V357H132V0H101V570H32Z" glyph-name="Hbar" horiz-adv-x="623" unicode="&#294;" /><glyph d="M282 908H307L385 767H352L293 877L233 767H201ZM83 713H114V386H472V713H503V0H472V357H114V0H83Z" glyph-name="Hcircumflex" horiz-adv-x="586" unicode="&#292;" /><glyph d="M83 713H114V0H83Z" glyph-name="I" horiz-adv-x="197" unicode="I" /><glyph d="M32 713H356V684H209V29H356V0H32V29H178V684H32Z" glyph-name="I.alt" horiz-adv-x="388" unicode="&#58504;" /><glyph d="M391 -12Q306 -12 256 34.5Q206 81 206 167V248H236V174Q236 144 243 116Q250 88 268 66Q286 44 316.5 31Q347 18 394 18Q438 18 468 31.5Q498 45 516 67Q534 89 542 116Q550 143 550 170V713H581V187Q581 145 570.5 109Q560 73 537 46Q514 19 478 3.5Q442 -12 391 -12ZM83 713H114V0H83Z" glyph-name="IJ" horiz-adv-x="661" unicode="&#306;" /><glyph d="M545 -12Q460 -12 410 34.5Q360 81 360 167V248H390V174Q390 144 397 116Q404 88 422 66Q440 44 470.5 31Q501 18 548 18Q592 18 622 31.5Q652 45 670 67Q688 89 696 116Q704 143 704 170V713H735V187Q735 145 724.5 109Q714 73 691 46Q668 19 632 3.5Q596 -12 545 -12ZM32 713H356V684H209V29H356V0H32V29H178V684H32Z" glyph-name="IJ.alt" horiz-adv-x="815" /><glyph d="M166 911H205L104 770H76ZM75 713H106V0H75Z" glyph-name="Iacute" horiz-adv-x="177" unicode="&#205;" /><glyph d="M265 911H304L203 770H175ZM24 713H348V684H201V29H348V0H24V29H170V684H24Z" glyph-name="Iacute.alt" horiz-adv-x="372" unicode="&#57651;" /><glyph d="M99 776Q46 776 9 806Q-28 836 -30 889H-2Q2 852 27 827Q52 802 103 802Q145 802 170.5 827Q196 852 201 889H228Q226 860 214 839Q202 818 183.5 804Q165 790 143 783Q121 776 99 776ZM83 713H114V0H83Z" glyph-name="Ibreve" horiz-adv-x="197" unicode="&#300;" /><glyph d="M177 774Q124 774 87 804Q50 834 48 887H76Q80 850 105 825Q130 800 181 800Q223 800 248.5 825Q274 850 279 887H306Q304 858 292 837Q280 816 261.5 802Q243 788 221 781Q199 774 177 774ZM24 713H348V684H201V29H348V0H24V29H170V684H24Z" glyph-name="Ibreve.alt" horiz-adv-x="372" unicode="&#57657;" /><glyph d="M79 906H104L182 765H149L90 875L30 765H-2ZM75 713H106V0H75Z" glyph-name="Icircumflex" horiz-adv-x="177" unicode="&#206;" /><glyph d="M175 906H200L278 765H245L186 875L126 765H94ZM24 713H348V684H201V29H348V0H24V29H170V684H24Z" glyph-name="Icircumflex.alt" horiz-adv-x="372" unicode="&#57652;" /><glyph d="M141 887H172V802H141ZM7 887H38V802H7ZM75 713H106V0H75Z" glyph-name="Idieresis" horiz-adv-x="177" unicode="&#207;" /><glyph d="M238 887H269V802H238ZM104 887H135V802H104ZM24 713H348V684H201V29H348V0H24V29H170V684H24Z" glyph-name="Idieresis.alt" horiz-adv-x="372" unicode="&#57653;" /><glyph d="M82 893H114V805H82ZM83 713H114V0H83Z" glyph-name="Idotaccent" horiz-adv-x="197" unicode="&#304;" /><glyph d="M170 891H202V803H170ZM24 713H348V684H201V29H348V0H24V29H170V684H24Z" glyph-name="Idotaccent.alt" horiz-adv-x="372" unicode="&#57660;" /><glyph d="M-27 911H12L103 770H75ZM75 713H106V0H75Z" glyph-name="Igrave" horiz-adv-x="177" unicode="&#204;" /><glyph d="M76 911H115L206 770H178ZM24 713H348V684H201V29H348V0H24V29H170V684H24Z" glyph-name="Igrave.alt" horiz-adv-x="372" unicode="&#57650;" /><glyph d="M-23 833H221V804H-23ZM83 713H114V0H83Z" glyph-name="Imacron" horiz-adv-x="197" unicode="&#298;" /><glyph d="M64 831H308V802H64ZM24 713H348V684H201V29H348V0H24V29H170V684H24Z" glyph-name="Imacron.alt" horiz-adv-x="372" unicode="&#57656;" /><glyph d="M83 713H114V0Q98 -13 80.5 -36.5Q63 -60 63 -102Q63 -125 73.5 -142.5Q84 -160 113 -160Q121 -160 128.5 -158.5Q136 -157 140 -155L146 -177Q141 -179 130.5 -181.5Q120 -184 108 -184Q77 -184 54.5 -165.5Q32 -147 32 -109Q32 -75 49 -45.5Q66 -16 84 0H83Z" glyph-name="Iogonek" horiz-adv-x="197" unicode="&#302;" /><glyph d="M297 -184Q266 -184 243 -165.5Q220 -147 220 -109Q220 -74 240.5 -45.5Q261 -17 284 0H24V29H170V684H24V713H348V684H201V29H348V0H315Q305 -6 293.5 -15.5Q282 -25 272 -38Q262 -51 255.5 -67.5Q249 -84 249 -104Q249 -127 260.5 -143Q272 -159 301 -159Q312 -159 326 -155.5Q340 -152 348 -147L358 -167Q349 -173 334.5 -178.5Q320 -184 297 -184Z" glyph-name="Iogonek.alt" horiz-adv-x="372" unicode="&#57662;" /><glyph d="M-39 779Q-36 808 -18.5 828.5Q-1 849 29 849Q46 849 63.5 843Q81 837 98.5 830.5Q116 824 133.5 818Q151 812 169 812Q189 812 199 824.5Q209 837 215 857L237 853Q232 823 213.5 803Q195 783 168 783Q150 783 131 789Q112 795 94 802Q76 809 59 815Q42 821 27 821Q4 821 -3.5 807Q-11 793 -16 777ZM83 713H114V0H83Z" glyph-name="Itilde" horiz-adv-x="197" unicode="&#296;" /><glyph d="M48 777Q51 806 68.5 826.5Q86 847 116 847Q133 847 150.5 841Q168 835 185.5 828.5Q203 822 220.5 816Q238 810 256 810Q276 810 286 822.5Q296 835 302 855L324 851Q319 821 300.5 801Q282 781 255 781Q237 781 218 787Q199 793 181 800Q163 807 146 813Q129 819 114 819Q91 819 83.5 805Q76 791 71 775ZM24 713H348V684H201V29H348V0H24V29H170V684H24Z" glyph-name="Itilde.alt" horiz-adv-x="372" unicode="&#57654;" /><glyph d="M228 -12Q143 -12 93 34.5Q43 81 43 167V248H73V174Q73 144 80 116Q87 88 105 66Q123 44 153.5 31Q184 18 231 18Q275 18 305 31.5Q335 45 353 67Q371 89 379 116Q387 143 387 170V713H418V187Q418 145 407.5 109Q397 73 374 46Q351 19 315 3.5Q279 -12 228 -12Z" glyph-name="J" horiz-adv-x="498" unicode="J" /><glyph d="M238 921H263L341 780H308L249 890L189 780H157ZM228 -12Q143 -12 93 34.5Q43 81 43 167V248H73V174Q73 144 80 116Q87 88 105 66Q123 44 153.5 31Q184 18 231 18Q275 18 305 31.5Q335 45 353 67Q371 89 379 116Q387 143 387 170V713H418V187Q418 145 407.5 109Q397 73 374 46Q351 19 315 3.5Q279 -12 228 -12Z" glyph-name="Jcircumflex" horiz-adv-x="498" unicode="&#308;" /><glyph d="M83 713H114V311L447 713H483L257 440L491 0H454L234 414L114 272V0H83Z" glyph-name="K" horiz-adv-x="523" unicode="K" /><glyph d="M246 -39H279L265 -183H242ZM83 713H114V311L447 713H483L257 440L491 0H454L234 414L114 272V0H83Z" glyph-name="Kcommaaccent" horiz-adv-x="523" unicode="&#310;" /><glyph d="M83 713H114V29H435V0H83Z" glyph-name="L" horiz-adv-x="467" unicode="L" /><glyph glyph-name="LF" horiz-adv-x="15" /><glyph d="M189 913H228L127 772H99ZM83 713H114V29H435V0H83Z" glyph-name="Lacute" horiz-adv-x="467" unicode="&#313;" /><glyph d="M251 713H282L270 571H247ZM83 713H114V29H435V0H83Z" glyph-name="Lcaron" horiz-adv-x="467" unicode="&#317;" /><glyph d="M249 -39H282L268 -183H245ZM83 713H114V29H435V0H83Z" glyph-name="Lcommaaccent" horiz-adv-x="467" unicode="&#315;" /><glyph d="M285 411H314V335H285ZM83 713H114V29H435V0H83Z" glyph-name="Ldot" horiz-adv-x="467" unicode="&#319;" /><glyph d="M32 279 111 345V713H142V371L295 499V464L142 336V29H463V0H111V310L32 244Z" glyph-name="Lslash" horiz-adv-x="495" unicode="&#321;" /><glyph d="M83 713H125L323 330H325L521 713H564V0H532V665H530L336 288H309L116 664H113V0H83Z" glyph-name="M" horiz-adv-x="647" unicode="M" /><glyph d="M83 713H118L468 62H470V713H497V0H467L113 666H111V0H83Z" glyph-name="N" horiz-adv-x="580" unicode="N" /><glyph d="M315 926H354L253 785H225ZM83 713H118L468 62H470V713H497V0H467L113 666H111V0H83Z" glyph-name="Nacute" horiz-adv-x="580" unicode="&#323;" /><glyph d="M198 908H231L290 798L350 908H382L301 767H276ZM83 713H118L468 62H470V713H497V0H467L113 666H111V0H83Z" glyph-name="Ncaron" horiz-adv-x="580" unicode="&#327;" /><glyph d="M274 -39H307L293 -183H270ZM83 713H118L468 62H470V713H497V0H467L113 666H111V0H83Z" glyph-name="Ncommaaccent" horiz-adv-x="580" unicode="&#325;" /><glyph d="M160 777Q163 806 180.5 826.5Q198 847 228 847Q245 847 262.5 841Q280 835 297.5 828.5Q315 822 332.5 816Q350 810 368 810Q388 810 398 822.5Q408 835 414 855L436 851Q431 821 412.5 801Q394 781 367 781Q349 781 330 787Q311 793 293 800Q275 807 258 813Q241 819 226 819Q203 819 195.5 805Q188 791 183 775ZM83 713H118L468 62H470V713H497V0H467L113 666H111V0H83Z" glyph-name="Ntilde" horiz-adv-x="580" unicode="&#209;" /><glyph d="M281 20Q325 20 359 33Q393 46 416.5 70Q440 94 452.5 127Q465 160 465 200V524Q465 603 416 648.5Q367 694 277 694Q189 694 142.5 645.5Q96 597 96 507V197Q96 116 144 68Q192 20 281 20ZM280 -11Q233 -11 193.5 1.5Q154 14 125 39Q96 64 80 102Q64 140 64 190V509Q64 559 79.5 599Q95 639 123.5 667Q152 695 192 710Q232 725 281 725Q328 725 367.5 712.5Q407 700 436 675Q465 650 481 612.5Q497 575 497 526V206Q497 155 481.5 114.5Q466 74 437.5 46.5Q409 19 369 4Q329 -11 280 -11Z" glyph-name="O" horiz-adv-x="561" unicode="O" /><glyph d="M281 17Q325 17 359 31Q393 45 416.5 69.5Q440 94 452.5 127.5Q465 161 465 200V527Q465 606 416 651.5Q367 697 277 697Q189 697 142.5 647.5Q96 598 96 509V197Q96 116 144 66.5Q192 17 281 17ZM276 -11Q230 -11 191 1.5Q152 14 124 39Q96 64 80 102Q64 140 64 190V512Q64 562 79.5 602Q95 642 123 669.5Q151 697 191 712Q231 727 279 727Q344 727 392.5 702Q441 677 465 629V714H817V685H496V388H752V360H496V29H818V0H465V97Q442 47 393.5 18Q345 -11 276 -11Z" glyph-name="OE" horiz-adv-x="868" unicode="&#338;" /><glyph d="M281 20Q325 20 359 33Q393 46 416.5 70Q440 94 452.5 127Q465 160 465 200V524Q465 603 416 648.5Q367 694 277 694Q189 694 142.5 645.5Q96 597 96 507V197Q96 116 144 68Q192 20 281 20ZM280 -11Q233 -11 193.5 1.5Q154 14 125 39Q96 64 80 102Q64 140 64 190V509Q64 559 79.5 599Q95 639 123.5 667Q152 695 192 710Q232 725 281 725Q328 725 367.5 712.5Q407 700 436 675Q465 650 481 612.5Q497 575 497 526V206Q497 155 481.5 114.5Q466 74 437.5 46.5Q409 19 369 4Q329 -11 280 -11ZM350 911H389L288 770H260Z" glyph-name="Oacute" horiz-adv-x="561" unicode="&#211;" /><glyph d="M280 776Q227 776 190 806Q153 836 151 889H179Q183 852 208 827Q233 802 284 802Q326 802 351.5 827Q377 852 382 889H409Q407 860 395 839Q383 818 364.5 804Q346 790 324 783Q302 776 280 776ZM281 20Q325 20 359 33Q393 46 416.5 70Q440 94 452.5 127Q465 160 465 200V524Q465 603 416 648.5Q367 694 277 694Q189 694 142.5 645.5Q96 597 96 507V197Q96 116 144 68Q192 20 281 20ZM280 -11Q233 -11 193.5 1.5Q154 14 125 39Q96 64 80 102Q64 140 64 190V509Q64 559 79.5 599Q95 639 123.5 667Q152 695 192 710Q232 725 281 725Q328 725 367.5 712.5Q407 700 436 675Q465 650 481 612.5Q497 575 497 526V206Q497 155 481.5 114.5Q466 74 437.5 46.5Q409 19 369 4Q329 -11 280 -11Z" glyph-name="Obreve" horiz-adv-x="561" unicode="&#334;" /><glyph d="M281 20Q325 20 359 33Q393 46 416.5 70Q440 94 452.5 127Q465 160 465 200V524Q465 603 416 648.5Q367 694 277 694Q189 694 142.5 645.5Q96 597 96 507V197Q96 116 144 68Q192 20 281 20ZM280 -11Q233 -11 193.5 1.5Q154 14 125 39Q96 64 80 102Q64 140 64 190V509Q64 559 79.5 599Q95 639 123.5 667Q152 695 192 710Q232 725 281 725Q328 725 367.5 712.5Q407 700 436 675Q465 650 481 612.5Q497 575 497 526V206Q497 155 481.5 114.5Q466 74 437.5 46.5Q409 19 369 4Q329 -11 280 -11ZM269 906H294L372 765H339L280 875L220 765H188Z" glyph-name="Ocircumflex" horiz-adv-x="561" unicode="&#212;" /><glyph d="M281 20Q325 20 359 33Q393 46 416.5 70Q440 94 452.5 127Q465 160 465 200V524Q465 603 416 648.5Q367 694 277 694Q189 694 142.5 645.5Q96 597 96 507V197Q96 116 144 68Q192 20 281 20ZM280 -11Q233 -11 193.5 1.5Q154 14 125 39Q96 64 80 102Q64 140 64 190V509Q64 559 79.5 599Q95 639 123.5 667Q152 695 192 710Q232 725 281 725Q328 725 367.5 712.5Q407 700 436 675Q465 650 481 612.5Q497 575 497 526V206Q497 155 481.5 114.5Q466 74 437.5 46.5Q409 19 369 4Q329 -11 280 -11ZM330 887H361V802H330ZM196 887H227V802H196Z" glyph-name="Odieresis" horiz-adv-x="561" unicode="&#214;" /><glyph d="M176 911H215L306 770H278ZM281 20Q325 20 359 33Q393 46 416.5 70Q440 94 452.5 127Q465 160 465 200V524Q465 603 416 648.5Q367 694 277 694Q189 694 142.5 645.5Q96 597 96 507V197Q96 116 144 68Q192 20 281 20ZM280 -11Q233 -11 193.5 1.5Q154 14 125 39Q96 64 80 102Q64 140 64 190V509Q64 559 79.5 599Q95 639 123.5 667Q152 695 192 710Q232 725 281 725Q328 725 367.5 712.5Q407 700 436 675Q465 650 481 612.5Q497 575 497 526V206Q497 155 481.5 114.5Q466 74 437.5 46.5Q409 19 369 4Q329 -11 280 -11Z" glyph-name="Ograve" horiz-adv-x="561" unicode="&#210;" /><glyph d="M365 892H402L339 765H312ZM259 892H296L233 765H206ZM281 20Q325 20 359 33Q393 46 416.5 70Q440 94 452.5 127Q465 160 465 200V524Q465 603 416 648.5Q367 694 277 694Q189 694 142.5 645.5Q96 597 96 507V197Q96 116 144 68Q192 20 281 20ZM280 -11Q233 -11 193.5 1.5Q154 14 125 39Q96 64 80 102Q64 140 64 190V509Q64 559 79.5 599Q95 639 123.5 667Q152 695 192 710Q232 725 281 725Q328 725 367.5 712.5Q407 700 436 675Q465 650 481 612.5Q497 575 497 526V206Q497 155 481.5 114.5Q466 74 437.5 46.5Q409 19 369 4Q329 -11 280 -11Z" glyph-name="Ohungarumlaut" horiz-adv-x="561" unicode="&#336;" /><glyph d="M168 833H412V804H168ZM281 20Q325 20 359 33Q393 46 416.5 70Q440 94 452.5 127Q465 160 465 200V524Q465 603 416 648.5Q367 694 277 694Q189 694 142.5 645.5Q96 597 96 507V197Q96 116 144 68Q192 20 281 20ZM280 -11Q233 -11 193.5 1.5Q154 14 125 39Q96 64 80 102Q64 140 64 190V509Q64 559 79.5 599Q95 639 123.5 667Q152 695 192 710Q232 725 281 725Q328 725 367.5 712.5Q407 700 436 675Q465 650 481 612.5Q497 575 497 526V206Q497 155 481.5 114.5Q466 74 437.5 46.5Q409 19 369 4Q329 -11 280 -11Z" glyph-name="Omacron" horiz-adv-x="561" unicode="&#332;" /><glyph d="M57 34 186 30V34Q150 76 126.5 125.5Q103 175 88.5 225Q74 275 68 322.5Q62 370 62 409V414Q62 570 122 647.5Q182 725 286 725Q344 725 386.5 701Q429 677 456.5 635Q484 593 497 536.5Q510 480 510 416V412Q510 350 499 292Q488 234 470 184Q452 134 430 95.5Q408 57 387 34V30L515 34V0H332V5Q356 36 381.5 72Q407 108 428 155Q449 202 462.5 264.5Q476 327 476 411V443Q476 497 463.5 543.5Q451 590 427 624Q403 658 367 677Q331 696 284 696Q242 696 207 678.5Q172 661 147.5 628.5Q123 596 109.5 549Q96 502 96 444V416Q96 329 110.5 264Q125 199 147 150.5Q169 102 195 67Q221 32 244 5V0H57Z" glyph-name="Omega" horiz-adv-x="572" unicode="&#8486;" /><glyph d="M281 20Q325 20 359 33Q393 46 416.5 70Q440 94 452.5 127Q465 160 465 200V524Q465 593 426 638L158 56Q181 39 212 29.5Q243 20 281 20ZM96 197Q96 122 137 76L404 657Q356 694 277 694Q189 694 142.5 645.5Q96 597 96 507ZM88 -30 121 42Q94 68 79 104.5Q64 141 64 190V509Q64 559 79.5 599Q95 639 123.5 667Q152 695 192 710Q232 725 281 725Q362 725 418 688L448 752L474 742L441 670Q467 644 482 608.5Q497 573 497 526V206Q497 155 481.5 114.5Q466 74 437.5 46.5Q409 19 369 4Q329 -11 280 -11Q198 -11 144 25L114 -40Z" glyph-name="Oslash" horiz-adv-x="561" unicode="&#216;" /><glyph d="M350 911H389L288 770H260ZM281 20Q325 20 359 33Q393 46 416.5 70Q440 94 452.5 127Q465 160 465 200V524Q465 593 426 638L158 56Q181 39 212 29.5Q243 20 281 20ZM96 197Q96 122 137 76L404 657Q356 694 277 694Q189 694 142.5 645.5Q96 597 96 507ZM88 -30 121 42Q94 68 79 104.5Q64 141 64 190V509Q64 559 79.5 599Q95 639 123.5 667Q152 695 192 710Q232 725 281 725Q362 725 418 688L448 752L474 742L441 670Q467 644 482 608.5Q497 573 497 526V206Q497 155 481.5 114.5Q466 74 437.5 46.5Q409 19 369 4Q329 -11 280 -11Q198 -11 144 25L114 -40Z" glyph-name="Oslashacute" horiz-adv-x="561" unicode="&#510;" /><glyph d="M140 777Q143 806 160.5 826.5Q178 847 208 847Q225 847 242.5 841Q260 835 277.5 828.5Q295 822 312.5 816Q330 810 348 810Q368 810 378 822.5Q388 835 394 855L416 851Q411 821 392.5 801Q374 781 347 781Q329 781 310 787Q291 793 273 800Q255 807 238 813Q221 819 206 819Q183 819 175.5 805Q168 791 163 775ZM281 20Q325 20 359 33Q393 46 416.5 70Q440 94 452.5 127Q465 160 465 200V524Q465 603 416 648.5Q367 694 277 694Q189 694 142.5 645.5Q96 597 96 507V197Q96 116 144 68Q192 20 281 20ZM280 -11Q233 -11 193.5 1.5Q154 14 125 39Q96 64 80 102Q64 140 64 190V509Q64 559 79.5 599Q95 639 123.5 667Q152 695 192 710Q232 725 281 725Q328 725 367.5 712.5Q407 700 436 675Q465 650 481 612.5Q497 575 497 526V206Q497 155 481.5 114.5Q466 74 437.5 46.5Q409 19 369 4Q329 -11 280 -11Z" glyph-name="Otilde" horiz-adv-x="561" unicode="&#213;" /><glyph d="M238 329Q328 329 377 374.5Q426 420 426 510Q426 546 416 578Q406 610 386 633.5Q366 657 336.5 670.5Q307 684 267 684H114V329ZM83 713H267Q315 713 351 697Q387 681 411 654Q435 627 447 590.5Q459 554 459 512Q459 415 403 358Q347 301 246 301H114V0H83Z" glyph-name="P" horiz-adv-x="519" unicode="P" /><glyph d="M281 20Q325 20 359 33Q393 46 416.5 70Q440 94 452.5 127Q465 160 465 200V524Q465 603 416 648.5Q367 694 277 694Q189 694 142.5 645.5Q96 597 96 507V197Q96 116 144 68Q192 20 281 20ZM342 -3Q312 -11 280 -11Q233 -11 193.5 1.5Q154 14 125 39Q96 64 80 102Q64 140 64 190V509Q64 559 79.5 599Q95 639 123.5 667Q152 695 192 710Q232 725 281 725Q328 725 367.5 712.5Q407 700 436 675Q465 650 481 612.5Q497 575 497 526V206Q497 133 466.5 83Q436 33 381 10L508 -52L491 -85Z" glyph-name="Q" horiz-adv-x="561" unicode="Q" /><glyph d="M255 342Q434 342 434 514Q434 551 424.5 582Q415 613 394.5 636Q374 659 342 672Q310 685 264 685H114V342ZM83 713H269Q366 713 416 659.5Q466 606 466 517Q466 476 455.5 441.5Q445 407 423.5 381Q402 355 370 338.5Q338 322 295 319L489 0H452L262 315H114V0H83Z" glyph-name="R" horiz-adv-x="534" unicode="R" /><glyph glyph-name="RS" horiz-adv-x="15" /><glyph d="M303 913H342L241 772H213ZM255 342Q434 342 434 514Q434 551 424.5 582Q415 613 394.5 636Q374 659 342 672Q310 685 264 685H114V342ZM83 713H269Q366 713 416 659.5Q466 606 466 517Q466 476 455.5 441.5Q445 407 423.5 381Q402 355 370 338.5Q338 322 295 319L489 0H452L262 315H114V0H83Z" glyph-name="Racute" horiz-adv-x="534" unicode="&#340;" /><glyph d="M156 908H189L248 798L308 908H340L259 767H234ZM255 342Q434 342 434 514Q434 551 424.5 582Q415 613 394.5 636Q374 659 342 672Q310 685 264 685H114V342ZM83 713H269Q366 713 416 659.5Q466 606 466 517Q466 476 455.5 441.5Q445 407 423.5 381Q402 355 370 338.5Q338 322 295 319L489 0H452L262 315H114V0H83Z" glyph-name="Rcaron" horiz-adv-x="534" unicode="&#344;" /><glyph d="M251 -39H284L270 -183H247ZM255 342Q434 342 434 514Q434 551 424.5 582Q415 613 394.5 636Q374 659 342 672Q310 685 264 685H114V342ZM83 713H269Q366 713 416 659.5Q466 606 466 517Q466 476 455.5 441.5Q445 407 423.5 381Q402 355 370 338.5Q338 322 295 319L489 0H452L262 315H114V0H83Z" glyph-name="Rcommaaccent" horiz-adv-x="534" unicode="&#342;" /><glyph d="M235 -11Q170 -11 121.5 8.5Q73 28 35 64L55 88Q98 51 138.5 35Q179 19 237 19Q273 19 301.5 31Q330 43 350.5 63.5Q371 84 381.5 111.5Q392 139 392 170Q392 207 380.5 233.5Q369 260 351 279.5Q333 299 310 313.5Q287 328 264 340L182 382Q122 411 88.5 453Q55 495 55 552Q55 590 69 622Q83 654 107.5 677Q132 700 166 713Q200 726 241 726Q298 726 343 709Q388 692 417 665L399 643Q386 652 370.5 662Q355 672 335 680Q315 688 290 693Q265 698 234 698Q205 698 178.5 688.5Q152 679 131.5 661Q111 643 99 616.5Q87 590 87 557Q87 508 115.5 472Q144 436 201 409L280 369Q312 352 338.5 333Q365 314 384 290.5Q403 267 413.5 238Q424 209 424 173Q424 134 411 100.5Q398 67 374 42.5Q350 18 315 3.5Q280 -11 235 -11Z" glyph-name="S" horiz-adv-x="483" unicode="S" /><glyph d="M318 913H357L256 772H228ZM235 -11Q170 -11 121.5 8.5Q73 28 35 64L55 88Q98 51 138.5 35Q179 19 237 19Q273 19 301.5 31Q330 43 350.5 63.5Q371 84 381.5 111.5Q392 139 392 170Q392 207 380.5 233.5Q369 260 351 279.5Q333 299 310 313.5Q287 328 264 340L182 382Q122 411 88.5 453Q55 495 55 552Q55 590 69 622Q83 654 107.5 677Q132 700 166 713Q200 726 241 726Q298 726 343 709Q388 692 417 665L399 643Q386 652 370.5 662Q355 672 335 680Q315 688 290 693Q265 698 234 698Q205 698 178.5 688.5Q152 679 131.5 661Q111 643 99 616.5Q87 590 87 557Q87 508 115.5 472Q144 436 201 409L280 369Q312 352 338.5 333Q365 314 384 290.5Q403 267 413.5 238Q424 209 424 173Q424 134 411 100.5Q398 67 374 42.5Q350 18 315 3.5Q280 -11 235 -11Z" glyph-name="Sacute" horiz-adv-x="483" unicode="&#346;" /><glyph d="M235 -11Q170 -11 121.5 8.5Q73 28 35 64L55 88Q98 51 138.5 35Q179 19 237 19Q273 19 301.5 31Q330 43 350.5 63.5Q371 84 381.5 111.5Q392 139 392 170Q392 207 380.5 233.5Q369 260 351 279.5Q333 299 310 313.5Q287 328 264 340L182 382Q122 411 88.5 453Q55 495 55 552Q55 590 69 622Q83 654 107.5 677Q132 700 166 713Q200 726 241 726Q298 726 343 709Q388 692 417 665L399 643Q386 652 370.5 662Q355 672 335 680Q315 688 290 693Q265 698 234 698Q205 698 178.5 688.5Q152 679 131.5 661Q111 643 99 616.5Q87 590 87 557Q87 508 115.5 472Q144 436 201 409L280 369Q312 352 338.5 333Q365 314 384 290.5Q403 267 413.5 238Q424 209 424 173Q424 134 411 100.5Q398 67 374 42.5Q350 18 315 3.5Q280 -11 235 -11ZM154 906H187L246 796L306 906H338L257 765H232Z" glyph-name="Scaron" horiz-adv-x="483" unicode="&#352;" /><glyph d="M232 -189Q218 -189 198 -186Q178 -183 161 -178V-151Q178 -156 196 -159Q214 -162 235 -162Q258 -162 274.5 -153.5Q291 -145 291 -125Q291 -89 227 -85L199 -83L218 -10Q159 -8 114.5 11Q70 30 35 64L55 88Q98 51 138.5 35Q179 19 237 19Q273 19 301.5 31Q330 43 350.5 63.5Q371 84 381.5 111.5Q392 139 392 170Q392 207 380.5 233.5Q369 260 351 279.5Q333 299 310 313.5Q287 328 264 340L182 382Q122 411 88.5 453Q55 495 55 552Q55 590 69 622Q83 654 107.5 677Q132 700 166 713Q200 726 241 726Q298 726 343 709Q388 692 417 665L399 643Q386 652 370.5 662Q355 672 335 680Q315 688 290 693Q265 698 234 698Q205 698 178.5 688.5Q152 679 131.5 661Q111 643 99 616.5Q87 590 87 557Q87 508 115.5 472Q144 436 201 409L280 369Q312 352 338.5 333Q365 314 384 290.5Q403 267 413.5 238Q424 209 424 173Q424 135 412 102Q400 69 376.5 44.5Q353 20 319.5 5Q286 -10 244 -11L231 -61Q269 -63 295.5 -77.5Q322 -92 322 -125Q322 -151 299 -170Q276 -189 232 -189Z" glyph-name="Scedilla" horiz-adv-x="483" unicode="&#350;" /><glyph d="M230 908H255L333 767H300L241 877L181 767H149ZM235 -11Q170 -11 121.5 8.5Q73 28 35 64L55 88Q98 51 138.5 35Q179 19 237 19Q273 19 301.5 31Q330 43 350.5 63.5Q371 84 381.5 111.5Q392 139 392 170Q392 207 380.5 233.5Q369 260 351 279.5Q333 299 310 313.5Q287 328 264 340L182 382Q122 411 88.5 453Q55 495 55 552Q55 590 69 622Q83 654 107.5 677Q132 700 166 713Q200 726 241 726Q298 726 343 709Q388 692 417 665L399 643Q386 652 370.5 662Q355 672 335 680Q315 688 290 693Q265 698 234 698Q205 698 178.5 688.5Q152 679 131.5 661Q111 643 99 616.5Q87 590 87 557Q87 508 115.5 472Q144 436 201 409L280 369Q312 352 338.5 333Q365 314 384 290.5Q403 267 413.5 238Q424 209 424 173Q424 134 411 100.5Q398 67 374 42.5Q350 18 315 3.5Q280 -11 235 -11Z" glyph-name="Scircumflex" horiz-adv-x="483" unicode="&#348;" /><glyph d="M233 -39H266L252 -183H229ZM235 -11Q170 -11 121.5 8.5Q73 28 35 64L55 88Q98 51 138.5 35Q179 19 237 19Q273 19 301.5 31Q330 43 350.5 63.5Q371 84 381.5 111.5Q392 139 392 170Q392 207 380.5 233.5Q369 260 351 279.5Q333 299 310 313.5Q287 328 264 340L182 382Q122 411 88.5 453Q55 495 55 552Q55 590 69 622Q83 654 107.5 677Q132 700 166 713Q200 726 241 726Q298 726 343 709Q388 692 417 665L399 643Q386 652 370.5 662Q355 672 335 680Q315 688 290 693Q265 698 234 698Q205 698 178.5 688.5Q152 679 131.5 661Q111 643 99 616.5Q87 590 87 557Q87 508 115.5 472Q144 436 201 409L280 369Q312 352 338.5 333Q365 314 384 290.5Q403 267 413.5 238Q424 209 424 173Q424 134 411 100.5Q398 67 374 42.5Q350 18 315 3.5Q280 -11 235 -11Z" glyph-name="Scommaaccent" horiz-adv-x="483" unicode="&#536;" /><glyph d="M232 684H21V713H472V684H263V0H232Z" glyph-name="T" horiz-adv-x="493" unicode="T" /><glyph d="M124 361H232V684H21V713H472V684H263V361H368V333H263V0H232V333H124Z" glyph-name="Tbar" horiz-adv-x="493" unicode="&#358;" /><glyph d="M154 908H187L246 798L306 908H338L257 767H232ZM232 684H21V713H472V684H263V0H232Z" glyph-name="Tcaron" horiz-adv-x="493" unicode="&#356;" /><glyph d="M231 -39H264L250 -183H227ZM232 684H21V713H472V684H263V0H232Z" glyph-name="Tcommaaccent" horiz-adv-x="493" unicode="&#354;" /><glyph d="M238 189Q329 189 378 234Q427 279 427 370Q427 406 416 437.5Q405 469 384.5 492.5Q364 516 334 529.5Q304 543 265 543H115V189ZM84 713H115V571H267Q316 571 352 555Q388 539 412 512Q436 485 448 448Q460 411 460 369Q460 272 403.5 216.5Q347 161 247 161H115V0H84Z" glyph-name="Thorn" horiz-adv-x="515" unicode="&#222;" /><glyph d="M288 -12Q250 -12 213 -1.5Q176 9 146 32.5Q116 56 97.5 94Q79 132 79 187V713H110V199Q110 147 126 112Q142 77 167.5 56Q193 35 225.5 26Q258 17 291 17Q376 17 424 65Q472 113 469 193V713H498V190Q499 143 484 105.5Q469 68 441.5 42Q414 16 375 2Q336 -12 288 -12Z" glyph-name="U" horiz-adv-x="578" unicode="U" /><glyph glyph-name="US" horiz-adv-x="15" /><glyph d="M288 -12Q250 -12 213 -1.5Q176 9 146 32.5Q116 56 97.5 94Q79 132 79 187V713H110V199Q110 147 126 112Q142 77 167.5 56Q193 35 225.5 26Q258 17 291 17Q376 17 424 65Q472 113 469 193V713H498V190Q499 143 484 105.5Q469 68 441.5 42Q414 16 375 2Q336 -12 288 -12ZM359 911H398L297 770H269Z" glyph-name="Uacute" horiz-adv-x="578" unicode="&#218;" /><glyph d="M298 776Q245 776 208 806Q171 836 169 889H197Q201 852 226 827Q251 802 302 802Q344 802 369.5 827Q395 852 400 889H427Q425 860 413 839Q401 818 382.5 804Q364 790 342 783Q320 776 298 776ZM288 -12Q250 -12 213 -1.5Q176 9 146 32.5Q116 56 97.5 94Q79 132 79 187V713H110V199Q110 147 126 112Q142 77 167.5 56Q193 35 225.5 26Q258 17 291 17Q376 17 424 65Q472 113 469 193V713H498V190Q499 143 484 105.5Q469 68 441.5 42Q414 16 375 2Q336 -12 288 -12Z" glyph-name="Ubreve" horiz-adv-x="578" unicode="&#364;" /><glyph d="M288 -12Q250 -12 213 -1.5Q176 9 146 32.5Q116 56 97.5 94Q79 132 79 187V713H110V199Q110 147 126 112Q142 77 167.5 56Q193 35 225.5 26Q258 17 291 17Q376 17 424 65Q472 113 469 193V713H498V190Q499 143 484 105.5Q469 68 441.5 42Q414 16 375 2Q336 -12 288 -12ZM286 906H311L389 765H356L297 875L237 765H205Z" glyph-name="Ucircumflex" horiz-adv-x="578" unicode="&#219;" /><glyph d="M288 -12Q250 -12 213 -1.5Q176 9 146 32.5Q116 56 97.5 94Q79 132 79 187V713H110V199Q110 147 126 112Q142 77 167.5 56Q193 35 225.5 26Q258 17 291 17Q376 17 424 65Q472 113 469 193V713H498V190Q499 143 484 105.5Q469 68 441.5 42Q414 16 375 2Q336 -12 288 -12ZM350 887H381V802H350ZM216 887H247V802H216Z" glyph-name="Udieresis" horiz-adv-x="578" unicode="&#220;" /><glyph d="M193 911H232L323 770H295ZM288 -12Q250 -12 213 -1.5Q176 9 146 32.5Q116 56 97.5 94Q79 132 79 187V713H110V199Q110 147 126 112Q142 77 167.5 56Q193 35 225.5 26Q258 17 291 17Q376 17 424 65Q472 113 469 193V713H498V190Q499 143 484 105.5Q469 68 441.5 42Q414 16 375 2Q336 -12 288 -12Z" glyph-name="Ugrave" horiz-adv-x="578" unicode="&#217;" /><glyph d="M382 892H419L356 765H329ZM276 892H313L250 765H223ZM288 -12Q250 -12 213 -1.5Q176 9 146 32.5Q116 56 97.5 94Q79 132 79 187V713H110V199Q110 147 126 112Q142 77 167.5 56Q193 35 225.5 26Q258 17 291 17Q376 17 424 65Q472 113 469 193V713H498V190Q499 143 484 105.5Q469 68 441.5 42Q414 16 375 2Q336 -12 288 -12Z" glyph-name="Uhungarumlaut" horiz-adv-x="578" unicode="&#368;" /><glyph d="M167 833H411V804H167ZM288 -12Q250 -12 213 -1.5Q176 9 146 32.5Q116 56 97.5 94Q79 132 79 187V713H110V199Q110 147 126 112Q142 77 167.5 56Q193 35 225.5 26Q258 17 291 17Q376 17 424 65Q472 113 469 193V713H498V190Q499 143 484 105.5Q469 68 441.5 42Q414 16 375 2Q336 -12 288 -12Z" glyph-name="Umacron" horiz-adv-x="578" unicode="&#362;" /><glyph d="M349 -184Q318 -184 295 -165.5Q272 -147 272 -109Q272 -80 286.5 -53.5Q301 -27 320 -10Q312 -11 304 -11.5Q296 -12 288 -12Q250 -12 213 -1.5Q176 9 146 32.5Q116 56 97.5 94Q79 132 79 187V713H110V199Q110 147 126 112Q142 77 167.5 56Q193 35 225.5 26Q258 17 291 17Q376 17 424 65Q472 113 469 193V713H498V190Q499 112 459.5 62Q420 12 351 -5Q334 -19 317.5 -44Q301 -69 301 -104Q301 -127 313 -143.5Q325 -160 354 -160Q365 -160 378.5 -156Q392 -152 400 -147L410 -167Q401 -173 386.5 -178.5Q372 -184 349 -184Z" glyph-name="Uogonek" horiz-adv-x="578" unicode="&#370;" /><glyph d="M288 781Q309 781 324.5 795Q340 809 340 837Q340 863 326 878Q312 893 287 893Q265 893 252 877Q239 861 239 835Q239 807 253.5 794Q268 781 288 781ZM289 759Q269 759 254.5 766Q240 773 230.5 783.5Q221 794 216.5 807.5Q212 821 212 835Q212 868 233 892Q254 916 287 916Q327 916 346 894Q365 872 365 840Q365 806 344.5 782.5Q324 759 289 759ZM288 -12Q250 -12 213 -1.5Q176 9 146 32.5Q116 56 97.5 94Q79 132 79 187V713H110V199Q110 147 126 112Q142 77 167.5 56Q193 35 225.5 26Q258 17 291 17Q376 17 424 65Q472 113 469 193V713H498V190Q499 143 484 105.5Q469 68 441.5 42Q414 16 375 2Q336 -12 288 -12Z" glyph-name="Uring" horiz-adv-x="578" unicode="&#366;" /><glyph d="M151 779Q154 808 171.5 828.5Q189 849 219 849Q236 849 253.5 843Q271 837 288.5 830.5Q306 824 323.5 818Q341 812 359 812Q379 812 389 824.5Q399 837 405 857L427 853Q422 823 403.5 803Q385 783 358 783Q340 783 321 789Q302 795 284 802Q266 809 249 815Q232 821 217 821Q194 821 186.5 807Q179 793 174 777ZM288 -12Q250 -12 213 -1.5Q176 9 146 32.5Q116 56 97.5 94Q79 132 79 187V713H110V199Q110 147 126 112Q142 77 167.5 56Q193 35 225.5 26Q258 17 291 17Q376 17 424 65Q472 113 469 193V713H498V190Q499 143 484 105.5Q469 68 441.5 42Q414 16 375 2Q336 -12 288 -12Z" glyph-name="Utilde" horiz-adv-x="578" unicode="&#360;" /><glyph d="M28 713H60L249 38H250L442 713H473L266 -2H233Z" glyph-name="V" horiz-adv-x="500" unicode="V" /><glyph d="M36 713H68L205 49H207L349 713H386L525 51H527L665 713H696L541 -2H508L367 669H365L223 -2H191Z" glyph-name="W" horiz-adv-x="732" unicode="W" /><glyph d="M446 913H485L384 772H356ZM36 713H68L205 49H207L349 713H386L525 51H527L665 713H696L541 -2H508L367 669H365L223 -2H191Z" glyph-name="Wacute" horiz-adv-x="732" unicode="&#7810;" /><glyph d="M355 908H380L458 767H425L366 877L306 767H274ZM36 713H68L205 49H207L349 713H386L525 51H527L665 713H696L541 -2H508L367 669H365L223 -2H191Z" glyph-name="Wcircumflex" horiz-adv-x="732" unicode="&#372;" /><glyph d="M417 902H448V817H417ZM283 902H314V817H283ZM36 713H68L205 49H207L349 713H386L525 51H527L665 713H696L541 -2H508L367 669H365L223 -2H191Z" glyph-name="Wdieresis" horiz-adv-x="732" unicode="&#7812;" /><glyph d="M252 913H291L382 772H354ZM36 713H68L205 49H207L349 713H386L525 51H527L665 713H696L541 -2H508L367 669H365L223 -2H191Z" glyph-name="Wgrave" horiz-adv-x="732" unicode="&#7808;" /><glyph d="M208 370 41 713H75L227 396L383 713H414L244 370L430 0H395L226 344L56 0H24Z" glyph-name="X" horiz-adv-x="453" unicode="X" /><glyph d="M220 311 34 713H65L238 345L406 713H438L251 310V0H220Z" glyph-name="Y" horiz-adv-x="471" unicode="Y" /><glyph d="M311 911H350L249 770H221ZM220 311 34 713H65L238 345L406 713H438L251 310V0H220Z" glyph-name="Yacute" horiz-adv-x="471" unicode="&#221;" /><glyph d="M224 908H249L327 767H294L235 877L175 767H143ZM220 311 34 713H65L238 345L406 713H438L251 310V0H220Z" glyph-name="Ycircumflex" horiz-adv-x="471" unicode="&#374;" /><glyph d="M288 887H319V802H288ZM154 887H185V802H154ZM220 311 34 713H65L238 345L406 713H438L251 310V0H220Z" glyph-name="Ydieresis" horiz-adv-x="471" unicode="&#376;" /><glyph d="M128 913H167L258 772H230ZM220 311 34 713H65L238 345L406 713H438L251 310V0H220Z" glyph-name="Ygrave" horiz-adv-x="471" unicode="&#7922;" /><glyph d="M49 24 381 687H60V714H416V692L84 29H413V0H49Z" glyph-name="Z" horiz-adv-x="466" unicode="Z" /><glyph d="M301 913H340L239 772H211ZM49 24 381 687H60V714H416V692L84 29H413V0H49Z" glyph-name="Zacute" horiz-adv-x="466" unicode="&#377;" /><glyph d="M49 24 381 687H60V714H416V692L84 29H413V0H49ZM150 906H183L242 796L302 906H334L253 765H228Z" glyph-name="Zcaron" horiz-adv-x="466" unicode="&#381;" /><glyph d="M217 893H249V805H217ZM49 24 381 687H60V714H416V692L84 29H413V0H49Z" glyph-name="Zdotaccent" horiz-adv-x="466" unicode="&#379;" /><glyph d="M190 15Q219 15 245.5 25.5Q272 36 292 55.5Q312 75 323.5 102Q335 129 335 161V258H228Q204 258 178.5 253Q153 248 132.5 234.5Q112 221 98.5 197Q85 173 85 134Q85 103 94 80.5Q103 58 117.5 43.5Q132 29 151 22Q170 15 190 15ZM185 -11Q159 -11 135 -2Q111 7 92.5 24.5Q74 42 63 68.5Q52 95 52 131Q52 173 67 202Q82 231 106 249Q130 267 159 275.5Q188 284 217 284H335V388Q335 441 303 463.5Q271 486 220 486Q199 486 177 481Q155 476 137 465.5Q119 455 108 437.5Q97 420 97 396V363H69V395Q69 425 81.5 447Q94 469 115.5 483.5Q137 498 165.5 505Q194 512 226 512Q256 512 281.5 505Q307 498 325.5 483.5Q344 469 355 447Q366 425 366 394V131Q366 119 366.5 101Q367 83 368 64.5Q369 46 370 28.5Q371 11 371 0H342Q342 7 341.5 19.5Q341 32 340.5 45Q340 58 339.5 70Q339 82 339 88H337Q325 59 307.5 40Q290 21 269 10Q248 -1 226 -6Q204 -11 185 -11Z" glyph-name="a" horiz-adv-x="440" unicode="a" /><glyph d="M283 713H322L221 572H193ZM190 15Q219 15 245.5 25.5Q272 36 292 55.5Q312 75 323.5 102Q335 129 335 161V258H228Q204 258 178.5 253Q153 248 132.5 234.5Q112 221 98.5 197Q85 173 85 134Q85 103 94 80.5Q103 58 117.5 43.5Q132 29 151 22Q170 15 190 15ZM185 -11Q159 -11 135 -2Q111 7 92.5 24.5Q74 42 63 68.5Q52 95 52 131Q52 173 67 202Q82 231 106 249Q130 267 159 275.5Q188 284 217 284H335V388Q335 441 303 463.5Q271 486 220 486Q199 486 177 481Q155 476 137 465.5Q119 455 108 437.5Q97 420 97 396V363H69V395Q69 425 81.5 447Q94 469 115.5 483.5Q137 498 165.5 505Q194 512 226 512Q256 512 281.5 505Q307 498 325.5 483.5Q344 469 355 447Q366 425 366 394V131Q366 119 366.5 101Q367 83 368 64.5Q369 46 370 28.5Q371 11 371 0H342Q342 7 341.5 19.5Q341 32 340.5 45Q340 58 339.5 70Q339 82 339 88H337Q325 59 307.5 40Q290 21 269 10Q248 -1 226 -6Q204 -11 185 -11Z" glyph-name="aacute" horiz-adv-x="440" unicode="&#225;" /><glyph d="M220 576Q167 576 130 606Q93 636 91 689H119Q123 652 148 627Q173 602 224 602Q266 602 291.5 627Q317 652 322 689H349Q347 660 335 639Q323 618 304.5 604Q286 590 264 583Q242 576 220 576ZM190 15Q219 15 245.5 25.5Q272 36 292 55.5Q312 75 323.5 102Q335 129 335 161V258H228Q204 258 178.5 253Q153 248 132.5 234.5Q112 221 98.5 197Q85 173 85 134Q85 103 94 80.5Q103 58 117.5 43.5Q132 29 151 22Q170 15 190 15ZM185 -11Q159 -11 135 -2Q111 7 92.5 24.5Q74 42 63 68.5Q52 95 52 131Q52 173 67 202Q82 231 106 249Q130 267 159 275.5Q188 284 217 284H335V388Q335 441 303 463.5Q271 486 220 486Q199 486 177 481Q155 476 137 465.5Q119 455 108 437.5Q97 420 97 396V363H69V395Q69 425 81.5 447Q94 469 115.5 483.5Q137 498 165.5 505Q194 512 226 512Q256 512 281.5 505Q307 498 325.5 483.5Q344 469 355 447Q366 425 366 394V131Q366 119 366.5 101Q367 83 368 64.5Q369 46 370 28.5Q371 11 371 0H342Q342 7 341.5 19.5Q341 32 340.5 45Q340 58 339.5 70Q339 82 339 88H337Q325 59 307.5 40Q290 21 269 10Q248 -1 226 -6Q204 -11 185 -11Z" glyph-name="abreve" horiz-adv-x="440" unicode="&#259;" /><glyph d="M204 708H229L307 567H274L215 677L155 567H123ZM190 15Q219 15 245.5 25.5Q272 36 292 55.5Q312 75 323.5 102Q335 129 335 161V258H228Q204 258 178.5 253Q153 248 132.5 234.5Q112 221 98.5 197Q85 173 85 134Q85 103 94 80.5Q103 58 117.5 43.5Q132 29 151 22Q170 15 190 15ZM185 -11Q159 -11 135 -2Q111 7 92.5 24.5Q74 42 63 68.5Q52 95 52 131Q52 173 67 202Q82 231 106 249Q130 267 159 275.5Q188 284 217 284H335V388Q335 441 303 463.5Q271 486 220 486Q199 486 177 481Q155 476 137 465.5Q119 455 108 437.5Q97 420 97 396V363H69V395Q69 425 81.5 447Q94 469 115.5 483.5Q137 498 165.5 505Q194 512 226 512Q256 512 281.5 505Q307 498 325.5 483.5Q344 469 355 447Q366 425 366 394V131Q366 119 366.5 101Q367 83 368 64.5Q369 46 370 28.5Q371 11 371 0H342Q342 7 341.5 19.5Q341 32 340.5 45Q340 58 339.5 70Q339 82 339 88H337Q325 59 307.5 40Q290 21 269 10Q248 -1 226 -6Q204 -11 185 -11Z" glyph-name="acircumflex" horiz-adv-x="440" unicode="&#226;" /><glyph d="M172 713H211L110 572H82Z" glyph-name="acute" horiz-adv-x="241" unicode="&#180;" /><glyph d="M267 689H298V604H267ZM133 689H164V604H133ZM190 15Q219 15 245.5 25.5Q272 36 292 55.5Q312 75 323.5 102Q335 129 335 161V258H228Q204 258 178.5 253Q153 248 132.5 234.5Q112 221 98.5 197Q85 173 85 134Q85 103 94 80.5Q103 58 117.5 43.5Q132 29 151 22Q170 15 190 15ZM185 -11Q159 -11 135 -2Q111 7 92.5 24.5Q74 42 63 68.5Q52 95 52 131Q52 173 67 202Q82 231 106 249Q130 267 159 275.5Q188 284 217 284H335V388Q335 441 303 463.5Q271 486 220 486Q199 486 177 481Q155 476 137 465.5Q119 455 108 437.5Q97 420 97 396V363H69V395Q69 425 81.5 447Q94 469 115.5 483.5Q137 498 165.5 505Q194 512 226 512Q256 512 281.5 505Q307 498 325.5 483.5Q344 469 355 447Q366 425 366 394V131Q366 119 366.5 101Q367 83 368 64.5Q369 46 370 28.5Q371 11 371 0H342Q342 7 341.5 19.5Q341 32 340.5 45Q340 58 339.5 70Q339 82 339 88H337Q325 59 307.5 40Q290 21 269 10Q248 -1 226 -6Q204 -11 185 -11Z" glyph-name="adieresis" horiz-adv-x="440" unicode="&#228;" /><glyph d="M624 284V345Q624 370 618 395.5Q612 421 597 440.5Q582 460 557 472.5Q532 485 495 485Q461 485 436.5 472.5Q412 460 396 439.5Q380 419 372.5 394Q365 369 365 344V284ZM194 15Q223 15 248.5 26.5Q274 38 293.5 58.5Q313 79 324 106.5Q335 134 335 166V258H230Q205 258 179.5 253.5Q154 249 133 235.5Q112 222 98.5 198Q85 174 85 134Q85 72 117 43.5Q149 15 194 15ZM188 -11Q160 -11 135.5 -2Q111 7 92.5 24.5Q74 42 63 68.5Q52 95 52 131Q52 173 67 202.5Q82 232 106 250Q130 268 159 276Q188 284 217 284H335V388Q335 441 300.5 463.5Q266 486 215 486Q194 486 172.5 481Q151 476 134.5 465.5Q118 455 107.5 437.5Q97 420 97 396V363H69V395Q69 425 80.5 447Q92 469 112.5 483.5Q133 498 161 505Q189 512 221 512Q245 512 267.5 507.5Q290 503 309 493Q328 483 340.5 467Q353 451 358 428Q378 469 415 490.5Q452 512 502 512Q576 512 614.5 467Q653 422 653 341V258H365V162Q365 129 372.5 102Q380 75 397.5 56Q415 37 442.5 26.5Q470 16 510 16Q555 16 586 29Q617 42 638 56L650 35Q620 11 584.5 0Q549 -11 508 -11Q448 -11 403.5 15Q359 41 346 98Q334 64 314.5 42.5Q295 21 272.5 9Q250 -3 227.5 -7Q205 -11 188 -11Z" glyph-name="ae" horiz-adv-x="703" unicode="&#230;" /><glyph d="M425 713H464L363 572H335ZM624 284V345Q624 370 618 395.5Q612 421 597 440.5Q582 460 557 472.5Q532 485 495 485Q461 485 436.5 472.5Q412 460 396 439.5Q380 419 372.5 394Q365 369 365 344V284ZM194 15Q223 15 248.5 26.5Q274 38 293.5 58.5Q313 79 324 106.5Q335 134 335 166V258H230Q205 258 179.5 253.5Q154 249 133 235.5Q112 222 98.5 198Q85 174 85 134Q85 72 117 43.5Q149 15 194 15ZM188 -11Q160 -11 135.5 -2Q111 7 92.5 24.5Q74 42 63 68.5Q52 95 52 131Q52 173 67 202.5Q82 232 106 250Q130 268 159 276Q188 284 217 284H335V388Q335 441 300.5 463.5Q266 486 215 486Q194 486 172.5 481Q151 476 134.5 465.5Q118 455 107.5 437.5Q97 420 97 396V363H69V395Q69 425 80.5 447Q92 469 112.5 483.5Q133 498 161 505Q189 512 221 512Q245 512 267.5 507.5Q290 503 309 493Q328 483 340.5 467Q353 451 358 428Q378 469 415 490.5Q452 512 502 512Q576 512 614.5 467Q653 422 653 341V258H365V162Q365 129 372.5 102Q380 75 397.5 56Q415 37 442.5 26.5Q470 16 510 16Q555 16 586 29Q617 42 638 56L650 35Q620 11 584.5 0Q549 -11 508 -11Q448 -11 403.5 15Q359 41 346 98Q334 64 314.5 42.5Q295 21 272.5 9Q250 -3 227.5 -7Q205 -11 188 -11Z" glyph-name="aeacute" horiz-adv-x="703" unicode="&#509;" /><glyph d="M114 713H153L244 572H216ZM190 15Q219 15 245.5 25.5Q272 36 292 55.5Q312 75 323.5 102Q335 129 335 161V258H228Q204 258 178.5 253Q153 248 132.5 234.5Q112 221 98.5 197Q85 173 85 134Q85 103 94 80.5Q103 58 117.5 43.5Q132 29 151 22Q170 15 190 15ZM185 -11Q159 -11 135 -2Q111 7 92.5 24.5Q74 42 63 68.5Q52 95 52 131Q52 173 67 202Q82 231 106 249Q130 267 159 275.5Q188 284 217 284H335V388Q335 441 303 463.5Q271 486 220 486Q199 486 177 481Q155 476 137 465.5Q119 455 108 437.5Q97 420 97 396V363H69V395Q69 425 81.5 447Q94 469 115.5 483.5Q137 498 165.5 505Q194 512 226 512Q256 512 281.5 505Q307 498 325.5 483.5Q344 469 355 447Q366 425 366 394V131Q366 119 366.5 101Q367 83 368 64.5Q369 46 370 28.5Q371 11 371 0H342Q342 7 341.5 19.5Q341 32 340.5 45Q340 58 339.5 70Q339 82 339 88H337Q325 59 307.5 40Q290 21 269 10Q248 -1 226 -6Q204 -11 185 -11Z" glyph-name="agrave" horiz-adv-x="440" unicode="&#224;" /><glyph d="M161 -184Q130 -184 107.5 -165.5Q85 -147 85 -109Q85 -88 92 -68.5Q99 -49 109.5 -32.5Q120 -16 132 -5Q144 6 154 11L167 0Q151 -13 133.5 -36.5Q116 -60 116 -102Q116 -125 126.5 -142.5Q137 -160 166 -160Q174 -160 181.5 -158.5Q189 -157 193 -155L199 -177Q194 -179 183.5 -181.5Q173 -184 161 -184Z" glyph-name="altogonek" horiz-adv-x="275" /><glyph d="M98 633H342V604H98ZM190 15Q219 15 245.5 25.5Q272 36 292 55.5Q312 75 323.5 102Q335 129 335 161V258H228Q204 258 178.5 253Q153 248 132.5 234.5Q112 221 98.5 197Q85 173 85 134Q85 103 94 80.5Q103 58 117.5 43.5Q132 29 151 22Q170 15 190 15ZM185 -11Q159 -11 135 -2Q111 7 92.5 24.5Q74 42 63 68.5Q52 95 52 131Q52 173 67 202Q82 231 106 249Q130 267 159 275.5Q188 284 217 284H335V388Q335 441 303 463.5Q271 486 220 486Q199 486 177 481Q155 476 137 465.5Q119 455 108 437.5Q97 420 97 396V363H69V395Q69 425 81.5 447Q94 469 115.5 483.5Q137 498 165.5 505Q194 512 226 512Q256 512 281.5 505Q307 498 325.5 483.5Q344 469 355 447Q366 425 366 394V131Q366 119 366.5 101Q367 83 368 64.5Q369 46 370 28.5Q371 11 371 0H342Q342 7 341.5 19.5Q341 32 340.5 45Q340 58 339.5 70Q339 82 339 88H337Q325 59 307.5 40Q290 21 269 10Q248 -1 226 -6Q204 -11 185 -11Z" glyph-name="amacron" horiz-adv-x="440" unicode="&#257;" /><glyph d="M262 390Q309 408 342 426.5Q375 445 395.5 467Q416 489 425 515.5Q434 542 434 577Q434 605 423 628Q412 651 394 667.5Q376 684 352 693Q328 702 301 702Q267 702 242 690.5Q217 679 200 660.5Q183 642 174.5 618Q166 594 166 569Q166 528 194.5 485.5Q223 443 262 390ZM262 14Q319 14 364.5 40.5Q410 67 442 113L249 358Q208 345 179.5 324.5Q151 304 133 279Q115 254 107 226Q99 198 99 170Q99 135 111 106.5Q123 78 145 57.5Q167 37 196.5 25.5Q226 14 262 14ZM260 -13Q213 -13 176.5 2Q140 17 115.5 42.5Q91 68 78.5 101.5Q66 135 66 172Q66 200 74 229.5Q82 259 101.5 287Q121 315 153.5 339.5Q186 364 235 382Q193 431 164.5 476.5Q136 522 136 566Q136 589 144.5 616.5Q153 644 173 668Q193 692 226 708.5Q259 725 307 725Q347 725 376.5 711.5Q406 698 425.5 676.5Q445 655 455 629.5Q465 604 465 580Q465 507 421 454.5Q377 402 277 368L458 140Q474 169 490 210Q506 251 517 298L544 294Q533 246 516 203Q499 160 476 116L569 0H533L460 92Q425 47 376 17Q327 -13 260 -13Z" glyph-name="ampersand" horiz-adv-x="619" unicode="&amp;" /><glyph d="M190 15Q219 15 245.5 25.5Q272 36 292 55.5Q312 75 323.5 102Q335 129 335 161V258H228Q204 258 178.5 253Q153 248 132.5 234.5Q112 221 98.5 197Q85 173 85 134Q85 103 94 80.5Q103 58 117.5 43.5Q132 29 151 22Q170 15 190 15ZM348 -184Q317 -184 294 -165.5Q271 -147 271 -109Q271 -91 277.5 -73.5Q284 -56 294 -41Q304 -26 316.5 -14.5Q329 -3 341 5Q341 13 340.5 25Q340 37 339.5 49Q339 61 339 71.5Q339 82 339 88H337Q325 59 307.5 40Q290 21 269 10Q248 -1 226 -6Q204 -11 185 -11Q159 -11 135 -2Q111 7 92.5 24.5Q74 42 63 68.5Q52 95 52 131Q52 173 67 202Q82 231 106 249Q130 267 159 275.5Q188 284 217 284H335V388Q335 441 303 463.5Q271 486 220 486Q199 486 177 481Q155 476 137 465.5Q119 455 108 437.5Q97 420 97 396V363H69V395Q69 425 81.5 447Q94 469 115.5 483.5Q137 498 165.5 505Q194 512 226 512Q256 512 281.5 505Q307 498 325.5 483.5Q344 469 355 447Q366 425 366 394V131Q366 119 366.5 101Q367 83 368 64.5Q369 46 370 28.5Q371 11 371 0H366Q356 -6 344.5 -15.5Q333 -25 323 -38Q313 -51 306.5 -67.5Q300 -84 300 -104Q300 -127 311.5 -143Q323 -159 352 -159Q363 -159 377 -155.5Q391 -152 399 -147L409 -167Q400 -173 385.5 -178.5Q371 -184 348 -184Z" glyph-name="aogonek" horiz-adv-x="440" unicode="&#261;" /><glyph d="M509 -110 490 -112 483 -105Q500 -100 508 -98Q516 -96 526 -93Q545 -87 556 -78.5Q567 -70 573 -61Q579 -52 581.5 -43.5Q584 -35 585 -30Q587 -16 589 8Q591 32 593 63Q595 94 596.5 129Q598 164 600 201L495 198L497 209L601 215Q603 251 605 286.5Q607 322 608.5 352.5Q610 383 611 407.5Q612 432 612 446L654 470Q607 472 559 473.5Q511 475 463 477Q462 438 460 398Q458 358 456 331Q451 248 426.5 192.5Q402 137 370 103.5Q338 70 304.5 55.5Q271 41 249 41Q232 41 209 46Q186 51 162.5 57.5Q139 64 118.5 71.5Q98 79 88 85L113 124Q118 123 138 115Q158 107 184 98Q210 89 237 81.5Q264 74 282 75Q308 75 332.5 93.5Q357 112 375.5 141.5Q394 171 405 208.5Q416 246 415 284L420 478Q404 478 388 479Q372 480 355 480Q324 480 294.5 468Q265 456 241.5 435Q218 414 204 386Q190 358 190 325Q199 305 219.5 286.5Q240 268 272 254Q272 251 270 245.5Q268 240 265.5 234Q263 228 260 222.5Q257 217 255 215Q232 225 217.5 237.5Q203 250 194.5 264Q186 278 182 291.5Q178 305 177 317Q177 356 193 389.5Q209 423 237 449Q265 475 303.5 492.5Q342 510 388 518H421L427 693L470 712Q408 714 343.5 717Q279 720 209 720Q179 720 149 708.5Q119 697 96 676.5Q73 656 58.5 628.5Q44 601 44 568Q64 527 128 502Q128 499 125 493.5Q122 488 118 482Q114 476 110 470.5Q106 465 105 463Q82 472 67.5 484.5Q53 497 44 510.5Q35 524 31 538Q27 552 26 564Q26 603 44 635.5Q62 668 91 692.5Q120 717 156 734Q192 751 227 760Q318 760 406 755.5Q494 751 595 749Q615 749 628.5 748.5Q642 748 661 747Q669 747 683.5 746.5Q698 746 704 746Q718 745 724.5 746Q731 747 739 749Q746 754 753 762Q760 770 763 777L772 774Q767 763 759 753Q751 743 746 738Q714 722 688 715Q662 708 625 708Q588 708 550.5 709Q513 710 475 712Q473 702 472 682Q471 662 470.5 639.5Q470 617 469 597.5Q468 578 467 570L465 517Q564 514 673 508.5Q782 503 889 503Q887 503 906 502Q925 501 952.5 502Q980 503 1009 506.5Q1038 510 1055 518L1060 512Q1003 488 947.5 477.5Q892 467 820 467Q747 467 662 470Q660 456 658 427Q656 398 654 367Q652 336 650.5 309Q649 282 648 273Q648 263 647.5 249Q647 235 646 218L804 228H808L812 225L775 170L767 175L792 211L645 202Q643 175 641.5 146Q640 117 638 89.5Q636 62 634 38Q632 14 631 -1Q630 -10 624 -22Q618 -34 610 -45.5Q602 -57 592 -66.5Q582 -76 572 -80L573 -81Q615 -74 662 -75Q709 -76 750 -73V-74Q750 -85 741 -97Q732 -109 720 -111Q711 -113 699.5 -113Q688 -113 674 -113Z" glyph-name="apple" horiz-adv-x="1082" unicode="&#63743;" /><glyph d="M88 357Q92 384 108 404.5Q124 425 153 425Q170 425 202 419.5Q234 414 269 408Q304 402 335.5 396.5Q367 391 384 391Q401 391 410.5 403Q420 415 425 435L452 429Q445 398 427.5 378.5Q410 359 384 359Q368 359 336 364.5Q304 370 268.5 376.5Q233 383 200.5 388.5Q168 394 151 394Q131 394 124.5 380.5Q118 367 113 353ZM88 231Q92 258 108 278.5Q124 299 153 299Q170 299 202 293.5Q234 288 269 282Q304 276 335.5 270.5Q367 265 384 265Q401 265 410.5 277Q420 289 425 309L452 303Q445 272 427.5 252.5Q410 233 384 233Q368 233 336 238.5Q304 244 268.5 250.5Q233 257 200.5 262.5Q168 268 151 268Q131 268 124.5 254.5Q118 241 113 227Z" glyph-name="approxequal" horiz-adv-x="540" unicode="&#8776;" /><glyph d="M219 581Q240 581 255.5 595Q271 609 271 637Q271 663 257 678Q243 693 218 693Q196 693 183 677Q170 661 170 635Q170 607 184.5 594Q199 581 219 581ZM220 559Q200 559 185.5 566Q171 573 161.5 583.5Q152 594 147.5 607.5Q143 621 143 635Q143 668 164 692Q185 716 218 716Q258 716 277 694Q296 672 296 640Q296 606 275.5 582.5Q255 559 220 559ZM190 15Q219 15 245.5 25.5Q272 36 292 55.5Q312 75 323.5 102Q335 129 335 161V258H228Q204 258 178.5 253Q153 248 132.5 234.5Q112 221 98.5 197Q85 173 85 134Q85 103 94 80.5Q103 58 117.5 43.5Q132 29 151 22Q170 15 190 15ZM185 -11Q159 -11 135 -2Q111 7 92.5 24.5Q74 42 63 68.5Q52 95 52 131Q52 173 67 202Q82 231 106 249Q130 267 159 275.5Q188 284 217 284H335V388Q335 441 303 463.5Q271 486 220 486Q199 486 177 481Q155 476 137 465.5Q119 455 108 437.5Q97 420 97 396V363H69V395Q69 425 81.5 447Q94 469 115.5 483.5Q137 498 165.5 505Q194 512 226 512Q256 512 281.5 505Q307 498 325.5 483.5Q344 469 355 447Q366 425 366 394V131Q366 119 366.5 101Q367 83 368 64.5Q369 46 370 28.5Q371 11 371 0H342Q342 7 341.5 19.5Q341 32 340.5 45Q340 58 339.5 70Q339 82 339 88H337Q325 59 307.5 40Q290 21 269 10Q248 -1 226 -6Q204 -11 185 -11Z" glyph-name="aring" horiz-adv-x="440" unicode="&#229;" /><glyph d="M219 581Q240 581 255.5 595Q271 609 271 637Q271 663 257 678Q243 693 218 693Q196 693 183 677Q170 661 170 635Q170 607 184.5 594Q199 581 219 581ZM220 559Q200 559 185.5 566Q171 573 161.5 583.5Q152 594 147.5 607.5Q143 621 143 635Q143 665 160 688L243 800L281 789L214 716Q257 716 276.5 694Q296 672 296 640Q296 606 275.5 582.5Q255 559 220 559ZM190 15Q219 15 245.5 25.5Q272 36 292 55.5Q312 75 323.5 102Q335 129 335 161V258H228Q204 258 178.5 253Q153 248 132.5 234.5Q112 221 98.5 197Q85 173 85 134Q85 103 94 80.5Q103 58 117.5 43.5Q132 29 151 22Q170 15 190 15ZM185 -11Q159 -11 135 -2Q111 7 92.5 24.5Q74 42 63 68.5Q52 95 52 131Q52 173 67 202Q82 231 106 249Q130 267 159 275.5Q188 284 217 284H335V388Q335 441 303 463.5Q271 486 220 486Q199 486 177 481Q155 476 137 465.5Q119 455 108 437.5Q97 420 97 396V363H69V395Q69 425 81.5 447Q94 469 115.5 483.5Q137 498 165.5 505Q194 512 226 512Q256 512 281.5 505Q307 498 325.5 483.5Q344 469 355 447Q366 425 366 394V131Q366 119 366.5 101Q367 83 368 64.5Q369 46 370 28.5Q371 11 371 0H342Q342 7 341.5 19.5Q341 32 340.5 45Q340 58 339.5 70Q339 82 339 88H337Q325 59 307.5 40Q290 21 269 10Q248 -1 226 -6Q204 -11 185 -11Z" glyph-name="aringacute" horiz-adv-x="440" unicode="&#507;" /><glyph d="M112 313 129 330 248 212V558H271V212L390 330L407 313L261 169H258Z" glyph-name="arrowdown" horiz-adv-x="519" unicode="&#8595;" /><glyph d="M65 362V365L209 511L226 494L108 374H454V351H108L226 233L209 216Z" glyph-name="arrowleft" horiz-adv-x="519" unicode="&#8592;" /><glyph d="M292 233 410 351H65V374H410L292 494L309 511L454 365V362L309 216Z" glyph-name="arrowright" horiz-adv-x="519" unicode="&#8594;" /><glyph d="M248 514 129 396 112 413 258 558H261L407 413L390 396L271 514V169H248Z" glyph-name="arrowup" horiz-adv-x="519" unicode="&#8593;" /><glyph d="M178 534H209L278 211H249L193 486Q176 410 162 350Q156 324 150 299.5Q144 275 139.5 255.5Q135 236 132.5 223.5Q130 211 130 211H99Z" glyph-name="asciicircum" horiz-adv-x="378" unicode="^" /><glyph d="M88 276Q92 303 108 323.5Q124 344 153 344Q170 344 202 338.5Q234 333 269 327Q304 321 335.5 315.5Q367 310 384 310Q401 310 410.5 322Q420 334 425 354L452 348Q445 317 427.5 297.5Q410 278 384 278Q368 278 336 283.5Q304 289 268.5 295.5Q233 302 200.5 307.5Q168 313 151 313Q131 313 124.5 299.5Q118 286 113 272Z" glyph-name="asciitilde" horiz-adv-x="540" unicode="~" /><glyph d="M60 455 133 559 22 627 36 649 152 579V713H178V579L292 649L307 627L195 559L270 455L247 438L165 553L83 438Z" glyph-name="asterisk" horiz-adv-x="329" unicode="*" /><glyph d="M393 79Q419 79 446.5 92.5Q474 106 498.5 130Q523 154 541 186Q559 218 565 255L581 358Q584 374 584 391Q584 455 552.5 487.5Q521 520 476 520Q422 520 383 486.5Q344 453 334 390L302 193Q301 187 300 177Q299 167 299 159Q299 123 320.5 101Q342 79 393 79ZM457 -107Q343 -107 251 -60Q167 -15 117 68Q67 151 69 275Q69 367 98.5 445.5Q128 524 182 581Q236 638 311.5 670.5Q387 703 479 703Q554 703 617.5 678.5Q681 654 727.5 610Q774 566 800.5 503.5Q827 441 827 365Q827 290 801.5 234Q776 178 736.5 140.5Q697 103 649.5 83.5Q602 64 559 63H534L550 164H548Q530 131 509 109.5Q488 88 466 75.5Q444 63 423 57.5Q402 52 384 52Q326 52 296.5 80Q267 108 267 154Q267 170 270 184Q279 242 287 289Q290 308 293.5 327Q297 346 299.5 361Q302 376 303.5 385.5Q305 395 305 395Q312 435 329.5 464Q347 493 371 511Q395 529 422 537.5Q449 546 476 546Q519 546 554 522Q589 498 594 447H595L611 543H642L565 90Q611 91 653.5 111Q696 131 729 167Q762 203 781.5 254Q801 305 801 369Q801 439 775.5 496.5Q750 554 706.5 595Q663 636 604.5 658Q546 680 481 680Q395 680 324 649Q253 618 203 564Q153 510 125.5 436.5Q98 363 98 278Q98 160 144.5 81Q191 2 268 -39Q351 -83 458 -83Q515 -83 560 -75.5Q605 -68 635 -59L642 -81Q596 -95 547.5 -101Q499 -107 457 -107Z" glyph-name="at" horiz-adv-x="890" unicode="@" /><glyph d="M84 579Q87 608 104.5 628.5Q122 649 152 649Q169 649 186.5 643Q204 637 221.5 630.5Q239 624 256.5 618Q274 612 292 612Q312 612 322 624.5Q332 637 338 657L360 653Q355 623 336.5 603Q318 583 291 583Q273 583 254 589Q235 595 217 602Q199 609 182 615Q165 621 150 621Q127 621 119.5 607Q112 593 107 577ZM190 15Q219 15 245.5 25.5Q272 36 292 55.5Q312 75 323.5 102Q335 129 335 161V258H228Q204 258 178.5 253Q153 248 132.5 234.5Q112 221 98.5 197Q85 173 85 134Q85 103 94 80.5Q103 58 117.5 43.5Q132 29 151 22Q170 15 190 15ZM185 -11Q159 -11 135 -2Q111 7 92.5 24.5Q74 42 63 68.5Q52 95 52 131Q52 173 67 202Q82 231 106 249Q130 267 159 275.5Q188 284 217 284H335V388Q335 441 303 463.5Q271 486 220 486Q199 486 177 481Q155 476 137 465.5Q119 455 108 437.5Q97 420 97 396V363H69V395Q69 425 81.5 447Q94 469 115.5 483.5Q137 498 165.5 505Q194 512 226 512Q256 512 281.5 505Q307 498 325.5 483.5Q344 469 355 447Q366 425 366 394V131Q366 119 366.5 101Q367 83 368 64.5Q369 46 370 28.5Q371 11 371 0H342Q342 7 341.5 19.5Q341 32 340.5 45Q340 58 339.5 70Q339 82 339 88H337Q325 59 307.5 40Q290 21 269 10Q248 -1 226 -6Q204 -11 185 -11Z" glyph-name="atilde" horiz-adv-x="440" unicode="&#227;" /><glyph d="M251 15Q301 15 333.5 45Q366 75 366 137V374Q366 396 359.5 416Q353 436 339 451.5Q325 467 303.5 476Q282 485 252 485Q227 485 202 472.5Q177 460 157.5 437.5Q138 415 125.5 383.5Q113 352 113 315V182Q113 147 123.5 116.5Q134 86 152 63.5Q170 41 195.5 28Q221 15 251 15ZM250 -11Q228 -11 206 -4.5Q184 2 165 14.5Q146 27 131.5 46Q117 65 111 90H109V0H83V713H113V412H116Q126 438 142.5 457Q159 476 178.5 488Q198 500 218.5 506Q239 512 259 512Q292 512 318 501.5Q344 491 361.5 473Q379 455 388 430.5Q397 406 397 378V140Q397 99 384.5 70.5Q372 42 351 24Q330 6 303.5 -2.5Q277 -11 250 -11Z" glyph-name="b" horiz-adv-x="457" unicode="b" /><glyph d="M30 718H59L284 -179H252Z" glyph-name="backslash" horiz-adv-x="291" unicode="\" /><glyph d="M100 713H127V-51H100Z" glyph-name="bar" horiz-adv-x="227" unicode="|" /><glyph d="M52 553H545V0H52Z" glyph-name="blacksmallsquare" horiz-adv-x="597" unicode="&#9642;" /><glyph d="M46 715H669V0H46Z" glyph-name="blacksquare" horiz-adv-x="715" unicode="&#9632;" /><glyph d="M125 -176Q105 -176 93 -165Q81 -154 81 -134V231Q81 270 42 274V301Q63 305 72 315.5Q81 326 81 343V668Q81 689 93.5 700.5Q106 712 127 712H237V688H127Q111 688 111 665V341Q111 323 101.5 310Q92 297 77 291V288Q93 281 102 268Q111 255 111 235V-128Q111 -151 127 -151H237V-176Z" glyph-name="braceleft" horiz-adv-x="250" unicode="{" /><glyph d="M12 -151H123Q139 -151 139 -128V235Q139 255 148 268Q157 281 172 288V291Q158 297 148.5 310Q139 323 139 341V667Q139 690 123 690H12V714H123Q144 714 156 702.5Q168 691 168 670V343Q168 326 177 315.5Q186 305 207 301V274Q168 270 168 231V-134Q168 -154 156 -165Q144 -176 123 -176H12Z" glyph-name="braceright" horiz-adv-x="250" unicode="}" /><glyph d="M59 713H215V688H88V-150H215V-176H59Z" glyph-name="bracketleft" horiz-adv-x="237" unicode="[" /><glyph d="M22 -150H149V688H22V713H179V-176H22Z" glyph-name="bracketright" horiz-adv-x="237" unicode="]" /><glyph d="M172 576Q119 576 82 606Q45 636 43 689H71Q75 652 100 627Q125 602 176 602Q218 602 243.5 627Q269 652 274 689H301Q299 660 287 639Q275 618 256.5 604Q238 590 216 583Q194 576 172 576Z" glyph-name="breve" horiz-adv-x="344" unicode="&#728;" /><glyph d="M100 714H128V378H100ZM100 310H128V-51H100Z" glyph-name="brokenbar" horiz-adv-x="228" unicode="&#166;" /><glyph d="M180 257Q161 257 144.5 264Q128 271 115.5 283.5Q103 296 96 312.5Q89 329 89 347Q89 365 96 381.5Q103 398 115.5 410.5Q128 423 144.5 430Q161 437 180 437Q217 437 243 410.5Q269 384 269 347Q269 310 243.5 283.5Q218 257 180 257Z" glyph-name="bullet" horiz-adv-x="359" unicode="&#8226;" /><glyph d="M218 -11Q138 -11 99 33.5Q60 78 60 161V340Q60 421 101 466.5Q142 512 216 512Q255 512 283.5 501.5Q312 491 330 473.5Q348 456 356.5 432.5Q365 409 365 383V360H337V385Q337 399 331.5 416.5Q326 434 312 449.5Q298 465 274 475.5Q250 486 214 486Q179 486 155 473.5Q131 461 116.5 441Q102 421 96 394Q90 367 90 339V160Q90 127 96.5 100.5Q103 74 118.5 54.5Q134 35 158.5 24.5Q183 14 219 14Q256 14 279.5 24Q303 34 315.5 49Q328 64 332.5 82Q337 100 337 117V145H365V120Q365 93 357.5 69Q350 45 333 27.5Q316 10 288 -0.5Q260 -11 218 -11Z" glyph-name="c" horiz-adv-x="421" unicode="c" /><glyph d="M286 713H325L224 572H196ZM218 -11Q138 -11 99 33.5Q60 78 60 161V340Q60 421 101 466.5Q142 512 216 512Q255 512 283.5 501.5Q312 491 330 473.5Q348 456 356.5 432.5Q365 409 365 383V360H337V385Q337 399 331.5 416.5Q326 434 312 449.5Q298 465 274 475.5Q250 486 214 486Q179 486 155 473.5Q131 461 116.5 441Q102 421 96 394Q90 367 90 339V160Q90 127 96.5 100.5Q103 74 118.5 54.5Q134 35 158.5 24.5Q183 14 219 14Q256 14 279.5 24Q303 34 315.5 49Q328 64 332.5 82Q337 100 337 117V145H365V120Q365 93 357.5 69Q350 45 333 27.5Q316 10 288 -0.5Q260 -11 218 -11Z" glyph-name="cacute" horiz-adv-x="421" unicode="&#263;" /><glyph d="M84 708H117L176 598L236 708H268L187 567H162Z" glyph-name="caron" horiz-adv-x="344" unicode="&#711;" /><glyph d="M67 713H98L86 571H63Z" glyph-name="caronSlovak" horiz-adv-x="157" unicode="&#58387;" /><glyph d="M129 708H162L221 598L281 708H313L232 567H207ZM218 -11Q138 -11 99 33.5Q60 78 60 161V340Q60 421 101 466.5Q142 512 216 512Q255 512 283.5 501.5Q312 491 330 473.5Q348 456 356.5 432.5Q365 409 365 383V360H337V385Q337 399 331.5 416.5Q326 434 312 449.5Q298 465 274 475.5Q250 486 214 486Q179 486 155 473.5Q131 461 116.5 441Q102 421 96 394Q90 367 90 339V160Q90 127 96.5 100.5Q103 74 118.5 54.5Q134 35 158.5 24.5Q183 14 219 14Q256 14 279.5 24Q303 34 315.5 49Q328 64 332.5 82Q337 100 337 117V145H365V120Q365 93 357.5 69Q350 45 333 27.5Q316 10 288 -0.5Q260 -11 218 -11Z" glyph-name="ccaron" horiz-adv-x="421" unicode="&#269;" /><glyph d="M230 -189Q216 -189 196 -186Q176 -183 159 -178V-151Q176 -156 194 -159Q212 -162 233 -162Q256 -162 272.5 -153.5Q289 -145 289 -125Q289 -89 225 -85L197 -83L216 -11Q137 -10 98.5 34Q60 78 60 161V340Q60 421 101 466.5Q142 512 216 512Q255 512 283.5 501.5Q312 491 330 473.5Q348 456 356.5 432.5Q365 409 365 383V360H337V385Q337 399 331.5 416.5Q326 434 312 449.5Q298 465 274 475.5Q250 486 214 486Q179 486 155 473.5Q131 461 116.5 441Q102 421 96 394Q90 367 90 339V160Q90 127 96.5 100.5Q103 74 118.5 54.5Q134 35 158.5 24.5Q183 14 219 14Q256 14 279.5 24Q303 34 315.5 49Q328 64 332.5 82Q337 100 337 117V145H365V120Q365 95 358.5 72.5Q352 50 338 33Q324 16 300 4.5Q276 -7 242 -10L229 -61Q267 -63 293.5 -77.5Q320 -92 320 -125Q320 -151 297 -170Q274 -189 230 -189Z" glyph-name="ccedilla" horiz-adv-x="421" unicode="&#231;" /><glyph d="M214 708H239L317 567H284L225 677L165 567H133ZM218 -11Q138 -11 99 33.5Q60 78 60 161V340Q60 421 101 466.5Q142 512 216 512Q255 512 283.5 501.5Q312 491 330 473.5Q348 456 356.5 432.5Q365 409 365 383V360H337V385Q337 399 331.5 416.5Q326 434 312 449.5Q298 465 274 475.5Q250 486 214 486Q179 486 155 473.5Q131 461 116.5 441Q102 421 96 394Q90 367 90 339V160Q90 127 96.5 100.5Q103 74 118.5 54.5Q134 35 158.5 24.5Q183 14 219 14Q256 14 279.5 24Q303 34 315.5 49Q328 64 332.5 82Q337 100 337 117V145H365V120Q365 93 357.5 69Q350 45 333 27.5Q316 10 288 -0.5Q260 -11 218 -11Z" glyph-name="ccircumflex" horiz-adv-x="421" unicode="&#265;" /><glyph d="M204 693H236V605H204ZM218 -11Q138 -11 99 33.5Q60 78 60 161V340Q60 421 101 466.5Q142 512 216 512Q255 512 283.5 501.5Q312 491 330 473.5Q348 456 356.5 432.5Q365 409 365 383V360H337V385Q337 399 331.5 416.5Q326 434 312 449.5Q298 465 274 475.5Q250 486 214 486Q179 486 155 473.5Q131 461 116.5 441Q102 421 96 394Q90 367 90 339V160Q90 127 96.5 100.5Q103 74 118.5 54.5Q134 35 158.5 24.5Q183 14 219 14Q256 14 279.5 24Q303 34 315.5 49Q328 64 332.5 82Q337 100 337 117V145H365V120Q365 93 357.5 69Q350 45 333 27.5Q316 10 288 -0.5Q260 -11 218 -11Z" glyph-name="cdotaccent" horiz-adv-x="421" unicode="&#267;" /><glyph d="M154 -189Q140 -189 120 -186Q100 -183 83 -178V-151Q100 -156 118 -159Q136 -162 157 -162Q180 -162 196.5 -153.5Q213 -145 213 -125Q213 -89 149 -85L121 -83L144 5H170L153 -61Q191 -63 217.5 -77.5Q244 -92 244 -125Q244 -151 221 -170Q198 -189 154 -189Z" glyph-name="cedilla" horiz-adv-x="336" unicode="&#184;" /><glyph d="M213 15Q138 17 102.5 62Q67 107 67 185V365Q67 442 105 486.5Q143 531 213 534V608H242V534Q312 529 343.5 491.5Q375 454 375 405V373H345V408Q345 422 340 439.5Q335 457 322 472Q309 487 285.5 497.5Q262 508 226 508Q190 508 165.5 496Q141 484 126.5 463.5Q112 443 105.5 417Q99 391 99 363V187Q99 157 105 130.5Q111 104 125.5 84Q140 64 164.5 52.5Q189 41 225 41Q262 41 285.5 52Q309 63 322.5 79Q336 95 340.5 112.5Q345 130 345 144V180H375V146Q375 95 343.5 57.5Q312 20 242 16V-67H213Z" glyph-name="cent" horiz-adv-x="439" unicode="&#162;" /><glyph d="M165 708H190L268 567H235L176 677L116 567H84Z" glyph-name="circumflex" horiz-adv-x="349" unicode="&#710;" /><glyph d="M67 482H99V396H67ZM67 87H99V0H67Z" glyph-name="colon" horiz-adv-x="165" unicode=":" /><glyph d="M78 1H67V87H99V1L83 -89H65Z" glyph-name="comma" horiz-adv-x="165" unicode="," /><glyph d="M60 0H48V57H77V0L64 -59H48Z" glyph-name="comma.dnom" horiz-adv-x="125" unicode="&#58381;" /><glyph d="M60 318H48V375H77V318L64 259H48Z" glyph-name="comma.numr" horiz-adv-x="125" unicode="&#58401;" /><glyph d="M60 -133H48V-76H77V-133L64 -192H48Z" glyph-name="comma.sub" horiz-adv-x="125" /><glyph d="M60 380H48V437H77V380L64 321H48Z" glyph-name="comma.sup" horiz-adv-x="125" /><glyph d="M63 -39H96L82 -183H59Z" glyph-name="commaaccent" horiz-adv-x="157" unicode="&#58388;" /><glyph d="M62 649 76 713H92L83 652H94V588H62Z" glyph-name="commatop" horiz-adv-x="157" /><glyph d="M419 -22Q490 -22 549.5 4.5Q609 31 652 79.5Q695 128 719 197Q743 266 743 350Q743 438 717.5 506.5Q692 575 647.5 622Q603 669 543 693Q483 717 414 717Q345 717 285.5 691.5Q226 666 182.5 618.5Q139 571 114 503Q89 435 89 350Q89 261 113 192Q137 123 180.5 75.5Q224 28 285 3Q346 -22 419 -22ZM414 -46Q327 -46 261 -17Q195 12 150 64.5Q105 117 82 190Q59 263 59 350Q59 431 84 502Q109 573 155 626.5Q201 680 267 711Q333 742 414 742Q500 742 567 710.5Q634 679 680 625Q726 571 750 500Q774 429 774 350Q774 269 750.5 197Q727 125 681.5 71Q636 17 568.5 -14.5Q501 -46 414 -46ZM415 74Q331 74 291.5 120Q252 166 252 249V436Q252 519 293.5 566Q335 613 415 613Q456 613 485.5 602.5Q515 592 534 573.5Q553 555 562 530.5Q571 506 571 479V433H542V483Q542 497 536.5 514.5Q531 532 517 547.5Q503 563 478.5 573.5Q454 584 417 584Q380 584 354.5 571.5Q329 559 313.5 538Q298 517 291 489.5Q284 462 284 433V252Q284 220 290.5 193Q297 166 312.5 146.5Q328 127 353.5 115.5Q379 104 416 104Q454 104 478.5 115Q503 126 517 142Q531 158 536.5 176Q542 194 542 208V255H571V210Q571 183 562 158.5Q553 134 534 115Q515 96 485.5 85Q456 74 415 74Z" glyph-name="copyright" horiz-adv-x="833" unicode="&#169;" /><glyph d="M140 270Q174 270 194.5 290.5Q215 311 215 349Q215 385 192 405.5Q169 426 142 426Q109 426 88 406Q67 386 67 345Q67 315 87.5 292.5Q108 270 140 270ZM29 256 56 284Q45 299 39.5 315.5Q34 332 34 349Q34 383 56 411L29 437L53 461L79 435Q108 455 139 455Q156 455 172.5 450.5Q189 446 203 435L230 462L254 438L227 412Q249 381 249 347Q249 314 226 283L253 256L230 233L203 260Q175 241 142 241Q109 241 79 259L53 232Z" glyph-name="currency" horiz-adv-x="283" unicode="&#164;" /><glyph d="M200 16Q228 16 253.5 28Q279 40 299 63.5Q319 87 331 120.5Q343 154 343 196V317Q343 352 331.5 383Q320 414 301.5 437Q283 460 258 473.5Q233 487 206 487Q183 487 162.5 480.5Q142 474 125.5 459.5Q109 445 99.5 421Q90 397 90 362V130Q90 80 115.5 48Q141 16 200 16ZM195 -11Q129 -11 94.5 26.5Q60 64 60 120V360Q60 400 72.5 429Q85 458 105.5 476.5Q126 495 151.5 503.5Q177 512 204 512Q225 512 246.5 506Q268 500 287 488Q306 476 320 457Q334 438 340 413H342V713H373V0H347L346 100H343Q330 67 312.5 46Q295 25 275 12Q255 -1 234.5 -6Q214 -11 195 -11Z" glyph-name="d" horiz-adv-x="455" unicode="d" /><glyph d="M234 503H68V531H234V714H264V531H429V503H264V-139H234Z" glyph-name="dagger" horiz-adv-x="497" unicode="&#8224;" /><glyph d="M234 53H68V79H234V503H68V531H234V714H264V531H429V503H264V79H429V53H264V-139H234Z" glyph-name="daggerdbl" horiz-adv-x="497" unicode="&#8225;" /><glyph d="M424 713H455L443 571H420ZM200 16Q228 16 253.5 28Q279 40 299 63.5Q319 87 331 120.5Q343 154 343 196V317Q343 352 331.5 383Q320 414 301.5 437Q283 460 258 473.5Q233 487 206 487Q183 487 162.5 480.5Q142 474 125.5 459.5Q109 445 99.5 421Q90 397 90 362V130Q90 80 115.5 48Q141 16 200 16ZM195 -11Q129 -11 94.5 26.5Q60 64 60 120V360Q60 400 72.5 429Q85 458 105.5 476.5Q126 495 151.5 503.5Q177 512 204 512Q225 512 246.5 506Q268 500 287 488Q306 476 320 457Q334 438 340 413H342V713H373V0H347L346 100H343Q330 67 312.5 46Q295 25 275 12Q255 -1 234.5 -6Q214 -11 195 -11Z" glyph-name="dcaron" horiz-adv-x="455" unicode="&#271;" /><glyph d="M200 16Q228 16 253.5 28Q279 40 299 63.5Q319 87 331 120.5Q343 154 343 196V317Q343 352 331.5 383Q320 414 301.5 437Q283 460 258 473.5Q233 487 206 487Q183 487 162.5 480.5Q142 474 125.5 459.5Q109 445 99.5 421Q90 397 90 362V130Q90 80 115.5 48Q141 16 200 16ZM198 615H342V713H373V615H430V591H373V0H347L346 100H343Q330 67 312.5 46Q295 25 275 12Q255 -1 234.5 -6Q214 -11 195 -11Q129 -11 94.5 26.5Q60 64 60 120V360Q60 400 72.5 429Q85 458 105.5 476.5Q126 495 151.5 503.5Q177 512 204 512Q225 512 246.5 506Q268 500 287 488Q306 476 320 457Q334 438 340 413H342V591H198Z" glyph-name="dcroat" horiz-adv-x="455" unicode="&#273;" /><glyph d="M136 556Q167 556 186.5 576.5Q206 597 206 626Q206 655 186.5 676.5Q167 698 136 698Q107 698 88.5 677Q70 656 70 626Q70 597 88.5 576.5Q107 556 136 556ZM136 533Q97 533 70.5 560Q44 587 44 626Q44 665 70.5 693Q97 721 136 721Q157 721 174.5 713.5Q192 706 204.5 693Q217 680 224.5 662.5Q232 645 232 626Q232 587 205 560Q178 533 136 533Z" glyph-name="degree" horiz-adv-x="276" unicode="&#176;" /><glyph d="M220 689H251V604H220ZM86 689H117V604H86Z" glyph-name="dieresis" horiz-adv-x="335" unicode="&#168;" /><glyph d="M253 493H293V412H253ZM88 332H451V303H88ZM253 210H293V129H253Z" glyph-name="divide" horiz-adv-x="540" unicode="&#247;" /><glyph d="M215 57Q149 61 110.5 82Q72 103 46 133L66 152Q85 133 103.5 120Q122 107 141 99Q160 91 182 87.5Q204 84 231 84Q296 84 334 119.5Q372 155 372 212Q372 265 349 295Q326 325 275 346Q274 346 258.5 352.5Q243 359 224.5 367Q206 375 190.5 381.5Q175 388 174 389Q119 415 96.5 448.5Q74 482 74 531Q74 559 84.5 584Q95 609 113.5 628.5Q132 648 158 659.5Q184 671 215 673V747H242V673Q290 670 329.5 652Q369 634 392 608L374 589Q338 621 305 634Q272 647 227 647Q203 647 181.5 639.5Q160 632 143 618Q126 604 116 583.5Q106 563 106 536Q106 495 124 464Q142 433 197 412Q198 412 212.5 405.5Q227 399 244.5 391Q262 383 277 376.5Q292 370 292 370Q346 347 374 311Q402 275 402 213Q402 184 391 157Q380 130 359.5 108.5Q339 87 309.5 73.5Q280 60 242 58V-25H215Z" glyph-name="dollar" horiz-adv-x="449" unicode="$" /><glyph d="M68 693H100V605H68Z" glyph-name="dotaccent" horiz-adv-x="168" unicode="&#729;" /><glyph d="M83 500H113V0H83Z" glyph-name="dotlessi" horiz-adv-x="195" unicode="&#305;" /><glyph d="M20 -189Q12 -189 2.5 -188.5Q-7 -188 -15 -187V-158Q-9 -159 -0.5 -159.5Q8 -160 15 -160Q63 -160 79.5 -134.5Q96 -109 96 -67V500H127V-74Q127 -189 20 -189Z" glyph-name="dotlessj" horiz-adv-x="210" unicode="&#567;" /><glyph d="M349 277V345Q349 370 342.5 395.5Q336 421 321 440.5Q306 460 281 472.5Q256 485 219 485Q184 485 160 472Q136 459 120.5 438Q105 417 98 391.5Q91 366 91 341V277ZM232 -11Q153 -11 106.5 31Q60 73 60 165V330Q60 418 105.5 465Q151 512 226 512Q301 512 339.5 466Q378 420 378 341V251H91V162Q91 88 125.5 52Q160 16 234 16Q279 16 310 29Q341 42 362 56L374 35Q344 11 308.5 0Q273 -11 232 -11Z" glyph-name="e" horiz-adv-x="432" unicode="e" /><glyph d="M349 277V345Q349 370 342.5 395.5Q336 421 321 440.5Q306 460 281 472.5Q256 485 219 485Q184 485 160 472Q136 459 120.5 438Q105 417 98 391.5Q91 366 91 341V277ZM232 -11Q153 -11 106.5 31Q60 73 60 165V330Q60 418 105.5 465Q151 512 226 512Q301 512 339.5 466Q378 420 378 341V251H91V162Q91 88 125.5 52Q160 16 234 16Q279 16 310 29Q341 42 362 56L374 35Q344 11 308.5 0Q273 -11 232 -11ZM294 713H333L232 572H204Z" glyph-name="eacute" horiz-adv-x="432" unicode="&#233;" /><glyph d="M216 576Q163 576 126 606Q89 636 87 689H115Q119 652 144 627Q169 602 220 602Q262 602 287.5 627Q313 652 318 689H345Q343 660 331 639Q319 618 300.5 604Q282 590 260 583Q238 576 216 576ZM349 277V345Q349 370 342.5 395.5Q336 421 321 440.5Q306 460 281 472.5Q256 485 219 485Q184 485 160 472Q136 459 120.5 438Q105 417 98 391.5Q91 366 91 341V277ZM232 -11Q153 -11 106.5 31Q60 73 60 165V330Q60 418 105.5 465Q151 512 226 512Q301 512 339.5 466Q378 420 378 341V251H91V162Q91 88 125.5 52Q160 16 234 16Q279 16 310 29Q341 42 362 56L374 35Q344 11 308.5 0Q273 -11 232 -11Z" glyph-name="ebreve" horiz-adv-x="432" unicode="&#277;" /><glyph d="M137 708H170L229 598L289 708H321L240 567H215ZM349 277V345Q349 370 342.5 395.5Q336 421 321 440.5Q306 460 281 472.5Q256 485 219 485Q184 485 160 472Q136 459 120.5 438Q105 417 98 391.5Q91 366 91 341V277ZM232 -11Q153 -11 106.5 31Q60 73 60 165V330Q60 418 105.5 465Q151 512 226 512Q301 512 339.5 466Q378 420 378 341V251H91V162Q91 88 125.5 52Q160 16 234 16Q279 16 310 29Q341 42 362 56L374 35Q344 11 308.5 0Q273 -11 232 -11Z" glyph-name="ecaron" horiz-adv-x="432" unicode="&#283;" /><glyph d="M349 277V345Q349 370 342.5 395.5Q336 421 321 440.5Q306 460 281 472.5Q256 485 219 485Q184 485 160 472Q136 459 120.5 438Q105 417 98 391.5Q91 366 91 341V277ZM232 -11Q153 -11 106.5 31Q60 73 60 165V330Q60 418 105.5 465Q151 512 226 512Q301 512 339.5 466Q378 420 378 341V251H91V162Q91 88 125.5 52Q160 16 234 16Q279 16 310 29Q341 42 362 56L374 35Q344 11 308.5 0Q273 -11 232 -11ZM209 708H234L312 567H279L220 677L160 567H128Z" glyph-name="ecircumflex" horiz-adv-x="432" unicode="&#234;" /><glyph d="M349 277V345Q349 370 342.5 395.5Q336 421 321 440.5Q306 460 281 472.5Q256 485 219 485Q184 485 160 472Q136 459 120.5 438Q105 417 98 391.5Q91 366 91 341V277ZM232 -11Q153 -11 106.5 31Q60 73 60 165V330Q60 418 105.5 465Q151 512 226 512Q301 512 339.5 466Q378 420 378 341V251H91V162Q91 88 125.5 52Q160 16 234 16Q279 16 310 29Q341 42 362 56L374 35Q344 11 308.5 0Q273 -11 232 -11ZM269 689H300V604H269ZM135 689H166V604H135Z" glyph-name="edieresis" horiz-adv-x="432" unicode="&#235;" /><glyph d="M221 693H253V605H221ZM349 277V345Q349 370 342.5 395.5Q336 421 321 440.5Q306 460 281 472.5Q256 485 219 485Q184 485 160 472Q136 459 120.5 438Q105 417 98 391.5Q91 366 91 341V277ZM232 -11Q153 -11 106.5 31Q60 73 60 165V330Q60 418 105.5 465Q151 512 226 512Q301 512 339.5 466Q378 420 378 341V251H91V162Q91 88 125.5 52Q160 16 234 16Q279 16 310 29Q341 42 362 56L374 35Q344 11 308.5 0Q273 -11 232 -11Z" glyph-name="edotaccent" horiz-adv-x="432" unicode="&#279;" /><glyph d="M118 713H157L248 572H220ZM349 277V345Q349 370 342.5 395.5Q336 421 321 440.5Q306 460 281 472.5Q256 485 219 485Q184 485 160 472Q136 459 120.5 438Q105 417 98 391.5Q91 366 91 341V277ZM232 -11Q153 -11 106.5 31Q60 73 60 165V330Q60 418 105.5 465Q151 512 226 512Q301 512 339.5 466Q378 420 378 341V251H91V162Q91 88 125.5 52Q160 16 234 16Q279 16 310 29Q341 42 362 56L374 35Q344 11 308.5 0Q273 -11 232 -11Z" glyph-name="egrave" horiz-adv-x="432" unicode="&#232;" /><glyph d="M233 380Q258 380 283 389.5Q308 399 327 415.5Q346 432 358 455.5Q370 479 370 507V582Q370 611 358 632.5Q346 654 326 668.5Q306 683 280.5 690.5Q255 698 228 698Q203 698 179 689.5Q155 681 136 665Q117 649 105 626Q93 603 93 575V506Q93 474 106.5 450.5Q120 427 140.5 411.5Q161 396 185.5 388Q210 380 233 380ZM231 17Q296 17 336 51Q376 85 376 148V224Q376 257 363 281.5Q350 306 329 322.5Q308 339 282 347.5Q256 356 231 356Q204 356 178 347.5Q152 339 132 322Q112 305 99.5 280Q87 255 87 223V144Q87 115 98 92Q109 69 128.5 52Q148 35 174.5 26Q201 17 231 17ZM229 -11Q190 -11 158.5 0.5Q127 12 104 33Q81 54 68.5 83Q56 112 56 148V222Q56 275 88 313.5Q120 352 168 368Q117 382 90 420.5Q63 459 63 502V569Q63 609 77 638Q91 667 114.5 686.5Q138 706 168.5 715.5Q199 725 232 725Q266 725 296.5 716Q327 707 350 689Q373 671 387 642.5Q401 614 401 575V508Q401 487 394 465.5Q387 444 373.5 425.5Q360 407 339.5 392Q319 377 292 370Q316 363 336.5 350.5Q357 338 373 319Q389 300 398 276Q407 252 407 223V150Q407 72 357 30.5Q307 -11 229 -11Z" glyph-name="eight" horiz-adv-x="462" unicode="8" /><glyph d="M272 380Q297 380 322 389.5Q347 399 366 415.5Q385 432 397 455.5Q409 479 409 507V582Q409 611 397 632.5Q385 654 365 668.5Q345 683 319.5 690.5Q294 698 267 698Q242 698 218 689.5Q194 681 175 665Q156 649 144 626Q132 603 132 575V506Q132 474 145.5 450.5Q159 427 179.5 411.5Q200 396 224.5 388Q249 380 272 380ZM270 17Q335 17 375 51Q415 85 415 148V224Q415 257 402 281.5Q389 306 368 322.5Q347 339 321 347.5Q295 356 270 356Q243 356 217 347.5Q191 339 171 322Q151 305 138.5 280Q126 255 126 223V144Q126 115 137 92Q148 69 167.5 52Q187 35 213.5 26Q240 17 270 17ZM268 -11Q229 -11 197.5 0.5Q166 12 143 33Q120 54 107.5 83Q95 112 95 148V222Q95 275 127 313.5Q159 352 207 368Q156 382 129 420.5Q102 459 102 502V569Q102 609 116 638Q130 667 153.5 686.5Q177 706 207.5 715.5Q238 725 271 725Q305 725 335.5 716Q366 707 389 689Q412 671 426 642.5Q440 614 440 575V508Q440 487 433 465.5Q426 444 412.5 425.5Q399 407 378.5 392Q358 377 331 370Q355 363 375.5 350.5Q396 338 412 319Q428 300 437 276Q446 252 446 223V150Q446 72 396 30.5Q346 -11 268 -11Z" glyph-name="eight.LT" horiz-adv-x="540" unicode="&#58696;" /><glyph d="M153 212Q180 212 202.5 229.5Q225 247 225 276V317Q225 347 202 362.5Q179 378 151 378Q124 378 101.5 360.5Q79 343 79 314V275Q79 259 86 247Q93 235 103.5 227.5Q114 220 127 216Q140 212 153 212ZM152 11Q186 11 207 29Q228 47 228 80V121Q228 155 203.5 171.5Q179 188 152 188Q123 188 99.5 171Q76 154 76 121V78Q76 47 98 29Q120 11 152 11ZM151 -12Q105 -12 76.5 12Q48 36 48 79V119Q48 147 66.5 168Q85 189 113 200Q84 208 68 229.5Q52 251 52 273V312Q52 356 82.5 378Q113 400 152 400Q193 400 222.5 379.5Q252 359 252 315V276Q252 254 235.5 232.5Q219 211 190 201Q217 193 237 171.5Q257 150 257 120V80Q257 35 226.5 11.5Q196 -12 151 -12Z" glyph-name="eight.dnom" horiz-adv-x="305" unicode="&#58378;" /><glyph d="M153 530Q180 530 202.5 547.5Q225 565 225 594V635Q225 665 202 680.5Q179 696 151 696Q124 696 101.5 678.5Q79 661 79 632V593Q79 577 86 565Q93 553 103.5 545.5Q114 538 127 534Q140 530 153 530ZM152 329Q186 329 207 347Q228 365 228 398V439Q228 473 203.5 489.5Q179 506 152 506Q123 506 99.5 489Q76 472 76 439V396Q76 365 98 347Q120 329 152 329ZM151 306Q105 306 76.5 330Q48 354 48 397V437Q48 465 66.5 486Q85 507 113 518Q84 526 68 547.5Q52 569 52 591V630Q52 674 82.5 696Q113 718 152 718Q193 718 222.5 697.5Q252 677 252 633V594Q252 572 235.5 550.5Q219 529 190 519Q217 511 237 489.5Q257 468 257 438V398Q257 353 226.5 329.5Q196 306 151 306Z" glyph-name="eight.numr" horiz-adv-x="305" unicode="&#58398;" /><glyph d="M382 87H416V0H382ZM224 87H257V0H224ZM67 87H99V0H67Z" glyph-name="ellipsis" horiz-adv-x="481" unicode="&#8230;" /><glyph d="M94 633H338V604H94ZM349 277V345Q349 370 342.5 395.5Q336 421 321 440.5Q306 460 281 472.5Q256 485 219 485Q184 485 160 472Q136 459 120.5 438Q105 417 98 391.5Q91 366 91 341V277ZM232 -11Q153 -11 106.5 31Q60 73 60 165V330Q60 418 105.5 465Q151 512 226 512Q301 512 339.5 466Q378 420 378 341V251H91V162Q91 88 125.5 52Q160 16 234 16Q279 16 310 29Q341 42 362 56L374 35Q344 11 308.5 0Q273 -11 232 -11Z" glyph-name="emacron" horiz-adv-x="432" unicode="&#275;" /><glyph d="M0 303H779V278H0Z" glyph-name="emdash" horiz-adv-x="779" unicode="&#8212;" /><glyph d="M0 303H460V278H0Z" glyph-name="endash" horiz-adv-x="460" unicode="&#8211;" /><glyph d="M285 -189Q277 -189 267.5 -188.5Q258 -188 250 -187V-158Q256 -159 264.5 -159.5Q273 -160 280 -160Q328 -160 344.5 -134.5Q361 -109 361 -67V377Q361 438 332.5 461.5Q304 485 259 485Q232 485 206 472.5Q180 460 159 438.5Q138 417 125.5 388.5Q113 360 113 328V0H83V500H110V408H111Q134 461 177.5 486.5Q221 512 270 512Q300 512 323 502.5Q346 493 361 476.5Q376 460 384 439Q392 418 392 394V-74Q392 -189 285 -189Z" glyph-name="eng" horiz-adv-x="470" unicode="&#331;" /><glyph d="M349 277V345Q349 370 342.5 395.5Q336 421 321 440.5Q306 460 281 472.5Q256 485 219 485Q184 485 160 472Q136 459 120.5 438Q105 417 98 391.5Q91 366 91 341V277ZM232 -11Q153 -11 106.5 31Q60 73 60 165V330Q60 418 105.5 465Q151 512 226 512Q301 512 339.5 466Q378 420 378 341V251H91V162Q91 88 125.5 52Q160 16 234 16Q279 16 310 29Q341 42 362 56L374 35Q367 29 360 24.5Q353 20 345 15L349 14Q339 7 327.5 -4.5Q316 -16 306 -31Q296 -46 289.5 -64.5Q283 -83 283 -104Q283 -127 295 -143.5Q307 -160 336 -160Q347 -160 360.5 -156Q374 -152 382 -147L392 -167Q383 -173 368.5 -178.5Q354 -184 331 -184Q300 -184 277 -165.5Q254 -147 254 -109Q254 -76 269 -48Q284 -20 307 0Q269 -11 232 -11Z" glyph-name="eogonek" horiz-adv-x="432" unicode="&#281;" /><glyph d="M88 404H451V376H88ZM88 263H451V234H88Z" glyph-name="equal" horiz-adv-x="540" unicode="=" /><glyph d="M222 15Q261 15 286 26Q311 37 326 56.5Q341 76 346.5 103Q352 130 352 161V343Q352 373 346.5 398.5Q341 424 327 443Q313 462 289.5 473Q266 484 230 484Q158 484 124 443Q90 402 90 339V152Q90 122 97 97Q104 72 120 54Q136 36 161 25.5Q186 15 222 15ZM221 -11Q142 -11 101 30.5Q60 72 60 154V340Q60 422 106.5 466Q153 510 227 510Q235 510 256 507Q277 504 301 493L222 623L125 597L116 618L206 644L161 715L191 725L235 653L341 682L350 661L250 632Q268 602 297.5 555Q327 508 357 458Q369 438 375.5 406Q382 374 382 342V162Q382 77 342 33Q302 -11 221 -11Z" glyph-name="eth" horiz-adv-x="441" unicode="&#240;" /><glyph d="M89 87H122V0H89ZM90 470V713H121V470L118 183H95Z" glyph-name="exclam" horiz-adv-x="211" unicode="!" /><glyph d="M89 537H122V452H89ZM89 69 92 355H116L119 69V-176H89Z" glyph-name="exclamdown" horiz-adv-x="211" unicode="&#161;" /><glyph d="M123 473H36V500H123V609Q123 664 151.5 695.5Q180 727 231 727Q254 727 278 721V692Q267 696 255 697Q243 698 229 698Q197 698 175.5 678Q154 658 154 612V500H266V473H154V0H123Z" glyph-name="f" horiz-adv-x="293" unicode="f" /><glyph d="M123 473H36V500H123V609Q123 664 151.5 695.5Q180 727 231 727Q254 727 278 721V692Q267 696 255 697Q243 698 229 698Q197 698 175.5 678Q154 658 154 612V500H266V473H154V0H123ZM365 694H395V604H365ZM365 500H395V0H365Z" glyph-name="fi" horiz-adv-x="479" unicode="&#64257;" /><glyph d="M224 -11Q178 -11 145.5 1.5Q113 14 93 34.5Q73 55 63.5 80Q54 105 54 131V176H86V134Q86 104 97.5 81.5Q109 59 128.5 45Q148 31 173.5 24Q199 17 226 17Q252 17 279 24Q306 31 328 48.5Q350 66 364 96.5Q378 127 378 175V265Q378 308 367 337.5Q356 367 337 385Q318 403 292 411Q266 419 236 419Q196 419 162.5 402.5Q129 386 104 363L71 365L90 713H379V685H117L101 393Q134 423 172 435Q210 447 248 447Q281 447 310 437Q339 427 361 406Q383 385 396 352.5Q409 320 409 275V174Q409 128 395.5 93.5Q382 59 357 35.5Q332 12 298 0.5Q264 -11 224 -11Z" glyph-name="five" horiz-adv-x="464" unicode="5" /><glyph d="M263 -11Q217 -11 184.5 1.5Q152 14 132 34.5Q112 55 102.5 80Q93 105 93 131V176H125V134Q125 104 136.5 81.5Q148 59 167.5 45Q187 31 212.5 24Q238 17 265 17Q291 17 318 24Q345 31 367 48.5Q389 66 403 96.5Q417 127 417 175V265Q417 308 406 337.5Q395 367 376 385Q357 403 331 411Q305 419 275 419Q235 419 201.5 402.5Q168 386 143 363L110 365L129 713H418V685H156L140 393Q173 423 211 435Q249 447 287 447Q320 447 349 437Q378 427 400 406Q422 385 435 352.5Q448 320 448 275V174Q448 128 434.5 93.5Q421 59 396 35.5Q371 12 337 0.5Q303 -11 263 -11Z" glyph-name="five.LT" horiz-adv-x="540" unicode="&#58693;" /><glyph d="M147 -12Q121 -12 102 -4.5Q83 3 71 15Q59 27 53.5 42Q48 57 48 73V93H74V74Q74 43 96.5 26.5Q119 10 149 10Q180 10 203.5 28.5Q227 47 227 97V142Q227 186 206 204.5Q185 223 153 223Q133 223 113.5 211.5Q94 200 83 188L54 191L67 394H237V370H89L79 212Q95 229 117 237.5Q139 246 160 246Q198 246 226 222Q254 198 254 147V92Q254 42 223.5 15Q193 -12 147 -12Z" glyph-name="five.dnom" horiz-adv-x="302" unicode="&#58375;" /><glyph d="M147 306Q121 306 102 313.5Q83 321 71 333Q59 345 53.5 360Q48 375 48 391V411H74V392Q74 361 96.5 344.5Q119 328 149 328Q180 328 203.5 346.5Q227 365 227 415V460Q227 504 206 522.5Q185 541 153 541Q133 541 113.5 529.5Q94 518 83 506L54 509L67 712H237V688H89L79 530Q95 547 117 555.5Q139 564 160 564Q198 564 226 540Q254 516 254 465V410Q254 360 223.5 333Q193 306 147 306Z" glyph-name="five.numr" horiz-adv-x="302" unicode="&#58395;" /><glyph d="M123 473H36V500H123V609Q123 664 151.5 695.5Q180 727 231 727Q254 727 278 721V692Q267 696 255 697Q243 698 229 698Q197 698 175.5 678Q154 658 154 612V500H266V473H154V0H123ZM455 -4Q412 -4 388.5 20Q365 44 365 92V713H396V90Q396 61 411 43.5Q426 26 461 26Q473 26 487 27.5Q501 29 509 31V3Q494 -2 480.5 -3Q467 -4 455 -4Z" glyph-name="fl" horiz-adv-x="547" unicode="&#64258;" /><glyph d="M40 -189Q32 -189 22.5 -188.5Q13 -188 5 -187V-158Q11 -159 19.5 -159.5Q28 -160 35 -160Q59 -160 74 -153Q89 -146 97.5 -133.5Q106 -121 110 -104Q114 -87 116 -67L158 437H66L68 464H159L171 609Q176 664 207 695.5Q238 727 288 727Q311 727 334 721L332 694Q321 697 310.5 698.5Q300 700 286 700Q254 700 230.5 679.5Q207 659 202 613L190 464H298L296 437H188L147 -74Q142 -126 118.5 -157.5Q95 -189 40 -189Z" glyph-name="florin" horiz-adv-x="346" unicode="&#402;" /><glyph d="M316 206H44V233L304 713H338L77 234H316V398L347 425V234H441V206H347V0H316Z" glyph-name="four" horiz-adv-x="480" unicode="4" /><glyph d="M344 206H72V233L332 713H366L105 234H344V398L375 425V234H469V206H375V0H344Z" glyph-name="four.LT" horiz-adv-x="540" unicode="&#58692;" /><glyph d="M176 111H27V135L168 399H199L56 136H176V220L204 241V136H256V111H204V0H176Z" glyph-name="four.dnom" horiz-adv-x="276" unicode="&#58374;" /><glyph d="M176 429H27V453L168 717H199L56 454H176V538L204 559V454H256V429H204V318H176Z" glyph-name="four.numr" horiz-adv-x="276" unicode="&#58394;" /><glyph d="M227 718H257L-116 -4H-146Z" glyph-name="fraction" horiz-adv-x="113" unicode="&#8260;" /><glyph d="M206 32Q233 32 258 43.5Q283 55 302 77Q321 99 332 130.5Q343 162 343 202V332Q343 367 331 395.5Q319 424 300 444Q281 464 256 475Q231 486 206 486Q183 486 162.5 478Q142 470 125.5 454.5Q109 439 99.5 416Q90 393 90 362V146Q90 92 116.5 62Q143 32 206 32ZM202 -188Q159 -188 123 -177Q87 -166 62 -147L78 -123Q108 -143 137 -151.5Q166 -160 203 -160Q266 -160 304.5 -124.5Q343 -89 343 -20V102H342Q331 75 314.5 56Q298 37 278.5 25.5Q259 14 237.5 9Q216 4 196 4Q163 4 137.5 14.5Q112 25 94.5 44Q77 63 68.5 87.5Q60 112 60 141V363Q60 402 73 430Q86 458 107 476.5Q128 495 154 503.5Q180 512 205 512Q222 512 243 507.5Q264 503 283.5 492Q303 481 319.5 462.5Q336 444 344 416H345L347 501H373V-20Q373 -103 325.5 -145.5Q278 -188 202 -188Z" glyph-name="g" horiz-adv-x="455" unicode="g" /><glyph d="M198 576Q145 576 108 606Q71 636 69 689H97Q101 652 126 627Q151 602 202 602Q244 602 269.5 627Q295 652 300 689H327Q325 660 313 639Q301 618 282.5 604Q264 590 242 583Q220 576 198 576ZM206 32Q233 32 258 43.5Q283 55 302 77Q321 99 332 130.5Q343 162 343 202V332Q343 367 331 395.5Q319 424 300 444Q281 464 256 475Q231 486 206 486Q183 486 162.5 478Q142 470 125.5 454.5Q109 439 99.5 416Q90 393 90 362V146Q90 92 116.5 62Q143 32 206 32ZM202 -188Q159 -188 123 -177Q87 -166 62 -147L78 -123Q108 -143 137 -151.5Q166 -160 203 -160Q266 -160 304.5 -124.5Q343 -89 343 -20V102H342Q331 75 314.5 56Q298 37 278.5 25.5Q259 14 237.5 9Q216 4 196 4Q163 4 137.5 14.5Q112 25 94.5 44Q77 63 68.5 87.5Q60 112 60 141V363Q60 402 73 430Q86 458 107 476.5Q128 495 154 503.5Q180 512 205 512Q222 512 243 507.5Q264 503 283.5 492Q303 481 319.5 462.5Q336 444 344 416H345L347 501H373V-20Q373 -103 325.5 -145.5Q278 -188 202 -188Z" glyph-name="gbreve" horiz-adv-x="455" unicode="&#287;" /><glyph d="M188 708H213L291 567H258L199 677L139 567H107ZM206 32Q233 32 258 43.5Q283 55 302 77Q321 99 332 130.5Q343 162 343 202V332Q343 367 331 395.5Q319 424 300 444Q281 464 256 475Q231 486 206 486Q183 486 162.5 478Q142 470 125.5 454.5Q109 439 99.5 416Q90 393 90 362V146Q90 92 116.5 62Q143 32 206 32ZM202 -188Q159 -188 123 -177Q87 -166 62 -147L78 -123Q108 -143 137 -151.5Q166 -160 203 -160Q266 -160 304.5 -124.5Q343 -89 343 -20V102H342Q331 75 314.5 56Q298 37 278.5 25.5Q259 14 237.5 9Q216 4 196 4Q163 4 137.5 14.5Q112 25 94.5 44Q77 63 68.5 87.5Q60 112 60 141V363Q60 402 73 430Q86 458 107 476.5Q128 495 154 503.5Q180 512 205 512Q222 512 243 507.5Q264 503 283.5 492Q303 481 319.5 462.5Q336 444 344 416H345L347 501H373V-20Q373 -103 325.5 -145.5Q278 -188 202 -188Z" glyph-name="gcircumflex" horiz-adv-x="455" unicode="&#285;" /><glyph d="M201 649 215 713H231L222 652H233V588H201ZM206 32Q233 32 258 43.5Q283 55 302 77Q321 99 332 130.5Q343 162 343 202V332Q343 367 331 395.5Q319 424 300 444Q281 464 256 475Q231 486 206 486Q183 486 162.5 478Q142 470 125.5 454.5Q109 439 99.5 416Q90 393 90 362V146Q90 92 116.5 62Q143 32 206 32ZM202 -188Q159 -188 123 -177Q87 -166 62 -147L78 -123Q108 -143 137 -151.5Q166 -160 203 -160Q266 -160 304.5 -124.5Q343 -89 343 -20V102H342Q331 75 314.5 56Q298 37 278.5 25.5Q259 14 237.5 9Q216 4 196 4Q163 4 137.5 14.5Q112 25 94.5 44Q77 63 68.5 87.5Q60 112 60 141V363Q60 402 73 430Q86 458 107 476.5Q128 495 154 503.5Q180 512 205 512Q222 512 243 507.5Q264 503 283.5 492Q303 481 319.5 462.5Q336 444 344 416H345L347 501H373V-20Q373 -103 325.5 -145.5Q278 -188 202 -188Z" glyph-name="gcommaaccent" horiz-adv-x="455" unicode="&#291;" /><glyph d="M185 693H217V605H185ZM206 32Q233 32 258 43.5Q283 55 302 77Q321 99 332 130.5Q343 162 343 202V332Q343 367 331 395.5Q319 424 300 444Q281 464 256 475Q231 486 206 486Q183 486 162.5 478Q142 470 125.5 454.5Q109 439 99.5 416Q90 393 90 362V146Q90 92 116.5 62Q143 32 206 32ZM202 -188Q159 -188 123 -177Q87 -166 62 -147L78 -123Q108 -143 137 -151.5Q166 -160 203 -160Q266 -160 304.5 -124.5Q343 -89 343 -20V102H342Q331 75 314.5 56Q298 37 278.5 25.5Q259 14 237.5 9Q216 4 196 4Q163 4 137.5 14.5Q112 25 94.5 44Q77 63 68.5 87.5Q60 112 60 141V363Q60 402 73 430Q86 458 107 476.5Q128 495 154 503.5Q180 512 205 512Q222 512 243 507.5Q264 503 283.5 492Q303 481 319.5 462.5Q336 444 344 416H345L347 501H373V-20Q373 -103 325.5 -145.5Q278 -188 202 -188Z" glyph-name="gdotaccent" horiz-adv-x="455" unicode="&#289;" /><glyph d="M364 -11Q313 -11 275 6.5Q237 24 208 59L228 78Q257 46 288.5 30Q320 14 366 14Q400 14 423.5 26Q447 38 462 59Q477 80 484 107.5Q491 135 491 167Q491 210 475 244.5Q459 279 432 303.5Q405 328 369 343Q333 358 293 362V386L321 387Q383 414 414.5 456Q446 498 446 549Q446 618 403 658Q360 698 290 698Q254 698 227.5 686.5Q201 675 183 655Q165 635 156.5 608.5Q148 582 148 551V0H118V474H34V500H118V547Q118 588 131 620.5Q144 653 167.5 676Q191 699 223 711.5Q255 724 293 724Q335 724 369 710.5Q403 697 427 674Q451 651 463.5 621Q476 591 476 558Q476 443 350 375V374Q395 363 427.5 340.5Q460 318 481 290Q502 262 512 230.5Q522 199 522 169Q522 85 479.5 37Q437 -11 364 -11Z" glyph-name="germandbls" horiz-adv-x="547" unicode="&#223;" /><glyph d="M27 713H66L157 572H129Z" glyph-name="grave" horiz-adv-x="241" unicode="`" /><glyph d="M104 173 399 318Q366 334 327.5 352Q289 370 249.5 388Q210 406 171.5 423.5Q133 441 100 457L113 481L439 330V306L117 148Z" glyph-name="greater" horiz-adv-x="540" unicode="&gt;" /><glyph d="M88 110H451V82H88ZM104 225 401 370Q367 386 328.5 404Q290 422 250.5 440Q211 458 172.5 475.5Q134 493 100 508L112 534L440 382V358L117 200Z" glyph-name="greaterequal" horiz-adv-x="540" unicode="&#8805;" /><glyph d="M146 276 239 420 261 407 186 278 262 149 240 136ZM16 276 109 420 131 407 56 278 132 149 110 136Z" glyph-name="guillemotleft" horiz-adv-x="344" unicode="&#171;" /><glyph d="M147 149 222 278 146 407 168 420 262 280 169 136ZM17 149 92 278 16 407 38 420 132 280 39 136Z" glyph-name="guillemotright" horiz-adv-x="344" unicode="&#187;" /><glyph d="M36 276 129 420 151 407 76 278 152 149 130 136Z" glyph-name="guilsinglleft" horiz-adv-x="223" unicode="&#8249;" /><glyph d="M37 149 112 278 36 407 58 420 152 280 59 136Z" glyph-name="guilsinglright" horiz-adv-x="223" unicode="&#8250;" /><glyph d="M83 714H113V407H115Q138 461 179.5 486.5Q221 512 270 512Q300 512 323 502.5Q346 493 361 476.5Q376 460 384 439Q392 418 392 394V0H361V377Q361 438 332.5 461.5Q304 485 259 485Q232 485 206 471.5Q180 458 159 435.5Q138 413 125.5 384Q113 355 113 323V0H83Z" glyph-name="h" horiz-adv-x="470" unicode="h" /><glyph d="M39 615H83V714H113V615H260V591H113V407H115Q138 461 179.5 486.5Q221 512 270 512Q300 512 323 502.5Q346 493 361 476.5Q376 460 384 439Q392 418 392 394V0H361V377Q361 438 332.5 461.5Q304 485 259 485Q232 485 206 471.5Q180 458 159 435.5Q138 413 125.5 384Q113 355 113 323V0H83V591H39Z" glyph-name="hbar" horiz-adv-x="470" unicode="&#295;" /><glyph d="M87 908H112L190 767H157L98 877L38 767H6ZM83 714H113V407H115Q138 461 179.5 486.5Q221 512 270 512Q300 512 323 502.5Q346 493 361 476.5Q376 460 384 439Q392 418 392 394V0H361V377Q361 438 332.5 461.5Q304 485 259 485Q232 485 206 471.5Q180 458 159 435.5Q138 413 125.5 384Q113 355 113 323V0H83Z" glyph-name="hcircumflex" horiz-adv-x="470" unicode="&#293;" /><glyph d="M227 692H264L201 565H174ZM121 692H158L95 565H68Z" glyph-name="hungarumlaut" horiz-adv-x="317" unicode="&#733;" /><glyph d="M32 307H225V278H32Z" glyph-name="hyphen" horiz-adv-x="257" unicode="-" /><glyph d="M83 694H113V604H83ZM83 500H113V0H83Z" glyph-name="i" horiz-adv-x="195" unicode="i" /><glyph d="M83 500H113V0H83ZM178 713H217L116 572H88Z" glyph-name="iacute" horiz-adv-x="195" unicode="&#237;" /><glyph d="M98 576Q45 576 8 606Q-29 636 -31 689H-3Q1 652 26 627Q51 602 102 602Q144 602 169.5 627Q195 652 200 689H227Q225 660 213 639Q201 618 182.5 604Q164 590 142 583Q120 576 98 576ZM83 500H113V0H83Z" glyph-name="ibreve" horiz-adv-x="195" unicode="&#301;" /><glyph d="M83 500H113V0H83ZM85 708H110L188 567H155L96 677L36 567H4Z" glyph-name="icircumflex" horiz-adv-x="195" unicode="&#238;" /><glyph d="M83 500H113V0H83ZM148 689H179V604H148ZM14 689H45V604H14Z" glyph-name="idieresis" horiz-adv-x="195" unicode="&#239;" /><glyph d="M83 694H113V604H83ZM83 500H113V0H83Z" glyph-name="idotaccent" horiz-adv-x="195" /><glyph d="M-20 713H19L110 572H82ZM83 500H113V0H83Z" glyph-name="igrave" horiz-adv-x="195" unicode="&#236;" /><glyph d="M263 694H294V604H263ZM187 -189Q179 -189 169.5 -188.5Q160 -188 152 -187V-158Q158 -159 166.5 -159.5Q175 -160 182 -160Q230 -160 246.5 -134.5Q263 -109 263 -67V500H294V-74Q294 -189 187 -189ZM83 694H113V604H83ZM83 500H113V0H83Z" glyph-name="ij" horiz-adv-x="377" unicode="&#307;" /><glyph d="M-24 633H220V604H-24ZM83 500H113V0H83Z" glyph-name="imacron" horiz-adv-x="195" unicode="&#299;" /><glyph d="M617 194Q647 194 671.5 204Q696 214 714 231Q732 248 742 271Q752 294 752 321Q752 374 720 408.5Q688 443 622 443Q599 443 575 433Q551 423 527 406Q503 389 478.5 367Q454 345 431 321Q450 297 471 274Q492 251 515 233Q538 215 563.5 204.5Q589 194 617 194ZM203 194Q231 194 256 204Q281 214 305 231.5Q329 249 352 271Q375 293 398 317Q381 340 360.5 363.5Q340 387 316 406Q292 425 265 437Q238 449 208 449Q181 449 157 440Q133 431 115 415Q97 399 86.5 377.5Q76 356 76 331Q76 304 84 279.5Q92 255 108 236Q124 217 147.5 205.5Q171 194 203 194ZM612 167Q582 167 554.5 177.5Q527 188 502.5 205.5Q478 223 455.5 246Q433 269 413 294Q392 270 368 247.5Q344 225 317.5 207Q291 189 263.5 178Q236 167 208 167Q170 167 139.5 179.5Q109 192 88 213Q67 234 55.5 261.5Q44 289 44 320Q44 354 57 382.5Q70 411 92.5 432Q115 453 145.5 464.5Q176 476 211 476Q273 476 322 439.5Q371 403 417 348Q437 368 461.5 389.5Q486 411 513 428.5Q540 446 568.5 457.5Q597 469 626 469Q700 469 742 429.5Q784 390 784 327Q784 291 771 261.5Q758 232 735.5 211Q713 190 681 178.5Q649 167 612 167Z" glyph-name="infinity" horiz-adv-x="828" unicode="&#8734;" /><glyph d="M40 -189Q32 -189 21.5 -188Q11 -187 3 -186L5 -158Q11 -159 20 -160Q29 -161 36 -161Q60 -161 74 -154Q88 -147 95.5 -134.5Q103 -122 106 -104.5Q109 -87 110 -67L143 609Q146 664 176 695.5Q206 727 256 727Q279 727 302 721L300 694Q289 697 278.5 698.5Q268 700 254 700Q222 700 198 679.5Q174 659 172 613L141 -74Q139 -126 117 -157.5Q95 -189 40 -189Z" glyph-name="integral" horiz-adv-x="346" unicode="&#8747;" /><glyph d="M83 694H113V604H83ZM83 500H113V0Q97 -13 79.5 -36.5Q62 -60 62 -102Q62 -125 72.5 -142.5Q83 -160 112 -160Q120 -160 127.5 -158.5Q135 -157 139 -155L145 -177Q140 -179 129.5 -181.5Q119 -184 107 -184Q76 -184 53.5 -165.5Q31 -147 31 -109Q31 -75 48 -45.5Q65 -16 83 0Z" glyph-name="iogonek" horiz-adv-x="195" unicode="&#303;" /><glyph d="M-40 579Q-37 608 -19.5 628.5Q-2 649 28 649Q45 649 62.5 643Q80 637 97.5 630.5Q115 624 132.5 618Q150 612 168 612Q188 612 198 624.5Q208 637 214 657L236 653Q231 623 212.5 603Q194 583 167 583Q149 583 130 589Q111 595 93 602Q75 609 58 615Q41 621 26 621Q3 621 -4.5 607Q-12 593 -17 577ZM83 500H113V0H83Z" glyph-name="itilde" horiz-adv-x="195" unicode="&#297;" /><glyph d="M96 694H127V604H96ZM20 -189Q12 -189 2.5 -188.5Q-7 -188 -15 -187V-158Q-9 -159 -0.5 -159.5Q8 -160 15 -160Q63 -160 79.5 -134.5Q96 -109 96 -67V500H127V-74Q127 -189 20 -189Z" glyph-name="j" horiz-adv-x="210" unicode="j" /><glyph d="M94 708H119L197 567H164L105 677L45 567H13ZM20 -189Q12 -189 2.5 -188.5Q-7 -188 -15 -187V-158Q-9 -159 -0.5 -159.5Q8 -160 15 -160Q63 -160 79.5 -134.5Q96 -109 96 -67V500H127V-74Q127 -189 20 -189Z" glyph-name="jcircumflex" horiz-adv-x="210" unicode="&#309;" /><glyph d="M83 714H113V226L331 500H368L227 326L380 0H348L206 302L113 190V0H83Z" glyph-name="k" horiz-adv-x="404" unicode="k" /><glyph d="M204 -39H237L223 -183H200ZM83 714H113V226L331 500H368L227 326L380 0H348L206 302L113 190V0H83Z" glyph-name="kcommaaccent" horiz-adv-x="404" unicode="&#311;" /><glyph d="M83 500H113V226L331 500H368L227 326L380 0H348L206 302L113 190V0H83Z" glyph-name="kgreenlandic" horiz-adv-x="404" unicode="&#312;" /><glyph d="M173 -4Q130 -4 106.5 20Q83 44 83 92V713H114V90Q114 61 129 43.5Q144 26 179 26Q191 26 205 27.5Q219 29 227 31V3Q212 -2 198.5 -3Q185 -4 173 -4Z" glyph-name="l" horiz-adv-x="259" unicode="l" /><glyph d="M173 913H212L111 772H83ZM173 -4Q130 -4 106.5 20Q83 44 83 92V713H114V90Q114 61 129 43.5Q144 26 179 26Q191 26 205 27.5Q219 29 227 31V3Q212 -2 198.5 -3Q185 -4 173 -4Z" glyph-name="lacute" horiz-adv-x="259" unicode="&#314;" /><glyph d="M184 713H215L203 571H180ZM173 -4Q130 -4 106.5 20Q83 44 83 92V713H114V90Q114 61 129 43.5Q144 26 179 26Q191 26 205 27.5Q219 29 227 31V3Q212 -2 198.5 -3Q185 -4 173 -4Z" glyph-name="lcaron" horiz-adv-x="259" unicode="&#318;" /><glyph d="M134 -39H167L153 -183H130ZM173 -4Q130 -4 106.5 20Q83 44 83 92V713H114V90Q114 61 129 43.5Q144 26 179 26Q191 26 205 27.5Q219 29 227 31V3Q212 -2 198.5 -3Q185 -4 173 -4Z" glyph-name="lcommaaccent" horiz-adv-x="259" unicode="&#316;" /><glyph d="M187 428H217V363H187ZM173 -4Q130 -4 106.5 20Q83 44 83 92V713H114V90Q114 61 129 43.5Q144 26 179 26Q191 26 205 27.5Q219 29 227 31V3Q212 -2 198.5 -3Q185 -4 173 -4Z" glyph-name="ldot" horiz-adv-x="237" unicode="&#320;" /><glyph d="M100 306V330L427 481L439 457L139 318Q172 301 210 282.5Q248 264 287 245Q326 226 363.5 207Q401 188 434 172L422 148Z" glyph-name="less" horiz-adv-x="540" unicode="&lt;" /><glyph d="M88 110H451V82H88ZM99 358V382L426 534L438 508L138 370L435 225L421 200Z" glyph-name="lessequal" horiz-adv-x="540" unicode="&#8804;" /><glyph d="M384 297H41V324H415V181H384Z" glyph-name="logicalnot" horiz-adv-x="465" unicode="&#172;" /><glyph d="M402 346 233 674 71 346 236 36ZM40 339V353L221 715H247L430 353V339L247 -2H221Z" glyph-name="lozenge" horiz-adv-x="470" unicode="&#9674;" /><glyph d="M32 279 93 361V713H124V402L196 499V459L124 362V90Q124 61 139 43.5Q154 26 189 26Q201 26 215 27.5Q229 29 237 31V3Q222 -2 208.5 -3Q195 -4 183 -4Q140 -4 116.5 20Q93 44 93 92V321L32 239Z" glyph-name="lslash" horiz-adv-x="269" unicode="&#322;" /><glyph d="M83 500H110V406H111Q134 460 177.5 486Q221 512 270 512Q298 512 319.5 503Q341 494 356 479.5Q371 465 379.5 446Q388 427 390 406H391Q414 460 457.5 486Q501 512 550 512Q580 512 602.5 502.5Q625 493 640 476.5Q655 460 662.5 439Q670 418 670 394V0H639V377Q639 438 611 461.5Q583 485 537 485Q511 485 485.5 473Q460 461 439.5 441Q419 421 406 393.5Q393 366 392 336V0H361V382Q359 441 331 463Q303 485 259 485Q232 485 206 472.5Q180 460 159 438.5Q138 417 125.5 388.5Q113 360 113 328V0H83Z" glyph-name="m" horiz-adv-x="749" unicode="m" /><glyph d="M59 633H303V604H59Z" glyph-name="macron" horiz-adv-x="361" unicode="&#175;" /><glyph d="M88 332H451V303H88Z" glyph-name="minus" horiz-adv-x="540" unicode="&#8722;" /><glyph d="M83 500H114V122Q114 92 123 71.5Q132 51 147.5 38.5Q163 26 183 21Q203 16 225 16Q252 16 277 28Q302 40 321 61Q340 82 351 110.5Q362 139 362 171V500H393V122Q393 93 406.5 69Q420 45 444 34V-2Q413 13 393 37.5Q373 62 369 92Q346 40 306 14Q266 -12 216 -12Q178 -12 150 3.5Q122 19 106 48H105L119 -176L83 -178Z" glyph-name="mu" horiz-adv-x="475" unicode="&#181;" /><glyph d="M108 175 252 319Q238 332 219 351.5Q200 371 179.5 391Q159 411 140 430Q121 449 108 462L128 482L271 339L413 481L432 461L290 319Q305 304 323.5 285.5Q342 267 361 247.5Q380 228 398.5 209.5Q417 191 432 176L413 157L271 299Q256 285 237 266Q218 247 198.5 227Q179 207 160 188Q141 169 126 154Z" glyph-name="multiply" horiz-adv-x="540" unicode="&#215;" /><glyph d="M83 500H110V408H111Q134 461 177.5 486.5Q221 512 270 512Q300 512 323 502.5Q346 493 361 476.5Q376 460 384 439Q392 418 392 394V0H361V377Q361 438 332.5 461.5Q304 485 259 485Q232 485 206 472.5Q180 460 159 438.5Q138 417 125.5 388.5Q113 360 113 328V0H83Z" glyph-name="n" horiz-adv-x="470" unicode="n" /><glyph d="M315 713H354L253 572H225ZM83 500H110V408H111Q134 461 177.5 486.5Q221 512 270 512Q300 512 323 502.5Q346 493 361 476.5Q376 460 384 439Q392 418 392 394V0H361V377Q361 438 332.5 461.5Q304 485 259 485Q232 485 206 472.5Q180 460 159 438.5Q138 417 125.5 388.5Q113 360 113 328V0H83Z" glyph-name="nacute" horiz-adv-x="470" unicode="&#324;" /><glyph d="M143 708H176L235 598L295 708H327L246 567H221ZM83 500H110V408H111Q134 461 177.5 486.5Q221 512 270 512Q300 512 323 502.5Q346 493 361 476.5Q376 460 384 439Q392 418 392 394V0H361V377Q361 438 332.5 461.5Q304 485 259 485Q232 485 206 472.5Q180 460 159 438.5Q138 417 125.5 388.5Q113 360 113 328V0H83Z" glyph-name="ncaron" horiz-adv-x="470" unicode="&#328;" /><glyph d="M219 -39H252L238 -183H215ZM83 500H110V408H111Q134 461 177.5 486.5Q221 512 270 512Q300 512 323 502.5Q346 493 361 476.5Q376 460 384 439Q392 418 392 394V0H361V377Q361 438 332.5 461.5Q304 485 259 485Q232 485 206 472.5Q180 460 159 438.5Q138 417 125.5 388.5Q113 360 113 328V0H83Z" glyph-name="ncommaaccent" horiz-adv-x="470" unicode="&#326;" /><glyph d="M224 301Q254 301 282.5 312.5Q311 324 333 343.5Q355 363 368.5 389.5Q382 416 382 447V559Q382 584 371.5 609.5Q361 635 341.5 654.5Q322 674 294 686.5Q266 699 230 699Q195 699 168.5 688.5Q142 678 124 660.5Q106 643 97 620.5Q88 598 88 573V423Q88 387 100 363.5Q112 340 131.5 326Q151 312 175 306.5Q199 301 224 301ZM237 -11Q199 -11 167 -1.5Q135 8 112 26Q89 44 76 69Q63 94 63 126V169H92V132Q92 105 103.5 83.5Q115 62 134.5 47Q154 32 181 24Q208 16 238 16Q273 16 300 27Q327 38 345 57Q363 76 372.5 101.5Q382 127 382 155V369Q356 321 310.5 296Q265 271 218 271Q187 271 158 279.5Q129 288 106.5 305.5Q84 323 70 350Q56 377 56 413V566Q56 605 69.5 635.5Q83 666 107 686Q131 706 164 716.5Q197 727 236 727Q276 727 309 714Q342 701 365 678Q388 655 401 623Q414 591 414 553L413 160Q413 119 400 87Q387 55 363.5 33.5Q340 12 308 0.5Q276 -11 237 -11Z" glyph-name="nine" horiz-adv-x="475" unicode="9" /><glyph d="M259 301Q289 301 317.5 312.5Q346 324 368 343.5Q390 363 403.5 389.5Q417 416 417 447V559Q417 584 406.5 609.5Q396 635 376.5 654.5Q357 674 329 686.5Q301 699 265 699Q230 699 203.5 688.5Q177 678 159 660.5Q141 643 132 620.5Q123 598 123 573V423Q123 387 135 363.5Q147 340 166.5 326Q186 312 210 306.5Q234 301 259 301ZM272 -11Q234 -11 202 -1.5Q170 8 147 26Q124 44 111 69Q98 94 98 126V169H127V132Q127 105 138.5 83.5Q150 62 169.5 47Q189 32 216 24Q243 16 273 16Q308 16 335 27Q362 38 380 57Q398 76 407.5 101.5Q417 127 417 155V369Q391 321 345.5 296Q300 271 253 271Q222 271 193 279.5Q164 288 141.5 305.5Q119 323 105 350Q91 377 91 413V566Q91 605 104.5 635.5Q118 666 142 686Q166 706 199 716.5Q232 727 271 727Q311 727 344 714Q377 701 400 678Q423 655 436 623Q449 591 449 553L448 160Q448 119 435 87Q422 55 398.5 33.5Q375 12 343 0.5Q311 -11 272 -11Z" glyph-name="nine.LT" horiz-adv-x="540" unicode="&#58697;" /><glyph d="M143 169Q156 169 170.5 175Q185 181 197 191.5Q209 202 216.5 216.5Q224 231 224 247V305Q224 333 205 355.5Q186 378 148 378Q111 378 93 356Q75 334 75 307V235Q75 198 96 183.5Q117 169 143 169ZM149 -12Q104 -12 78 11.5Q52 35 52 73V93H76V76Q76 44 98 27.5Q120 11 153 11Q185 11 204.5 32.5Q224 54 224 85V196Q209 169 183.5 158Q158 147 134 147Q98 147 73 170.5Q48 194 48 230V304Q48 350 77 375.5Q106 401 152 401Q198 401 225.5 374Q253 347 253 302V92Q253 45 223.5 16.5Q194 -12 149 -12Z" glyph-name="nine.dnom" horiz-adv-x="301" unicode="&#58379;" /><glyph d="M143 487Q156 487 170.5 493Q185 499 197 509.5Q209 520 216.5 534.5Q224 549 224 565V623Q224 651 205 673.5Q186 696 148 696Q111 696 93 674Q75 652 75 625V553Q75 516 96 501.5Q117 487 143 487ZM149 306Q104 306 78 329.5Q52 353 52 391V411H76V394Q76 362 98 345.5Q120 329 153 329Q185 329 204.5 350.5Q224 372 224 403V514Q209 487 183.5 476Q158 465 134 465Q98 465 73 488.5Q48 512 48 548V622Q48 668 77 693.5Q106 719 152 719Q198 719 225.5 692Q253 665 253 620V410Q253 363 223.5 334.5Q194 306 149 306Z" glyph-name="nine.numr" horiz-adv-x="301" unicode="&#58399;" /><glyph glyph-name="nonbreakingspace" horiz-adv-x="0" unicode="&#160;" /><glyph glyph-name="nonmarkingreturn" horiz-adv-x="178" /><glyph d="M201 138 236 233H88V262H245Q254 287 266.5 318Q279 349 288 375H88V402H299Q307 420 315 444.5Q323 469 330 487L359 480L330 402H452V375H320L276 262H452V233H266Q262 223 257 209.5Q252 196 246.5 182.5Q241 169 236 155.5Q231 142 228 132Z" glyph-name="notequal" horiz-adv-x="540" unicode="&#8800;" /><glyph d="M103 579Q106 608 123.5 628.5Q141 649 171 649Q188 649 205.5 643Q223 637 240.5 630.5Q258 624 275.5 618Q293 612 311 612Q331 612 341 624.5Q351 637 357 657L379 653Q374 623 355.5 603Q337 583 310 583Q292 583 273 589Q254 595 236 602Q218 609 201 615Q184 621 169 621Q146 621 138.5 607Q131 593 126 577ZM83 500H110V408H111Q134 461 177.5 486.5Q221 512 270 512Q300 512 323 502.5Q346 493 361 476.5Q376 460 384 439Q392 418 392 394V0H361V377Q361 438 332.5 461.5Q304 485 259 485Q232 485 206 472.5Q180 460 159 438.5Q138 417 125.5 388.5Q113 360 113 328V0H83Z" glyph-name="ntilde" horiz-adv-x="470" unicode="&#241;" /><glyph d="M304 234 345 497H190L151 234ZM118 205H33L36 234H121L161 497H72L76 524H164L194 715H220L192 524H347L375 715H402L375 524H461L457 497H372L333 234H421L419 205H330L302 -3H272L301 205H147L119 -3H89Z" glyph-name="numbersign" horiz-adv-x="491" unicode="#" /><glyph d="M327 234 368 497H213L174 234ZM141 205H56L59 234H144L184 497H95L99 524H187L217 715H243L215 524H370L398 715H425L398 524H484L480 497H395L356 234H444L442 205H353L325 -3H295L324 205H170L142 -3H112Z" glyph-name="numbersign.LP" horiz-adv-x="540" unicode="&#58675;" /><glyph d="M224 16Q261 16 285.5 28Q310 40 325 61Q340 82 346 110Q352 138 352 170V340Q352 370 345 396.5Q338 423 322 443Q306 463 281 474.5Q256 486 220 486Q184 486 159 474Q134 462 119 441Q104 420 97 392.5Q90 365 90 335V169Q90 97 121 56.5Q152 16 224 16ZM222 -11Q143 -11 101.5 35.5Q60 82 60 164V335Q60 418 103.5 465Q147 512 221 512Q299 512 341 465.5Q383 419 383 337V168Q383 80 340 34.5Q297 -11 222 -11Z" glyph-name="o" horiz-adv-x="443" unicode="o" /><glyph d="M224 16Q261 16 285.5 28Q310 40 325 61Q340 82 346 110Q352 138 352 170V340Q352 370 345 396.5Q338 423 322 443Q306 463 281 474.5Q256 486 220 486Q184 486 159 474Q134 462 119 441Q104 420 97 392.5Q90 365 90 335V169Q90 97 121 56.5Q152 16 224 16ZM222 -11Q143 -11 101.5 35.5Q60 82 60 164V335Q60 418 103.5 465Q147 512 221 512Q299 512 341 465.5Q383 419 383 337V168Q383 80 340 34.5Q297 -11 222 -11ZM290 713H329L228 572H200Z" glyph-name="oacute" horiz-adv-x="443" unicode="&#243;" /><glyph d="M221 576Q168 576 131 606Q94 636 92 689H120Q124 652 149 627Q174 602 225 602Q267 602 292.5 627Q318 652 323 689H350Q348 660 336 639Q324 618 305.5 604Q287 590 265 583Q243 576 221 576ZM224 16Q261 16 285.5 28Q310 40 325 61Q340 82 346 110Q352 138 352 170V340Q352 370 345 396.5Q338 423 322 443Q306 463 281 474.5Q256 486 220 486Q184 486 159 474Q134 462 119 441Q104 420 97 392.5Q90 365 90 335V169Q90 97 121 56.5Q152 16 224 16ZM222 -11Q143 -11 101.5 35.5Q60 82 60 164V335Q60 418 103.5 465Q147 512 221 512Q299 512 341 465.5Q383 419 383 337V168Q383 80 340 34.5Q297 -11 222 -11Z" glyph-name="obreve" horiz-adv-x="443" unicode="&#335;" /><glyph d="M224 16Q261 16 285.5 28Q310 40 325 61Q340 82 346 110Q352 138 352 170V340Q352 370 345 396.5Q338 423 322 443Q306 463 281 474.5Q256 486 220 486Q184 486 159 474Q134 462 119 441Q104 420 97 392.5Q90 365 90 335V169Q90 97 121 56.5Q152 16 224 16ZM222 -11Q143 -11 101.5 35.5Q60 82 60 164V335Q60 418 103.5 465Q147 512 221 512Q299 512 341 465.5Q383 419 383 337V168Q383 80 340 34.5Q297 -11 222 -11ZM208 708H233L311 567H278L219 677L159 567H127Z" glyph-name="ocircumflex" horiz-adv-x="443" unicode="&#244;" /><glyph d="M224 16Q261 16 285.5 28Q310 40 325 61Q340 82 346 110Q352 138 352 170V340Q352 370 345 396.5Q338 423 322 443Q306 463 281 474.5Q256 486 220 486Q184 486 159 474Q134 462 119 441Q104 420 97 392.5Q90 365 90 335V169Q90 97 121 56.5Q152 16 224 16ZM222 -11Q143 -11 101.5 35.5Q60 82 60 164V335Q60 418 103.5 465Q147 512 221 512Q299 512 341 465.5Q383 419 383 337V168Q383 80 340 34.5Q297 -11 222 -11ZM270 689H301V604H270ZM136 689H167V604H136Z" glyph-name="odieresis" horiz-adv-x="443" unicode="&#246;" /><glyph d="M641 277V345Q641 370 634.5 395.5Q628 421 613 440.5Q598 460 573 472.5Q548 485 511 485Q476 485 452 472Q428 459 412.5 438Q397 417 390 391.5Q383 366 383 341V277ZM224 16Q261 16 285.5 28Q310 40 325 61Q340 82 346 110Q352 138 352 170V340Q352 370 345 396.5Q338 423 322 443Q306 463 281 474.5Q256 486 220 486Q184 486 159 474Q134 462 119 441Q104 420 97 392.5Q90 365 90 335V169Q90 97 121 56.5Q152 16 224 16ZM222 -11Q143 -11 101.5 35.5Q60 82 60 164V335Q60 418 103.5 465Q147 512 221 512Q276 512 313.5 485.5Q351 459 368 415Q388 460 426.5 486Q465 512 518 512Q593 512 631.5 466Q670 420 670 341V251H383V159Q383 16 526 16Q571 16 602 29Q633 42 654 56L666 35Q636 11 600.5 0Q565 -11 524 -11Q467 -11 426.5 12.5Q386 36 367 82Q349 38 312 13.5Q275 -11 222 -11Z" glyph-name="oe" horiz-adv-x="724" unicode="&#339;" /><glyph d="M162 -184Q131 -184 108 -165.5Q85 -147 85 -109Q85 -88 93.5 -68.5Q102 -49 114.5 -33Q127 -17 142 -5.5Q157 6 169 12L184 2Q174 -4 162 -13Q150 -22 139.5 -35.5Q129 -49 121.5 -66Q114 -83 114 -104Q114 -127 125.5 -143Q137 -159 166 -159Q177 -159 191 -155.5Q205 -152 213 -147L223 -167Q214 -173 199.5 -178.5Q185 -184 162 -184Z" glyph-name="ogonek" horiz-adv-x="335" unicode="&#731;" /><glyph d="M162 -184Q131 -184 108 -165.5Q85 -147 85 -109Q85 -88 93 -68.5Q101 -49 113 -32.5Q125 -16 139.5 -4.5Q154 7 166 13L178 6Q170 0 159 -10Q148 -20 138 -34Q128 -48 121 -65.5Q114 -83 114 -104Q114 -127 126 -143.5Q138 -160 167 -160Q178 -160 191.5 -156Q205 -152 213 -147L223 -167Q214 -173 199.5 -178.5Q185 -184 162 -184Z" glyph-name="ogonekplus" horiz-adv-x="335" /><glyph d="M103 713H142L233 572H205ZM224 16Q261 16 285.5 28Q310 40 325 61Q340 82 346 110Q352 138 352 170V340Q352 370 345 396.5Q338 423 322 443Q306 463 281 474.5Q256 486 220 486Q184 486 159 474Q134 462 119 441Q104 420 97 392.5Q90 365 90 335V169Q90 97 121 56.5Q152 16 224 16ZM222 -11Q143 -11 101.5 35.5Q60 82 60 164V335Q60 418 103.5 465Q147 512 221 512Q299 512 341 465.5Q383 419 383 337V168Q383 80 340 34.5Q297 -11 222 -11Z" glyph-name="ograve" horiz-adv-x="443" unicode="&#242;" /><glyph d="M311 692H348L285 565H258ZM205 692H242L179 565H152ZM224 16Q261 16 285.5 28Q310 40 325 61Q340 82 346 110Q352 138 352 170V340Q352 370 345 396.5Q338 423 322 443Q306 463 281 474.5Q256 486 220 486Q184 486 159 474Q134 462 119 441Q104 420 97 392.5Q90 365 90 335V169Q90 97 121 56.5Q152 16 224 16ZM222 -11Q143 -11 101.5 35.5Q60 82 60 164V335Q60 418 103.5 465Q147 512 221 512Q299 512 341 465.5Q383 419 383 337V168Q383 80 340 34.5Q297 -11 222 -11Z" glyph-name="ohungarumlaut" horiz-adv-x="443" unicode="&#337;" /><glyph d="M99 633H343V604H99ZM224 16Q261 16 285.5 28Q310 40 325 61Q340 82 346 110Q352 138 352 170V340Q352 370 345 396.5Q338 423 322 443Q306 463 281 474.5Q256 486 220 486Q184 486 159 474Q134 462 119 441Q104 420 97 392.5Q90 365 90 335V169Q90 97 121 56.5Q152 16 224 16ZM222 -11Q143 -11 101.5 35.5Q60 82 60 164V335Q60 418 103.5 465Q147 512 221 512Q299 512 341 465.5Q383 419 383 337V168Q383 80 340 34.5Q297 -11 222 -11Z" glyph-name="omacron" horiz-adv-x="443" unicode="&#333;" /><glyph d="M140 679 52 648 49 675 148 714H172V0H140Z" glyph-name="one" horiz-adv-x="304" unicode="1" /><glyph d="M257 679 169 648 166 675 265 714H289V0H257Z" glyph-name="one.LT" horiz-adv-x="540" unicode="&#58689;" /><glyph d="M99 364 50 348 46 374 111 398H127V0H99Z" glyph-name="one.dnom" horiz-adv-x="215" unicode="&#58371;" /><glyph d="M99 682 50 666 46 692 111 716H127V318H99Z" glyph-name="one.numr" horiz-adv-x="215" unicode="&#58391;" /><glyph d="M430 16 502 114Q537 162 561 206Q585 250 585 297V302Q584 334 567.5 355.5Q551 377 516 377Q484 377 466.5 359Q449 341 449 312V296H424V311Q424 354 450.5 377.5Q477 401 519 401Q566 401 589.5 373.5Q613 346 613 301Q613 272 606 247Q599 222 587 198Q575 174 558.5 150Q542 126 523 101L465 24H623V0H430ZM500 718H530L157 -4H127ZM137 682 88 666 84 692 149 716H165V318H137Z" glyph-name="onehalf" horiz-adv-x="678" unicode="&#189;" /><glyph d="M546 111H397V135L538 399H569L426 136H546V220L574 241V136H626V111H574V0H546ZM500 718H530L157 -4H127ZM137 682 88 666 84 692 149 716H165V318H137Z" glyph-name="onequarter" horiz-adv-x="678" unicode="&#188;" /><glyph d="M99 744 50 728 46 754 111 778H127V380H99Z" glyph-name="onesuperior" horiz-adv-x="215" unicode="&#185;" /><glyph d="M50 342H250V312H50ZM134 413Q169 413 192 437.5Q215 462 215 500V555H151Q136 555 121 552Q106 549 94.5 541Q83 533 75.5 518.5Q68 504 68 482Q68 446 88.5 429.5Q109 413 134 413ZM125 388Q91 388 64 410.5Q37 433 37 480Q37 507 47.5 525.5Q58 544 74.5 556Q91 568 110.5 573Q130 578 149 578H215V638Q215 670 197 685.5Q179 701 148 701Q121 701 99.5 688Q78 675 78 646V626H49V644Q49 686 78.5 704.5Q108 723 152 723Q193 723 219 704.5Q245 686 245 644V474Q245 456 246 431.5Q247 407 248 395H219L216 442Q201 410 174.5 399Q148 388 125 388Z" glyph-name="ordfeminine" horiz-adv-x="298" unicode="&#170;" /><glyph d="M54 342H254V312H54ZM154 413Q196 413 212.5 436Q229 459 229 496V612Q229 645 212.5 668.5Q196 692 154 692Q113 692 96 668.5Q79 645 79 611V495Q79 460 95.5 436.5Q112 413 154 413ZM154 389Q49 389 49 495V611Q49 664 77.5 690.5Q106 717 154 717Q205 717 232 690.5Q259 664 259 612V494Q259 442 230.5 415.5Q202 389 154 389Z" glyph-name="ordmasculine" horiz-adv-x="311" unicode="&#186;" /><glyph d="M224 16Q261 16 285.5 28Q310 40 325 61Q340 82 346 110Q352 138 352 170V340Q352 368 345.5 393Q339 418 325 438L139 39Q171 16 224 16ZM90 169Q90 98 119 60L305 460Q289 472 268 479Q247 486 220 486Q184 486 159 474Q134 462 119 441Q104 420 97 392.5Q90 365 90 335ZM78 -28 105 31Q60 76 60 164V335Q60 418 103.5 465Q147 512 221 512Q277 512 317 486L340 535L365 524L338 467Q383 420 383 337V168Q383 80 340 34.5Q297 -11 222 -11Q193 -11 169.5 -4.5Q146 2 127 13L103 -39Z" glyph-name="oslash" horiz-adv-x="443" unicode="&#248;" /><glyph d="M290 713H329L228 572H200ZM224 16Q261 16 285.5 28Q310 40 325 61Q340 82 346 110Q352 138 352 170V340Q352 368 345.5 393Q339 418 325 438L139 39Q171 16 224 16ZM90 169Q90 98 119 60L305 460Q289 472 268 479Q247 486 220 486Q184 486 159 474Q134 462 119 441Q104 420 97 392.5Q90 365 90 335ZM78 -28 105 31Q60 76 60 164V335Q60 418 103.5 465Q147 512 221 512Q277 512 317 486L340 535L365 524L338 467Q383 420 383 337V168Q383 80 340 34.5Q297 -11 222 -11Q193 -11 169.5 -4.5Q146 2 127 13L103 -39Z" glyph-name="oslashacute" horiz-adv-x="443" unicode="&#511;" /><glyph d="M81 579Q84 608 101.5 628.5Q119 649 149 649Q166 649 183.5 643Q201 637 218.5 630.5Q236 624 253.5 618Q271 612 289 612Q309 612 319 624.5Q329 637 335 657L357 653Q352 623 333.5 603Q315 583 288 583Q270 583 251 589Q232 595 214 602Q196 609 179 615Q162 621 147 621Q124 621 116.5 607Q109 593 104 577ZM224 16Q261 16 285.5 28Q310 40 325 61Q340 82 346 110Q352 138 352 170V340Q352 370 345 396.5Q338 423 322 443Q306 463 281 474.5Q256 486 220 486Q184 486 159 474Q134 462 119 441Q104 420 97 392.5Q90 365 90 335V169Q90 97 121 56.5Q152 16 224 16ZM222 -11Q143 -11 101.5 35.5Q60 82 60 164V335Q60 418 103.5 465Q147 512 221 512Q299 512 341 465.5Q383 419 383 337V168Q383 80 340 34.5Q297 -11 222 -11Z" glyph-name="otilde" horiz-adv-x="443" unicode="&#245;" /><glyph d="M258 15Q303 15 334.5 45Q366 75 366 137V370Q366 392 359.5 413Q353 434 339 450Q325 466 303.5 475.5Q282 485 252 485Q222 485 197 472Q172 459 153 436Q134 413 123.5 381.5Q113 350 113 313V186Q113 151 122.5 119.5Q132 88 150.5 65Q169 42 196 28.5Q223 15 258 15ZM83 500H110V412H112Q122 438 138.5 457Q155 476 174.5 488Q194 500 214.5 506Q235 512 255 512Q288 512 314.5 502Q341 492 359.5 474Q378 456 387.5 432Q397 408 397 381V146Q397 65 356.5 27Q316 -11 250 -11Q229 -11 207.5 -5Q186 1 167.5 13.5Q149 26 135 44.5Q121 63 115 88H113V-176H83Z" glyph-name="p" horiz-adv-x="457" unicode="p" /><glyph d="M232 248Q187 252 155.5 272Q124 292 103.5 322.5Q83 353 73.5 392Q64 431 64 475Q64 523 76 566Q88 609 111 641.5Q134 674 167.5 693.5Q201 713 244 713H492V685H409V-80H383V685H257V-80H232Z" glyph-name="paragraph" horiz-adv-x="540" unicode="&#182;" /><glyph d="M165 -183Q135 -135 114.5 -76Q94 -17 81 43.5Q68 104 62 163Q56 222 56 270Q56 325 62 383Q68 441 81.5 498.5Q95 556 115.5 612.5Q136 669 165 720L187 718Q165 665 146 616Q127 567 113.5 514.5Q100 462 92.5 402.5Q85 343 85 269Q85 145 111.5 33.5Q138 -78 188 -179Z" glyph-name="parenleft" horiz-adv-x="201" unicode="(" /><glyph d="M123 -69Q106 -43 93.5 -11Q81 21 73 55Q65 89 61 122Q57 155 57 183Q57 246 73 311.5Q89 377 123 433L146 431Q133 401 122 374Q111 347 103.5 318Q96 289 91.5 256Q87 223 87 183Q87 116 102.5 53.5Q118 -9 147 -66Z" glyph-name="parenleft.dnom" horiz-adv-x="166" unicode="&#58383;" /><glyph d="M123 249Q106 275 93.5 307Q81 339 73 373Q65 407 61 440Q57 473 57 501Q57 564 73 629.5Q89 695 123 751L146 749Q133 719 122 692Q111 665 103.5 636Q96 607 91.5 574Q87 541 87 501Q87 434 102.5 371.5Q118 309 147 252Z" glyph-name="parenleft.numr" horiz-adv-x="166" unicode="&#58403;" /><glyph d="M12 -179Q62 -78 88.5 33.5Q115 145 115 269Q115 343 107.5 402.5Q100 462 86.5 514.5Q73 567 54 616Q35 665 13 718L35 720Q64 669 84.5 612.5Q105 556 118.5 498.5Q132 441 138 383Q144 325 144 270Q144 222 138 163Q132 104 119 43.5Q106 -17 85.5 -76Q65 -135 35 -183Z" glyph-name="parenright" horiz-adv-x="201" unicode=")" /><glyph d="M19 -66Q48 -9 63.5 53.5Q79 116 79 183Q79 223 74.5 256Q70 289 62.5 318Q55 347 44 374Q33 401 20 431L43 433Q77 377 93 311.5Q109 246 109 183Q109 155 105 122Q101 89 93 55Q85 21 72.5 -11Q60 -43 43 -69Z" glyph-name="parenright.dnom" horiz-adv-x="166" unicode="&#58384;" /><glyph d="M19 252Q48 309 63.5 371.5Q79 434 79 501Q79 541 74.5 574Q70 607 62.5 636Q55 665 44 692Q33 719 20 749L43 751Q77 695 93 629.5Q109 564 109 501Q109 473 105 440Q101 407 93 373Q85 339 72.5 307Q60 275 43 249Z" glyph-name="parenright.numr" horiz-adv-x="166" unicode="&#58404;" /><glyph d="M222 15Q258 15 283 26Q308 37 323.5 57Q339 77 345.5 104Q352 131 352 163V343Q352 373 346.5 398.5Q341 424 327 443Q313 462 289.5 473Q266 484 230 484Q158 484 124 443Q90 402 90 339V152Q90 123 97 98Q104 73 120 54.5Q136 36 161 25.5Q186 15 222 15ZM221 -11Q142 -11 101 30.5Q60 72 60 154V341Q60 381 72.5 412.5Q85 444 107 466Q129 488 159.5 499Q190 510 227 510Q235 510 255 508Q275 506 299 495L161 715L191 725Q218 684 239 651Q260 618 279.5 587Q299 556 317.5 525Q336 494 357 458Q369 438 375.5 406Q382 374 382 342V162Q382 77 342 33Q302 -11 221 -11Z" glyph-name="partialdiff" horiz-adv-x="441" unicode="&#8706;" /><glyph d="M488 19Q528 19 548.5 42Q569 65 569 94V243Q569 272 548.5 295.5Q528 319 488 319Q449 319 429.5 296Q410 273 410 243V94Q410 61 429.5 40Q449 19 488 19ZM487 -11Q437 -11 408 15.5Q379 42 379 96V230Q379 285 410 315.5Q441 346 489 346Q536 346 567.5 319.5Q599 293 599 237V95Q599 43 566.5 16Q534 -11 487 -11ZM501 723H533L164 -4H130ZM162 397Q200 397 221 421Q242 445 242 474V623Q242 651 221.5 674.5Q201 698 162 698Q122 698 102.5 675Q83 652 83 623V473Q83 441 102.5 419Q122 397 162 397ZM160 369Q107 369 79.5 399Q52 429 52 480V616Q52 672 83 699Q114 726 162 726Q209 726 241 699.5Q273 673 273 616V476Q273 423 240 396Q207 369 160 369Z" glyph-name="percent" horiz-adv-x="651" unicode="%" /><glyph d="M67 87H99V0H67Z" glyph-name="period" horiz-adv-x="165" unicode="." /><glyph d="M48 57H77V0H48Z" glyph-name="period.dnom" horiz-adv-x="125" unicode="&#58382;" /><glyph d="M48 375H77V318H48Z" glyph-name="period.numr" horiz-adv-x="125" unicode="&#58402;" /><glyph d="M48 -76H77V-133H48Z" glyph-name="period.sub" horiz-adv-x="125" /><glyph d="M48 437H77V380H48Z" glyph-name="period.sup" horiz-adv-x="125" /><glyph d="M67 373H99V289H67Z" glyph-name="periodcentered" horiz-adv-x="165" unicode="&#8901;" /><glyph d="M488 19Q528 19 548.5 42Q569 65 569 94V243Q569 272 548.5 295.5Q528 319 488 319Q449 319 429.5 296Q410 273 410 243V94Q410 61 429.5 40Q449 19 488 19ZM487 -11Q437 -11 408 15.5Q379 42 379 96V230Q379 285 410 315.5Q441 346 489 346Q536 346 567.5 319.5Q599 293 599 237V95Q599 43 566.5 16Q534 -11 487 -11ZM501 723H533L164 -4H130ZM162 397Q200 397 221 421Q242 445 242 474V623Q242 651 221.5 674.5Q201 698 162 698Q122 698 102.5 675Q83 652 83 623V473Q83 441 102.5 419Q122 397 162 397ZM160 369Q107 369 79.5 399Q52 429 52 480V616Q52 672 83 699Q114 726 162 726Q209 726 241 699.5Q273 673 273 616V476Q273 423 240 396Q207 369 160 369ZM773 19Q813 19 833.5 42Q854 65 854 94V243Q854 272 833.5 295.5Q813 319 773 319Q734 319 714.5 296Q695 273 695 243V94Q695 61 714.5 40Q734 19 773 19ZM772 -11Q722 -11 693 15.5Q664 42 664 96V230Q664 285 695 315.5Q726 346 774 346Q821 346 852.5 319.5Q884 293 884 237V95Q884 43 851.5 16Q819 -11 772 -11Z" glyph-name="perthousand" horiz-adv-x="936" unicode="&#8240;" /><glyph d="M404 -4Q365 -4 343.5 19.5Q322 43 322 90V477H139Q137 421 135 360.5Q133 300 130 238.5Q127 177 123.5 116Q120 55 116 0H83Q88 55 91.5 116Q95 177 98 238.5Q101 300 103 360.5Q105 421 106 477H29L34 500H443V477H353V90Q353 62 365.5 43.5Q378 25 410 25Q421 25 433.5 26.5Q446 28 454 30V3Q440 -2 427.5 -3Q415 -4 404 -4Z" glyph-name="pi" horiz-adv-x="483" unicode="&#960;" /><glyph d="M256 304H88V332H256V505H284V332H451V304H284V131H256Z" glyph-name="plus" horiz-adv-x="540" unicode="+" /><glyph d="M88 112H451V83H88ZM256 360H88V388H256V560H284V388H451V360H284V189H256Z" glyph-name="plusminus" horiz-adv-x="540" unicode="&#177;" /><glyph d="M127 684H44V713H531V684H457V-133H426V684H158V-133H127Z" glyph-name="product" horiz-adv-x="575" unicode="&#8719;" /><glyph d="M200 16Q225 16 250.5 28.5Q276 41 296.5 63Q317 85 330 115.5Q343 146 343 182V319Q343 355 331.5 385.5Q320 416 300.5 438.5Q281 461 256 473.5Q231 486 204 486Q181 486 160.5 478Q140 470 124 454.5Q108 439 99 416Q90 393 90 363V132Q90 109 96 88Q102 67 115.5 51Q129 35 150 25.5Q171 16 200 16ZM342 91H340Q326 62 309 42.5Q292 23 273 11Q254 -1 234.5 -6.5Q215 -12 196 -12Q131 -12 95.5 25.5Q60 63 60 122V360Q60 399 72.5 428Q85 457 105 475.5Q125 494 151 503Q177 512 204 512Q225 512 247.5 506Q270 500 289.5 487.5Q309 475 324.5 455.5Q340 436 346 410H348L350 500H373V-176H342Z" glyph-name="q" horiz-adv-x="455" unicode="q" /><glyph d="M190 87H224V0H190ZM192 228Q194 256 201 278Q208 300 218.5 318.5Q229 337 242.5 354Q256 371 270 388Q287 407 301 425.5Q315 444 325.5 464Q336 484 341.5 506.5Q347 529 347 557Q347 623 314 660.5Q281 698 219 698Q195 698 172.5 692Q150 686 132.5 672Q115 658 104.5 635Q94 612 94 577V543H63V565Q63 647 107 686Q151 725 221 725Q255 725 284 714Q313 703 334 682Q355 661 366.5 630.5Q378 600 378 560Q379 527 371 499Q363 471 350 447.5Q337 424 320 403.5Q303 383 287 364Q264 335 244.5 305.5Q225 276 222 232V183H192Z" glyph-name="question" horiz-adv-x="438" unicode="?" /><glyph d="M221 537H255V451H221ZM223 -189Q150 -189 108.5 -145Q67 -101 67 -23Q66 11 74 39.5Q82 68 95 92Q108 116 124.5 136Q141 156 157 175Q181 203 200.5 232.5Q220 262 224 305V355H253V310Q251 282 243.5 259.5Q236 237 225.5 218.5Q215 200 202 183.5Q189 167 175 150Q158 131 144 113Q130 95 120 75Q110 55 104 32Q98 9 98 -20Q98 -86 131.5 -123.5Q165 -161 227 -161Q248 -161 270.5 -154Q293 -147 311.5 -132Q330 -117 341.5 -93Q353 -69 353 -35V-5H382V-29Q382 -69 370 -99Q358 -129 336.5 -149Q315 -169 286 -179Q257 -189 223 -189Z" glyph-name="questiondown" horiz-adv-x="438" unicode="&#191;" /><glyph d="M176 630V713H208V630L202 538H182ZM56 630V713H88V630L82 538H62Z" glyph-name="quotedbl" horiz-adv-x="262" unicode="&quot;" /><glyph d="M188 1H176V87H209V1L194 -89H175ZM78 1H67V87H99V1L83 -89H65Z" glyph-name="quotedblbase" horiz-adv-x="274" unicode="&#8222;" /><glyph d="M175 624 192 714H209L197 625H208V540H175ZM65 624 80 714H99L86 625H97V540H65Z" glyph-name="quotedblleft" horiz-adv-x="274" unicode="&#8220;" /><glyph d="M188 628H176V713H209V629L194 539H175ZM78 628H67V713H99V629L83 539H65Z" glyph-name="quotedblright" horiz-adv-x="274" unicode="&#8221;" /><glyph d="M65 624 80 714H99L86 625H97V540H65Z" glyph-name="quoteleft" horiz-adv-x="166" unicode="&#8216;" /><glyph d="M79 628H68V713H100V629L85 539H66Z" glyph-name="quoteright" horiz-adv-x="167" unicode="&#8217;" /><glyph d="M67 1V87H99V1L83 -89H65L78 1Z" glyph-name="quotesinglbase" horiz-adv-x="165" unicode="&#8218;" /><glyph d="M56 630V713H88V630L82 538H62Z" glyph-name="quotesingle" horiz-adv-x="143" unicode="&apos;" /><glyph d="M83 500H110V409H111Q126 441 144.5 460Q163 479 183.5 489Q204 499 225.5 502Q247 505 268 505Q275 505 282.5 504.5Q290 504 295 503V473Q284 475 273.5 475Q263 475 257 475Q227 475 201 465.5Q175 456 155.5 436.5Q136 417 125 388.5Q114 360 113 323V0H83Z" glyph-name="r" horiz-adv-x="318" unicode="r" /><glyph d="M239 713H278L177 572H149ZM83 500H110V409H111Q126 441 144.5 460Q163 479 183.5 489Q204 499 225.5 502Q247 505 268 505Q275 505 282.5 504.5Q290 504 295 503V473Q284 475 273.5 475Q263 475 257 475Q227 475 201 465.5Q175 456 155.5 436.5Q136 417 125 388.5Q114 360 113 323V0H83Z" glyph-name="racute" horiz-adv-x="318" unicode="&#341;" /><glyph d="M24 500H57L184 40H185L470 713H499L193 -2H167Z" glyph-name="radical" horiz-adv-x="511" unicode="&#8730;" /><glyph d="M88 708H121L180 598L240 708H272L191 567H166ZM83 500H110V409H111Q126 441 144.5 460Q163 479 183.5 489Q204 499 225.5 502Q247 505 268 505Q275 505 282.5 504.5Q290 504 295 503V473Q284 475 273.5 475Q263 475 257 475Q227 475 201 465.5Q175 456 155.5 436.5Q136 417 125 388.5Q114 360 113 323V0H83Z" glyph-name="rcaron" horiz-adv-x="318" unicode="&#345;" /><glyph d="M84 -39H117L103 -183H80ZM83 500H110V409H111Q126 441 144.5 460Q163 479 183.5 489Q204 499 225.5 502Q247 505 268 505Q275 505 282.5 504.5Q290 504 295 503V473Q284 475 273.5 475Q263 475 257 475Q227 475 201 465.5Q175 456 155.5 436.5Q136 417 125 388.5Q114 360 113 323V0H83Z" glyph-name="rcommaaccent" horiz-adv-x="318" unicode="&#343;" /><glyph d="M254 524Q287 524 304.5 538.5Q322 553 322 585Q322 611 304 628Q286 645 252 645H201V524ZM172 670H260Q303 670 327 647Q351 624 351 586Q351 554 332.5 531.5Q314 509 283 501L364 381H332L253 499H201V381H172ZM255 320Q292 320 326 334Q360 348 386 373.5Q412 399 427.5 436Q443 473 443 520Q443 568 427.5 606Q412 644 386 670Q360 696 326 710Q292 724 255 724Q217 724 184 710.5Q151 697 125.5 670.5Q100 644 85.5 606Q71 568 71 520Q71 473 86.5 436Q102 399 127.5 373Q153 347 186 333.5Q219 320 255 320ZM255 295Q205 295 165.5 313Q126 331 99 361.5Q72 392 57.5 433Q43 474 43 520Q43 569 58.5 611Q74 653 101.5 683.5Q129 714 168.5 731Q208 748 256 748Q304 748 343.5 731.5Q383 715 411 685Q439 655 454.5 613Q470 571 470 520Q470 474 455 433Q440 392 412.5 361.5Q385 331 345 313Q305 295 255 295Z" glyph-name="registered" horiz-adv-x="513" unicode="&#174;" /><glyph d="M136 581Q157 581 172.5 595Q188 609 188 637Q188 663 174 678Q160 693 135 693Q113 693 100 677Q87 661 87 635Q87 607 101.5 594Q116 581 136 581ZM137 559Q117 559 102.5 566Q88 573 78.5 583.5Q69 594 64.5 607.5Q60 621 60 635Q60 668 81 692Q102 716 135 716Q175 716 194 694Q213 672 213 640Q213 606 192.5 582.5Q172 559 137 559Z" glyph-name="ring" horiz-adv-x="262" unicode="&#730;" /><glyph d="M136 581Q157 581 172.5 595Q188 609 188 637Q188 663 174 678Q160 693 135 693Q113 693 100 677Q87 661 87 635Q87 607 101.5 594Q116 581 136 581ZM137 559Q117 559 102.5 566Q88 573 78.5 583.5Q69 594 64.5 607.5Q60 621 60 635Q60 665 77 688L160 800L198 789L131 716Q174 716 193.5 694Q213 672 213 640Q213 606 192.5 582.5Q172 559 137 559Z" glyph-name="ringacute" horiz-adv-x="262" /><glyph d="M194 -11Q143 -11 105 6.5Q67 24 38 59L58 78Q87 46 118 30.5Q149 15 195 15Q219 15 241 22.5Q263 30 279.5 43.5Q296 57 306 76.5Q316 96 316 119Q316 166 293.5 192.5Q271 219 222 239L168 261Q113 284 88.5 314.5Q64 345 64 390Q64 409 72 430.5Q80 452 97 470Q114 488 140 500Q166 512 202 512Q241 512 277 499.5Q313 487 333 467L316 445Q286 469 258 477.5Q230 486 201 486Q155 486 124.5 459.5Q94 433 94 393Q94 372 99 356Q104 340 115.5 327.5Q127 315 144.5 304.5Q162 294 187 284L242 261Q291 241 318.5 207Q346 173 346 125Q346 93 333.5 67.5Q321 42 300 24.5Q279 7 251.5 -2Q224 -11 194 -11Z" glyph-name="s" horiz-adv-x="387" unicode="s" /><glyph d="M271 713H310L209 572H181ZM194 -11Q143 -11 105 6.5Q67 24 38 59L58 78Q87 46 118 30.5Q149 15 195 15Q219 15 241 22.5Q263 30 279.5 43.5Q296 57 306 76.5Q316 96 316 119Q316 166 293.5 192.5Q271 219 222 239L168 261Q113 284 88.5 314.5Q64 345 64 390Q64 409 72 430.5Q80 452 97 470Q114 488 140 500Q166 512 202 512Q241 512 277 499.5Q313 487 333 467L316 445Q286 469 258 477.5Q230 486 201 486Q155 486 124.5 459.5Q94 433 94 393Q94 372 99 356Q104 340 115.5 327.5Q127 315 144.5 304.5Q162 294 187 284L242 261Q291 241 318.5 207Q346 173 346 125Q346 93 333.5 67.5Q321 42 300 24.5Q279 7 251.5 -2Q224 -11 194 -11Z" glyph-name="sacute" horiz-adv-x="387" unicode="&#347;" /><glyph d="M194 -11Q143 -11 105 6.5Q67 24 38 59L58 78Q87 46 118 30.5Q149 15 195 15Q219 15 241 22.5Q263 30 279.5 43.5Q296 57 306 76.5Q316 96 316 119Q316 166 293.5 192.5Q271 219 222 239L168 261Q113 284 88.5 314.5Q64 345 64 390Q64 409 72 430.5Q80 452 97 470Q114 488 140 500Q166 512 202 512Q241 512 277 499.5Q313 487 333 467L316 445Q286 469 258 477.5Q230 486 201 486Q155 486 124.5 459.5Q94 433 94 393Q94 372 99 356Q104 340 115.5 327.5Q127 315 144.5 304.5Q162 294 187 284L242 261Q291 241 318.5 207Q346 173 346 125Q346 93 333.5 67.5Q321 42 300 24.5Q279 7 251.5 -2Q224 -11 194 -11ZM103 708H136L195 598L255 708H287L206 567H181Z" glyph-name="scaron" horiz-adv-x="373" unicode="&#353;" /><glyph d="M193 -189Q179 -189 159 -186Q139 -183 122 -178V-151Q139 -156 157 -159Q175 -162 196 -162Q219 -162 235.5 -153.5Q252 -145 252 -125Q252 -89 188 -85L160 -83L179 -10Q133 -8 99 9.5Q65 27 38 59L58 78Q87 46 118 30.5Q149 15 195 15Q219 15 241 22.5Q263 30 279.5 43.5Q296 57 306 76.5Q316 96 316 119Q316 166 293.5 192.5Q271 219 222 239L168 261Q113 284 88.5 314.5Q64 345 64 390Q64 409 72 430.5Q80 452 97 470Q114 488 140 500Q166 512 202 512Q241 512 277 499.5Q313 487 333 467L316 445Q286 469 258 477.5Q230 486 201 486Q155 486 124.5 459.5Q94 433 94 393Q94 372 99 356Q104 340 115.5 327.5Q127 315 144.5 304.5Q162 294 187 284L242 261Q291 241 318.5 207Q346 173 346 125Q346 94 334.5 69.5Q323 45 303.5 28Q284 11 258.5 1Q233 -9 205 -10L192 -61Q230 -63 256.5 -77.5Q283 -92 283 -125Q283 -151 260 -170Q237 -189 193 -189Z" glyph-name="scedilla" horiz-adv-x="387" unicode="&#351;" /><glyph d="M190 708H215L293 567H260L201 677L141 567H109ZM194 -11Q143 -11 105 6.5Q67 24 38 59L58 78Q87 46 118 30.5Q149 15 195 15Q219 15 241 22.5Q263 30 279.5 43.5Q296 57 306 76.5Q316 96 316 119Q316 166 293.5 192.5Q271 219 222 239L168 261Q113 284 88.5 314.5Q64 345 64 390Q64 409 72 430.5Q80 452 97 470Q114 488 140 500Q166 512 202 512Q241 512 277 499.5Q313 487 333 467L316 445Q286 469 258 477.5Q230 486 201 486Q155 486 124.5 459.5Q94 433 94 393Q94 372 99 356Q104 340 115.5 327.5Q127 315 144.5 304.5Q162 294 187 284L242 261Q291 241 318.5 207Q346 173 346 125Q346 93 333.5 67.5Q321 42 300 24.5Q279 7 251.5 -2Q224 -11 194 -11Z" glyph-name="scircumflex" horiz-adv-x="387" unicode="&#349;" /><glyph d="M178 -39H211L197 -183H174ZM194 -11Q143 -11 105 6.5Q67 24 38 59L58 78Q87 46 118 30.5Q149 15 195 15Q219 15 241 22.5Q263 30 279.5 43.5Q296 57 306 76.5Q316 96 316 119Q316 166 293.5 192.5Q271 219 222 239L168 261Q113 284 88.5 314.5Q64 345 64 390Q64 409 72 430.5Q80 452 97 470Q114 488 140 500Q166 512 202 512Q241 512 277 499.5Q313 487 333 467L316 445Q286 469 258 477.5Q230 486 201 486Q155 486 124.5 459.5Q94 433 94 393Q94 372 99 356Q104 340 115.5 327.5Q127 315 144.5 304.5Q162 294 187 284L242 261Q291 241 318.5 207Q346 173 346 125Q346 93 333.5 67.5Q321 42 300 24.5Q279 7 251.5 -2Q224 -11 194 -11Z" glyph-name="scommaaccent" horiz-adv-x="387" unicode="&#537;" /><glyph d="M261 201Q308 215 336.5 244.5Q365 274 365 320Q365 341 355.5 356.5Q346 372 332 384Q318 396 301.5 404.5Q285 413 271 419L187 452Q170 446 153 434.5Q136 423 122 407.5Q108 392 99.5 373Q91 354 91 332Q91 310 99.5 293Q108 276 121 263Q134 250 149.5 241.5Q165 233 179 229ZM220 -70Q189 -70 158 -63Q127 -56 102 -40.5Q77 -25 61.5 -0.5Q46 24 46 59V83H67V66Q67 37 79 16Q91 -5 112 -19Q133 -33 161 -40Q189 -47 222 -47Q287 -47 328.5 -16.5Q370 14 370 69Q370 96 360 113.5Q350 131 335 142.5Q320 154 301.5 161Q283 168 265 175L176 205Q128 222 97 252Q66 282 66 330Q66 364 88 401Q110 438 164 463Q108 488 87 516Q66 544 66 586Q66 609 75 632Q84 655 103 673Q122 691 152 702.5Q182 714 225 714Q303 714 343.5 679Q384 644 384 586V566H362V585Q362 636 326 664.5Q290 693 227 693Q168 693 129 666Q90 639 90 585Q90 564 98 547.5Q106 531 119 518Q132 505 148.5 496Q165 487 181 480L271 443Q293 434 314 423Q335 412 351.5 397.5Q368 383 378.5 364Q389 345 389 320Q389 281 366 247Q343 213 289 191Q343 174 370 143.5Q397 113 395 71Q395 8 348 -31Q301 -70 220 -70Z" glyph-name="section" horiz-adv-x="442" unicode="&#167;" /><glyph d="M67 482H99V396H67ZM78 1H67V87H99V1L83 -89H65Z" glyph-name="semicolon" horiz-adv-x="165" unicode=";" /><glyph d="M158 0Q158 124 176.5 233Q195 342 224.5 430.5Q254 519 289.5 584Q325 649 358 685H53V713H397V692Q358 652 327.5 599Q297 546 273.5 486Q250 426 234 361.5Q218 297 207.5 233.5Q197 170 192.5 110Q188 50 188 0Z" glyph-name="seven" horiz-adv-x="437" unicode="7" /><glyph d="M203 0Q203 124 221.5 233Q240 342 269.5 430.5Q299 519 334.5 584Q370 649 403 685H98V713H442V692Q403 652 372.5 599Q342 546 318.5 486Q295 426 279 361.5Q263 297 252.5 233.5Q242 170 237.5 110Q233 50 233 0Z" glyph-name="seven.LT" horiz-adv-x="540" unicode="&#58695;" /><glyph d="M82 0Q82 66 93.5 124Q105 182 122.5 230Q140 278 160.5 313.5Q181 349 200 370H27V394H229V373Q197 339 174.5 292.5Q152 246 137.5 195.5Q123 145 116.5 94Q110 43 110 0Z" glyph-name="seven.dnom" horiz-adv-x="251" unicode="&#58377;" /><glyph d="M82 318Q82 384 93.5 442Q105 500 122.5 548Q140 596 160.5 631.5Q181 667 200 688H27V712H229V691Q197 657 174.5 610.5Q152 564 137.5 513.5Q123 463 116.5 412Q110 361 110 318Z" glyph-name="seven.numr" horiz-adv-x="251" unicode="&#58397;" /><glyph d="M245 17Q280 17 306.5 27.5Q333 38 351 55.5Q369 73 378.5 95.5Q388 118 388 143V289Q388 325 376 349Q364 373 344.5 388Q325 403 300.5 409Q276 415 251 415Q221 415 192.5 403.5Q164 392 141.5 372.5Q119 353 105.5 326.5Q92 300 92 269V157Q92 128 102.5 102.5Q113 77 133 58Q153 39 181 28Q209 17 245 17ZM239 -11Q199 -11 166 2Q133 15 109.5 38Q86 61 73 93Q60 125 60 163L61 556Q61 597 74 629Q87 661 110.5 682.5Q134 704 166.5 715.5Q199 727 238 727Q276 727 308 717.5Q340 708 363 690Q386 672 399 646.5Q412 621 412 590V547H383V584Q383 611 371.5 632.5Q360 654 340.5 669Q321 684 294 692Q267 700 237 700Q202 700 175 689Q148 678 129.5 659Q111 640 101.5 614.5Q92 589 92 561V347Q104 371 123 389.5Q142 408 164.5 420.5Q187 433 211 439Q235 445 257 445Q288 445 317 435.5Q346 426 369 407.5Q392 389 406 361.5Q420 334 420 298V150Q420 111 406.5 80.5Q393 50 369 30Q345 10 311.5 -0.5Q278 -11 239 -11Z" glyph-name="six" horiz-adv-x="475" unicode="6" /><glyph d="M275 17Q310 17 336.5 27.5Q363 38 381 55.5Q399 73 408.5 95.5Q418 118 418 143V289Q418 325 406 349Q394 373 374.5 388Q355 403 330.5 409Q306 415 281 415Q251 415 222.5 403.5Q194 392 171.5 372.5Q149 353 135.5 326.5Q122 300 122 269V157Q122 128 132.5 102.5Q143 77 163 58Q183 39 211 28Q239 17 275 17ZM269 -11Q229 -11 196 2Q163 15 139.5 38Q116 61 103 93Q90 125 90 163L91 556Q91 597 104 629Q117 661 140.5 682.5Q164 704 196.5 715.5Q229 727 268 727Q306 727 338 717.5Q370 708 393 690Q416 672 429 646.5Q442 621 442 590V547H413V584Q413 611 401.5 632.5Q390 654 370.5 669Q351 684 324 692Q297 700 267 700Q232 700 205 689Q178 678 159.5 659Q141 640 131.5 614.5Q122 589 122 561V347Q134 371 153 389.5Q172 408 194.5 420.5Q217 433 241 439Q265 445 287 445Q318 445 347 435.5Q376 426 399 407.5Q422 389 436 361.5Q450 334 450 298V150Q450 111 436.5 80.5Q423 50 399 30Q375 10 341.5 -0.5Q308 -11 269 -11Z" glyph-name="six.LT" horiz-adv-x="540" unicode="&#58694;" /><glyph d="M153 11Q190 11 208 33Q226 55 226 82V154Q226 191 205 205.5Q184 220 158 220Q145 220 130.5 214Q116 208 104 197.5Q92 187 84.5 172.5Q77 158 77 142V84Q77 56 96 33.5Q115 11 153 11ZM149 -12Q103 -12 75.5 15Q48 42 48 87V297Q48 344 77.5 372.5Q107 401 152 401Q197 401 223 377.5Q249 354 249 316V296H225V313Q225 345 203 361.5Q181 378 148 378Q116 378 96.5 356.5Q77 335 77 304V193Q93 220 117 231Q141 242 165 242Q202 242 227.5 218.5Q253 195 253 159V85Q253 39 224 13.5Q195 -12 149 -12Z" glyph-name="six.dnom" horiz-adv-x="301" unicode="&#58376;" /><glyph d="M153 329Q190 329 208 351Q226 373 226 400V472Q226 509 205 523.5Q184 538 158 538Q145 538 130.5 532Q116 526 104 515.5Q92 505 84.5 490.5Q77 476 77 460V402Q77 374 96 351.5Q115 329 153 329ZM149 306Q103 306 75.5 333Q48 360 48 405V615Q48 662 77.5 690.5Q107 719 152 719Q197 719 223 695.5Q249 672 249 634V614H225V631Q225 663 203 679.5Q181 696 148 696Q116 696 96.5 674.5Q77 653 77 622V511Q93 538 117 549Q141 560 165 560Q202 560 227.5 536.5Q253 513 253 477V403Q253 357 224 331.5Q195 306 149 306Z" glyph-name="six.numr" horiz-adv-x="301" unicode="&#58396;" /><glyph d="M227 718H256L34 -179H2Z" glyph-name="slash" horiz-adv-x="291" unicode="/" /><glyph glyph-name="space" horiz-adv-x="180" unicode=" " /><glyph d="M56 29H129V354H59V379H129V563Q129 607 142 638Q155 669 177 688.5Q199 708 228 716.5Q257 725 289 725Q360 725 397.5 690.5Q435 656 435 593V555H405V597Q405 651 371.5 674.5Q338 698 286 698Q262 698 239 691.5Q216 685 198.5 670Q181 655 170.5 629.5Q160 604 160 567V379H360V354H160V29H449L440 0H56Z" glyph-name="sterling" horiz-adv-x="501" unicode="&#163;" /><glyph d="M52 -111 361 310 50 692V714H406V687H88L386 325L387 298L88 -106H408V-133H52Z" glyph-name="summation" horiz-adv-x="458" unicode="&#8721;" /><glyph d="M219 -8Q202 -8 184.5 -4.5Q167 -1 153 8Q139 17 130 33.5Q121 50 121 76V474H33V500H121V657H151V500H288V474H151V86Q151 50 169.5 35.5Q188 21 226 21Q242 21 259.5 25Q277 29 292 34V6Q270 -2 252 -5Q234 -8 219 -8Z" glyph-name="t" horiz-adv-x="325" unicode="t" /><glyph d="M72 306H121V474H33V500H121V657H151V500H288V474H151V306H220V282H151V86Q151 50 169.5 35.5Q188 21 226 21Q242 21 259.5 25Q277 29 292 34V6Q270 -2 252 -5Q234 -8 219 -8Q202 -8 184.5 -4.5Q167 -1 153 8Q139 17 130 33.5Q121 50 121 76V282H72Z" glyph-name="tbar" horiz-adv-x="325" unicode="&#359;" /><glyph d="M219 -8Q202 -8 184.5 -4.5Q167 -1 153 8Q139 17 130 33.5Q121 50 121 76V474H33V500H121V657H151V500H288V474H151V86Q151 50 169.5 35.5Q188 21 226 21Q242 21 259.5 25Q277 29 292 34V6Q270 -2 252 -5Q234 -8 219 -8ZM242 713H270L258 571H238Z" glyph-name="tcaron" horiz-adv-x="325" unicode="&#357;" /><glyph d="M180 -39H213L199 -183H176ZM219 -8Q202 -8 184.5 -4.5Q167 -1 153 8Q139 17 130 33.5Q121 50 121 76V474H33V500H121V657H151V500H288V474H151V86Q151 50 169.5 35.5Q188 21 226 21Q242 21 259.5 25Q277 29 292 34V6Q270 -2 252 -5Q234 -8 219 -8Z" glyph-name="tcommaaccent" horiz-adv-x="325" unicode="&#355;" /><glyph d="M249 15Q271 15 292.5 22.5Q314 30 330 45.5Q346 61 356 84Q366 107 366 138V371Q366 393 358.5 413.5Q351 434 336 450Q321 466 299 475.5Q277 485 247 485Q222 485 198 473Q174 461 155 438.5Q136 416 124.5 385Q113 354 113 316V177Q113 142 124.5 112.5Q136 83 154.5 61Q173 39 197.5 27Q222 15 249 15ZM83 714H113V412H116Q126 439 142.5 458Q159 477 178.5 489Q198 501 218.5 506.5Q239 512 259 512Q326 512 361.5 474Q397 436 397 381V140Q397 100 384.5 71.5Q372 43 351 24.5Q330 6 303.5 -2.5Q277 -11 250 -11Q229 -11 207.5 -5Q186 1 167.5 13.5Q149 26 135 44.5Q121 63 115 88H113V-182H83Z" glyph-name="thorn" horiz-adv-x="455" unicode="&#254;" /><glyph d="M237 -11Q190 -11 157 2Q124 15 103 35.5Q82 56 72 82.5Q62 109 62 136V176H94V134Q94 104 106 82Q118 60 138 45.5Q158 31 184 24Q210 17 237 17Q309 17 349 63Q389 109 389 190Q389 240 373.5 272.5Q358 305 335 324Q312 343 284.5 350.5Q257 358 233 358H166V387H233Q294 387 333.5 428.5Q373 470 373 548Q373 592 360 621Q347 650 326.5 667.5Q306 685 280.5 692Q255 699 230 699Q204 699 180.5 692.5Q157 686 139 671.5Q121 657 110.5 633.5Q100 610 100 576V541H70V575Q70 647 113.5 686.5Q157 726 234 726Q280 726 312.5 711.5Q345 697 365.5 673Q386 649 395 618.5Q404 588 404 557Q404 529 397.5 500Q391 471 377 446.5Q363 422 341 403Q319 384 287 377V374Q319 369 344 352.5Q369 336 386 311.5Q403 287 412 255.5Q421 224 421 188Q421 144 407.5 107.5Q394 71 370 44.5Q346 18 312 3.5Q278 -11 237 -11Z" glyph-name="three" horiz-adv-x="473" unicode="3" /><glyph d="M269 -11Q222 -11 189 2Q156 15 135 35.5Q114 56 104 82.5Q94 109 94 136V176H126V134Q126 104 138 82Q150 60 170 45.5Q190 31 216 24Q242 17 269 17Q341 17 381 63Q421 109 421 190Q421 240 405.5 272.5Q390 305 367 324Q344 343 316.5 350.5Q289 358 265 358H198V387H265Q326 387 365.5 428.5Q405 470 405 548Q405 592 392 621Q379 650 358.5 667.5Q338 685 312.5 692Q287 699 262 699Q236 699 212.5 692.5Q189 686 171 671.5Q153 657 142.5 633.5Q132 610 132 576V541H102V575Q102 647 145.5 686.5Q189 726 266 726Q312 726 344.5 711.5Q377 697 397.5 673Q418 649 427 618.5Q436 588 436 557Q436 529 429.5 500Q423 471 409 446.5Q395 422 373 403Q351 384 319 377V374Q351 369 376 352.5Q401 336 418 311.5Q435 287 444 255.5Q453 224 453 188Q453 144 439.5 107.5Q426 71 402 44.5Q378 18 344 3.5Q310 -11 269 -11Z" glyph-name="three.LT" horiz-adv-x="540" unicode="&#58691;" /><glyph d="M150 -12Q123 -12 103.5 -4.5Q84 3 72 15.5Q60 28 54 44Q48 60 48 77V93H74V79Q74 47 96.5 29.5Q119 12 149 12Q186 12 205.5 35.5Q225 59 225 102Q225 129 216 146Q207 163 194.5 172.5Q182 182 168.5 186Q155 190 146 190H110V214H143Q175 214 196 235Q217 256 217 298Q217 320 211 335Q205 350 195 359Q185 368 172 372Q159 376 146 376Q117 376 96.5 360.5Q76 345 76 310V298H51V313Q51 355 77 377.5Q103 400 149 400Q175 400 193 391.5Q211 383 222.5 369.5Q234 356 239 338.5Q244 321 244 304Q244 288 241 272Q238 256 231 242.5Q224 229 212.5 219Q201 209 184 205V203Q218 195 236 165.5Q254 136 254 101Q254 49 225 18.5Q196 -12 150 -12Z" glyph-name="three.dnom" horiz-adv-x="302" unicode="&#58373;" /><glyph d="M150 306Q123 306 103.5 313.5Q84 321 72 333.5Q60 346 54 362Q48 378 48 395V411H74V397Q74 365 96.5 347.5Q119 330 149 330Q186 330 205.5 353.5Q225 377 225 420Q225 447 216 464Q207 481 194.5 490.5Q182 500 168.5 504Q155 508 146 508H110V532H143Q175 532 196 553Q217 574 217 616Q217 638 211 653Q205 668 195 677Q185 686 172 690Q159 694 146 694Q117 694 96.5 678.5Q76 663 76 628V616H51V631Q51 673 77 695.5Q103 718 149 718Q175 718 193 709.5Q211 701 222.5 687.5Q234 674 239 656.5Q244 639 244 622Q244 606 241 590Q238 574 231 560.5Q224 547 212.5 537Q201 527 184 523V521Q218 513 236 483.5Q254 454 254 419Q254 367 225 336.5Q196 306 150 306Z" glyph-name="three.numr" horiz-adv-x="302" unicode="&#58393;" /><glyph d="M546 111H397V135L538 399H569L426 136H546V220L574 241V136H626V111H574V0H546ZM532 718H562L189 -4H159ZM170 306Q143 306 123.5 313.5Q104 321 92 333.5Q80 346 74 362Q68 378 68 395V411H94V397Q94 365 116.5 347.5Q139 330 169 330Q206 330 225.5 353.5Q245 377 245 420Q245 447 236 464Q227 481 214.5 490.5Q202 500 188.5 504Q175 508 166 508H130V532H163Q195 532 216 553Q237 574 237 616Q237 638 231 653Q225 668 215 677Q205 686 192 690Q179 694 166 694Q137 694 116.5 678.5Q96 663 96 628V616H71V631Q71 673 97 695.5Q123 718 169 718Q195 718 213 709.5Q231 701 242.5 687.5Q254 674 259 656.5Q264 639 264 622Q264 606 261 590Q258 574 251 560.5Q244 547 232.5 537Q221 527 204 523V521Q238 513 256 483.5Q274 454 274 419Q274 367 245 336.5Q216 306 170 306Z" glyph-name="threequarters" horiz-adv-x="678" unicode="&#190;" /><glyph d="M150 368Q123 368 103.5 375.5Q84 383 72 395.5Q60 408 54 424Q48 440 48 457V473H74V459Q74 427 96.5 409.5Q119 392 149 392Q186 392 205.5 415.5Q225 439 225 482Q225 509 216 526Q207 543 194.5 552.5Q182 562 168.5 566Q155 570 146 570H110V594H143Q175 594 196 615Q217 636 217 678Q217 700 211 715Q205 730 195 739Q185 748 172 752Q159 756 146 756Q117 756 96.5 740.5Q76 725 76 690V678H51V693Q51 735 77 757.5Q103 780 149 780Q175 780 193 771.5Q211 763 222.5 749.5Q234 736 239 718.5Q244 701 244 684Q244 668 241 652Q238 636 231 622.5Q224 609 212.5 599Q201 589 184 585V583Q218 575 236 545.5Q254 516 254 481Q254 429 225 398.5Q196 368 150 368Z" glyph-name="threesuperior" horiz-adv-x="302" unicode="&#179;" /><glyph d="M47 579Q50 608 67.5 628.5Q85 649 115 649Q132 649 149.5 643Q167 637 184.5 630.5Q202 624 219.5 618Q237 612 255 612Q275 612 285 624.5Q295 637 301 657L323 653Q318 623 299.5 603Q281 583 254 583Q236 583 217 589Q198 595 180 602Q162 609 145 615Q128 621 113 621Q90 621 82.5 607Q75 593 70 577Z" glyph-name="tilde" horiz-adv-x="355" unicode="&#732;" /><glyph d="M122 691H32V716H237V691H148V396H122ZM286 716H314L400 555L484 716H511V396H486L485 665L408 520H389L311 670V396H286Z" glyph-name="trademark" horiz-adv-x="566" unicode="&#8482;" /><glyph d="M53 512V520H398V512L233 196H226Z" glyph-name="triagdn" horiz-adv-x="451" unicode="&#9660;" /><glyph d="M59 356V363L376 530H383V185H376Z" glyph-name="triaglf" horiz-adv-x="451" unicode="&#9668;" /><glyph d="M67 530H74L391 363V356L74 185H67Z" glyph-name="triagrt" horiz-adv-x="451" unicode="&#9658;" /><glyph d="M53 203 217 520H224L398 203V196H53Z" glyph-name="triagup" horiz-adv-x="451" unicode="&#9650;" /><glyph d="M51 22 176 191Q246 279 287 365.5Q328 452 328 545V556Q328 586 320.5 612Q313 638 297 656.5Q281 675 257 686Q233 697 199 697Q142 697 106.5 664Q71 631 71 577V537H42V574Q42 610 54.5 638.5Q67 667 88.5 686.5Q110 706 139.5 716Q169 726 203 726Q281 726 320.5 679Q360 632 360 552Q360 497 349 448.5Q338 400 317 354Q296 308 266.5 263.5Q237 219 201 173L94 31V29H382V0H51Z" glyph-name="two" horiz-adv-x="425" unicode="2" /><glyph d="M109 22 234 191Q304 279 345 365.5Q386 452 386 545V556Q386 586 378.5 612Q371 638 355 656.5Q339 675 315 686Q291 697 257 697Q200 697 164.5 664Q129 631 129 577V537H100V574Q100 610 112.5 638.5Q125 667 146.5 686.5Q168 706 197.5 716Q227 726 261 726Q339 726 378.5 679Q418 632 418 552Q418 497 407 448.5Q396 400 375 354Q354 308 324.5 263.5Q295 219 259 173L152 31V29H440V0H109Z" glyph-name="two.LT" horiz-adv-x="540" unicode="&#58690;" /><glyph d="M52 16 124 114Q159 162 183 206Q207 250 207 297V302Q206 334 189.5 355.5Q173 377 138 377Q106 377 88.5 359Q71 341 71 312V296H46V311Q46 354 72.5 377.5Q99 401 141 401Q188 401 211.5 373.5Q235 346 235 301Q235 272 228 247Q221 222 209 198Q197 174 180.5 150Q164 126 145 101L87 24H245V0H52Z" glyph-name="two.dnom" horiz-adv-x="280" unicode="&#58372;" /><glyph d="M52 334 124 432Q159 480 183 524Q207 568 207 615V620Q206 652 189.5 673.5Q173 695 138 695Q106 695 88.5 677Q71 659 71 630V614H46V629Q46 672 72.5 695.5Q99 719 141 719Q188 719 211.5 691.5Q235 664 235 619Q235 590 228 565Q221 540 209 516Q197 492 180.5 468Q164 444 145 419L87 342H245V318H52Z" glyph-name="two.numr" horiz-adv-x="280" unicode="&#58392;" /><glyph d="M52 396 124 494Q159 542 183 586Q207 630 207 677V682Q206 714 189.5 735.5Q173 757 138 757Q106 757 88.5 739Q71 721 71 692V676H46V691Q46 734 72.5 757.5Q99 781 141 781Q188 781 211.5 753.5Q235 726 235 681Q235 652 228 627Q221 602 209 578Q197 554 180.5 530Q164 506 145 481L87 404H245V380H52Z" glyph-name="twosuperior" horiz-adv-x="280" unicode="&#178;" /><glyph d="M200 -12Q170 -12 147.5 -2.5Q125 7 109.5 23.5Q94 40 86.5 61Q79 82 79 105V500H110V119Q110 89 117.5 69Q125 49 138.5 37Q152 25 171 20.5Q190 16 212 16Q239 16 265.5 28Q292 40 312.5 61Q333 82 345.5 110.5Q358 139 358 171V500H389V0H364L362 92H360Q337 40 293.5 14Q250 -12 200 -12Z" glyph-name="u" horiz-adv-x="471" unicode="u" /><glyph d="M200 -12Q170 -12 147.5 -2.5Q125 7 109.5 23.5Q94 40 86.5 61Q79 82 79 105V500H110V119Q110 89 117.5 69Q125 49 138.5 37Q152 25 171 20.5Q190 16 212 16Q239 16 265.5 28Q292 40 312.5 61Q333 82 345.5 110.5Q358 139 358 171V500H389V0H364L362 92H360Q337 40 293.5 14Q250 -12 200 -12ZM310 713H349L248 572H220Z" glyph-name="uacute" horiz-adv-x="471" unicode="&#250;" /><glyph d="M235 576Q182 576 145 606Q108 636 106 689H134Q138 652 163 627Q188 602 239 602Q281 602 306.5 627Q332 652 337 689H364Q362 660 350 639Q338 618 319.5 604Q301 590 279 583Q257 576 235 576ZM200 -12Q170 -12 147.5 -2.5Q125 7 109.5 23.5Q94 40 86.5 61Q79 82 79 105V500H110V119Q110 89 117.5 69Q125 49 138.5 37Q152 25 171 20.5Q190 16 212 16Q239 16 265.5 28Q292 40 312.5 61Q333 82 345.5 110.5Q358 139 358 171V500H389V0H364L362 92H360Q337 40 293.5 14Q250 -12 200 -12Z" glyph-name="ubreve" horiz-adv-x="471" unicode="&#365;" /><glyph d="M200 -12Q170 -12 147.5 -2.5Q125 7 109.5 23.5Q94 40 86.5 61Q79 82 79 105V500H110V119Q110 89 117.5 69Q125 49 138.5 37Q152 25 171 20.5Q190 16 212 16Q239 16 265.5 28Q292 40 312.5 61Q333 82 345.5 110.5Q358 139 358 171V500H389V0H364L362 92H360Q337 40 293.5 14Q250 -12 200 -12ZM233 708H258L336 567H303L244 677L184 567H152Z" glyph-name="ucircumflex" horiz-adv-x="471" unicode="&#251;" /><glyph d="M200 -12Q170 -12 147.5 -2.5Q125 7 109.5 23.5Q94 40 86.5 61Q79 82 79 105V500H110V119Q110 89 117.5 69Q125 49 138.5 37Q152 25 171 20.5Q190 16 212 16Q239 16 265.5 28Q292 40 312.5 61Q333 82 345.5 110.5Q358 139 358 171V500H389V0H364L362 92H360Q337 40 293.5 14Q250 -12 200 -12ZM288 689H319V604H288ZM154 689H185V604H154Z" glyph-name="udieresis" horiz-adv-x="471" unicode="&#252;" /><glyph d="M126 713H165L256 572H228ZM200 -12Q170 -12 147.5 -2.5Q125 7 109.5 23.5Q94 40 86.5 61Q79 82 79 105V500H110V119Q110 89 117.5 69Q125 49 138.5 37Q152 25 171 20.5Q190 16 212 16Q239 16 265.5 28Q292 40 312.5 61Q333 82 345.5 110.5Q358 139 358 171V500H389V0H364L362 92H360Q337 40 293.5 14Q250 -12 200 -12Z" glyph-name="ugrave" horiz-adv-x="471" unicode="&#249;" /><glyph d="M322 692H359L296 565H269ZM216 692H253L190 565H163ZM200 -12Q170 -12 147.5 -2.5Q125 7 109.5 23.5Q94 40 86.5 61Q79 82 79 105V500H110V119Q110 89 117.5 69Q125 49 138.5 37Q152 25 171 20.5Q190 16 212 16Q239 16 265.5 28Q292 40 312.5 61Q333 82 345.5 110.5Q358 139 358 171V500H389V0H364L362 92H360Q337 40 293.5 14Q250 -12 200 -12Z" glyph-name="uhungarumlaut" horiz-adv-x="471" unicode="&#369;" /><glyph d="M113 633H357V604H113ZM200 -12Q170 -12 147.5 -2.5Q125 7 109.5 23.5Q94 40 86.5 61Q79 82 79 105V500H110V119Q110 89 117.5 69Q125 49 138.5 37Q152 25 171 20.5Q190 16 212 16Q239 16 265.5 28Q292 40 312.5 61Q333 82 345.5 110.5Q358 139 358 171V500H389V0H364L362 92H360Q337 40 293.5 14Q250 -12 200 -12Z" glyph-name="umacron" horiz-adv-x="471" unicode="&#363;" /><glyph d="M0 -39H461V-66H0Z" glyph-name="underscore" horiz-adv-x="461" unicode="_" /><glyph glyph-name="uni00A0" horiz-adv-x="180" /><glyph d="M231 -39H264L250 -183H227ZM232 684H21V713H472V684H263V0H232Z" glyph-name="uni021A" horiz-adv-x="493" unicode="&#538;" /><glyph d="M180 -39H213L199 -183H176ZM219 -8Q202 -8 184.5 -4.5Q167 -1 153 8Q139 17 130 33.5Q121 50 121 76V474H33V500H121V657H151V500H288V474H151V86Q151 50 169.5 35.5Q188 21 226 21Q242 21 259.5 25Q277 29 292 34V6Q270 -2 252 -5Q234 -8 219 -8Z" glyph-name="uni021B" horiz-adv-x="325" unicode="&#539;" /><glyph d="M154 393Q194 393 211 415Q228 437 228 470V682Q228 711 209.5 733.5Q191 756 153 756Q115 756 95.5 734Q76 712 76 680V469Q76 437 95.5 415Q115 393 154 393ZM154 368Q106 368 77 393Q48 418 48 467V679Q48 729 78.5 754.5Q109 780 154 780Q199 780 228.5 756Q258 732 258 682V469Q258 418 228 393Q198 368 154 368Z" glyph-name="uni2070" horiz-adv-x="306" unicode="&#8304;" /><glyph d="M176 491H27V515L168 779H199L56 516H176V600L204 621V516H256V491H204V380H176Z" glyph-name="uni2074" horiz-adv-x="276" unicode="&#8308;" /><glyph d="M147 368Q121 368 102 375.5Q83 383 71 395Q59 407 53.5 422Q48 437 48 453V473H74V454Q74 423 96.5 406.5Q119 390 149 390Q180 390 203.5 408.5Q227 427 227 477V522Q227 566 206 584.5Q185 603 153 603Q133 603 113.5 591.5Q94 580 83 568L54 571L67 774H237V750H89L79 592Q95 609 117 617.5Q139 626 160 626Q198 626 226 602Q254 578 254 527V472Q254 422 223.5 395Q193 368 147 368Z" glyph-name="uni2075" horiz-adv-x="302" unicode="&#8309;" /><glyph d="M153 391Q190 391 208 413Q226 435 226 462V534Q226 571 205 585.5Q184 600 158 600Q145 600 130.5 594Q116 588 104 577.5Q92 567 84.5 552.5Q77 538 77 522V464Q77 436 96 413.5Q115 391 153 391ZM149 368Q103 368 75.5 395Q48 422 48 467V677Q48 724 77.5 752.5Q107 781 152 781Q197 781 223 757.5Q249 734 249 696V676H225V693Q225 725 203 741.5Q181 758 148 758Q116 758 96.5 736.5Q77 715 77 684V573Q93 600 117 611Q141 622 165 622Q202 622 227.5 598.5Q253 575 253 539V465Q253 419 224 393.5Q195 368 149 368Z" glyph-name="uni2076" horiz-adv-x="301" unicode="&#8310;" /><glyph d="M82 380Q82 446 93.5 504Q105 562 122.5 610Q140 658 160.5 693.5Q181 729 200 750H27V774H229V753Q197 719 174.5 672.5Q152 626 137.5 575.5Q123 525 116.5 474Q110 423 110 380Z" glyph-name="uni2077" horiz-adv-x="251" unicode="&#8311;" /><glyph d="M153 592Q180 592 202.5 609.5Q225 627 225 656V697Q225 727 202 742.5Q179 758 151 758Q124 758 101.5 740.5Q79 723 79 694V655Q79 639 86 627Q93 615 103.5 607.5Q114 600 127 596Q140 592 153 592ZM152 391Q186 391 207 409Q228 427 228 460V501Q228 535 203.5 551.5Q179 568 152 568Q123 568 99.5 551Q76 534 76 501V458Q76 427 98 409Q120 391 152 391ZM151 368Q105 368 76.5 392Q48 416 48 459V499Q48 527 66.5 548Q85 569 113 580Q84 588 68 609.5Q52 631 52 653V692Q52 736 82.5 758Q113 780 152 780Q193 780 222.5 759.5Q252 739 252 695V656Q252 634 235.5 612.5Q219 591 190 581Q217 573 237 551.5Q257 530 257 500V460Q257 415 226.5 391.5Q196 368 151 368Z" glyph-name="uni2078" horiz-adv-x="305" unicode="&#8312;" /><glyph d="M143 549Q156 549 170.5 555Q185 561 197 571.5Q209 582 216.5 596.5Q224 611 224 627V685Q224 713 205 735.5Q186 758 148 758Q111 758 93 736Q75 714 75 687V615Q75 578 96 563.5Q117 549 143 549ZM149 368Q104 368 78 391.5Q52 415 52 453V473H76V456Q76 424 98 407.5Q120 391 153 391Q185 391 204.5 412.5Q224 434 224 465V576Q209 549 183.5 538Q158 527 134 527Q98 527 73 550.5Q48 574 48 610V684Q48 730 77 755.5Q106 781 152 781Q198 781 225.5 754Q253 727 253 682V472Q253 425 223.5 396.5Q194 368 149 368Z" glyph-name="uni2079" horiz-adv-x="301" unicode="&#8313;" /><glyph d="M123 311Q106 337 93.5 369Q81 401 73 435Q65 469 61 502Q57 535 57 563Q57 626 73 691.5Q89 757 123 813L146 811Q133 781 122 754Q111 727 103.5 698Q96 669 91.5 636Q87 603 87 563Q87 496 102.5 433.5Q118 371 147 314Z" glyph-name="uni207D" horiz-adv-x="166" unicode="&#8317;" /><glyph d="M19 314Q48 371 63.5 433.5Q79 496 79 563Q79 603 74.5 636Q70 669 62.5 698Q55 727 44 754Q33 781 20 811L43 813Q77 757 93 691.5Q109 626 109 563Q109 535 105 502Q101 469 93 435Q85 401 72.5 369Q60 337 43 311Z" glyph-name="uni207E" horiz-adv-x="166" unicode="&#8318;" /><glyph d="M154 -120Q194 -120 211 -98Q228 -76 228 -43V169Q228 198 209.5 220.5Q191 243 153 243Q115 243 95.5 221Q76 199 76 167V-44Q76 -76 95.5 -98Q115 -120 154 -120ZM154 -145Q106 -145 77 -120Q48 -95 48 -46V166Q48 216 78.5 241.5Q109 267 154 267Q199 267 228.5 243Q258 219 258 169V-44Q258 -95 228 -120Q198 -145 154 -145Z" glyph-name="uni2080" horiz-adv-x="306" unicode="&#8320;" /><glyph d="M99 231 50 215 46 241 111 265H127V-133H99Z" glyph-name="uni2081" horiz-adv-x="215" unicode="&#8321;" /><glyph d="M52 -117 124 -19Q159 29 183 73Q207 117 207 164V169Q206 201 189.5 222.5Q173 244 138 244Q106 244 88.5 226Q71 208 71 179V163H46V178Q46 221 72.5 244.5Q99 268 141 268Q188 268 211.5 240.5Q235 213 235 168Q235 139 228 114Q221 89 209 65Q197 41 180.5 17Q164 -7 145 -32L87 -109H245V-133H52Z" glyph-name="uni2082" horiz-adv-x="280" unicode="&#8322;" /><glyph d="M150 -145Q123 -145 103.5 -137.5Q84 -130 72 -117.5Q60 -105 54 -89Q48 -73 48 -56V-40H74V-54Q74 -86 96.5 -103.5Q119 -121 149 -121Q186 -121 205.5 -97.5Q225 -74 225 -31Q225 -4 216 13Q207 30 194.5 39.5Q182 49 168.5 53Q155 57 146 57H110V81H143Q175 81 196 102Q217 123 217 165Q217 187 211 202Q205 217 195 226Q185 235 172 239Q159 243 146 243Q117 243 96.5 227.5Q76 212 76 177V165H51V180Q51 222 77 244.5Q103 267 149 267Q175 267 193 258.5Q211 250 222.5 236.5Q234 223 239 205.5Q244 188 244 171Q244 155 241 139Q238 123 231 109.5Q224 96 212.5 86Q201 76 184 72V70Q218 62 236 32.5Q254 3 254 -32Q254 -84 225 -114.5Q196 -145 150 -145Z" glyph-name="uni2083" horiz-adv-x="302" unicode="&#8323;" /><glyph d="M176 -22H27V2L168 266H199L56 3H176V87L204 108V3H256V-22H204V-133H176Z" glyph-name="uni2084" horiz-adv-x="276" unicode="&#8324;" /><glyph d="M147 -145Q121 -145 102 -137.5Q83 -130 71 -118Q59 -106 53.5 -91Q48 -76 48 -60V-40H74V-59Q74 -90 96.5 -106.5Q119 -123 149 -123Q180 -123 203.5 -104.5Q227 -86 227 -36V9Q227 53 206 71.5Q185 90 153 90Q133 90 113.5 78.5Q94 67 83 55L54 58L67 261H237V237H89L79 79Q95 96 117 104.5Q139 113 160 113Q198 113 226 89Q254 65 254 14V-41Q254 -91 223.5 -118Q193 -145 147 -145Z" glyph-name="uni2085" horiz-adv-x="302" unicode="&#8325;" /><glyph d="M153 -122Q190 -122 208 -100Q226 -78 226 -51V21Q226 58 205 72.5Q184 87 158 87Q145 87 130.5 81Q116 75 104 64.5Q92 54 84.5 39.5Q77 25 77 9V-49Q77 -77 96 -99.5Q115 -122 153 -122ZM149 -145Q103 -145 75.5 -118Q48 -91 48 -46V164Q48 211 77.5 239.5Q107 268 152 268Q197 268 223 244.5Q249 221 249 183V163H225V180Q225 212 203 228.5Q181 245 148 245Q116 245 96.5 223.5Q77 202 77 171V60Q93 87 117 98Q141 109 165 109Q202 109 227.5 85.5Q253 62 253 26V-48Q253 -94 224 -119.5Q195 -145 149 -145Z" glyph-name="uni2086" horiz-adv-x="301" unicode="&#8326;" /><glyph d="M82 -133Q82 -67 93.5 -9Q105 49 122.5 97Q140 145 160.5 180.5Q181 216 200 237H27V261H229V240Q197 206 174.5 159.5Q152 113 137.5 62.5Q123 12 116.5 -39Q110 -90 110 -133Z" glyph-name="uni2087" horiz-adv-x="251" unicode="&#8327;" /><glyph d="M153 79Q180 79 202.5 96.5Q225 114 225 143V184Q225 214 202 229.5Q179 245 151 245Q124 245 101.5 227.5Q79 210 79 181V142Q79 126 86 114Q93 102 103.5 94.5Q114 87 127 83Q140 79 153 79ZM152 -122Q186 -122 207 -104Q228 -86 228 -53V-12Q228 22 203.5 38.5Q179 55 152 55Q123 55 99.5 38Q76 21 76 -12V-55Q76 -86 98 -104Q120 -122 152 -122ZM151 -145Q105 -145 76.5 -121Q48 -97 48 -54V-14Q48 14 66.5 35Q85 56 113 67Q84 75 68 96.5Q52 118 52 140V179Q52 223 82.5 245Q113 267 152 267Q193 267 222.5 246.5Q252 226 252 182V143Q252 121 235.5 99.5Q219 78 190 68Q217 60 237 38.5Q257 17 257 -13V-53Q257 -98 226.5 -121.5Q196 -145 151 -145Z" glyph-name="uni2088" horiz-adv-x="305" unicode="&#8328;" /><glyph d="M143 36Q156 36 170.5 42Q185 48 197 58.5Q209 69 216.5 83.5Q224 98 224 114V172Q224 200 205 222.5Q186 245 148 245Q111 245 93 223Q75 201 75 174V102Q75 65 96 50.5Q117 36 143 36ZM149 -145Q104 -145 78 -121.5Q52 -98 52 -60V-40H76V-57Q76 -89 98 -105.5Q120 -122 153 -122Q185 -122 204.5 -100.5Q224 -79 224 -48V63Q209 36 183.5 25Q158 14 134 14Q98 14 73 37.5Q48 61 48 97V171Q48 217 77 242.5Q106 268 152 268Q198 268 225.5 241Q253 214 253 169V-41Q253 -88 223.5 -116.5Q194 -145 149 -145Z" glyph-name="uni2089" horiz-adv-x="301" unicode="&#8329;" /><glyph d="M123 -202Q106 -176 93.5 -144Q81 -112 73 -78Q65 -44 61 -11Q57 22 57 50Q57 113 73 178.5Q89 244 123 300L146 298Q133 268 122 241Q111 214 103.5 185Q96 156 91.5 123Q87 90 87 50Q87 -17 102.5 -79.5Q118 -142 147 -199Z" glyph-name="uni208D" horiz-adv-x="166" unicode="&#8333;" /><glyph d="M19 -199Q48 -142 63.5 -79.5Q79 -17 79 50Q79 90 74.5 123Q70 156 62.5 185Q55 214 44 241Q33 268 20 298L43 300Q77 244 93 178.5Q109 113 109 50Q109 22 105 -11Q101 -44 93 -78Q85 -112 72.5 -144Q60 -176 43 -202Z" glyph-name="uni208E" horiz-adv-x="166" unicode="&#8334;" /><glyph d="M126 583H191V94H280Q310 94 310 142V705H394V163Q394 115 386 84Q378 53 363 34Q348 15 325.5 7.5Q303 0 274 0H126ZM26 705H164Q193 705 215.5 699.5Q238 694 253 678.5Q268 663 276 634Q284 605 284 557V122H218V563Q218 612 189 612H100V0H26Z" glyph-name="uni20AA" horiz-adv-x="420" unicode="&#8362;" /><glyph d="M515 -12Q488 -12 468.5 -4.5Q449 3 437 15.5Q425 28 419 44Q413 60 413 77V93H439V79Q439 47 461.5 29.5Q484 12 514 12Q551 12 570.5 35.5Q590 59 590 102Q590 129 581 146Q572 163 559.5 172.5Q547 182 533.5 186Q520 190 511 190H475V214H508Q540 214 561 235Q582 256 582 298Q582 320 576 335Q570 350 560 359Q550 368 537 372Q524 376 511 376Q482 376 461.5 360.5Q441 345 441 310V298H416V313Q416 355 442 377.5Q468 400 514 400Q540 400 558 391.5Q576 383 587.5 369.5Q599 356 604 338.5Q609 321 609 304Q609 288 606 272Q603 256 596 242.5Q589 229 577.5 219Q566 209 549 205V203Q583 195 601 165.5Q619 136 619 101Q619 49 590 18.5Q561 -12 515 -12ZM500 718H530L157 -4H127ZM137 682 88 666 84 692 149 716H165V318H137Z" glyph-name="uni2153" horiz-adv-x="678" unicode="&#8531;" /><glyph d="M52 334 124 432Q159 480 183 524Q207 568 207 615V620Q206 652 189.5 673.5Q173 695 138 695Q106 695 88.5 677Q71 659 71 630V614H46V629Q46 672 72.5 695.5Q99 719 141 719Q188 719 211.5 691.5Q235 664 235 619Q235 590 228 565Q221 540 209 516Q197 492 180.5 468Q164 444 145 419L87 342H245V318H52ZM515 -12Q488 -12 468.5 -4.5Q449 3 437 15.5Q425 28 419 44Q413 60 413 77V93H439V79Q439 47 461.5 29.5Q484 12 514 12Q551 12 570.5 35.5Q590 59 590 102Q590 129 581 146Q572 163 559.5 172.5Q547 182 533.5 186Q520 190 511 190H475V214H508Q540 214 561 235Q582 256 582 298Q582 320 576 335Q570 350 560 359Q550 368 537 372Q524 376 511 376Q482 376 461.5 360.5Q441 345 441 310V298H416V313Q416 355 442 377.5Q468 400 514 400Q540 400 558 391.5Q576 383 587.5 369.5Q599 356 604 338.5Q609 321 609 304Q609 288 606 272Q603 256 596 242.5Q589 229 577.5 219Q566 209 549 205V203Q583 195 601 165.5Q619 136 619 101Q619 49 590 18.5Q561 -12 515 -12ZM521 718H551L178 -4H148Z" glyph-name="uni2154" horiz-adv-x="678" unicode="&#8532;" /><glyph d="M176 682 127 666 123 692 188 716H204V318H176ZM519 -12Q493 -12 474 -4.5Q455 3 443 15Q431 27 425.5 42Q420 57 420 73V93H446V74Q446 43 468.5 26.5Q491 10 521 10Q552 10 575.5 28.5Q599 47 599 97V142Q599 186 578 204.5Q557 223 525 223Q505 223 485.5 211.5Q466 200 455 188L426 191L439 394H609V370H461L451 212Q467 229 489 237.5Q511 246 532 246Q570 246 598 222Q626 198 626 147V92Q626 42 595.5 15Q565 -12 519 -12ZM521 718H551L178 -4H148Z" glyph-name="uni2155" horiz-adv-x="678" unicode="&#8533;" /><glyph d="M52 334 124 432Q159 480 183 524Q207 568 207 615V620Q206 652 189.5 673.5Q173 695 138 695Q106 695 88.5 677Q71 659 71 630V614H46V629Q46 672 72.5 695.5Q99 719 141 719Q188 719 211.5 691.5Q235 664 235 619Q235 590 228 565Q221 540 209 516Q197 492 180.5 468Q164 444 145 419L87 342H245V318H52ZM519 -12Q493 -12 474 -4.5Q455 3 443 15Q431 27 425.5 42Q420 57 420 73V93H446V74Q446 43 468.5 26.5Q491 10 521 10Q552 10 575.5 28.5Q599 47 599 97V142Q599 186 578 204.5Q557 223 525 223Q505 223 485.5 211.5Q466 200 455 188L426 191L439 394H609V370H461L451 212Q467 229 489 237.5Q511 246 532 246Q570 246 598 222Q626 198 626 147V92Q626 42 595.5 15Q565 -12 519 -12ZM521 718H551L178 -4H148Z" glyph-name="uni2156" horiz-adv-x="678" unicode="&#8534;" /><glyph d="M166 306Q139 306 119.5 313.5Q100 321 88 333.5Q76 346 70 362Q64 378 64 395V411H90V397Q90 365 112.5 347.5Q135 330 165 330Q202 330 221.5 353.5Q241 377 241 420Q241 447 232 464Q223 481 210.5 490.5Q198 500 184.5 504Q171 508 162 508H126V532H159Q191 532 212 553Q233 574 233 616Q233 638 227 653Q221 668 211 677Q201 686 188 690Q175 694 162 694Q133 694 112.5 678.5Q92 663 92 628V616H67V631Q67 673 93 695.5Q119 718 165 718Q191 718 209 709.5Q227 701 238.5 687.5Q250 674 255 656.5Q260 639 260 622Q260 606 257 590Q254 574 247 560.5Q240 547 228.5 537Q217 527 200 523V521Q234 513 252 483.5Q270 454 270 419Q270 367 241 336.5Q212 306 166 306ZM519 -12Q493 -12 474 -4.5Q455 3 443 15Q431 27 425.5 42Q420 57 420 73V93H446V74Q446 43 468.5 26.5Q491 10 521 10Q552 10 575.5 28.5Q599 47 599 97V142Q599 186 578 204.5Q557 223 525 223Q505 223 485.5 211.5Q466 200 455 188L426 191L439 394H609V370H461L451 212Q467 229 489 237.5Q511 246 532 246Q570 246 598 222Q626 198 626 147V92Q626 42 595.5 15Q565 -12 519 -12ZM521 718H551L178 -4H148Z" glyph-name="uni2157" horiz-adv-x="678" unicode="&#8535;" /><glyph d="M192 429H43V453L184 717H215L72 454H192V538L220 559V454H272V429H220V318H192ZM519 -12Q493 -12 474 -4.5Q455 3 443 15Q431 27 425.5 42Q420 57 420 73V93H446V74Q446 43 468.5 26.5Q491 10 521 10Q552 10 575.5 28.5Q599 47 599 97V142Q599 186 578 204.5Q557 223 525 223Q505 223 485.5 211.5Q466 200 455 188L426 191L439 394H609V370H461L451 212Q467 229 489 237.5Q511 246 532 246Q570 246 598 222Q626 198 626 147V92Q626 42 595.5 15Q565 -12 519 -12ZM521 718H551L178 -4H148Z" glyph-name="uni2158" horiz-adv-x="678" unicode="&#8536;" /><glyph d="M176 682 127 666 123 692 188 716H204V318H176ZM525 11Q562 11 580 33Q598 55 598 82V154Q598 191 577 205.5Q556 220 530 220Q517 220 502.5 214Q488 208 476 197.5Q464 187 456.5 172.5Q449 158 449 142V84Q449 56 468 33.5Q487 11 525 11ZM521 -12Q475 -12 447.5 15Q420 42 420 87V297Q420 344 449.5 372.5Q479 401 524 401Q569 401 595 377.5Q621 354 621 316V296H597V313Q597 345 575 361.5Q553 378 520 378Q488 378 468.5 356.5Q449 335 449 304V193Q465 220 489 231Q513 242 537 242Q574 242 599.5 218.5Q625 195 625 159V85Q625 39 596 13.5Q567 -12 521 -12ZM521 718H551L178 -4H148Z" glyph-name="uni2159" horiz-adv-x="678" unicode="&#8537;" /><glyph d="M201 306Q175 306 156 313.5Q137 321 125 333Q113 345 107.5 360Q102 375 102 391V411H128V392Q128 361 150.5 344.5Q173 328 203 328Q234 328 257.5 346.5Q281 365 281 415V460Q281 504 260 522.5Q239 541 207 541Q187 541 167.5 529.5Q148 518 137 506L108 509L121 712H291V688H143L133 530Q149 547 171 555.5Q193 564 214 564Q252 564 280 540Q308 516 308 465V410Q308 360 277.5 333Q247 306 201 306ZM539 11Q576 11 594 33Q612 55 612 82V154Q612 191 591 205.5Q570 220 544 220Q531 220 516.5 214Q502 208 490 197.5Q478 187 470.5 172.5Q463 158 463 142V84Q463 56 482 33.5Q501 11 539 11ZM535 -12Q489 -12 461.5 15Q434 42 434 87V297Q434 344 463.5 372.5Q493 401 538 401Q583 401 609 377.5Q635 354 635 316V296H611V313Q611 345 589 361.5Q567 378 534 378Q502 378 482.5 356.5Q463 335 463 304V193Q479 220 503 231Q527 242 551 242Q588 242 613.5 218.5Q639 195 639 159V85Q639 39 610 13.5Q581 -12 535 -12ZM547 718H577L204 -4H174Z" glyph-name="uni215A" horiz-adv-x="678" unicode="&#8538;" /><glyph d="M176 682 127 666 123 692 188 716H204V318H176ZM525 212Q552 212 574.5 229.5Q597 247 597 276V317Q597 347 574 362.5Q551 378 523 378Q496 378 473.5 360.5Q451 343 451 314V275Q451 259 458 247Q465 235 475.5 227.5Q486 220 499 216Q512 212 525 212ZM524 11Q558 11 579 29Q600 47 600 80V121Q600 155 575.5 171.5Q551 188 524 188Q495 188 471.5 171Q448 154 448 121V78Q448 47 470 29Q492 11 524 11ZM523 -12Q477 -12 448.5 12Q420 36 420 79V119Q420 147 438.5 168Q457 189 485 200Q456 208 440 229.5Q424 251 424 273V312Q424 356 454.5 378Q485 400 524 400Q565 400 594.5 379.5Q624 359 624 315V276Q624 254 607.5 232.5Q591 211 562 201Q589 193 609 171.5Q629 150 629 120V80Q629 35 598.5 11.5Q568 -12 523 -12ZM521 718H551L178 -4H148Z" glyph-name="uni215B" horiz-adv-x="678" unicode="&#8539;" /><glyph d="M204 306Q177 306 157.5 313.5Q138 321 126 333.5Q114 346 108 362Q102 378 102 395V411H128V397Q128 365 150.5 347.5Q173 330 203 330Q240 330 259.5 353.5Q279 377 279 420Q279 447 270 464Q261 481 248.5 490.5Q236 500 222.5 504Q209 508 200 508H164V532H197Q229 532 250 553Q271 574 271 616Q271 638 265 653Q259 668 249 677Q239 686 226 690Q213 694 200 694Q171 694 150.5 678.5Q130 663 130 628V616H105V631Q105 673 131 695.5Q157 718 203 718Q229 718 247 709.5Q265 701 276.5 687.5Q288 674 293 656.5Q298 639 298 622Q298 606 295 590Q292 574 285 560.5Q278 547 266.5 537Q255 527 238 523V521Q272 513 290 483.5Q308 454 308 419Q308 367 279 336.5Q250 306 204 306ZM539 212Q566 212 588.5 229.5Q611 247 611 276V317Q611 347 588 362.5Q565 378 537 378Q510 378 487.5 360.5Q465 343 465 314V275Q465 259 472 247Q479 235 489.5 227.5Q500 220 513 216Q526 212 539 212ZM538 11Q572 11 593 29Q614 47 614 80V121Q614 155 589.5 171.5Q565 188 538 188Q509 188 485.5 171Q462 154 462 121V78Q462 47 484 29Q506 11 538 11ZM537 -12Q491 -12 462.5 12Q434 36 434 79V119Q434 147 452.5 168Q471 189 499 200Q470 208 454 229.5Q438 251 438 273V312Q438 356 468.5 378Q499 400 538 400Q579 400 608.5 379.5Q638 359 638 315V276Q638 254 621.5 232.5Q605 211 576 201Q603 193 623 171.5Q643 150 643 120V80Q643 35 612.5 11.5Q582 -12 537 -12ZM547 718H577L204 -4H174Z" glyph-name="uni215C" horiz-adv-x="678" unicode="&#8540;" /><glyph d="M201 306Q175 306 156 313.5Q137 321 125 333Q113 345 107.5 360Q102 375 102 391V411H128V392Q128 361 150.5 344.5Q173 328 203 328Q234 328 257.5 346.5Q281 365 281 415V460Q281 504 260 522.5Q239 541 207 541Q187 541 167.5 529.5Q148 518 137 506L108 509L121 712H291V688H143L133 530Q149 547 171 555.5Q193 564 214 564Q252 564 280 540Q308 516 308 465V410Q308 360 277.5 333Q247 306 201 306ZM539 212Q566 212 588.5 229.5Q611 247 611 276V317Q611 347 588 362.5Q565 378 537 378Q510 378 487.5 360.5Q465 343 465 314V275Q465 259 472 247Q479 235 489.5 227.5Q500 220 513 216Q526 212 539 212ZM538 11Q572 11 593 29Q614 47 614 80V121Q614 155 589.5 171.5Q565 188 538 188Q509 188 485.5 171Q462 154 462 121V78Q462 47 484 29Q506 11 538 11ZM537 -12Q491 -12 462.5 12Q434 36 434 79V119Q434 147 452.5 168Q471 189 499 200Q470 208 454 229.5Q438 251 438 273V312Q438 356 468.5 378Q499 400 538 400Q579 400 608.5 379.5Q638 359 638 315V276Q638 254 621.5 232.5Q605 211 576 201Q603 193 623 171.5Q643 150 643 120V80Q643 35 612.5 11.5Q582 -12 537 -12ZM547 718H577L204 -4H174Z" glyph-name="uni215D" horiz-adv-x="678" unicode="&#8541;" /><glyph d="M175 318Q175 384 186.5 442Q198 500 215.5 548Q233 596 253.5 631.5Q274 667 293 688H120V712H322V691Q290 657 267.5 610.5Q245 564 230.5 513.5Q216 463 209.5 412Q203 361 203 318ZM539 212Q566 212 588.5 229.5Q611 247 611 276V317Q611 347 588 362.5Q565 378 537 378Q510 378 487.5 360.5Q465 343 465 314V275Q465 259 472 247Q479 235 489.5 227.5Q500 220 513 216Q526 212 539 212ZM538 11Q572 11 593 29Q614 47 614 80V121Q614 155 589.5 171.5Q565 188 538 188Q509 188 485.5 171Q462 154 462 121V78Q462 47 484 29Q506 11 538 11ZM537 -12Q491 -12 462.5 12Q434 36 434 79V119Q434 147 452.5 168Q471 189 499 200Q470 208 454 229.5Q438 251 438 273V312Q438 356 468.5 378Q499 400 538 400Q579 400 608.5 379.5Q638 359 638 315V276Q638 254 621.5 232.5Q605 211 576 201Q603 193 623 171.5Q643 150 643 120V80Q643 35 612.5 11.5Q582 -12 537 -12ZM536 718H566L193 -4H163Z" glyph-name="uni215E" horiz-adv-x="678" unicode="&#8542;" /><glyph d="M145 462 144 295H120V500L123 502L328 503V479H161L406 234L389 218Z" glyph-name="uni2196" horiz-adv-x="519" unicode="&#8598;" /><glyph d="M120 234 364 479H198V503L403 502L405 500L406 295H382L381 462L136 218Z" glyph-name="uni2197" horiz-adv-x="519" unicode="&#8599;" /><glyph d="M198 242H364L120 486L136 503L381 258Q381 300 381.5 342Q382 384 382 426H406Q406 374 405.5 323Q405 272 405 221L403 218H198Z" glyph-name="uni2198" horiz-adv-x="519" unicode="&#8600;" /><glyph d="M123 218 120 221V426H144L145 258L389 503L406 486L161 242H328V218Z" glyph-name="uni2199" horiz-adv-x="519" unicode="&#8601;" /><glyph d="M49 237 45 243 271 506H277L405 178L400 173Z" glyph-name="uni25E2" horiz-adv-x="451" unicode="&#9698;" /><glyph d="M45 178 173 506H179L405 243L401 237L50 173Z" glyph-name="uni25E3" horiz-adv-x="451" unicode="&#9699;" /><glyph d="M173 173Q141 255 109 336.5Q77 418 45 501Q46 503 47 503.5Q48 504 50 506L401 442Q403 440 405 436L179 173Z" glyph-name="uni25E4" horiz-adv-x="451" unicode="&#9700;" /><glyph d="M45 436Q47 440 49 442L400 506L405 501Q373 418 341 336.5Q309 255 277 173H271Z" glyph-name="uni25E5" horiz-adv-x="451" unicode="&#9701;" /><glyph d="M367 -186Q336 -186 313 -167.5Q290 -149 290 -111Q290 -92 297 -74.5Q304 -57 314.5 -42Q325 -27 338.5 -15Q352 -3 364 4L362 92H360Q337 40 293.5 14Q250 -12 200 -12Q170 -12 147.5 -2.5Q125 7 109.5 23.5Q94 40 86.5 61Q79 82 79 105V500H110V119Q110 89 117.5 69Q125 49 138.5 37Q152 25 171 20.5Q190 16 212 16Q239 16 265.5 28Q292 40 312.5 61Q333 82 345.5 110.5Q358 139 358 171V500H389V0Q379 -6 367 -15Q355 -24 344.5 -37.5Q334 -51 326.5 -68Q319 -85 319 -106Q319 -129 330.5 -145Q342 -161 371 -161Q382 -161 396 -157.5Q410 -154 418 -149L428 -169Q419 -175 404.5 -180.5Q390 -186 367 -186Z" glyph-name="uogonek" horiz-adv-x="471" unicode="&#371;" /><glyph d="M235 581Q256 581 271.5 595Q287 609 287 637Q287 663 273 678Q259 693 234 693Q212 693 199 677Q186 661 186 635Q186 607 200.5 594Q215 581 235 581ZM236 559Q216 559 201.5 566Q187 573 177.5 583.5Q168 594 163.5 607.5Q159 621 159 635Q159 668 180 692Q201 716 234 716Q274 716 293 694Q312 672 312 640Q312 606 291.5 582.5Q271 559 236 559ZM200 -12Q170 -12 147.5 -2.5Q125 7 109.5 23.5Q94 40 86.5 61Q79 82 79 105V500H110V119Q110 89 117.5 69Q125 49 138.5 37Q152 25 171 20.5Q190 16 212 16Q239 16 265.5 28Q292 40 312.5 61Q333 82 345.5 110.5Q358 139 358 171V500H389V0H364L362 92H360Q337 40 293.5 14Q250 -12 200 -12Z" glyph-name="uring" horiz-adv-x="471" unicode="&#367;" /><glyph d="M97 579Q100 608 117.5 628.5Q135 649 165 649Q182 649 199.5 643Q217 637 234.5 630.5Q252 624 269.5 618Q287 612 305 612Q325 612 335 624.5Q345 637 351 657L373 653Q368 623 349.5 603Q331 583 304 583Q286 583 267 589Q248 595 230 602Q212 609 195 615Q178 621 163 621Q140 621 132.5 607Q125 593 120 577ZM200 -12Q170 -12 147.5 -2.5Q125 7 109.5 23.5Q94 40 86.5 61Q79 82 79 105V500H110V119Q110 89 117.5 69Q125 49 138.5 37Q152 25 171 20.5Q190 16 212 16Q239 16 265.5 28Q292 40 312.5 61Q333 82 345.5 110.5Q358 139 358 171V500H389V0H364L362 92H360Q337 40 293.5 14Q250 -12 200 -12Z" glyph-name="utilde" horiz-adv-x="471" unicode="&#361;" /><glyph d="M24 500H57L184 40H185L319 500H348L199 -2H167Z" glyph-name="v" horiz-adv-x="372" unicode="v" /><glyph d="M32 500H65L176 44H178L300 500H337L453 44H455L571 500H601L468 -2H436L319 465H316L192 -2H161Z" glyph-name="w" horiz-adv-x="633" unicode="w" /><glyph d="M388 713H427L326 572H298ZM32 500H65L176 44H178L300 500H337L453 44H455L571 500H601L468 -2H436L319 465H316L192 -2H161Z" glyph-name="wacute" horiz-adv-x="633" unicode="&#7811;" /><glyph d="M305 708H330L408 567H375L316 677L256 567H224ZM32 500H65L176 44H178L300 500H337L453 44H455L571 500H601L468 -2H436L319 465H316L192 -2H161Z" glyph-name="wcircumflex" horiz-adv-x="633" unicode="&#373;" /><glyph d="M368 689H399V604H368ZM234 689H265V604H234ZM32 500H65L176 44H178L300 500H337L453 44H455L571 500H601L468 -2H436L319 465H316L192 -2H161Z" glyph-name="wdieresis" horiz-adv-x="633" unicode="&#7813;" /><glyph d="M202 713H241L332 572H304ZM32 500H65L176 44H178L300 500H337L453 44H455L571 500H601L468 -2H436L319 465H316L192 -2H161Z" glyph-name="wgrave" horiz-adv-x="633" unicode="&#7809;" /><glyph d="M638 26V687H78V26ZM47 713H669V0H47Z" glyph-name="whitesquare" horiz-adv-x="716" unicode="&#9633;" /><glyph d="M165 259 30 500H66L186 279L307 500H339L204 260L349 0H315L183 240L49 0H17Z" glyph-name="x" horiz-adv-x="366" unicode="x" /><glyph d="M61 -192Q47 -192 33.5 -190Q20 -188 5 -183L15 -156Q28 -159 39.5 -161Q51 -163 63 -163Q95 -163 112.5 -143Q130 -123 147 -75L177 21L26 500H59L193 63H194L328 500H358L181 -67Q161 -138 129.5 -165Q98 -192 61 -192Z" glyph-name="y" horiz-adv-x="382" unicode="y" /><glyph d="M288 713H327L226 572H198ZM61 -192Q47 -192 33.5 -190Q20 -188 5 -183L15 -156Q28 -159 39.5 -161Q51 -163 63 -163Q95 -163 112.5 -143Q130 -123 147 -75L177 21L26 500H59L193 63H194L328 500H358L181 -67Q161 -138 129.5 -165Q98 -192 61 -192Z" glyph-name="yacute" horiz-adv-x="382" unicode="&#253;" /><glyph d="M180 708H205L283 567H250L191 677L131 567H99ZM61 -192Q47 -192 33.5 -190Q20 -188 5 -183L15 -156Q28 -159 39.5 -161Q51 -163 63 -163Q95 -163 112.5 -143Q130 -123 147 -75L177 21L26 500H59L193 63H194L328 500H358L181 -67Q161 -138 129.5 -165Q98 -192 61 -192Z" glyph-name="ycircumflex" horiz-adv-x="382" unicode="&#375;" /><glyph d="M254 689H285V604H254ZM120 689H151V604H120ZM61 -192Q47 -192 33.5 -190Q20 -188 5 -183L15 -156Q28 -159 39.5 -161Q51 -163 63 -163Q95 -163 112.5 -143Q130 -123 147 -75L177 21L26 500H59L193 63H194L328 500H358L181 -67Q161 -138 129.5 -165Q98 -192 61 -192Z" glyph-name="ydieresis" horiz-adv-x="382" unicode="&#255;" /><glyph d="M220 291H55V317H217L34 713H69L238 347L406 713H438L255 317H419V291H251V0H220Z" glyph-name="yen" horiz-adv-x="471" unicode="&#165;" /><glyph d="M126 713H165L256 572H228ZM61 -192Q47 -192 33.5 -190Q20 -188 5 -183L15 -156Q28 -159 39.5 -161Q51 -163 63 -163Q95 -163 112.5 -143Q130 -123 147 -75L177 21L26 500H59L193 63H194L328 500H358L181 -67Q161 -138 129.5 -165Q98 -192 61 -192Z" glyph-name="ygrave" horiz-adv-x="382" unicode="&#7923;" /><glyph d="M40 20 297 474H46V500H330V477L77 25H331V0H40Z" glyph-name="z" horiz-adv-x="374" unicode="z" /><glyph d="M212 713H251L150 572H122ZM40 20 297 474H46V500H330V477L77 25H331V0H40Z" glyph-name="zacute" horiz-adv-x="374" unicode="&#378;" /><glyph d="M40 20 297 474H46V500H330V477L77 25H331V0H40ZM96 708H129L188 598L248 708H280L199 567H174Z" glyph-name="zcaron" horiz-adv-x="374" unicode="&#382;" /><glyph d="M171 693H203V605H171ZM40 20 297 474H46V500H330V477L77 25H331V0H40Z" glyph-name="zdotaccent" horiz-adv-x="374" unicode="&#380;" /><glyph d="M249 17Q325 17 363.5 58Q402 99 402 164V556Q402 586 392 612Q382 638 362.5 657.5Q343 677 314 688Q285 699 248 699Q173 699 132.5 659Q92 619 92 553V162Q92 99 133 58Q174 17 249 17ZM248 -11Q207 -11 172.5 0.5Q138 12 113 34Q88 56 74 88.5Q60 121 60 162V554Q60 596 75 628Q90 660 116 681.5Q142 703 176.5 714.5Q211 726 249 726Q289 726 323 715Q357 704 381.5 682Q406 660 420 628.5Q434 597 434 556V162Q434 120 419.5 87.5Q405 55 380 33Q355 11 321 0Q287 -11 248 -11Z" glyph-name="zero" horiz-adv-x="494" unicode="0" /><glyph d="M272 17Q348 17 386.5 58Q425 99 425 164V556Q425 586 415 612Q405 638 385.5 657.5Q366 677 337 688Q308 699 271 699Q196 699 155.5 659Q115 619 115 553V162Q115 99 156 58Q197 17 272 17ZM271 -11Q230 -11 195.5 0.5Q161 12 136 34Q111 56 97 88.5Q83 121 83 162V554Q83 596 98 628Q113 660 139 681.5Q165 703 199.5 714.5Q234 726 272 726Q312 726 346 715Q380 704 404.5 682Q429 660 443 628.5Q457 597 457 556V162Q457 120 442.5 87.5Q428 55 403 33Q378 11 344 0Q310 -11 271 -11Z" glyph-name="zero.LT" horiz-adv-x="540" unicode="&#58687;" /><glyph d="M154 13Q194 13 211 35Q228 57 228 90V302Q228 331 209.5 353.5Q191 376 153 376Q115 376 95.5 354Q76 332 76 300V89Q76 57 95.5 35Q115 13 154 13ZM154 -12Q106 -12 77 13Q48 38 48 87V299Q48 349 78.5 374.5Q109 400 154 400Q199 400 228.5 376Q258 352 258 302V89Q258 38 228 13Q198 -12 154 -12Z" glyph-name="zero.dnom" horiz-adv-x="306" unicode="&#58370;" /><glyph d="M154 331Q194 331 211 353Q228 375 228 408V620Q228 649 209.5 671.5Q191 694 153 694Q115 694 95.5 672Q76 650 76 618V407Q76 375 95.5 353Q115 331 154 331ZM154 306Q106 306 77 331Q48 356 48 405V617Q48 667 78.5 692.5Q109 718 154 718Q199 718 228.5 694Q258 670 258 620V407Q258 356 228 331Q198 306 154 306Z" glyph-name="zero.numr" horiz-adv-x="306" unicode="&#58390;" /></font>
</defs>
</svg>
