<?xml version="1.0" standalone="no"?><!DOCTYPE svg PUBLIC "-//W3C//DTD SVG 1.1//EN" "http://www.w3.org/Graphics/SVG/1.1/DTD/svg11.dtd" ><svg version="1.1" xmlns="http://www.w3.org/2000/svg"><defs><font horiz-adv-x="0" id="font"><font-face ascent="750" bbox="-141 -219 868 990" cap-height="713" descent="-250" font-family="Flama Condensed Bold" font-stretch="normal" font-style="normal" font-weight="600" units-per-em="1000" x-height="528" /><missing-glyph d="M707 42V638H115V42ZM55 698H767V-18H55ZM195 158 380 343 195 528 235 568 420 383 605 568 645 528 460 343 645 158 605 118 420 303 235 118Z" horiz-adv-x="962" /><glyph glyph-name=".null" horiz-adv-x="0" /><glyph d="M301 274 254 555H251L202 274ZM165 714H357L496 0H353L324 160H179L150 0H20Z" glyph-name="A" horiz-adv-x="516" unicode="A" /><glyph d="M328 282V568H324L241 282ZM249 713H671V594H469V425H630V305H469V121H672V0H328V175H203L155 0H15Z" glyph-name="AE" horiz-adv-x="703" unicode="&#198;" /><glyph d="M328 282V568H324L241 282ZM249 713H671V594H469V425H630V305H469V121H672V0H328V175H203L155 0H15ZM420 909H550L448 759H353Z" glyph-name="AEacute" horiz-adv-x="703" unicode="&#508;" /><glyph d="M277 909H407L305 759H210ZM301 274 254 555H251L202 274ZM165 714H357L496 0H353L324 160H179L150 0H20Z" glyph-name="Aacute" horiz-adv-x="516" unicode="&#193;" /><glyph d="M260 759Q194 759 156.5 796.5Q119 834 117 909H204Q208 874 219 855Q230 836 262 836Q288 836 299.5 855Q311 874 313 909H397Q397 870 386 841.5Q375 813 356 794.5Q337 776 312.5 767.5Q288 759 260 759ZM301 274 254 555H251L202 274ZM165 714H357L496 0H353L324 160H179L150 0H20Z" glyph-name="Abreve" horiz-adv-x="516" unicode="&#258;" /><glyph d="M214 913H308L400 759H298L259 834L219 759H122ZM301 274 254 555H251L202 274ZM165 714H357L496 0H353L324 160H179L150 0H20Z" glyph-name="Acircumflex" horiz-adv-x="516" unicode="&#194;" /><glyph d="M284 904H386V762H284ZM129 904H231V762H129ZM301 274 254 555H251L202 274ZM165 714H357L496 0H353L324 160H179L150 0H20Z" glyph-name="Adieresis" horiz-adv-x="516" unicode="&#196;" /><glyph d="M111 909H241L308 759H213ZM301 274 254 555H251L202 274ZM165 714H357L496 0H353L324 160H179L150 0H20Z" glyph-name="Agrave" horiz-adv-x="516" unicode="&#192;" /><glyph d="M140 862H375V770H140ZM301 274 254 555H251L202 274ZM165 714H357L496 0H353L324 160H179L150 0H20Z" glyph-name="Amacron" horiz-adv-x="516" unicode="&#256;" /><glyph d="M301 274 254 555H251L202 274ZM446 -199Q424 -199 404 -193.5Q384 -188 369 -177Q354 -166 345 -148Q336 -130 336 -104Q336 -72 350.5 -46Q365 -20 388 0H353L324 160H179L150 0H20L165 714H357L496 0H487Q450 -13 433.5 -34.5Q417 -56 417 -80Q417 -103 430 -113Q443 -123 462 -123Q476 -123 491 -117.5Q506 -112 517 -104L551 -165Q533 -179 508.5 -189Q484 -199 446 -199Z" glyph-name="Aogonek" horiz-adv-x="516" unicode="&#260;" /><glyph d="M263 795Q283 795 294.5 808Q306 821 306 841Q306 861 295 874.5Q284 888 263 888Q244 888 233 874.5Q222 861 222 841Q222 821 233.5 808Q245 795 263 795ZM263 746Q221 746 194 772Q167 798 167 839Q167 881 194.5 908Q222 935 263 935Q306 935 332.5 910Q359 885 359 843Q359 801 331 773.5Q303 746 263 746ZM301 274 254 555H251L202 274ZM165 714H357L496 0H353L324 160H179L150 0H20Z" glyph-name="Aring" horiz-adv-x="516" unicode="&#197;" /><glyph d="M263 792Q282 792 292.5 804.5Q303 817 303 837Q303 858 293 870.5Q283 883 264 883Q245 883 235 870Q225 857 225 837Q225 792 263 792ZM263 748Q217 748 193.5 774Q170 800 170 834Q170 850 175.5 865.5Q181 881 192 894L263 990L354 970L293 918Q323 910 340 888.5Q357 867 357 838Q357 799 330 773.5Q303 748 263 748ZM301 274 254 555H251L202 274ZM165 714H357L496 0H353L324 160H179L150 0H20Z" glyph-name="Aringacute" horiz-adv-x="516" unicode="&#506;" /><glyph d="M98 777Q102 801 109.5 822Q117 843 129 859Q141 875 157 884.5Q173 894 193 894Q209 894 224.5 889.5Q240 885 255.5 879Q271 873 286 868.5Q301 864 316 864Q331 864 338.5 873Q346 882 353 902L414 886Q411 863 403.5 842Q396 821 384 805Q372 789 355.5 779Q339 769 318 769Q304 769 288 773.5Q272 778 256 783.5Q240 789 225.5 793.5Q211 798 199 798Q185 798 177.5 791Q170 784 164 761ZM301 274 254 555H251L202 274ZM165 714H357L496 0H353L324 160H179L150 0H20Z" glyph-name="Atilde" horiz-adv-x="516" unicode="&#195;" /><glyph d="M234 417Q264 417 280 440Q296 463 296 513Q296 558 281.5 579Q267 600 241 600H183V417ZM241 115Q270 115 284 140Q298 165 298 210Q298 259 281.5 280.5Q265 302 236 302H183V115ZM43 713H271Q348 713 392 669.5Q436 626 436 531Q436 457 409.5 417Q383 377 342 365V361Q388 348 414 307.5Q440 267 440 201Q440 98 394.5 49Q349 0 277 0H43Z" glyph-name="B" horiz-adv-x="474" unicode="B" /><glyph d="M241 -11Q197 -11 159.5 0.5Q122 12 94.5 35Q67 58 51.5 93Q36 128 36 175V540Q36 584 52 618.5Q68 653 96 676.5Q124 700 161.5 712Q199 724 242 724Q282 724 317 712.5Q352 701 377.5 679Q403 657 418 625Q433 593 433 552V473H305V540Q305 569 288 585.5Q271 602 242 602Q210 602 194.5 584Q179 566 179 537V181Q179 149 195.5 131Q212 113 243 113Q271 113 288 130Q305 147 305 175V240H433V167Q433 125 418.5 92Q404 59 378 36Q352 13 317 1Q282 -11 241 -11Z" glyph-name="C" horiz-adv-x="463" unicode="C" /><glyph d="M241 -11Q197 -11 159.5 0.5Q122 12 94.5 35Q67 58 51.5 93Q36 128 36 175V540Q36 584 52 618.5Q68 653 96 676.5Q124 700 161.5 712Q199 724 242 724Q282 724 317 712.5Q352 701 377.5 679Q403 657 418 625Q433 593 433 552V473H305V540Q305 569 288 585.5Q271 602 242 602Q210 602 194.5 584Q179 566 179 537V181Q179 149 195.5 131Q212 113 243 113Q271 113 288 130Q305 147 305 175V240H433V167Q433 125 418.5 92Q404 59 378 36Q352 13 317 1Q282 -11 241 -11ZM247 909H377L275 759H180Z" glyph-name="Cacute" horiz-adv-x="463" unicode="&#262;" /><glyph d="M241 -11Q197 -11 159.5 0.5Q122 12 94.5 35Q67 58 51.5 93Q36 128 36 175V540Q36 584 52 618.5Q68 653 96 676.5Q124 700 161.5 712Q199 724 242 724Q282 724 317 712.5Q352 701 377.5 679Q403 657 418 625Q433 593 433 552V473H305V540Q305 569 288 585.5Q271 602 242 602Q210 602 194.5 584Q179 566 179 537V181Q179 149 195.5 131Q212 113 243 113Q271 113 288 130Q305 147 305 175V240H433V167Q433 125 418.5 92Q404 59 378 36Q352 13 317 1Q282 -11 241 -11ZM92 916H193L233 841L272 916H372L278 762H183Z" glyph-name="Ccaron" horiz-adv-x="463" unicode="&#268;" /><glyph d="M242 -194Q225 -194 202.5 -192Q180 -190 157 -184V-125Q178 -130 200 -133.5Q222 -137 236 -137Q254 -137 261.5 -131.5Q269 -126 269 -116Q269 -104 258 -100Q247 -96 234 -95L196 -92L214 -10Q175 -7 142.5 6Q110 19 86 42Q62 65 49 98Q36 131 36 175V540Q36 584 52 618.5Q68 653 96 676.5Q124 700 161.5 712Q199 724 242 724Q282 724 317 712.5Q352 701 377.5 679Q403 657 418 625Q433 593 433 552V473H305V540Q305 569 288 585.5Q271 602 242 602Q210 602 194.5 584Q179 566 179 537V181Q179 149 195.5 131Q212 113 243 113Q271 113 288 130Q305 147 305 175V240H433V167Q433 128 420.5 97Q408 66 386 43.5Q364 21 333.5 7.5Q303 -6 267 -9L258 -49Q273 -49 290.5 -51.5Q308 -54 323 -60.5Q338 -67 347.5 -79.5Q357 -92 357 -112Q357 -132 347.5 -147Q338 -162 322.5 -172.5Q307 -183 286 -188.5Q265 -194 242 -194Z" glyph-name="Ccedilla" horiz-adv-x="463" unicode="&#199;" /><glyph d="M241 -11Q197 -11 159.5 0.5Q122 12 94.5 35Q67 58 51.5 93Q36 128 36 175V540Q36 584 52 618.5Q68 653 96 676.5Q124 700 161.5 712Q199 724 242 724Q282 724 317 712.5Q352 701 377.5 679Q403 657 418 625Q433 593 433 552V473H305V540Q305 569 288 585.5Q271 602 242 602Q210 602 194.5 584Q179 566 179 537V181Q179 149 195.5 131Q212 113 243 113Q271 113 288 130Q305 147 305 175V240H433V167Q433 125 418.5 92Q404 59 378 36Q352 13 317 1Q282 -11 241 -11ZM184 913H278L370 759H268L229 834L189 759H92Z" glyph-name="Ccircumflex" horiz-adv-x="463" unicode="&#264;" /><glyph d="M179 905H288V762H179ZM241 -11Q197 -11 159.5 0.5Q122 12 94.5 35Q67 58 51.5 93Q36 128 36 175V540Q36 584 52 618.5Q68 653 96 676.5Q124 700 161.5 712Q199 724 242 724Q282 724 317 712.5Q352 701 377.5 679Q403 657 418 625Q433 593 433 552V473H305V540Q305 569 288 585.5Q271 602 242 602Q210 602 194.5 584Q179 566 179 537V181Q179 149 195.5 131Q212 113 243 113Q271 113 288 130Q305 147 305 175V240H433V167Q433 125 418.5 92Q404 59 378 36Q352 13 317 1Q282 -11 241 -11Z" glyph-name="Cdotaccent" horiz-adv-x="463" unicode="&#266;" /><glyph d="M236 121Q272 121 286.5 142Q301 163 301 189V528Q301 556 285 574.5Q269 593 234 593H183V121ZM43 713H249Q290 713 325.5 702.5Q361 692 387.5 670.5Q414 649 429 616.5Q444 584 444 541V181Q444 134 429 100Q414 66 387.5 44Q361 22 325 11Q289 0 248 0H43Z" glyph-name="D" horiz-adv-x="480" unicode="D" /><glyph glyph-name="DEL" horiz-adv-x="0" /><glyph d="M236 121Q272 121 286.5 142Q301 163 301 189V528Q301 556 285 574.5Q269 593 234 593H183V121ZM43 713H249Q290 713 325.5 702.5Q361 692 387.5 670.5Q414 649 429 616.5Q444 584 444 541V181Q444 134 429 100Q414 66 387.5 44Q361 22 325 11Q289 0 248 0H43ZM89 916H190L230 841L269 916H369L275 762H180Z" glyph-name="Dcaron" horiz-adv-x="480" unicode="&#270;" /><glyph d="M253 121Q289 121 303.5 142Q318 163 318 189V528Q318 556 302 574.5Q286 593 251 593H200V414H286V327H200V121ZM21 414H60V713H266Q307 713 342.5 702.5Q378 692 404.5 670.5Q431 649 446 616.5Q461 584 461 541V181Q461 134 446 100Q431 66 404.5 44Q378 22 342 11Q306 0 265 0H60V327H21Z" glyph-name="Dcroat" horiz-adv-x="497" unicode="&#272;" /><glyph d="M340 122 253 561H250L167 122ZM24 87 166 714H347L491 88V0H24Z" glyph-name="Delta" horiz-adv-x="511" unicode="&#8710;" /><glyph d="M43 713H386V594H183V426H344V306H183V121H387V0H43Z" glyph-name="E" horiz-adv-x="418" unicode="E" /><glyph d="M43 713H386V594H183V426H344V306H183V121H387V0H43ZM227 909H357L255 759H160Z" glyph-name="Eacute" horiz-adv-x="418" unicode="&#201;" /><glyph d="M216 759Q150 759 112.5 796.5Q75 834 73 909H160Q164 874 175 855Q186 836 218 836Q244 836 255.5 855Q267 874 269 909H353Q353 870 342 841.5Q331 813 312 794.5Q293 776 268.5 767.5Q244 759 216 759ZM43 713H386V594H183V426H344V306H183V121H387V0H43Z" glyph-name="Ebreve" horiz-adv-x="418" unicode="&#276;" /><glyph d="M43 713H386V594H183V426H344V306H183V121H387V0H43ZM68 916H169L209 841L248 916H348L254 762H159Z" glyph-name="Ecaron" horiz-adv-x="418" unicode="&#282;" /><glyph d="M43 713H386V594H183V426H344V306H183V121H387V0H43ZM164 913H258L350 759H248L209 834L169 759H72Z" glyph-name="Ecircumflex" horiz-adv-x="418" unicode="&#202;" /><glyph d="M43 713H386V594H183V426H344V306H183V121H387V0H43ZM249 904H351V762H249ZM94 904H196V762H94Z" glyph-name="Edieresis" horiz-adv-x="418" unicode="&#203;" /><glyph d="M162 905H271V762H162ZM43 713H386V594H183V426H344V306H183V121H387V0H43Z" glyph-name="Edotaccent" horiz-adv-x="418" unicode="&#278;" /><glyph d="M83 909H213L280 759H185ZM43 713H386V594H183V426H344V306H183V121H387V0H43Z" glyph-name="Egrave" horiz-adv-x="418" unicode="&#200;" /><glyph d="M99 862H334V770H99ZM43 713H386V594H183V426H344V306H183V121H387V0H43Z" glyph-name="Emacron" horiz-adv-x="418" unicode="&#274;" /><glyph d="M338 -169Q321 -169 309.5 -167.5Q298 -166 284 -163V-62H303Q323 -62 329 -52.5Q335 -43 335 -24V7L171 427H168V0H43V713H187L337 332H340V713H465V-41Q465 -103 430 -136Q395 -169 338 -169Z" glyph-name="Eng" horiz-adv-x="508" unicode="&#330;" /><glyph d="M43 713H386V594H183V426H344V306H183V121H387V0H381Q344 -13 327.5 -34.5Q311 -56 311 -80Q311 -103 324 -113Q337 -123 356 -123Q370 -123 385 -117.5Q400 -112 411 -104L445 -165Q427 -179 402.5 -189Q378 -199 340 -199Q318 -199 298 -193.5Q278 -188 263 -177Q248 -166 239 -148Q230 -130 230 -104Q230 -72 244.5 -46Q259 -20 282 0H43Z" glyph-name="Eogonek" horiz-adv-x="418" unicode="&#280;" /><glyph d="M253 121Q289 121 303.5 142Q318 163 318 189V528Q318 556 302 574.5Q286 593 251 593H200V414H286V327H200V121ZM21 414H60V713H266Q307 713 342.5 702.5Q378 692 404.5 670.5Q431 649 446 616.5Q461 584 461 541V181Q461 134 446 100Q431 66 404.5 44Q378 22 342 11Q306 0 265 0H60V327H21Z" glyph-name="Eth" horiz-adv-x="497" unicode="&#208;" /><glyph d="M275 -11Q232 -11 195.5 0.5Q159 12 132.5 34.5Q106 57 91 90.5Q76 124 76 168V250H26V328H76V388H26V465H76V545Q76 586 91.5 619.5Q107 653 134 676.5Q161 700 197.5 712.5Q234 725 276 725Q316 725 350.5 714Q385 703 410.5 681.5Q436 660 450.5 628Q465 596 465 555V505H337V548Q337 577 320.5 593.5Q304 610 275 610Q246 610 232 592Q218 574 218 548V465H345V388H218V328H345V250H218V170Q218 140 234 122.5Q250 105 279 105Q308 105 322.5 122Q337 139 337 167V205H465V164Q465 122 450.5 89.5Q436 57 410.5 34.5Q385 12 350.5 0.5Q316 -11 275 -11Z" glyph-name="Euro" horiz-adv-x="491" unicode="&#8364;" /><glyph d="M43 713H385V594H183V422H344V301H183V0H43Z" glyph-name="F" horiz-adv-x="410" unicode="F" /><glyph d="M243 -11Q199 -11 161 1Q123 13 95 36.5Q67 60 51.5 95Q36 130 36 177V540Q36 584 52 618.5Q68 653 95.5 676.5Q123 700 160.5 712Q198 724 241 724Q281 724 317 713Q353 702 380 680.5Q407 659 423 627.5Q439 596 439 555V480H310V544Q310 573 291 588.5Q272 604 243 604Q211 604 195 585.5Q179 567 179 537V180Q179 148 195 129.5Q211 111 243 111Q275 111 289 127.5Q303 144 303 172V271H230V378H440V165Q440 80 387 34.5Q334 -11 243 -11Z" glyph-name="G" horiz-adv-x="476" unicode="G" /><glyph d="M247 759Q181 759 143.5 796.5Q106 834 104 909H191Q195 874 206 855Q217 836 249 836Q275 836 286.5 855Q298 874 300 909H384Q384 870 373 841.5Q362 813 343 794.5Q324 776 299.5 767.5Q275 759 247 759ZM243 -11Q199 -11 161 1Q123 13 95 36.5Q67 60 51.5 95Q36 130 36 177V540Q36 584 52 618.5Q68 653 95.5 676.5Q123 700 160.5 712Q198 724 241 724Q281 724 317 713Q353 702 380 680.5Q407 659 423 627.5Q439 596 439 555V480H310V544Q310 573 291 588.5Q272 604 243 604Q211 604 195 585.5Q179 567 179 537V180Q179 148 195 129.5Q211 111 243 111Q275 111 289 127.5Q303 144 303 172V271H230V378H440V165Q440 80 387 34.5Q334 -11 243 -11Z" glyph-name="Gbreve" horiz-adv-x="476" unicode="&#286;" /><glyph d="M243 -11Q199 -11 161 1Q123 13 95 36.5Q67 60 51.5 95Q36 130 36 177V540Q36 584 52 618.5Q68 653 95.5 676.5Q123 700 160.5 712Q198 724 241 724Q281 724 317 713Q353 702 380 680.5Q407 659 423 627.5Q439 596 439 555V480H310V544Q310 573 291 588.5Q272 604 243 604Q211 604 195 585.5Q179 567 179 537V180Q179 148 195 129.5Q211 111 243 111Q275 111 289 127.5Q303 144 303 172V271H230V378H440V165Q440 80 387 34.5Q334 -11 243 -11ZM190 913H284L376 759H274L235 834L195 759H98Z" glyph-name="Gcircumflex" horiz-adv-x="476" unicode="&#284;" /><glyph d="M243 -11Q199 -11 161 1Q123 13 95 36.5Q67 60 51.5 95Q36 130 36 177V540Q36 584 52 618.5Q68 653 95.5 676.5Q123 700 160.5 712Q198 724 241 724Q281 724 317 713Q353 702 380 680.5Q407 659 423 627.5Q439 596 439 555V480H310V544Q310 573 291 588.5Q272 604 243 604Q211 604 195 585.5Q179 567 179 537V180Q179 148 195 129.5Q211 111 243 111Q275 111 289 127.5Q303 144 303 172V271H230V378H440V165Q440 80 387 34.5Q334 -11 243 -11ZM194 -35H309L274 -188H184Z" glyph-name="Gcommaaccent" horiz-adv-x="476" unicode="&#290;" /><glyph d="M189 905H298V762H189ZM243 -11Q199 -11 161 1Q123 13 95 36.5Q67 60 51.5 95Q36 130 36 177V540Q36 584 52 618.5Q68 653 95.5 676.5Q123 700 160.5 712Q198 724 241 724Q281 724 317 713Q353 702 380 680.5Q407 659 423 627.5Q439 596 439 555V480H310V544Q310 573 291 588.5Q272 604 243 604Q211 604 195 585.5Q179 567 179 537V180Q179 148 195 129.5Q211 111 243 111Q275 111 289 127.5Q303 144 303 172V271H230V378H440V165Q440 80 387 34.5Q334 -11 243 -11Z" glyph-name="Gdotaccent" horiz-adv-x="476" unicode="&#288;" /><glyph d="M43 713H184V424H308V713H449V0H308V296H184V0H43Z" glyph-name="H" horiz-adv-x="491" unicode="H" /><glyph d="M321 424V553H197V424ZM15 617H56V713H197V617H321V713H462V617H504V553H462V0H321V296H197V0H56V553H15Z" glyph-name="Hbar" horiz-adv-x="519" unicode="&#294;" /><glyph d="M43 713H184V424H308V713H449V0H308V296H184V0H43ZM198 913H292L384 759H282L243 834L203 759H106Z" glyph-name="Hcircumflex" horiz-adv-x="491" unicode="&#292;" /><glyph d="M43 713H184V0H43Z" glyph-name="I" horiz-adv-x="227" unicode="I" /><glyph d="M31 119H129V594H31V713H368V594H270V119H368V0H31Z" glyph-name="I.alt" horiz-adv-x="399" unicode="&#58504;" /><glyph d="M424 -11Q330 -11 281 35Q232 81 232 174V265H366V171Q366 146 377.5 128Q389 110 421 110Q453 110 464.5 128.5Q476 147 476 173V713H617V181Q617 90 566.5 39.5Q516 -11 424 -11ZM43 713H184V0H43Z" glyph-name="IJ" horiz-adv-x="658" unicode="&#306;" /><glyph d="M580 -11Q486 -11 437 35Q388 81 388 174V265H522V171Q522 146 533.5 128Q545 110 577 110Q609 110 620.5 128.5Q632 147 632 173V713H773V181Q773 90 722.5 39.5Q672 -11 580 -11ZM31 119H129V594H31V713H368V594H270V119H368V0H31Z" glyph-name="IJ.alt" horiz-adv-x="813" /><glyph d="M130 909H260L158 759H63ZM43 713H184V0H43Z" glyph-name="Iacute" horiz-adv-x="227" unicode="&#205;" /><glyph d="M216 909H346L244 759H149ZM31 119H129V594H31V713H368V594H270V119H368V0H31Z" glyph-name="Iacute.alt" horiz-adv-x="399" unicode="&#57651;" /><glyph d="M117 759Q51 759 13.5 796.5Q-24 834 -26 909H61Q65 874 76 855Q87 836 119 836Q145 836 156.5 855Q168 874 170 909H254Q254 870 243 841.5Q232 813 213 794.5Q194 776 169.5 767.5Q145 759 117 759ZM43 713H184V0H43Z" glyph-name="Ibreve" horiz-adv-x="227" unicode="&#300;" /><glyph d="M203 759Q137 759 99.5 796.5Q62 834 60 909H147Q151 874 162 855Q173 836 205 836Q231 836 242.5 855Q254 874 256 909H340Q340 870 329 841.5Q318 813 299 794.5Q280 776 255.5 767.5Q231 759 203 759ZM31 119H129V594H31V713H368V594H270V119H368V0H31Z" glyph-name="Ibreve.alt" horiz-adv-x="399" unicode="&#57657;" /><glyph d="M67 913H161L253 759H151L112 834L72 759H-25ZM43 713H184V0H43Z" glyph-name="Icircumflex" horiz-adv-x="227" unicode="&#206;" /><glyph d="M153 913H247L339 759H237L198 834L158 759H61ZM31 119H129V594H31V713H368V594H270V119H368V0H31Z" glyph-name="Icircumflex.alt" horiz-adv-x="399" unicode="&#57652;" /><glyph d="M140 904H242V762H140ZM-15 904H87V762H-15ZM43 713H184V0H43Z" glyph-name="Idieresis" horiz-adv-x="227" unicode="&#207;" /><glyph d="M226 904H328V762H226ZM71 904H173V762H71ZM31 119H129V594H31V713H368V594H270V119H368V0H31Z" glyph-name="Idieresis.alt" horiz-adv-x="399" unicode="&#57653;" /><glyph d="M60 905H169V762H60ZM43 713H184V0H43Z" glyph-name="Idotaccent" horiz-adv-x="227" unicode="&#304;" /><glyph d="M146 905H255V762H146ZM31 119H129V594H31V713H368V594H270V119H368V0H31Z" glyph-name="Idotaccent.alt" horiz-adv-x="399" unicode="&#57660;" /><glyph d="M-38 909H92L159 759H64ZM43 713H184V0H43Z" glyph-name="Igrave" horiz-adv-x="227" unicode="&#204;" /><glyph d="M31 119H129V594H31V713H368V594H270V119H368V0H31ZM48 909H178L245 759H150Z" glyph-name="Igrave.alt" horiz-adv-x="399" unicode="&#57650;" /><glyph d="M-3 862H232V770H-3ZM43 713H184V0H43Z" glyph-name="Imacron" horiz-adv-x="227" unicode="&#298;" /><glyph d="M83 862H318V770H83ZM31 119H129V594H31V713H368V594H270V119H368V0H31Z" glyph-name="Imacron.alt" horiz-adv-x="399" unicode="&#57656;" /><glyph d="M43 713H184V3H185Q184 2 184 2V0H177Q148 -13 132.5 -35Q117 -57 117 -80Q117 -103 129 -111.5Q141 -120 160 -120Q168 -120 180.5 -116.5Q193 -113 205 -106L236 -171Q196 -198 138 -198Q118 -198 99.5 -192.5Q81 -187 67 -175Q53 -163 44 -145Q35 -127 35 -101Q35 -69 49.5 -44Q64 -19 84 0H43Z" glyph-name="Iogonek" horiz-adv-x="227" unicode="&#302;" /><glyph d="M31 119H129V594H31V713H368V594H270V119H368V0H358Q329 -13 313.5 -35Q298 -57 298 -80Q298 -103 310 -111.5Q322 -120 341 -120Q349 -120 361.5 -116.5Q374 -113 386 -106L417 -171Q377 -198 319 -198Q299 -198 280.5 -192.5Q262 -187 248 -175Q234 -163 225 -145Q216 -127 216 -101Q216 -69 230.5 -44Q245 -19 265 0H31Z" glyph-name="Iogonek.alt" horiz-adv-x="399" unicode="&#57662;" /><glyph d="M-44 777Q-40 801 -32.5 822Q-25 843 -13 859Q-1 875 15 884.5Q31 894 51 894Q67 894 82.5 889.5Q98 885 113.5 879Q129 873 144 868.5Q159 864 174 864Q189 864 196.5 873Q204 882 211 902L272 886Q269 863 261.5 842Q254 821 242 805Q230 789 213.5 779Q197 769 176 769Q162 769 146 773.5Q130 778 114 783.5Q98 789 83.5 793.5Q69 798 57 798Q43 798 35.5 791Q28 784 22 761ZM43 713H184V0H43Z" glyph-name="Itilde" horiz-adv-x="227" unicode="&#296;" /><glyph d="M42 777Q46 801 53.5 822Q61 843 73 859Q85 875 101 884.5Q117 894 137 894Q153 894 168.5 889.5Q184 885 199.5 879Q215 873 230 868.5Q245 864 260 864Q275 864 282.5 873Q290 882 297 902L358 886Q355 863 347.5 842Q340 821 328 805Q316 789 299.5 779Q283 769 262 769Q248 769 232 773.5Q216 778 200 783.5Q184 789 169.5 793.5Q155 798 143 798Q129 798 121.5 791Q114 784 108 761ZM31 119H129V594H31V713H368V594H270V119H368V0H31Z" glyph-name="Itilde.alt" horiz-adv-x="399" unicode="&#57654;" /><glyph d="M219 -11Q125 -11 76 35Q27 81 27 174V265H161V171Q161 146 172.5 128Q184 110 216 110Q248 110 259.5 128.5Q271 147 271 173V713H412V181Q412 90 361.5 39.5Q311 -11 219 -11Z" glyph-name="J" horiz-adv-x="452" unicode="J" /><glyph d="M219 -11Q125 -11 76 35Q27 81 27 174V265H161V171Q161 146 172.5 128Q184 110 216 110Q248 110 259.5 128.5Q271 147 271 173V713H412V181Q412 90 361.5 39.5Q311 -11 219 -11ZM267 913H361L453 759H351L312 834L272 759H175Z" glyph-name="Jcircumflex" horiz-adv-x="452" unicode="&#308;" /><glyph d="M43 713H184V398L321 713H460L333 434L462 0H312L229 317L184 232V0H43Z" glyph-name="K" horiz-adv-x="479" unicode="K" /><glyph d="M43 713H184V398L321 713H460L333 434L462 0H312L229 317L184 232V0H43ZM189 -35H304L269 -188H179Z" glyph-name="Kcommaaccent" horiz-adv-x="479" unicode="&#310;" /><glyph d="M43 713H183V121H387V0H43Z" glyph-name="L" horiz-adv-x="410" unicode="L" /><glyph glyph-name="LF" horiz-adv-x="35" /><glyph d="M43 713H183V121H387V0H43ZM139 909H269L167 759H72Z" glyph-name="Lacute" horiz-adv-x="410" unicode="&#313;" /><glyph d="M43 713H183V121H387V0H43ZM231 713H334L298 526H225Z" glyph-name="Lcaron" horiz-adv-x="410" unicode="&#317;" /><glyph d="M43 713H183V121H387V0H43ZM172 -35H287L252 -188H162Z" glyph-name="Lcommaaccent" horiz-adv-x="410" unicode="&#315;" /><glyph d="M247 472H357V333H247ZM43 713H183V121H387V0H43Z" glyph-name="Ldot" horiz-adv-x="410" unicode="&#319;" /><glyph d="M21 352 60 379V713H200V475L281 531V437L200 381V121H404V0H60V285L21 258Z" glyph-name="Lslash" horiz-adv-x="428" unicode="&#321;" /><glyph d="M43 713H223L300 429H303L383 713H555V0H430V501H428L348 197H251L169 500H167V0H43Z" glyph-name="M" horiz-adv-x="597" unicode="M" /><glyph d="M43 713H187L337 332H340V713H465V0H338L171 427H168V0H43Z" glyph-name="N" horiz-adv-x="508" unicode="N" /><glyph d="M43 713H187L337 332H340V713H465V0H338L171 427H168V0H43ZM279 909H409L307 759H212Z" glyph-name="Nacute" horiz-adv-x="508" unicode="&#323;" /><glyph d="M43 713H187L337 332H340V713H465V0H338L171 427H168V0H43ZM114 916H215L255 841L294 916H394L300 762H205Z" glyph-name="Ncaron" horiz-adv-x="508" unicode="&#327;" /><glyph d="M43 713H187L337 332H340V713H465V0H338L171 427H168V0H43ZM201 -35H316L281 -188H191Z" glyph-name="Ncommaaccent" horiz-adv-x="508" unicode="&#325;" /><glyph d="M108 777Q112 801 119.5 822Q127 843 139 859Q151 875 167 884.5Q183 894 203 894Q219 894 234.5 889.5Q250 885 265.5 879Q281 873 296 868.5Q311 864 326 864Q341 864 348.5 873Q356 882 363 902L424 886Q421 863 413.5 842Q406 821 394 805Q382 789 365.5 779Q349 769 328 769Q314 769 298 773.5Q282 778 266 783.5Q250 789 235.5 793.5Q221 798 209 798Q195 798 187.5 791Q180 784 174 761ZM43 713H187L337 332H340V713H465V0H338L171 427H168V0H43Z" glyph-name="Ntilde" horiz-adv-x="508" unicode="&#209;" /><glyph d="M243 113Q275 113 291 132.5Q307 152 307 181V536Q307 567 289 584Q271 601 242 601Q210 601 194.5 583Q179 565 179 535V182Q179 152 195 132.5Q211 113 243 113ZM242 -11Q196 -11 158 1Q120 13 93 37Q66 61 51 97.5Q36 134 36 184V530Q36 578 51.5 614Q67 650 95 674.5Q123 699 161 711.5Q199 724 243 724Q286 724 323.5 712.5Q361 701 389 677.5Q417 654 433 617.5Q449 581 449 532V186Q449 136 433 99Q417 62 389 37.5Q361 13 323 1Q285 -11 242 -11Z" glyph-name="O" horiz-adv-x="485" unicode="O" /><glyph d="M244 115Q276 115 292 135Q308 155 308 184V535Q308 565 290 582Q272 599 243 599Q211 599 195 581Q179 563 179 533V184Q179 155 195.5 135Q212 115 244 115ZM221 -8Q129 -8 82.5 39Q36 86 36 186V528Q36 624 85.5 673Q135 722 224 722Q246 722 270 715Q294 708 308 695V713H652V594H449V425H611V305H449V121H653V0H308V22Q294 9 269 0.5Q244 -8 221 -8Z" glyph-name="OE" horiz-adv-x="684" unicode="&#338;" /><glyph d="M243 113Q275 113 291 132.5Q307 152 307 181V536Q307 567 289 584Q271 601 242 601Q210 601 194.5 583Q179 565 179 535V182Q179 152 195 132.5Q211 113 243 113ZM242 -11Q196 -11 158 1Q120 13 93 37Q66 61 51 97.5Q36 134 36 184V530Q36 578 51.5 614Q67 650 95 674.5Q123 699 161 711.5Q199 724 243 724Q286 724 323.5 712.5Q361 701 389 677.5Q417 654 433 617.5Q449 581 449 532V186Q449 136 433 99Q417 62 389 37.5Q361 13 323 1Q285 -11 242 -11ZM261 909H391L289 759H194Z" glyph-name="Oacute" horiz-adv-x="485" unicode="&#211;" /><glyph d="M245 759Q179 759 141.5 796.5Q104 834 102 909H189Q193 874 204 855Q215 836 247 836Q273 836 284.5 855Q296 874 298 909H382Q382 870 371 841.5Q360 813 341 794.5Q322 776 297.5 767.5Q273 759 245 759ZM243 113Q275 113 291 132.5Q307 152 307 181V536Q307 567 289 584Q271 601 242 601Q210 601 194.5 583Q179 565 179 535V182Q179 152 195 132.5Q211 113 243 113ZM242 -11Q196 -11 158 1Q120 13 93 37Q66 61 51 97.5Q36 134 36 184V530Q36 578 51.5 614Q67 650 95 674.5Q123 699 161 711.5Q199 724 243 724Q286 724 323.5 712.5Q361 701 389 677.5Q417 654 433 617.5Q449 581 449 532V186Q449 136 433 99Q417 62 389 37.5Q361 13 323 1Q285 -11 242 -11Z" glyph-name="Obreve" horiz-adv-x="485" unicode="&#334;" /><glyph d="M243 113Q275 113 291 132.5Q307 152 307 181V536Q307 567 289 584Q271 601 242 601Q210 601 194.5 583Q179 565 179 535V182Q179 152 195 132.5Q211 113 243 113ZM242 -11Q196 -11 158 1Q120 13 93 37Q66 61 51 97.5Q36 134 36 184V530Q36 578 51.5 614Q67 650 95 674.5Q123 699 161 711.5Q199 724 243 724Q286 724 323.5 712.5Q361 701 389 677.5Q417 654 433 617.5Q449 581 449 532V186Q449 136 433 99Q417 62 389 37.5Q361 13 323 1Q285 -11 242 -11ZM194 913H288L380 759H278L239 834L199 759H102Z" glyph-name="Ocircumflex" horiz-adv-x="485" unicode="&#212;" /><glyph d="M243 113Q275 113 291 132.5Q307 152 307 181V536Q307 567 289 584Q271 601 242 601Q210 601 194.5 583Q179 565 179 535V182Q179 152 195 132.5Q211 113 243 113ZM242 -11Q196 -11 158 1Q120 13 93 37Q66 61 51 97.5Q36 134 36 184V530Q36 578 51.5 614Q67 650 95 674.5Q123 699 161 711.5Q199 724 243 724Q286 724 323.5 712.5Q361 701 389 677.5Q417 654 433 617.5Q449 581 449 532V186Q449 136 433 99Q417 62 389 37.5Q361 13 323 1Q285 -11 242 -11ZM267 904H369V762H267ZM112 904H214V762H112Z" glyph-name="Odieresis" horiz-adv-x="485" unicode="&#214;" /><glyph d="M99 909H229L296 759H201ZM243 113Q275 113 291 132.5Q307 152 307 181V536Q307 567 289 584Q271 601 242 601Q210 601 194.5 583Q179 565 179 535V182Q179 152 195 132.5Q211 113 243 113ZM242 -11Q196 -11 158 1Q120 13 93 37Q66 61 51 97.5Q36 134 36 184V530Q36 578 51.5 614Q67 650 95 674.5Q123 699 161 711.5Q199 724 243 724Q286 724 323.5 712.5Q361 701 389 677.5Q417 654 433 617.5Q449 581 449 532V186Q449 136 433 99Q417 62 389 37.5Q361 13 323 1Q285 -11 242 -11Z" glyph-name="Ograve" horiz-adv-x="485" unicode="&#210;" /><glyph d="M243 113Q275 113 291 132.5Q307 152 307 181V536Q307 567 289 584Q271 601 242 601Q210 601 194.5 583Q179 565 179 535V182Q179 152 195 132.5Q211 113 243 113ZM242 -11Q196 -11 158 1Q120 13 93 37Q66 61 51 97.5Q36 134 36 184V530Q36 578 51.5 614Q67 650 95 674.5Q123 699 161 711.5Q199 724 243 724Q286 724 323.5 712.5Q361 701 389 677.5Q417 654 433 617.5Q449 581 449 532V186Q449 136 433 99Q417 62 389 37.5Q361 13 323 1Q285 -11 242 -11ZM313 904H421L347 759H258ZM158 904H266L197 759H106Z" glyph-name="Ohungarumlaut" horiz-adv-x="485" unicode="&#336;" /><glyph d="M243 113Q275 113 291 132.5Q307 152 307 181V536Q307 567 289 584Q271 601 242 601Q210 601 194.5 583Q179 565 179 535V182Q179 152 195 132.5Q211 113 243 113ZM242 -11Q196 -11 158 1Q120 13 93 37Q66 61 51 97.5Q36 134 36 184V530Q36 578 51.5 614Q67 650 95 674.5Q123 699 161 711.5Q199 724 243 724Q286 724 323.5 712.5Q361 701 389 677.5Q417 654 433 617.5Q449 581 449 532V186Q449 136 433 99Q417 62 389 37.5Q361 13 323 1Q285 -11 242 -11ZM124 862H359V770H124Z" glyph-name="Omacron" horiz-adv-x="485" unicode="&#332;" /><glyph d="M37 123 151 118V127Q131 140 109.5 159Q88 178 71 207Q54 236 42.5 276.5Q31 317 31 374V505Q31 614 86 669Q141 724 240 724Q343 724 396.5 668.5Q450 613 450 510V374Q450 318 438.5 276.5Q427 235 409 205Q391 175 370 156Q349 137 331 127V118L446 123V0H259V123Q270 141 278.5 159.5Q287 178 293 204Q299 230 302.5 266Q306 302 306 355V525Q306 558 289 579Q272 600 240 600Q209 600 192 579.5Q175 559 175 517V358Q175 310 177.5 275Q180 240 185.5 213.5Q191 187 200 166Q209 145 223 123V0H37Z" glyph-name="Omega" horiz-adv-x="482" unicode="&#8486;" /><glyph d="M243 113Q275 113 291 132.5Q307 152 307 181V448L193 134Q211 113 243 113ZM179 261 294 578Q276 601 242 601Q210 601 194.5 583Q179 565 179 535ZM72 -34 96 34Q67 58 51.5 95Q36 132 36 184V530Q36 578 51.5 614Q67 650 95 674.5Q123 699 161 711.5Q199 724 243 724Q296 724 340 706L361 763L415 747L389 677Q417 653 433 617Q449 581 449 532V186Q449 136 433 99Q417 62 389 37.5Q361 13 323 1Q285 -11 242 -11Q216 -11 192 -7Q168 -3 147 5L127 -50Z" glyph-name="Oslash" horiz-adv-x="485" unicode="&#216;" /><glyph d="M261 909H391L289 759H194ZM243 113Q275 113 291 132.5Q307 152 307 181V448L193 134Q211 113 243 113ZM179 261 294 578Q276 601 242 601Q210 601 194.5 583Q179 565 179 535ZM72 -34 96 34Q67 58 51.5 95Q36 132 36 184V530Q36 578 51.5 614Q67 650 95 674.5Q123 699 161 711.5Q199 724 243 724Q296 724 340 706L361 763L415 747L389 677Q417 653 433 617Q449 581 449 532V186Q449 136 433 99Q417 62 389 37.5Q361 13 323 1Q285 -11 242 -11Q216 -11 192 -7Q168 -3 147 5L127 -50Z" glyph-name="Oslashacute" horiz-adv-x="485" unicode="&#510;" /><glyph d="M80 777Q84 801 91.5 822Q99 843 111 859Q123 875 139 884.5Q155 894 175 894Q191 894 206.5 889.5Q222 885 237.5 879Q253 873 268 868.5Q283 864 298 864Q313 864 320.5 873Q328 882 335 902L396 886Q393 863 385.5 842Q378 821 366 805Q354 789 337.5 779Q321 769 300 769Q286 769 270 773.5Q254 778 238 783.5Q222 789 207.5 793.5Q193 798 181 798Q167 798 159.5 791Q152 784 146 761ZM243 113Q275 113 291 132.5Q307 152 307 181V536Q307 567 289 584Q271 601 242 601Q210 601 194.5 583Q179 565 179 535V182Q179 152 195 132.5Q211 113 243 113ZM242 -11Q196 -11 158 1Q120 13 93 37Q66 61 51 97.5Q36 134 36 184V530Q36 578 51.5 614Q67 650 95 674.5Q123 699 161 711.5Q199 724 243 724Q286 724 323.5 712.5Q361 701 389 677.5Q417 654 433 617.5Q449 581 449 532V186Q449 136 433 99Q417 62 389 37.5Q361 13 323 1Q285 -11 242 -11Z" glyph-name="Otilde" horiz-adv-x="485" unicode="&#213;" /><glyph d="M233 375Q296 375 296 492Q296 545 281.5 570.5Q267 596 234 596H184V375ZM43 713H259Q347 713 390.5 657Q434 601 434 495Q434 385 391 322.5Q348 260 254 260H184V0H43Z" glyph-name="P" horiz-adv-x="465" unicode="P" /><glyph d="M244 113Q276 113 292 132.5Q308 152 308 181V536Q308 567 290 584Q272 601 243 601Q211 601 195 583Q179 565 179 535V182Q179 152 195.5 132.5Q212 113 244 113ZM279 -7Q271 -9 262 -10Q253 -11 243 -11Q197 -11 159 1Q121 13 93.5 37Q66 61 51 97.5Q36 134 36 184V530Q36 578 52 614Q68 650 95.5 674.5Q123 699 161 711.5Q199 724 243 724Q286 724 324 712.5Q362 701 390 677.5Q418 654 434 617.5Q450 581 450 532V186Q450 146 439.5 116Q429 86 409 64L476 20L388 -89Z" glyph-name="Q" horiz-adv-x="485" unicode="Q" /><glyph d="M236 388Q266 388 283 411.5Q300 435 300 493Q300 596 235 596H184V388ZM43 713H248Q339 713 390 662Q441 611 441 502Q441 424 418.5 379Q396 334 358 314L450 0H304L231 283H184V0H43Z" glyph-name="R" horiz-adv-x="476" unicode="R" /><glyph glyph-name="RS" horiz-adv-x="35" /><glyph d="M236 388Q266 388 283 411.5Q300 435 300 493Q300 596 235 596H184V388ZM43 713H248Q339 713 390 662Q441 611 441 502Q441 424 418.5 379Q396 334 358 314L450 0H304L231 283H184V0H43ZM233 909H363L261 759H166Z" glyph-name="Racute" horiz-adv-x="476" unicode="&#340;" /><glyph d="M236 388Q266 388 283 411.5Q300 435 300 493Q300 596 235 596H184V388ZM43 713H248Q339 713 390 662Q441 611 441 502Q441 424 418.5 379Q396 334 358 314L450 0H304L231 283H184V0H43ZM87 916H188L228 841L267 916H367L273 762H178Z" glyph-name="Rcaron" horiz-adv-x="476" unicode="&#344;" /><glyph d="M236 388Q266 388 283 411.5Q300 435 300 493Q300 596 235 596H184V388ZM43 713H248Q339 713 390 662Q441 611 441 502Q441 424 418.5 379Q396 334 358 314L450 0H304L231 283H184V0H43ZM185 -35H300L265 -188H175Z" glyph-name="Rcommaaccent" horiz-adv-x="476" unicode="&#342;" /><glyph d="M221 -11Q131 -11 81 44Q31 99 26 195L158 199Q159 182 162.5 165.5Q166 149 173 135Q180 121 191.5 112.5Q203 104 222 104Q252 104 263 125Q274 146 274 170Q274 199 256.5 223.5Q239 248 208 277L140 344Q92 389 64.5 435.5Q37 482 37 541Q37 578 48.5 611.5Q60 645 83.5 670Q107 695 142.5 710Q178 725 226 725Q259 725 290.5 715.5Q322 706 346.5 682.5Q371 659 386.5 620Q402 581 404 523L280 519Q276 558 264 585Q252 612 219 612Q193 612 180.5 594.5Q168 577 168 552Q168 538 174.5 524Q181 510 191.5 496.5Q202 483 215 470.5Q228 458 241 446L304 384Q356 334 384 285.5Q412 237 412 177Q412 138 399 103.5Q386 69 361 43.5Q336 18 301 3.5Q266 -11 221 -11Z" glyph-name="S" horiz-adv-x="438" unicode="S" /><glyph d="M221 -11Q131 -11 81 44Q31 99 26 195L158 199Q159 182 162.5 165.5Q166 149 173 135Q180 121 191.5 112.5Q203 104 222 104Q252 104 263 125Q274 146 274 170Q274 199 256.5 223.5Q239 248 208 277L140 344Q92 389 64.5 435.5Q37 482 37 541Q37 578 48.5 611.5Q60 645 83.5 670Q107 695 142.5 710Q178 725 226 725Q259 725 290.5 715.5Q322 706 346.5 682.5Q371 659 386.5 620Q402 581 404 523L280 519Q276 558 264 585Q252 612 219 612Q193 612 180.5 594.5Q168 577 168 552Q168 538 174.5 524Q181 510 191.5 496.5Q202 483 215 470.5Q228 458 241 446L304 384Q356 334 384 285.5Q412 237 412 177Q412 138 399 103.5Q386 69 361 43.5Q336 18 301 3.5Q266 -11 221 -11ZM236 909H366L264 759H169Z" glyph-name="Sacute" horiz-adv-x="438" unicode="&#346;" /><glyph d="M221 -11Q131 -11 81 44Q31 99 26 195L158 199Q159 182 162.5 165.5Q166 149 173 135Q180 121 191.5 112.5Q203 104 222 104Q252 104 263 125Q274 146 274 170Q274 199 256.5 223.5Q239 248 208 277L140 344Q92 389 64.5 435.5Q37 482 37 541Q37 578 48.5 611.5Q60 645 83.5 670Q107 695 142.5 710Q178 725 226 725Q259 725 290.5 715.5Q322 706 346.5 682.5Q371 659 386.5 620Q402 581 404 523L280 519Q276 558 264 585Q252 612 219 612Q193 612 180.5 594.5Q168 577 168 552Q168 538 174.5 524Q181 510 191.5 496.5Q202 483 215 470.5Q228 458 241 446L304 384Q356 334 384 285.5Q412 237 412 177Q412 138 399 103.5Q386 69 361 43.5Q336 18 301 3.5Q266 -11 221 -11ZM74 916H175L215 841L254 916H354L260 762H165Z" glyph-name="Scaron" horiz-adv-x="438" unicode="&#352;" /><glyph d="M226 -194Q209 -194 186.5 -192Q164 -190 141 -184V-125Q162 -130 184 -133.5Q206 -137 220 -137Q238 -137 245.5 -131.5Q253 -126 253 -116Q253 -104 242 -100Q231 -96 218 -95L180 -92L198 -10Q119 -2 75 51.5Q31 105 26 195L158 199Q159 182 162.5 165.5Q166 149 173 135Q180 121 191.5 112.5Q203 104 222 104Q252 104 263 125Q274 146 274 170Q274 199 256.5 223.5Q239 248 208 277L140 344Q92 389 64.5 435.5Q37 482 37 541Q37 578 48.5 611.5Q60 645 83.5 670Q107 695 142.5 710Q178 725 226 725Q259 725 290.5 715.5Q322 706 346.5 682.5Q371 659 386.5 620Q402 581 404 523L280 519Q276 558 264 585Q252 612 219 612Q193 612 180.5 594.5Q168 577 168 552Q168 538 174.5 524Q181 510 191.5 496.5Q202 483 215 470.5Q228 458 241 446L304 384Q356 334 384 285.5Q412 237 412 177Q412 141 401 109.5Q390 78 369.5 53Q349 28 319 12Q289 -4 251 -9L242 -49Q257 -49 274.5 -51.5Q292 -54 307 -60.5Q322 -67 331.5 -79.5Q341 -92 341 -112Q341 -132 331.5 -147Q322 -162 306.5 -172.5Q291 -183 270 -188.5Q249 -194 226 -194Z" glyph-name="Scedilla" horiz-adv-x="438" unicode="&#350;" /><glyph d="M221 -11Q131 -11 81 44Q31 99 26 195L158 199Q159 182 162.5 165.5Q166 149 173 135Q180 121 191.5 112.5Q203 104 222 104Q252 104 263 125Q274 146 274 170Q274 199 256.5 223.5Q239 248 208 277L140 344Q92 389 64.5 435.5Q37 482 37 541Q37 578 48.5 611.5Q60 645 83.5 670Q107 695 142.5 710Q178 725 226 725Q259 725 290.5 715.5Q322 706 346.5 682.5Q371 659 386.5 620Q402 581 404 523L280 519Q276 558 264 585Q252 612 219 612Q193 612 180.5 594.5Q168 577 168 552Q168 538 174.5 524Q181 510 191.5 496.5Q202 483 215 470.5Q228 458 241 446L304 384Q356 334 384 285.5Q412 237 412 177Q412 138 399 103.5Q386 69 361 43.5Q336 18 301 3.5Q266 -11 221 -11ZM172 913H266L358 759H256L217 834L177 759H80Z" glyph-name="Scircumflex" horiz-adv-x="438" unicode="&#348;" /><glyph d="M221 -11Q131 -11 81 44Q31 99 26 195L158 199Q159 182 162.5 165.5Q166 149 173 135Q180 121 191.5 112.5Q203 104 222 104Q252 104 263 125Q274 146 274 170Q274 199 256.5 223.5Q239 248 208 277L140 344Q92 389 64.5 435.5Q37 482 37 541Q37 578 48.5 611.5Q60 645 83.5 670Q107 695 142.5 710Q178 725 226 725Q259 725 290.5 715.5Q322 706 346.5 682.5Q371 659 386.5 620Q402 581 404 523L280 519Q276 558 264 585Q252 612 219 612Q193 612 180.5 594.5Q168 577 168 552Q168 538 174.5 524Q181 510 191.5 496.5Q202 483 215 470.5Q228 458 241 446L304 384Q356 334 384 285.5Q412 237 412 177Q412 138 399 103.5Q386 69 361 43.5Q336 18 301 3.5Q266 -11 221 -11ZM178 -35H293L258 -188H168Z" glyph-name="Scommaaccent" horiz-adv-x="438" unicode="&#536;" /><glyph d="M153 594H18V713H429V594H295V0H153Z" glyph-name="T" horiz-adv-x="447" unicode="T" /><glyph d="M98 379H153V594H18V713H429V594H295V379H348V293H295V0H153V293H98Z" glyph-name="Tbar" horiz-adv-x="447" unicode="&#358;" /><glyph d="M153 594H18V713H429V594H295V0H153ZM83 916H184L224 841L263 916H363L269 762H174Z" glyph-name="Tcaron" horiz-adv-x="447" unicode="&#356;" /><glyph d="M153 594H18V713H429V594H295V0H153ZM170 -35H285L250 -188H160Z" glyph-name="Tcommaaccent" horiz-adv-x="447" unicode="&#354;" /><glyph d="M233 255Q297 255 297 369Q297 422 282.5 446.5Q268 471 235 471H182V255ZM40 713H182V584H260Q348 584 391.5 531Q435 478 435 374Q435 267 392 205.5Q349 144 255 144H182V0H40Z" glyph-name="Thorn" horiz-adv-x="464" unicode="&#222;" /><glyph d="M237 -11Q145 -11 92.5 35Q40 81 40 178V713H182V183Q182 148 200 130Q218 112 246 112Q276 112 292 131.5Q308 151 307 183V713H442V182Q442 135 426.5 99Q411 63 383 38.5Q355 14 317.5 1.5Q280 -11 237 -11Z" glyph-name="U" horiz-adv-x="482" unicode="U" /><glyph glyph-name="US" horiz-adv-x="33" /><glyph d="M237 -11Q145 -11 92.5 35Q40 81 40 178V713H182V183Q182 148 200 130Q218 112 246 112Q276 112 292 131.5Q308 151 307 183V713H442V182Q442 135 426.5 99Q411 63 383 38.5Q355 14 317.5 1.5Q280 -11 237 -11ZM264 909H394L292 759H197Z" glyph-name="Uacute" horiz-adv-x="482" unicode="&#218;" /><glyph d="M243 759Q177 759 139.5 796.5Q102 834 100 909H187Q191 874 202 855Q213 836 245 836Q271 836 282.5 855Q294 874 296 909H380Q380 870 369 841.5Q358 813 339 794.5Q320 776 295.5 767.5Q271 759 243 759ZM237 -11Q145 -11 92.5 35Q40 81 40 178V713H182V183Q182 148 200 130Q218 112 246 112Q276 112 292 131.5Q308 151 307 183V713H442V182Q442 135 426.5 99Q411 63 383 38.5Q355 14 317.5 1.5Q280 -11 237 -11Z" glyph-name="Ubreve" horiz-adv-x="482" unicode="&#364;" /><glyph d="M237 -11Q145 -11 92.5 35Q40 81 40 178V713H182V183Q182 148 200 130Q218 112 246 112Q276 112 292 131.5Q308 151 307 183V713H442V182Q442 135 426.5 99Q411 63 383 38.5Q355 14 317.5 1.5Q280 -11 237 -11ZM198 913H292L384 759H282L243 834L203 759H106Z" glyph-name="Ucircumflex" horiz-adv-x="482" unicode="&#219;" /><glyph d="M237 -11Q145 -11 92.5 35Q40 81 40 178V713H182V183Q182 148 200 130Q218 112 246 112Q276 112 292 131.5Q308 151 307 183V713H442V182Q442 135 426.5 99Q411 63 383 38.5Q355 14 317.5 1.5Q280 -11 237 -11ZM272 904H374V762H272ZM117 904H219V762H117Z" glyph-name="Udieresis" horiz-adv-x="482" unicode="&#220;" /><glyph d="M105 909H235L302 759H207ZM237 -11Q145 -11 92.5 35Q40 81 40 178V713H182V183Q182 148 200 130Q218 112 246 112Q276 112 292 131.5Q308 151 307 183V713H442V182Q442 135 426.5 99Q411 63 383 38.5Q355 14 317.5 1.5Q280 -11 237 -11Z" glyph-name="Ugrave" horiz-adv-x="482" unicode="&#217;" /><glyph d="M326 904H434L360 759H271ZM171 904H279L210 759H119ZM237 -11Q145 -11 92.5 35Q40 81 40 178V713H182V183Q182 148 200 130Q218 112 246 112Q276 112 292 131.5Q308 151 307 183V713H442V182Q442 135 426.5 99Q411 63 383 38.5Q355 14 317.5 1.5Q280 -11 237 -11Z" glyph-name="Uhungarumlaut" horiz-adv-x="482" unicode="&#368;" /><glyph d="M128 862H363V770H128ZM237 -11Q145 -11 92.5 35Q40 81 40 178V713H182V183Q182 148 200 130Q218 112 246 112Q276 112 292 131.5Q308 151 307 183V713H442V182Q442 135 426.5 99Q411 63 383 38.5Q355 14 317.5 1.5Q280 -11 237 -11Z" glyph-name="Umacron" horiz-adv-x="482" unicode="&#362;" /><glyph d="M304 -199Q282 -199 262 -193Q242 -187 227 -175Q212 -163 203 -144.5Q194 -126 194 -101Q194 -74 204.5 -51Q215 -28 232 -11Q142 -9 91 36.5Q40 82 40 178V713H182V183Q182 148 200 130Q218 112 246 112Q276 112 292 131.5Q308 151 307 183V713H442V182Q442 110 407 64.5Q372 19 315 0Q298 -14 286.5 -34Q275 -54 275 -80Q275 -103 288 -113Q301 -123 320 -123Q334 -123 349 -118Q364 -113 375 -105L409 -167Q390 -181 366 -190Q342 -199 304 -199Z" glyph-name="Uogonek" horiz-adv-x="482" unicode="&#370;" /><glyph d="M237 -11Q145 -11 92.5 35Q40 81 40 178V713H182V183Q182 148 200 130Q218 112 246 112Q276 112 292 131.5Q308 151 307 183V713H442V182Q442 135 426.5 99Q411 63 383 38.5Q355 14 317.5 1.5Q280 -11 237 -11ZM240 799Q260 799 271.5 812Q283 825 283 845Q283 865 272 878.5Q261 892 240 892Q221 892 210 878.5Q199 865 199 845Q199 825 210.5 812Q222 799 240 799ZM240 750Q198 750 171 776Q144 802 144 843Q144 885 171.5 912Q199 939 240 939Q283 939 309.5 914Q336 889 336 847Q336 805 308 777.5Q280 750 240 750Z" glyph-name="Uring" horiz-adv-x="482" unicode="&#366;" /><glyph d="M85 777Q89 801 96.5 822Q104 843 116 859Q128 875 144 884.5Q160 894 180 894Q196 894 211.5 889.5Q227 885 242.5 879Q258 873 273 868.5Q288 864 303 864Q318 864 325.5 873Q333 882 340 902L401 886Q398 863 390.5 842Q383 821 371 805Q359 789 342.5 779Q326 769 305 769Q291 769 275 773.5Q259 778 243 783.5Q227 789 212.5 793.5Q198 798 186 798Q172 798 164.5 791Q157 784 151 761ZM237 -11Q145 -11 92.5 35Q40 81 40 178V713H182V183Q182 148 200 130Q218 112 246 112Q276 112 292 131.5Q308 151 307 183V713H442V182Q442 135 426.5 99Q411 63 383 38.5Q355 14 317.5 1.5Q280 -11 237 -11Z" glyph-name="Utilde" horiz-adv-x="482" unicode="&#360;" /><glyph d="M6 713H146L223 253H227L304 713H431L294 -3H145Z" glyph-name="V" horiz-adv-x="437" unicode="V" /><glyph d="M11 713H150L207 287H210L273 713H408L468 289H470L527 713H651L536 -3H405L336 451H332L261 -3H128Z" glyph-name="W" horiz-adv-x="662" unicode="W" /><glyph d="M11 713H150L207 287H210L273 713H408L468 289H470L527 713H651L536 -3H405L336 451H332L261 -3H128ZM367 909H497L395 759H300Z" glyph-name="Wacute" horiz-adv-x="662" unicode="&#7810;" /><glyph d="M11 713H150L207 287H210L273 713H408L468 289H470L527 713H651L536 -3H405L336 451H332L261 -3H128ZM284 913H378L470 759H368L329 834L289 759H192Z" glyph-name="Wcircumflex" horiz-adv-x="662" unicode="&#372;" /><glyph d="M11 713H150L207 287H210L273 713H408L468 289H470L527 713H651L536 -3H405L336 451H332L261 -3H128ZM362 904H464V762H362ZM207 904H309V762H207Z" glyph-name="Wdieresis" horiz-adv-x="662" unicode="&#7812;" /><glyph d="M189 909H319L386 759H291ZM11 713H150L207 287H210L273 713H408L468 289H470L527 713H651L536 -3H405L336 451H332L261 -3H128Z" glyph-name="Wgrave" horiz-adv-x="662" unicode="&#7808;" /><glyph d="M147 358 13 713H161L232 514L303 713H436L303 369L443 0H297L219 211L141 0H6Z" glyph-name="X" horiz-adv-x="450" unicode="X" /><glyph d="M155 281 6 713H156L235 446L311 713H446L297 280V0H155Z" glyph-name="Y" horiz-adv-x="451" unicode="Y" /><glyph d="M253 909H383L281 759H186ZM155 281 6 713H156L235 446L311 713H446L297 280V0H155Z" glyph-name="Yacute" horiz-adv-x="451" unicode="&#221;" /><glyph d="M190 913H284L376 759H274L235 834L195 759H98ZM155 281 6 713H156L235 446L311 713H446L297 280V0H155Z" glyph-name="Ycircumflex" horiz-adv-x="451" unicode="&#374;" /><glyph d="M259 904H361V762H259ZM104 904H206V762H104ZM155 281 6 713H156L235 446L311 713H446L297 280V0H155Z" glyph-name="Ydieresis" horiz-adv-x="451" unicode="&#376;" /><glyph d="M87 909H217L284 759H189ZM155 281 6 713H156L235 446L311 713H446L297 280V0H155Z" glyph-name="Ygrave" horiz-adv-x="451" unicode="&#7922;" /><glyph d="M29 92 233 594H33V713H389V609L190 121H384V0H29Z" glyph-name="Z" horiz-adv-x="414" unicode="Z" /><glyph d="M29 92 233 594H33V713H389V609L190 121H384V0H29ZM226 909H356L254 759H159Z" glyph-name="Zacute" horiz-adv-x="414" unicode="&#377;" /><glyph d="M29 92 233 594H33V713H389V609L190 121H384V0H29ZM81 916H182L222 841L261 916H361L267 762H172Z" glyph-name="Zcaron" horiz-adv-x="414" unicode="&#381;" /><glyph d="M161 905H270V762H161ZM29 92 233 594H33V713H389V609L190 121H384V0H29Z" glyph-name="Zdotaccent" horiz-adv-x="414" unicode="&#379;" /><glyph d="M197 92Q214 92 228 107Q242 122 242 145V249H217Q192 249 175.5 229Q159 209 159 168Q159 127 169 109.5Q179 92 197 92ZM146 -10Q122 -10 100.5 -0.5Q79 9 62.5 28.5Q46 48 36.5 78.5Q27 109 27 152Q27 195 42.5 227.5Q58 260 83.5 282Q109 304 143 315.5Q177 327 214 327H242V402Q242 420 231.5 431.5Q221 443 198 443Q175 443 165.5 431Q156 419 156 402V359H38V405Q38 437 50.5 463.5Q63 490 85 508.5Q107 527 138 537Q169 547 207 547Q283 547 327.5 508Q372 469 372 397V122Q372 105 373 85.5Q374 66 374.5 48Q375 30 376 17Q377 4 377 0H257Q257 2 255.5 16Q254 30 252 54H249Q241 36 228 23.5Q215 11 201 3.5Q187 -4 172.5 -7Q158 -10 146 -10Z" glyph-name="a" horiz-adv-x="411" unicode="a" /><glyph d="M216 737H346L244 587H149ZM197 92Q214 92 228 107Q242 122 242 145V249H217Q192 249 175.5 229Q159 209 159 168Q159 127 169 109.5Q179 92 197 92ZM146 -10Q122 -10 100.5 -0.5Q79 9 62.5 28.5Q46 48 36.5 78.5Q27 109 27 152Q27 195 42.5 227.5Q58 260 83.5 282Q109 304 143 315.5Q177 327 214 327H242V402Q242 420 231.5 431.5Q221 443 198 443Q175 443 165.5 431Q156 419 156 402V359H38V405Q38 437 50.5 463.5Q63 490 85 508.5Q107 527 138 537Q169 547 207 547Q283 547 327.5 508Q372 469 372 397V122Q372 105 373 85.5Q374 66 374.5 48Q375 30 376 17Q377 4 377 0H257Q257 2 255.5 16Q254 30 252 54H249Q241 36 228 23.5Q215 11 201 3.5Q187 -4 172.5 -7Q158 -10 146 -10Z" glyph-name="aacute" horiz-adv-x="411" unicode="&#225;" /><glyph d="M208 587Q142 587 104.5 624.5Q67 662 65 737H152Q156 702 167 683Q178 664 210 664Q236 664 247.5 683Q259 702 261 737H345Q345 698 334 669.5Q323 641 304 622.5Q285 604 260.5 595.5Q236 587 208 587ZM197 92Q214 92 228 107Q242 122 242 145V249H217Q192 249 175.5 229Q159 209 159 168Q159 127 169 109.5Q179 92 197 92ZM146 -10Q122 -10 100.5 -0.5Q79 9 62.5 28.5Q46 48 36.5 78.5Q27 109 27 152Q27 195 42.5 227.5Q58 260 83.5 282Q109 304 143 315.5Q177 327 214 327H242V402Q242 420 231.5 431.5Q221 443 198 443Q175 443 165.5 431Q156 419 156 402V359H38V405Q38 437 50.5 463.5Q63 490 85 508.5Q107 527 138 537Q169 547 207 547Q283 547 327.5 508Q372 469 372 397V122Q372 105 373 85.5Q374 66 374.5 48Q375 30 376 17Q377 4 377 0H257Q257 2 255.5 16Q254 30 252 54H249Q241 36 228 23.5Q215 11 201 3.5Q187 -4 172.5 -7Q158 -10 146 -10Z" glyph-name="abreve" horiz-adv-x="411" unicode="&#259;" /><glyph d="M156 741H250L342 587H240L201 662L161 587H64ZM197 92Q214 92 228 107Q242 122 242 145V249H217Q192 249 175.5 229Q159 209 159 168Q159 127 169 109.5Q179 92 197 92ZM146 -10Q122 -10 100.5 -0.5Q79 9 62.5 28.5Q46 48 36.5 78.5Q27 109 27 152Q27 195 42.5 227.5Q58 260 83.5 282Q109 304 143 315.5Q177 327 214 327H242V402Q242 420 231.5 431.5Q221 443 198 443Q175 443 165.5 431Q156 419 156 402V359H38V405Q38 437 50.5 463.5Q63 490 85 508.5Q107 527 138 537Q169 547 207 547Q283 547 327.5 508Q372 469 372 397V122Q372 105 373 85.5Q374 66 374.5 48Q375 30 376 17Q377 4 377 0H257Q257 2 255.5 16Q254 30 252 54H249Q241 36 228 23.5Q215 11 201 3.5Q187 -4 172.5 -7Q158 -10 146 -10Z" glyph-name="acircumflex" horiz-adv-x="411" unicode="&#226;" /><glyph d="M104 737H234L132 587H37Z" glyph-name="acute" horiz-adv-x="256" unicode="&#180;" /><glyph d="M230 732H332V590H230ZM75 732H177V590H75ZM197 92Q214 92 228 107Q242 122 242 145V249H217Q192 249 175.5 229Q159 209 159 168Q159 127 169 109.5Q179 92 197 92ZM146 -10Q122 -10 100.5 -0.5Q79 9 62.5 28.5Q46 48 36.5 78.5Q27 109 27 152Q27 195 42.5 227.5Q58 260 83.5 282Q109 304 143 315.5Q177 327 214 327H242V402Q242 420 231.5 431.5Q221 443 198 443Q175 443 165.5 431Q156 419 156 402V359H38V405Q38 437 50.5 463.5Q63 490 85 508.5Q107 527 138 537Q169 547 207 547Q283 547 327.5 508Q372 469 372 397V122Q372 105 373 85.5Q374 66 374.5 48Q375 30 376 17Q377 4 377 0H257Q257 2 255.5 16Q254 30 252 54H249Q241 36 228 23.5Q215 11 201 3.5Q187 -4 172.5 -7Q158 -10 146 -10Z" glyph-name="adieresis" horiz-adv-x="411" unicode="&#228;" /><glyph d="M460 313V394Q460 415 449.5 429Q439 443 417 443Q395 443 384.5 428.5Q374 414 374 394V313ZM198 92Q215 92 228.5 105.5Q242 119 242 142V249H217Q192 249 175.5 229Q159 209 159 168Q159 127 169.5 109.5Q180 92 198 92ZM146 -12Q122 -12 100.5 -2.5Q79 7 62.5 27Q46 47 36.5 78Q27 109 27 152Q27 195 42.5 228Q58 261 83.5 283Q109 305 143 316Q177 327 214 327H242V402Q242 420 231.5 431.5Q221 443 198 443Q175 443 165.5 431Q156 419 156 402V359H38V405Q38 437 50.5 463.5Q63 490 85 508.5Q107 527 138 537Q169 547 207 547Q273 547 313 515Q333 530 360 538.5Q387 547 417 547Q491 547 533.5 505.5Q576 464 576 390V220H374V165Q374 130 392.5 112.5Q411 95 444 95Q473 95 500 101.5Q527 108 547 116L571 22Q536 5 501.5 -3Q467 -11 420 -11Q372 -11 333.5 5Q295 21 272 55Q259 33 242 19.5Q225 6 207 -1Q189 -8 173 -10Q157 -12 146 -12Z" glyph-name="ae" horiz-adv-x="608" unicode="&#230;" /><glyph d="M460 313V394Q460 415 449.5 429Q439 443 417 443Q395 443 384.5 428.5Q374 414 374 394V313ZM198 92Q215 92 228.5 105.5Q242 119 242 142V249H217Q192 249 175.5 229Q159 209 159 168Q159 127 169.5 109.5Q180 92 198 92ZM146 -12Q122 -12 100.5 -2.5Q79 7 62.5 27Q46 47 36.5 78Q27 109 27 152Q27 195 42.5 228Q58 261 83.5 283Q109 305 143 316Q177 327 214 327H242V402Q242 420 231.5 431.5Q221 443 198 443Q175 443 165.5 431Q156 419 156 402V359H38V405Q38 437 50.5 463.5Q63 490 85 508.5Q107 527 138 537Q169 547 207 547Q273 547 313 515Q333 530 360 538.5Q387 547 417 547Q491 547 533.5 505.5Q576 464 576 390V220H374V165Q374 130 392.5 112.5Q411 95 444 95Q473 95 500 101.5Q527 108 547 116L571 22Q536 5 501.5 -3Q467 -11 420 -11Q372 -11 333.5 5Q295 21 272 55Q259 33 242 19.5Q225 6 207 -1Q189 -8 173 -10Q157 -12 146 -12ZM319 737H449L347 587H252Z" glyph-name="aeacute" horiz-adv-x="608" unicode="&#509;" /><glyph d="M64 737H194L261 587H166ZM197 92Q214 92 228 107Q242 122 242 145V249H217Q192 249 175.5 229Q159 209 159 168Q159 127 169 109.5Q179 92 197 92ZM146 -10Q122 -10 100.5 -0.5Q79 9 62.5 28.5Q46 48 36.5 78.5Q27 109 27 152Q27 195 42.5 227.5Q58 260 83.5 282Q109 304 143 315.5Q177 327 214 327H242V402Q242 420 231.5 431.5Q221 443 198 443Q175 443 165.5 431Q156 419 156 402V359H38V405Q38 437 50.5 463.5Q63 490 85 508.5Q107 527 138 537Q169 547 207 547Q283 547 327.5 508Q372 469 372 397V122Q372 105 373 85.5Q374 66 374.5 48Q375 30 376 17Q377 4 377 0H257Q257 2 255.5 16Q254 30 252 54H249Q241 36 228 23.5Q215 11 201 3.5Q187 -4 172.5 -7Q158 -10 146 -10Z" glyph-name="agrave" horiz-adv-x="411" unicode="&#224;" /><glyph d="M151 -198Q131 -198 112.5 -192.5Q94 -187 80 -175Q66 -163 57 -145Q48 -127 48 -101Q48 -75 58 -53Q68 -31 83.5 -13.5Q99 4 118 16.5Q137 29 154 36L198 3Q165 -10 147.5 -32.5Q130 -55 130 -80Q130 -103 142 -111.5Q154 -120 173 -120Q181 -120 193.5 -116.5Q206 -113 218 -106L249 -171Q209 -198 151 -198Z" glyph-name="altogonek" horiz-adv-x="261" /><glyph d="M88 690H323V598H88ZM197 92Q214 92 228 107Q242 122 242 145V249H217Q192 249 175.5 229Q159 209 159 168Q159 127 169 109.5Q179 92 197 92ZM146 -10Q122 -10 100.5 -0.5Q79 9 62.5 28.5Q46 48 36.5 78.5Q27 109 27 152Q27 195 42.5 227.5Q58 260 83.5 282Q109 304 143 315.5Q177 327 214 327H242V402Q242 420 231.5 431.5Q221 443 198 443Q175 443 165.5 431Q156 419 156 402V359H38V405Q38 437 50.5 463.5Q63 490 85 508.5Q107 527 138 537Q169 547 207 547Q283 547 327.5 508Q372 469 372 397V122Q372 105 373 85.5Q374 66 374.5 48Q375 30 376 17Q377 4 377 0H257Q257 2 255.5 16Q254 30 252 54H249Q241 36 228 23.5Q215 11 201 3.5Q187 -4 172.5 -7Q158 -10 146 -10Z" glyph-name="amacron" horiz-adv-x="411" unicode="&#257;" /><glyph d="M254 460Q277 477 288.5 504.5Q300 532 300 565Q300 592 289 609Q278 626 258 626Q234 626 224 608Q214 590 214 569Q214 548 224 521.5Q234 495 254 460ZM224 104Q244 104 260 114.5Q276 125 287 142Q284 149 270.5 172.5Q257 196 241.5 222Q226 248 212.5 271.5Q199 295 196 302Q176 285 168 259Q160 233 160 201Q160 183 163.5 165.5Q167 148 174.5 134.5Q182 121 194.5 112.5Q207 104 224 104ZM196 -13Q113 -13 71.5 42Q30 97 30 190Q30 259 60 310.5Q90 362 144 395Q124 432 106 473Q88 514 88 557Q88 591 98 621.5Q108 652 129 675Q150 698 181 711.5Q212 725 254 725Q329 725 371 682.5Q413 640 413 565Q413 505 385 455Q357 405 304 372Q306 367 316.5 350Q327 333 339 313Q351 293 361.5 276Q372 259 374 254Q379 273 383 294Q387 315 392 344L495 333Q487 277 470 224Q453 171 437 139Q440 133 452 112.5Q464 92 477.5 69.5Q491 47 503 26.5Q515 6 517 0H370L338 54Q309 20 272 3.5Q235 -13 196 -13Z" glyph-name="ampersand" horiz-adv-x="529" unicode="&amp;" /><glyph d="M197 92Q214 92 228 107Q242 122 242 145V249H217Q192 249 175.5 229Q159 209 159 168Q159 127 169 109.5Q179 92 197 92ZM315 -199Q293 -199 273 -193.5Q253 -188 238 -177Q223 -166 214 -148Q205 -130 205 -104Q205 -72 219.5 -46Q234 -20 257 0Q257 2 255.5 16Q254 30 252 54H249Q241 36 228 23.5Q215 11 201 3.5Q187 -4 172.5 -7Q158 -10 146 -10Q122 -10 100.5 -0.5Q79 9 62.5 28.5Q46 48 36.5 78.5Q27 109 27 152Q27 195 42.5 227.5Q58 260 83.5 282Q109 304 143 315.5Q177 327 214 327H242V402Q242 420 231.5 431.5Q221 443 198 443Q175 443 165.5 431Q156 419 156 402V359H38V405Q38 437 50.5 463.5Q63 490 85 508.5Q107 527 138 537Q169 547 207 547Q283 547 327.5 508Q372 469 372 397V122Q372 105 373 85.5Q374 66 374.5 48Q375 30 376 17Q377 4 377 0H356Q319 -13 302.5 -34.5Q286 -56 286 -80Q286 -103 299 -113Q312 -123 331 -123Q345 -123 360 -117.5Q375 -112 386 -104L420 -165Q402 -179 377.5 -189Q353 -199 315 -199Z" glyph-name="aogonek" horiz-adv-x="411" unicode="&#261;" /><glyph d="M30 359Q33 383 40 405Q47 427 58 444Q69 461 85 471Q101 481 123 481Q140 481 162 477Q184 473 207.5 467.5Q231 462 252.5 458Q274 454 289 454Q304 454 311.5 464Q319 474 325 494L382 482Q379 459 373 437Q367 415 356.5 397.5Q346 380 330.5 369Q315 358 292 358Q276 358 253 362.5Q230 367 206 373Q182 379 160.5 383.5Q139 388 126 388Q111 388 103 378.5Q95 369 90 348ZM30 169Q33 193 40 215Q47 237 58 254Q69 271 85 281Q101 291 123 291Q140 291 162 287Q184 283 207.5 277.5Q231 272 252.5 268Q274 264 289 264Q304 264 311.5 274Q319 284 325 304L382 292Q379 269 373 247Q367 225 356.5 208Q346 191 330.5 180Q315 169 292 169Q276 169 253 173.5Q230 178 206 183.5Q182 189 160.5 193.5Q139 198 126 198Q111 198 103 189Q95 180 90 158Z" glyph-name="approxequal" horiz-adv-x="412" unicode="&#8776;" /><glyph d="M207 627Q227 627 238.5 640Q250 653 250 673Q250 693 239 706.5Q228 720 207 720Q188 720 177 706.5Q166 693 166 673Q166 653 177.5 640Q189 627 207 627ZM207 578Q165 578 138 604Q111 630 111 671Q111 713 138.5 740Q166 767 207 767Q250 767 276.5 742Q303 717 303 675Q303 633 275 605.5Q247 578 207 578ZM197 92Q214 92 228 107Q242 122 242 145V249H217Q192 249 175.5 229Q159 209 159 168Q159 127 169 109.5Q179 92 197 92ZM146 -10Q122 -10 100.5 -0.5Q79 9 62.5 28.5Q46 48 36.5 78.5Q27 109 27 152Q27 195 42.5 227.5Q58 260 83.5 282Q109 304 143 315.5Q177 327 214 327H242V402Q242 420 231.5 431.5Q221 443 198 443Q175 443 165.5 431Q156 419 156 402V359H38V405Q38 437 50.5 463.5Q63 490 85 508.5Q107 527 138 537Q169 547 207 547Q283 547 327.5 508Q372 469 372 397V122Q372 105 373 85.5Q374 66 374.5 48Q375 30 376 17Q377 4 377 0H257Q257 2 255.5 16Q254 30 252 54H249Q241 36 228 23.5Q215 11 201 3.5Q187 -4 172.5 -7Q158 -10 146 -10Z" glyph-name="aring" horiz-adv-x="411" unicode="&#229;" /><glyph d="M208 624Q227 624 237.5 636.5Q248 649 248 669Q248 690 238 702.5Q228 715 209 715Q190 715 180 702Q170 689 170 669Q170 624 208 624ZM208 580Q162 580 138.5 606Q115 632 115 666Q115 682 120.5 697.5Q126 713 137 726L208 822L299 802L238 750Q268 742 285 720.5Q302 699 302 670Q302 631 275 605.5Q248 580 208 580ZM197 92Q214 92 228 107Q242 122 242 145V249H217Q192 249 175.5 229Q159 209 159 168Q159 127 169 109.5Q179 92 197 92ZM146 -10Q122 -10 100.5 -0.5Q79 9 62.5 28.5Q46 48 36.5 78.5Q27 109 27 152Q27 195 42.5 227.5Q58 260 83.5 282Q109 304 143 315.5Q177 327 214 327H242V402Q242 420 231.5 431.5Q221 443 198 443Q175 443 165.5 431Q156 419 156 402V359H38V405Q38 437 50.5 463.5Q63 490 85 508.5Q107 527 138 537Q169 547 207 547Q283 547 327.5 508Q372 469 372 397V122Q372 105 373 85.5Q374 66 374.5 48Q375 30 376 17Q377 4 377 0H257Q257 2 255.5 16Q254 30 252 54H249Q241 36 228 23.5Q215 11 201 3.5Q187 -4 172.5 -7Q158 -10 146 -10Z" glyph-name="aringacute" horiz-adv-x="411" unicode="&#507;" /><glyph d="M41 330 96 387 178 304V537H265V304L347 387L402 330L226 164H217Z" glyph-name="arrowdown" horiz-adv-x="445" unicode="&#8595;" /><glyph d="M30 347V356L195 531L253 474L169 394H402V307H169L251 223L195 171Z" glyph-name="arrowleft" horiz-adv-x="445" unicode="&#8592;" /><glyph d="M186 223 269 307H35V394H269L184 474L242 531L408 356V347L242 171Z" glyph-name="arrowright" horiz-adv-x="445" unicode="&#8594;" /><glyph d="M178 398 98 314 41 372 217 537H225L402 372L349 315L265 398V164H178Z" glyph-name="arrowup" horiz-adv-x="445" unicode="&#8593;" /><glyph d="M156 570H246L335 173H244L199 400L149 173H58Z" glyph-name="asciicircum" horiz-adv-x="404" unicode="^" /><glyph d="M30 256Q33 280 40 302.5Q47 325 58 342Q69 359 85 369Q101 379 123 379Q140 379 162 375Q184 371 207.5 365.5Q231 360 252.5 356Q274 352 289 352Q304 352 311.5 361.5Q319 371 325 391L382 379Q379 356 373 334Q367 312 356.5 295Q346 278 330.5 267Q315 256 292 256Q276 256 253 260.5Q230 265 206 270.5Q182 276 160.5 280.5Q139 285 126 285Q111 285 103 276Q95 267 90 245Z" glyph-name="asciitilde" horiz-adv-x="412" unicode="~" /><glyph d="M52 450 116 545 19 601 55 662 142 612V713H215V612L302 662L339 601L241 545L306 450L245 411L179 507L112 411Z" glyph-name="asterisk" horiz-adv-x="357" unicode="*" /><glyph d="M336 182Q362 182 377.5 203Q393 224 398 254L417 389Q417 392 417.5 396Q418 400 418 404Q418 428 406.5 441Q395 454 375 454Q352 454 339 436.5Q326 419 321 392L301 244Q300 240 299.5 232.5Q299 225 299 221Q299 204 307 193Q315 182 336 182ZM384 -75Q324 -75 271 -62Q218 -49 176 -20Q109 23 71 101Q33 179 33 294Q33 390 60 466.5Q87 543 135 596Q183 649 248.5 677Q314 705 391 705Q447 705 500 687.5Q553 670 594 632.5Q635 595 659.5 537.5Q684 480 684 400Q684 340 667.5 288Q651 236 623.5 195.5Q596 155 559.5 128.5Q523 102 484 93H379L386 149H383Q363 117 334.5 100Q306 83 276 83Q231 83 204.5 109Q178 135 178 183Q178 191 178.5 203Q179 215 181 223Q182 229 186 254.5Q190 280 194.5 311.5Q199 343 204 374Q209 405 212 424Q221 483 259 514.5Q297 546 347 546Q370 546 395 535.5Q420 525 432 499H434L439 539H549L495 154Q521 163 544 186.5Q567 210 584 242.5Q601 275 610.5 315Q620 355 620 398Q620 468 600.5 517Q581 566 549 597Q517 628 474 641.5Q431 655 385 655Q314 655 260.5 627.5Q207 600 170.5 551.5Q134 503 115.5 437Q97 371 97 294Q97 197 129 127.5Q161 58 224 21Q256 1 296 -9.5Q336 -20 382 -20Q412 -20 437.5 -17.5Q463 -15 486.5 -10.5Q510 -6 533 0Q556 6 580 13L594 -33Q555 -52 498 -63.5Q441 -75 384 -75Z" glyph-name="at" horiz-adv-x="716" unicode="@" /><glyph d="M46 605Q50 629 57.5 650Q65 671 77 687Q89 703 105 712.5Q121 722 141 722Q157 722 172.5 717.5Q188 713 203.5 707Q219 701 234 696.5Q249 692 264 692Q279 692 286.5 701Q294 710 301 730L362 714Q359 691 351.5 670Q344 649 332 633Q320 617 303.5 607Q287 597 266 597Q252 597 236 601.5Q220 606 204 611.5Q188 617 173.5 621.5Q159 626 147 626Q133 626 125.5 619Q118 612 112 589ZM197 92Q214 92 228 107Q242 122 242 145V249H217Q192 249 175.5 229Q159 209 159 168Q159 127 169 109.5Q179 92 197 92ZM146 -10Q122 -10 100.5 -0.5Q79 9 62.5 28.5Q46 48 36.5 78.5Q27 109 27 152Q27 195 42.5 227.5Q58 260 83.5 282Q109 304 143 315.5Q177 327 214 327H242V402Q242 420 231.5 431.5Q221 443 198 443Q175 443 165.5 431Q156 419 156 402V359H38V405Q38 437 50.5 463.5Q63 490 85 508.5Q107 527 138 537Q169 547 207 547Q283 547 327.5 508Q372 469 372 397V122Q372 105 373 85.5Q374 66 374.5 48Q375 30 376 17Q377 4 377 0H257Q257 2 255.5 16Q254 30 252 54H249Q241 36 228 23.5Q215 11 201 3.5Q187 -4 172.5 -7Q158 -10 146 -10Z" glyph-name="atilde" horiz-adv-x="411" unicode="&#227;" /><glyph d="M222 93Q240 93 251.5 105Q263 117 263 140V394Q263 416 252 428.5Q241 441 221 441Q201 441 187 426Q173 411 173 380V149Q173 122 188 107.5Q203 93 222 93ZM255 -9Q228 -9 203.5 4.5Q179 18 164 41H162L160 0H42V713H173V495H175Q194 523 220.5 535.5Q247 548 272 548Q305 548 328 537.5Q351 527 365.5 509.5Q380 492 386.5 469Q393 446 393 421V125Q393 96 383 71.5Q373 47 355 29Q337 11 311.5 1Q286 -9 255 -9Z" glyph-name="b" horiz-adv-x="428" unicode="b" /><glyph d="M14 716H99L266 -169H179Z" glyph-name="backslash" horiz-adv-x="259" unicode="\" /><glyph d="M88 718H172V-105H88Z" glyph-name="bar" horiz-adv-x="259" unicode="|" /><glyph d="M45 550H434V0H45Z" glyph-name="blacksmallsquare" horiz-adv-x="479" unicode="&#9642;" /><glyph d="M42 714H499L500 0H42Z" glyph-name="blacksquare" horiz-adv-x="542" unicode="&#9632;" /><glyph d="M153 -168Q112 -168 87 -147Q62 -126 62 -73V200Q62 232 55.5 245Q49 258 27 261V335Q50 340 56 350.5Q62 361 62 384V614Q62 668 87 690.5Q112 713 153 713H226V640H189Q181 640 175 635.5Q169 631 169 619V402Q169 362 160 338Q151 314 122 302V297Q138 290 147.5 282Q157 274 161.5 263Q166 252 167.5 236.5Q169 221 169 199V-74Q169 -88 175 -92.5Q181 -97 189 -97H226V-168Z" glyph-name="braceleft" horiz-adv-x="246" unicode="{" /><glyph d="M19 -97H57Q65 -97 70.5 -92.5Q76 -88 76 -74V199Q76 221 77.5 236.5Q79 252 84 263Q89 274 98 282Q107 290 123 297V302Q94 314 85 338Q76 362 76 402V619Q76 632 70.5 636.5Q65 641 57 641H19V714H93Q134 714 158 691.5Q182 669 182 615V384Q182 361 188.5 350.5Q195 340 218 335V261Q196 258 189 245Q182 232 182 200V-73Q182 -126 157.5 -147Q133 -168 93 -168H19Z" glyph-name="braceright" horiz-adv-x="246" unicode="}" /><glyph d="M55 713H219V642H162V-98H219V-168H55Z" glyph-name="bracketleft" horiz-adv-x="240" unicode="[" /><glyph d="M22 -98H79V642H22V713H185V-168H22Z" glyph-name="bracketright" horiz-adv-x="240" unicode="]" /><glyph d="M172 587Q106 587 68.5 624.5Q31 662 29 737H116Q120 702 131 683Q142 664 174 664Q200 664 211.5 683Q223 702 225 737H309Q309 698 298 669.5Q287 641 268 622.5Q249 604 224.5 595.5Q200 587 172 587Z" glyph-name="breve" horiz-adv-x="338" unicode="&#728;" /><glyph d="M94 715H186V386H94ZM94 315H186V-46H94Z" glyph-name="brokenbar" horiz-adv-x="302" unicode="&#166;" /><glyph d="M192 217Q163 217 137.5 228Q112 239 93 258Q74 277 63 302.5Q52 328 52 357Q52 386 63 411.5Q74 437 93 455.5Q112 474 137.5 485Q163 496 192 496Q220 496 245.5 485Q271 474 289.5 455.5Q308 437 319 411.5Q330 386 330 357Q330 328 319.5 302.5Q309 277 290 258Q271 239 246 228Q221 217 192 217Z" glyph-name="bullet" horiz-adv-x="382" unicode="&#8226;" /><glyph d="M206 -11Q170 -11 138.5 -1Q107 9 84 29Q61 49 48 79Q35 109 35 148V383Q35 423 49 453.5Q63 484 86.5 505Q110 526 141.5 536.5Q173 547 208 547Q283 547 326 507.5Q369 468 369 405V357H253V397Q253 416 243 428Q233 440 211 440Q188 440 177.5 426Q167 412 167 391V146Q167 123 177.5 108.5Q188 94 211 94Q234 94 243.5 107.5Q253 121 253 138V179H369V132Q369 63 324.5 26Q280 -11 206 -11Z" glyph-name="c" horiz-adv-x="399" unicode="c" /><glyph d="M206 -11Q170 -11 138.5 -1Q107 9 84 29Q61 49 48 79Q35 109 35 148V383Q35 423 49 453.5Q63 484 86.5 505Q110 526 141.5 536.5Q173 547 208 547Q283 547 326 507.5Q369 468 369 405V357H253V397Q253 416 243 428Q233 440 211 440Q188 440 177.5 426Q167 412 167 391V146Q167 123 177.5 108.5Q188 94 211 94Q234 94 243.5 107.5Q253 121 253 138V179H369V132Q369 63 324.5 26Q280 -11 206 -11ZM222 737H352L250 587H155Z" glyph-name="cacute" horiz-adv-x="399" unicode="&#263;" /><glyph d="M22 744H123L163 669L202 744H302L208 590H113Z" glyph-name="caron" horiz-adv-x="301" unicode="&#711;" /><glyph d="M49 713H152L116 526H43Z" glyph-name="caronSlovak" horiz-adv-x="213" unicode="&#58387;" /><glyph d="M206 -11Q170 -11 138.5 -1Q107 9 84 29Q61 49 48 79Q35 109 35 148V383Q35 423 49 453.5Q63 484 86.5 505Q110 526 141.5 536.5Q173 547 208 547Q283 547 326 507.5Q369 468 369 405V357H253V397Q253 416 243 428Q233 440 211 440Q188 440 177.5 426Q167 412 167 391V146Q167 123 177.5 108.5Q188 94 211 94Q234 94 243.5 107.5Q253 121 253 138V179H369V132Q369 63 324.5 26Q280 -11 206 -11ZM62 744H163L203 669L242 744H342L248 590H153Z" glyph-name="ccaron" horiz-adv-x="399" unicode="&#269;" /><glyph d="M206 -194Q189 -194 166.5 -192Q144 -190 121 -184V-125Q142 -130 164 -133.5Q186 -137 200 -137Q218 -137 225.5 -131.5Q233 -126 233 -116Q233 -104 222 -100Q211 -96 198 -95L160 -92L178 -9Q115 -2 75 37Q35 76 35 148V383Q35 423 49 453.5Q63 484 86.5 505Q110 526 141.5 536.5Q173 547 208 547Q283 547 326 507.5Q369 468 369 405V357H253V397Q253 416 243 428Q233 440 211 440Q188 440 177.5 426Q167 412 167 391V146Q167 123 177.5 108.5Q188 94 211 94Q234 94 243.5 107.5Q253 121 253 138V179H369V132Q369 69 331.5 33Q294 -3 231 -9L222 -49Q237 -49 254.5 -51.5Q272 -54 287 -60.5Q302 -67 311.5 -79.5Q321 -92 321 -112Q321 -132 311.5 -147Q302 -162 286.5 -172.5Q271 -183 250 -188.5Q229 -194 206 -194Z" glyph-name="ccedilla" horiz-adv-x="399" unicode="&#231;" /><glyph d="M206 -11Q170 -11 138.5 -1Q107 9 84 29Q61 49 48 79Q35 109 35 148V383Q35 423 49 453.5Q63 484 86.5 505Q110 526 141.5 536.5Q173 547 208 547Q283 547 326 507.5Q369 468 369 405V357H253V397Q253 416 243 428Q233 440 211 440Q188 440 177.5 426Q167 412 167 391V146Q167 123 177.5 108.5Q188 94 211 94Q234 94 243.5 107.5Q253 121 253 138V179H369V132Q369 63 324.5 26Q280 -11 206 -11ZM154 741H248L340 587H238L199 662L159 587H62Z" glyph-name="ccircumflex" horiz-adv-x="399" unicode="&#265;" /><glyph d="M146 733H255V590H146ZM206 -11Q170 -11 138.5 -1Q107 9 84 29Q61 49 48 79Q35 109 35 148V383Q35 423 49 453.5Q63 484 86.5 505Q110 526 141.5 536.5Q173 547 208 547Q283 547 326 507.5Q369 468 369 405V357H253V397Q253 416 243 428Q233 440 211 440Q188 440 177.5 426Q167 412 167 391V146Q167 123 177.5 108.5Q188 94 211 94Q234 94 243.5 107.5Q253 121 253 138V179H369V132Q369 63 324.5 26Q280 -11 206 -11Z" glyph-name="cdotaccent" horiz-adv-x="399" unicode="&#267;" /><glyph d="M125 -194Q108 -194 85.5 -192Q63 -190 40 -184V-125Q61 -130 83 -133.5Q105 -137 119 -137Q137 -137 144.5 -131.5Q152 -126 152 -116Q152 -104 141 -100Q130 -96 117 -95L79 -92L103 14H156L141 -49Q156 -49 173.5 -51.5Q191 -54 206 -60.5Q221 -67 230.5 -79.5Q240 -92 240 -112Q240 -132 230.5 -147Q221 -162 205.5 -172.5Q190 -183 169 -188.5Q148 -194 125 -194Z" glyph-name="cedilla" horiz-adv-x="280" unicode="&#184;" /><glyph d="M151 18Q97 29 64 67Q31 105 31 169V395Q31 460 65.5 498Q100 536 151 550V625H260V550Q311 538 340 502.5Q369 467 369 416V361H252V410Q252 430 241 442.5Q230 455 207 455Q183 455 172 440.5Q161 426 161 403V167Q161 144 172 128Q183 112 207 112Q231 112 241.5 126.5Q252 141 252 159V210H369V152Q369 98 340 64Q311 30 260 19V-57H151Z" glyph-name="cent" horiz-adv-x="399" unicode="&#162;" /><glyph d="M110 741H204L296 587H194L155 662L115 587H18Z" glyph-name="circumflex" horiz-adv-x="313" unicode="&#710;" /><glyph d="M36 535H160V380H36ZM36 155H160V0H36Z" glyph-name="colon" horiz-adv-x="196" unicode=":" /><glyph d="M83 8H36V155H160V16L116 -126H50Z" glyph-name="comma" horiz-adv-x="196" unicode="," /><glyph d="M73 3H39V104H130V8L93 -86H49Z" glyph-name="comma.dnom" horiz-adv-x="169" unicode="&#58381;" /><glyph d="M73 321H39V422H130V326L93 232H49Z" glyph-name="comma.numr" horiz-adv-x="169" unicode="&#58401;" /><glyph d="M73 -130H39V-29H130V-125L93 -219H49Z" glyph-name="comma.sub" horiz-adv-x="169" /><glyph d="M73 383H39V484H130V388L93 294H49Z" glyph-name="comma.sup" horiz-adv-x="169" /><glyph d="M45 -35H160L125 -188H35Z" glyph-name="commaaccent" horiz-adv-x="194" unicode="&#58388;" /><glyph d="M51 659 87 758H144L126 681H162V589H51Z" glyph-name="commatop" horiz-adv-x="214" /><glyph d="M366 14Q420 14 466.5 37.5Q513 61 547 104.5Q581 148 600 210Q619 272 619 349Q619 426 600.5 488Q582 550 548 593.5Q514 637 467.5 660.5Q421 684 366 684Q309 684 262.5 660.5Q216 637 183 593.5Q150 550 131.5 488Q113 426 113 349Q113 271 132 208.5Q151 146 185 103Q219 60 265.5 37Q312 14 366 14ZM366 -48Q283 -48 221.5 -17Q160 14 119 68Q78 122 57.5 194.5Q37 267 37 349Q37 429 59.5 500.5Q82 572 124.5 625.5Q167 679 228 710.5Q289 742 366 742Q446 742 507.5 710.5Q569 679 610.5 625Q652 571 673 499.5Q694 428 694 349Q694 268 672.5 196Q651 124 609.5 69.5Q568 15 506.5 -16.5Q445 -48 366 -48ZM369 68Q335 68 306 77Q277 86 255.5 104Q234 122 221.5 148.5Q209 175 209 210V481Q209 516 221.5 543Q234 570 255.5 588.5Q277 607 306.5 616.5Q336 626 369 626Q435 626 478 590.5Q521 555 521 492V410H415V485Q415 502 404.5 515.5Q394 529 371 529Q346 529 335.5 514.5Q325 500 325 479V216Q325 194 335 179.5Q345 165 370 165Q395 165 405 178.5Q415 192 415 209V286H521V205Q521 172 509.5 146.5Q498 121 477.5 103.5Q457 86 429.5 77Q402 68 369 68Z" glyph-name="copyright" horiz-adv-x="731" unicode="&#169;" /><glyph d="M201 256Q244 256 264.5 283Q285 310 285 347Q285 384 263 411Q241 438 201 438Q159 438 138 411Q117 384 117 346Q117 329 122.5 312.5Q128 296 139 283.5Q150 271 165.5 263.5Q181 256 201 256ZM45 224 87 265Q61 302 61 347Q61 367 66.5 385.5Q72 404 82 421L39 465L78 503L119 461Q136 474 157 481Q178 488 201 488Q240 488 276 466L318 509L357 470L315 428Q328 411 335 390Q342 369 342 346Q342 326 336 306.5Q330 287 319 270L362 229L324 190L282 231Q246 206 201 206Q158 206 126 228L84 185Z" glyph-name="currency" horiz-adv-x="401" unicode="&#164;" /><glyph d="M207 96Q227 96 242 113Q257 130 257 158V389Q257 415 241.5 430.5Q226 446 208 446Q190 446 178 433.5Q166 421 166 395V146Q166 123 177 109.5Q188 96 207 96ZM158 -10Q125 -10 102 0.5Q79 11 64 28.5Q49 46 42 70Q35 94 35 121V420Q35 445 43.5 468.5Q52 492 68 509Q84 526 108 536.5Q132 547 162 547Q188 547 212.5 537Q237 527 255 504H256V713H386V0H264L262 50H259Q241 21 212.5 5.5Q184 -10 158 -10Z" glyph-name="d" horiz-adv-x="428" unicode="d" /><glyph d="M146 449H32V547H146V713H252V547H366V449H252V-119H146Z" glyph-name="dagger" horiz-adv-x="397" unicode="&#8224;" /><glyph d="M146 56H32V155H146V449H32V547H146V713H252V547H366V449H252V155H366V56H252V-119H146Z" glyph-name="daggerdbl" horiz-adv-x="397" unicode="&#8225;" /><glyph d="M207 96Q227 96 242 113Q257 130 257 158V389Q257 415 241.5 430.5Q226 446 208 446Q190 446 178 433.5Q166 421 166 395V146Q166 123 177 109.5Q188 96 207 96ZM158 -10Q125 -10 102 0.5Q79 11 64 28.5Q49 46 42 70Q35 94 35 121V420Q35 445 43.5 468.5Q52 492 68 509Q84 526 108 536.5Q132 547 162 547Q188 547 212.5 537Q237 527 255 504H256V713H386V0H264L262 50H259Q241 21 212.5 5.5Q184 -10 158 -10ZM417 713H520L484 526H411Z" glyph-name="dcaron" horiz-adv-x="428" unicode="&#271;" /><glyph d="M207 96Q227 96 242 113Q257 130 257 158V389Q257 415 241.5 430.5Q226 446 208 446Q190 446 178 433.5Q166 421 166 395V146Q166 123 177 109.5Q188 96 207 96ZM180 667H256V713H386V667H420V586H386V0H264L262 50H259Q241 21 212.5 5.5Q184 -10 158 -10Q125 -10 102 0.5Q79 11 64 28.5Q49 46 42 70Q35 94 35 121V420Q35 445 43.5 468.5Q52 492 68 509Q84 526 108 536.5Q132 547 162 547Q188 547 212.5 537Q237 527 255 504H256V586H180Z" glyph-name="dcroat" horiz-adv-x="428" unicode="&#273;" /><glyph d="M126 592Q143 592 154.5 604Q166 616 166 634Q166 651 155 663.5Q144 676 126 676Q109 676 98 664Q87 652 87 634Q87 616 98 604Q109 592 126 592ZM126 543Q84 543 58 570Q32 597 32 634Q32 671 59 697.5Q86 724 126 724Q168 724 194 697.5Q220 671 220 635Q220 616 212.5 599.5Q205 583 192.5 570.5Q180 558 162.5 550.5Q145 543 126 543Z" glyph-name="degree" horiz-adv-x="252" unicode="&#176;" /><glyph d="M191 732H293V590H191ZM36 732H138V590H36Z" glyph-name="dieresis" horiz-adv-x="329" unicode="&#168;" /><glyph d="M167 530H270V410H167ZM46 364H390V274H46ZM167 225H270V104H167Z" glyph-name="divide" horiz-adv-x="436" unicode="&#247;" /><glyph d="M184 28Q156 32 128.5 43Q101 54 79 74Q57 94 42.5 124.5Q28 155 26 197L153 201Q156 172 168.5 151Q181 130 213 130Q236 130 248 144.5Q260 159 260 182Q260 205 243 231.5Q226 258 197 285L137 343Q93 385 65.5 426Q38 467 38 520Q38 582 75 627Q112 672 184 682V743H269V680Q293 675 314.5 664.5Q336 654 352.5 635Q369 616 379 587Q389 558 391 518L277 517Q273 554 258 571Q243 588 220 588Q193 588 180.5 571.5Q168 555 168 533Q168 508 187.5 485Q207 462 230 440L291 379Q310 359 328 338Q346 317 360 294.5Q374 272 382.5 247.5Q391 223 391 196Q391 139 358.5 95Q326 51 269 36V-35H184Z" glyph-name="dollar" horiz-adv-x="415" unicode="$" /><glyph d="M67 733H176V590H67Z" glyph-name="dotaccent" horiz-adv-x="243" unicode="&#729;" /><glyph d="M42 535H172V0H42Z" glyph-name="dotlessi" horiz-adv-x="214" unicode="&#305;" /><glyph d="M51 -169Q34 -169 22.5 -167.5Q11 -166 -3 -163V-62H16Q36 -62 42 -52.5Q48 -43 48 -24V535H178V-41Q178 -103 143 -136Q108 -169 51 -169Z" glyph-name="dotlessj" horiz-adv-x="218" unicode="&#567;" /><glyph d="M253 313V394Q253 414 243 428.5Q233 443 210 443Q187 443 176.5 428.5Q166 414 166 394V313ZM211 -11Q173 -11 140.5 -1Q108 9 84.5 29.5Q61 50 48 80Q35 110 35 150V377Q35 418 48.5 449.5Q62 481 86 503Q110 525 141.5 536Q173 547 209 547Q285 547 327 503.5Q369 460 369 388V220H166V165Q166 130 185.5 112.5Q205 95 238 95Q266 95 293 102Q320 109 340 116L363 22Q330 6 293 -2.5Q256 -11 211 -11Z" glyph-name="e" horiz-adv-x="402" unicode="e" /><glyph d="M253 313V394Q253 414 243 428.5Q233 443 210 443Q187 443 176.5 428.5Q166 414 166 394V313ZM211 -11Q173 -11 140.5 -1Q108 9 84.5 29.5Q61 50 48 80Q35 110 35 150V377Q35 418 48.5 449.5Q62 481 86 503Q110 525 141.5 536Q173 547 209 547Q285 547 327 503.5Q369 460 369 388V220H166V165Q166 130 185.5 112.5Q205 95 238 95Q266 95 293 102Q320 109 340 116L363 22Q330 6 293 -2.5Q256 -11 211 -11ZM224 737H354L252 587H157Z" glyph-name="eacute" horiz-adv-x="402" unicode="&#233;" /><glyph d="M205 587Q139 587 101.5 624.5Q64 662 62 737H149Q153 702 164 683Q175 664 207 664Q233 664 244.5 683Q256 702 258 737H342Q342 698 331 669.5Q320 641 301 622.5Q282 604 257.5 595.5Q233 587 205 587ZM253 313V394Q253 414 243 428.5Q233 443 210 443Q187 443 176.5 428.5Q166 414 166 394V313ZM211 -11Q173 -11 140.5 -1Q108 9 84.5 29.5Q61 50 48 80Q35 110 35 150V377Q35 418 48.5 449.5Q62 481 86 503Q110 525 141.5 536Q173 547 209 547Q285 547 327 503.5Q369 460 369 388V220H166V165Q166 130 185.5 112.5Q205 95 238 95Q266 95 293 102Q320 109 340 116L363 22Q330 6 293 -2.5Q256 -11 211 -11Z" glyph-name="ebreve" horiz-adv-x="402" unicode="&#277;" /><glyph d="M253 313V394Q253 414 243 428.5Q233 443 210 443Q187 443 176.5 428.5Q166 414 166 394V313ZM211 -11Q173 -11 140.5 -1Q108 9 84.5 29.5Q61 50 48 80Q35 110 35 150V377Q35 418 48.5 449.5Q62 481 86 503Q110 525 141.5 536Q173 547 209 547Q285 547 327 503.5Q369 460 369 388V220H166V165Q166 130 185.5 112.5Q205 95 238 95Q266 95 293 102Q320 109 340 116L363 22Q330 6 293 -2.5Q256 -11 211 -11ZM61 744H162L202 669L241 744H341L247 590H152Z" glyph-name="ecaron" horiz-adv-x="402" unicode="&#283;" /><glyph d="M253 313V394Q253 414 243 428.5Q233 443 210 443Q187 443 176.5 428.5Q166 414 166 394V313ZM211 -11Q173 -11 140.5 -1Q108 9 84.5 29.5Q61 50 48 80Q35 110 35 150V377Q35 418 48.5 449.5Q62 481 86 503Q110 525 141.5 536Q173 547 209 547Q285 547 327 503.5Q369 460 369 388V220H166V165Q166 130 185.5 112.5Q205 95 238 95Q266 95 293 102Q320 109 340 116L363 22Q330 6 293 -2.5Q256 -11 211 -11ZM168 741H262L354 587H252L213 662L173 587H76Z" glyph-name="ecircumflex" horiz-adv-x="402" unicode="&#234;" /><glyph d="M253 313V394Q253 414 243 428.5Q233 443 210 443Q187 443 176.5 428.5Q166 414 166 394V313ZM211 -11Q173 -11 140.5 -1Q108 9 84.5 29.5Q61 50 48 80Q35 110 35 150V377Q35 418 48.5 449.5Q62 481 86 503Q110 525 141.5 536Q173 547 209 547Q285 547 327 503.5Q369 460 369 388V220H166V165Q166 130 185.5 112.5Q205 95 238 95Q266 95 293 102Q320 109 340 116L363 22Q330 6 293 -2.5Q256 -11 211 -11ZM234 732H336V590H234ZM79 732H181V590H79Z" glyph-name="edieresis" horiz-adv-x="402" unicode="&#235;" /><glyph d="M147 733H256V590H147ZM253 313V394Q253 414 243 428.5Q233 443 210 443Q187 443 176.5 428.5Q166 414 166 394V313ZM211 -11Q173 -11 140.5 -1Q108 9 84.5 29.5Q61 50 48 80Q35 110 35 150V377Q35 418 48.5 449.5Q62 481 86 503Q110 525 141.5 536Q173 547 209 547Q285 547 327 503.5Q369 460 369 388V220H166V165Q166 130 185.5 112.5Q205 95 238 95Q266 95 293 102Q320 109 340 116L363 22Q330 6 293 -2.5Q256 -11 211 -11Z" glyph-name="edotaccent" horiz-adv-x="402" unicode="&#279;" /><glyph d="M72 737H202L269 587H174ZM253 313V394Q253 414 243 428.5Q233 443 210 443Q187 443 176.5 428.5Q166 414 166 394V313ZM211 -11Q173 -11 140.5 -1Q108 9 84.5 29.5Q61 50 48 80Q35 110 35 150V377Q35 418 48.5 449.5Q62 481 86 503Q110 525 141.5 536Q173 547 209 547Q285 547 327 503.5Q369 460 369 388V220H166V165Q166 130 185.5 112.5Q205 95 238 95Q266 95 293 102Q320 109 340 116L363 22Q330 6 293 -2.5Q256 -11 211 -11Z" glyph-name="egrave" horiz-adv-x="402" unicode="&#232;" /><glyph d="M214 413Q237 413 249.5 426.5Q262 440 262 460V570Q262 593 248 604Q234 615 214 615Q194 615 180.5 604Q167 593 167 573V459Q167 438 180 425.5Q193 413 214 413ZM214 97Q238 97 250 110Q262 123 262 143V266Q262 289 248 302Q234 315 214 315Q193 315 179.5 302.5Q166 290 166 270V143Q166 123 178.5 110Q191 97 214 97ZM213 -10Q175 -10 142 -1Q109 8 84.5 26.5Q60 45 46 74Q32 103 32 142V251Q32 289 48.5 317.5Q65 346 93 363Q66 377 52.5 405Q39 433 39 462V568Q39 605 52.5 634.5Q66 664 89 684Q112 704 144 714.5Q176 725 214 725Q250 725 281.5 715.5Q313 706 336.5 687Q360 668 373.5 639Q387 610 387 572V469Q387 432 373 405Q359 378 333 362Q360 348 377.5 321Q395 294 395 256V143Q395 105 381 76.5Q367 48 342.5 29Q318 10 284.5 0Q251 -10 213 -10Z" glyph-name="eight" horiz-adv-x="427" unicode="8" /><glyph d="M219 413Q242 413 254.5 426.5Q267 440 267 460V570Q267 593 253 604Q239 615 219 615Q199 615 185.5 604Q172 593 172 573V459Q172 438 185 425.5Q198 413 219 413ZM219 97Q243 97 255 110Q267 123 267 143V266Q267 289 253 302Q239 315 219 315Q198 315 184.5 302.5Q171 290 171 270V143Q171 123 183.5 110Q196 97 219 97ZM218 -10Q180 -10 147 -1Q114 8 89.5 26.5Q65 45 51 74Q37 103 37 142V251Q37 289 53.5 317.5Q70 346 98 363Q71 377 57.5 405Q44 433 44 462V568Q44 605 57.5 634.5Q71 664 94 684Q117 704 149 714.5Q181 725 219 725Q255 725 286.5 715.5Q318 706 341.5 687Q365 668 378.5 639Q392 610 392 572V469Q392 432 378 405Q364 378 338 362Q365 348 382.5 321Q400 294 400 256V143Q400 105 386 76.5Q372 48 347.5 29Q323 10 289.5 0Q256 -10 218 -10Z" glyph-name="eight.LT" horiz-adv-x="436" unicode="&#58696;" /><glyph d="M144 232Q156 232 163 239.5Q170 247 170 258V305Q170 319 162 325Q154 331 143 331Q132 331 124 325Q116 319 116 308V257Q116 232 144 232ZM144 60Q170 60 170 86V137Q170 151 162 157.5Q154 164 143 164Q132 164 123.5 157.5Q115 151 115 140V85Q115 73 123 66.5Q131 60 144 60ZM143 -11Q91 -11 57 12Q23 35 23 87V131Q23 154 32.5 171Q42 188 59 198Q44 208 36 225Q28 242 28 259V304Q28 352 61 377.5Q94 403 143 403Q191 403 224.5 378.5Q258 354 258 305V262Q258 219 227 199Q242 188 252.5 171Q263 154 263 134V85Q263 38 228.5 13.5Q194 -11 143 -11Z" glyph-name="eight.dnom" horiz-adv-x="286" unicode="&#58378;" /><glyph d="M144 550Q156 550 163 557.5Q170 565 170 576V623Q170 637 162 643Q154 649 143 649Q132 649 124 643Q116 637 116 626V575Q116 550 144 550ZM144 378Q170 378 170 404V455Q170 469 162 475.5Q154 482 143 482Q132 482 123.5 475.5Q115 469 115 458V403Q115 391 123 384.5Q131 378 144 378ZM143 307Q91 307 57 330Q23 353 23 405V449Q23 472 32.5 489Q42 506 59 516Q44 526 36 543Q28 560 28 577V622Q28 670 61 695.5Q94 721 143 721Q191 721 224.5 696.5Q258 672 258 623V580Q258 537 227 517Q242 506 252.5 489Q263 472 263 452V403Q263 356 228.5 331.5Q194 307 143 307Z" glyph-name="eight.numr" horiz-adv-x="286" unicode="&#58398;" /><glyph d="M406 155H530V0H406ZM221 155H345V0H221ZM36 155H160V0H36Z" glyph-name="ellipsis" horiz-adv-x="566" unicode="&#8230;" /><glyph d="M85 690H320V598H85ZM253 313V394Q253 414 243 428.5Q233 443 210 443Q187 443 176.5 428.5Q166 414 166 394V313ZM211 -11Q173 -11 140.5 -1Q108 9 84.5 29.5Q61 50 48 80Q35 110 35 150V377Q35 418 48.5 449.5Q62 481 86 503Q110 525 141.5 536Q173 547 209 547Q285 547 327 503.5Q369 460 369 388V220H166V165Q166 130 185.5 112.5Q205 95 238 95Q266 95 293 102Q320 109 340 116L363 22Q330 6 293 -2.5Q256 -11 211 -11Z" glyph-name="emacron" horiz-adv-x="402" unicode="&#275;" /><glyph d="M0 349H636V263H0Z" glyph-name="emdash" horiz-adv-x="636" unicode="&#8212;" /><glyph d="M0 349H369V263H0Z" glyph-name="endash" horiz-adv-x="369" unicode="&#8211;" /><glyph d="M265 -169Q248 -169 236.5 -167.5Q225 -166 211 -163V-62H230Q250 -62 256 -52.5Q262 -43 262 -24V387Q262 407 253.5 422Q245 437 220 437Q199 437 186 418Q173 399 173 373V0H42V535H171V488H172Q211 547 284 547Q329 547 360.5 517.5Q392 488 392 436V-41Q392 -103 357 -136Q322 -169 265 -169Z" glyph-name="eng" horiz-adv-x="431" unicode="&#331;" /><glyph d="M253 313V394Q253 414 243 428.5Q233 443 210 443Q187 443 176.5 428.5Q166 414 166 394V313ZM211 -11Q173 -11 140.5 -1Q108 9 84.5 29.5Q61 50 48 80Q35 110 35 150V377Q35 418 48.5 449.5Q62 481 86 503Q110 525 141.5 536Q173 547 209 547Q285 547 327 503.5Q369 460 369 388V220H166V165Q166 130 185.5 112.5Q205 95 238 95Q266 95 293 102Q320 109 340 116L363 22Q358 19 352 16.5Q346 14 341 12Q316 -3 300.5 -26Q285 -49 285 -80Q285 -103 298 -113Q311 -123 329 -123Q343 -123 358.5 -118Q374 -113 385 -105L418 -167Q400 -181 375.5 -190Q351 -199 314 -199Q292 -199 272 -193Q252 -187 237 -175Q222 -163 213 -144.5Q204 -126 204 -101Q204 -73 215 -50Q226 -27 243 -10Q235 -11 227 -11Q219 -11 211 -11Z" glyph-name="eogonek" horiz-adv-x="402" unicode="&#281;" /><glyph d="M38 441H392V351H38ZM38 275H392V184H38Z" glyph-name="equal" horiz-adv-x="430" unicode="=" /><glyph d="M211 94Q237 94 246 108.5Q255 123 255 143V378Q255 400 244 414Q233 428 211 428Q188 428 177.5 413Q167 398 167 378V142Q167 122 177.5 108Q188 94 211 94ZM35 638 105 652 73 707 206 734 237 679 307 693 341 623 276 610 364 456Q373 441 379.5 420Q386 399 386 376V151Q386 109 372 78.5Q358 48 334.5 28Q311 8 279 -1.5Q247 -11 211 -11Q174 -11 142 -1.5Q110 8 86 28Q62 48 48.5 78Q35 108 35 150V372Q35 439 69.5 480.5Q104 522 166 530Q167 530 171.5 530.5Q176 531 178 529L146 583L68 567Z" glyph-name="eth" horiz-adv-x="419" unicode="&#240;" /><glyph d="M47 155H171V0H47ZM44 451V714H173V451L153 209H66Z" glyph-name="exclam" horiz-adv-x="217" unicode="!" /><glyph d="M170 408H46V563H170ZM173 112V-151H44V112L64 354H151Z" glyph-name="exclamdown" horiz-adv-x="217" unicode="&#161;" /><glyph d="M77 429H29V531H77V601Q77 659 113 690.5Q149 722 207 722Q223 722 243 720.5Q263 719 280 714V616Q271 618 262.5 619Q254 620 240 620Q226 620 216.5 610Q207 600 207 582V531H266V429H207V0H77Z" glyph-name="f" horiz-adv-x="295" unicode="f" /><glyph d="M76 429H28V531H76V601Q76 659 112 690.5Q148 722 206 722Q222 722 242 720.5Q262 719 279 714V616Q270 618 261.5 619Q253 620 239 620Q225 620 215.5 610Q206 600 206 582V531H265V429H206V0H76ZM322 734H453V598H322ZM322 535H453V0H322Z" glyph-name="fi" horiz-adv-x="492" unicode="&#64257;" /><glyph d="M206 -11Q123 -11 79 30.5Q35 72 35 144V213H157V154Q157 131 169 116.5Q181 102 207 102Q230 102 242 118.5Q254 135 254 164V302Q254 328 241.5 343.5Q229 359 205 359Q188 359 176 348.5Q164 338 156 324L41 332L54 713H362V597H164Q164 597 163 574.5Q162 552 161 523.5Q160 495 159 467.5Q158 440 157 428Q198 460 255 460Q282 460 306 452.5Q330 445 348 428.5Q366 412 376.5 385.5Q387 359 387 320V159Q387 117 373 85Q359 53 334 32Q309 11 276 0Q243 -11 206 -11Z" glyph-name="five" horiz-adv-x="423" unicode="5" /><glyph d="M214 -11Q131 -11 87 30.5Q43 72 43 144V213H165V154Q165 131 177 116.5Q189 102 215 102Q238 102 250 118.5Q262 135 262 164V302Q262 328 249.5 343.5Q237 359 213 359Q196 359 184 348.5Q172 338 164 324L49 332L62 713H370V597H172Q172 597 171 574.5Q170 552 169 523.5Q168 495 167 467.5Q166 440 165 428Q206 460 263 460Q290 460 314 452.5Q338 445 356 428.5Q374 412 384.5 385.5Q395 359 395 320V159Q395 117 381 85Q367 53 342 32Q317 11 284 0Q251 -11 214 -11Z" glyph-name="five.LT" horiz-adv-x="436" unicode="&#58693;" /><glyph d="M140 -11Q87 -11 55.5 13.5Q24 38 24 83V121H114V91Q114 79 120.5 71.5Q127 64 141 64Q168 64 168 95V157Q168 187 141 187Q132 187 125 182Q118 177 113 169L28 177L36 396H243V315H115Q115 312 114.5 299.5Q114 287 113.5 273Q113 259 112.5 246.5Q112 234 112 230Q123 240 139.5 245Q156 250 173 250Q189 250 205 245.5Q221 241 233.5 231Q246 221 254 204.5Q262 188 262 164V93Q262 67 251.5 47.5Q241 28 224 15Q207 2 185 -4.5Q163 -11 140 -11Z" glyph-name="five.dnom" horiz-adv-x="285" unicode="&#58375;" /><glyph d="M140 307Q87 307 55.5 331.5Q24 356 24 401V439H114V409Q114 397 120.5 389.5Q127 382 141 382Q168 382 168 413V475Q168 505 141 505Q132 505 125 500Q118 495 113 487L28 495L36 714H243V633H115Q115 630 114.5 617.5Q114 605 113.5 591Q113 577 112.5 564.5Q112 552 112 548Q123 558 139.5 563Q156 568 173 568Q189 568 205 563.5Q221 559 233.5 549Q246 539 254 522.5Q262 506 262 482V411Q262 385 251.5 365.5Q241 346 224 333Q207 320 185 313.5Q163 307 140 307Z" glyph-name="five.numr" horiz-adv-x="285" unicode="&#58395;" /><glyph d="M76 429H28V531H76V601Q76 659 112 690.5Q148 722 206 722Q222 722 242 720.5Q262 719 279 714V616Q270 618 261.5 619Q253 620 239 620Q225 620 215.5 610Q206 600 206 582V531H265V429H206V0H76ZM433 -8Q373 -8 347 21.5Q321 51 321 98V713H452V139Q452 128 457.5 120Q463 112 479 112Q489 112 504 115V4Q472 -8 433 -8Z" glyph-name="fl" horiz-adv-x="522" unicode="&#64258;" /><glyph d="M73 -170Q57 -170 41 -168Q25 -166 11 -163L19 -61Q21 -61 29.5 -61.5Q38 -62 41 -62Q59 -62 63.5 -52Q68 -42 69 -24L98 383H46L52 486H103L111 597Q115 657 150.5 691.5Q186 726 244 726Q260 726 280.5 723.5Q301 721 318 716L311 618Q306 619 292.5 619Q279 619 272 619Q257 619 248 611Q239 603 238 586L231 486H293L287 383H225L198 -38Q196 -101 163.5 -135.5Q131 -170 73 -170Z" glyph-name="florin" horiz-adv-x="325" unicode="&#402;" /><glyph d="M229 160H23V264L186 713H326L145 273H229V378L351 460V273H400V160H351V0H229Z" glyph-name="four" horiz-adv-x="427" unicode="4" /><glyph d="M236 160H30V264L193 713H333L152 273H236V378L358 460V273H407V160H358V0H236Z" glyph-name="four.LT" horiz-adv-x="436" unicode="&#58692;" /><glyph d="M149 84H14V152L126 399H222L103 158H149V210L238 275V158H270V84H238V0H149Z" glyph-name="four.dnom" horiz-adv-x="283" unicode="&#58374;" /><glyph d="M149 402H14V470L126 717H222L103 476H149V528L238 593V476H270V402H238V318H149Z" glyph-name="four.numr" horiz-adv-x="283" unicode="&#58394;" /><glyph d="M168 716H232L-76 -1H-141Z" glyph-name="fraction" horiz-adv-x="91" unicode="&#8260;" /><glyph d="M208 122Q227 122 241 137.5Q255 153 255 180V388Q255 415 239 429.5Q223 444 206 444Q189 444 177.5 431Q166 418 166 393V170Q166 149 176.5 135.5Q187 122 208 122ZM195 -170Q150 -170 115 -162.5Q80 -155 50 -143L82 -41Q111 -52 134.5 -57.5Q158 -63 187 -63Q224 -63 240 -46.5Q256 -30 256 2V82H254Q237 51 209.5 35Q182 19 155 19Q93 19 64 55.5Q35 92 35 144V411Q35 470 70.5 508Q106 546 165 546Q191 546 218 533Q245 520 260 495H262V538H386V11Q386 -80 336 -125Q286 -170 195 -170Z" glyph-name="g" horiz-adv-x="427" unicode="g" /><glyph d="M214 587Q148 587 110.5 624.5Q73 662 71 737H158Q162 702 173 683Q184 664 216 664Q242 664 253.5 683Q265 702 267 737H351Q351 698 340 669.5Q329 641 310 622.5Q291 604 266.5 595.5Q242 587 214 587ZM208 122Q227 122 241 137.5Q255 153 255 180V388Q255 415 239 429.5Q223 444 206 444Q189 444 177.5 431Q166 418 166 393V170Q166 149 176.5 135.5Q187 122 208 122ZM195 -170Q150 -170 115 -162.5Q80 -155 50 -143L82 -41Q111 -52 134.5 -57.5Q158 -63 187 -63Q224 -63 240 -46.5Q256 -30 256 2V82H254Q237 51 209.5 35Q182 19 155 19Q93 19 64 55.5Q35 92 35 144V411Q35 470 70.5 508Q106 546 165 546Q191 546 218 533Q245 520 260 495H262V538H386V11Q386 -80 336 -125Q286 -170 195 -170Z" glyph-name="gbreve" horiz-adv-x="427" unicode="&#287;" /><glyph d="M208 122Q227 122 241 137.5Q255 153 255 180V388Q255 415 239 429.5Q223 444 206 444Q189 444 177.5 431Q166 418 166 393V170Q166 149 176.5 135.5Q187 122 208 122ZM195 -170Q150 -170 115 -162.5Q80 -155 50 -143L82 -41Q111 -52 134.5 -57.5Q158 -63 187 -63Q224 -63 240 -46.5Q256 -30 256 2V82H254Q237 51 209.5 35Q182 19 155 19Q93 19 64 55.5Q35 92 35 144V411Q35 470 70.5 508Q106 546 165 546Q191 546 218 533Q245 520 260 495H262V538H386V11Q386 -80 336 -125Q286 -170 195 -170ZM171 741H265L357 587H255L216 662L176 587H79Z" glyph-name="gcircumflex" horiz-adv-x="427" unicode="&#285;" /><glyph d="M164 659 200 758H257L239 681H275V589H164ZM208 122Q227 122 241 137.5Q255 153 255 180V388Q255 415 239 429.5Q223 444 206 444Q189 444 177.5 431Q166 418 166 393V170Q166 149 176.5 135.5Q187 122 208 122ZM195 -170Q150 -170 115 -162.5Q80 -155 50 -143L82 -41Q111 -52 134.5 -57.5Q158 -63 187 -63Q224 -63 240 -46.5Q256 -30 256 2V82H254Q237 51 209.5 35Q182 19 155 19Q93 19 64 55.5Q35 92 35 144V411Q35 470 70.5 508Q106 546 165 546Q191 546 218 533Q245 520 260 495H262V538H386V11Q386 -80 336 -125Q286 -170 195 -170Z" glyph-name="gcommaaccent" horiz-adv-x="427" unicode="&#291;" /><glyph d="M156 733H265V590H156ZM208 122Q227 122 241 137.5Q255 153 255 180V388Q255 415 239 429.5Q223 444 206 444Q189 444 177.5 431Q166 418 166 393V170Q166 149 176.5 135.5Q187 122 208 122ZM195 -170Q150 -170 115 -162.5Q80 -155 50 -143L82 -41Q111 -52 134.5 -57.5Q158 -63 187 -63Q224 -63 240 -46.5Q256 -30 256 2V82H254Q237 51 209.5 35Q182 19 155 19Q93 19 64 55.5Q35 92 35 144V411Q35 470 70.5 508Q106 546 165 546Q191 546 218 533Q245 520 260 495H262V538H386V11Q386 -80 336 -125Q286 -170 195 -170Z" glyph-name="gdotaccent" horiz-adv-x="427" unicode="&#289;" /><glyph d="M319 -7Q296 -7 273 -4Q250 -1 232 4L244 108Q255 106 265.5 104Q276 102 287 102Q300 102 309 108.5Q318 115 323 124.5Q328 134 330 146Q332 158 332 170Q332 214 309.5 251Q287 288 248 307V410H259Q281 435 294.5 470.5Q308 506 308 538Q308 570 294.5 592.5Q281 615 255 615Q229 615 216 595.5Q203 576 203 546V0H73V430H26V531H73V545Q73 582 84.5 614Q96 646 119.5 670Q143 694 179.5 707.5Q216 721 266 721Q311 721 344 708Q377 695 398.5 672.5Q420 650 431 620Q442 590 442 556Q442 532 437.5 506.5Q433 481 424 457Q415 433 401 412Q387 391 368 376V373Q414 331 439 275.5Q464 220 464 166Q464 131 455 99.5Q446 68 428 44.5Q410 21 382.5 7Q355 -7 319 -7Z" glyph-name="germandbls" horiz-adv-x="485" unicode="&#223;" /><glyph d="M25 737H155L222 587H127Z" glyph-name="grave" horiz-adv-x="248" unicode="`" /><glyph d="M43 219 261 320Q259 321 243 328.5Q227 336 203.5 347Q180 358 152.5 370.5Q125 383 101.5 394Q78 405 61.5 412.5Q45 420 43 421L83 501L388 354V286L83 139Z" glyph-name="greater" horiz-adv-x="430" unicode="&gt;" /><glyph d="M43 125H395V35H43ZM45 257 269 352 43 446 83 526 391 386V318L85 177Z" glyph-name="greaterequal" horiz-adv-x="436" unicode="&#8805;" /><glyph d="M198 273 317 430 384 390 328 273 386 156 317 117ZM19 273 140 435 207 395 151 273 209 151 140 113Z" glyph-name="guillemotleft" horiz-adv-x="411" unicode="&#171;" /><glyph d="M198 153 255 275 196 396 265 435 386 275 266 113ZM21 158 76 275 19 392 88 430 208 275 89 118Z" glyph-name="guillemotright" horiz-adv-x="411" unicode="&#187;" /><glyph d="M21 273 141 435 209 395 152 273 211 151 142 113Z" glyph-name="guilsinglleft" horiz-adv-x="235" unicode="&#8249;" /><glyph d="M23 153 79 275 21 396 91 435 212 275 91 113Z" glyph-name="guilsinglright" horiz-adv-x="235" unicode="&#8250;" /><glyph d="M42 713H173V487H174Q213 547 284 547Q329 547 360.5 517.5Q392 488 392 436V0H262V387Q262 407 253.5 422Q245 437 220 437Q199 437 186 418Q173 399 173 372V0H42Z" glyph-name="h" horiz-adv-x="431" unicode="h" /><glyph d="M10 667H43V713H174V667H249V586H174V487H175Q214 547 285 547Q330 547 361.5 517.5Q393 488 393 436V0H263V387Q263 407 254.5 422Q246 437 221 437Q200 437 187 418Q174 399 174 372V0H43V586H10Z" glyph-name="hbar" horiz-adv-x="433" unicode="&#295;" /><glyph d="M42 713H173V487H174Q213 547 284 547Q329 547 360.5 517.5Q392 488 392 436V0H262V387Q262 407 253.5 422Q245 437 220 437Q199 437 186 418Q173 399 173 372V0H42ZM67 912H161L253 758H151L112 833L72 758H-25Z" glyph-name="hcircumflex" horiz-adv-x="431" unicode="&#293;" /><glyph d="M250 732H358L284 587H195ZM95 732H203L134 587H43Z" glyph-name="hungarumlaut" horiz-adv-x="406" unicode="&#733;" /><glyph d="M24 351H217V249H24Z" glyph-name="hyphen" horiz-adv-x="241" unicode="-" /><glyph d="M42 734H173V598H42ZM42 535H173V0H42Z" glyph-name="i" horiz-adv-x="214" unicode="i" /><glyph d="M42 535H172V0H42ZM125 737H255L153 587H58Z" glyph-name="iacute" horiz-adv-x="214" unicode="&#237;" /><glyph d="M111 587Q45 587 7.5 624.5Q-30 662 -32 737H55Q59 702 70 683Q81 664 113 664Q139 664 150.5 683Q162 702 164 737H248Q248 698 237 669.5Q226 641 207 622.5Q188 604 163.5 595.5Q139 587 111 587ZM42 535H172V0H42Z" glyph-name="ibreve" horiz-adv-x="214" unicode="&#301;" /><glyph d="M42 535H172V0H42ZM61 741H155L247 587H145L106 662L66 587H-31Z" glyph-name="icircumflex" horiz-adv-x="214" unicode="&#238;" /><glyph d="M42 535H172V0H42ZM135 732H237V590H135ZM-20 732H82V590H-20Z" glyph-name="idieresis" horiz-adv-x="214" unicode="&#239;" /><glyph d="M42 734H173V598H42ZM42 535H173V0H42Z" glyph-name="idotaccent" horiz-adv-x="214" /><glyph d="M-43 737H87L154 587H59ZM42 535H172V0H42Z" glyph-name="igrave" horiz-adv-x="214" unicode="&#236;" /><glyph d="M42 734H173V598H42ZM244 734H375V598H244ZM42 535H173V0H42ZM248 -169Q231 -169 219.5 -167.5Q208 -166 194 -163V-62H213Q233 -62 239 -52.5Q245 -43 245 -24V535H375V-41Q375 -103 340 -136Q305 -169 248 -169Z" glyph-name="ij" horiz-adv-x="416" unicode="&#307;" /><glyph d="M-10 690H225V598H-10ZM42 535H172V0H42Z" glyph-name="imacron" horiz-adv-x="214" unicode="&#299;" /><glyph d="M451 257Q480 257 499 276.5Q518 296 518 325Q518 352 504 371Q490 390 458 390Q434 390 408.5 369Q383 348 358 322Q377 296 399 276.5Q421 257 451 257ZM168 260Q195 260 221 280Q247 300 270 326Q262 338 251.5 350.5Q241 363 229 372.5Q217 382 203.5 388.5Q190 395 175 395Q148 395 129 376Q110 357 110 331Q110 302 126 281Q142 260 168 260ZM453 183Q404 183 370 206Q336 229 310 260Q281 230 246.5 208.5Q212 187 170 187Q137 187 111 197.5Q85 208 66.5 226.5Q48 245 38 270Q28 295 28 324Q28 355 39 380.5Q50 406 69.5 425Q89 444 115.5 454.5Q142 465 172 465Q217 465 253 444Q289 423 318 389Q343 415 378 437.5Q413 460 459 460Q521 460 560.5 426.5Q600 393 600 330Q600 298 589 271Q578 244 558.5 224.5Q539 205 512 194Q485 183 453 183Z" glyph-name="infinity" horiz-adv-x="628" unicode="&#8734;" /><glyph d="M69 -170Q55 -170 36 -168Q17 -166 0 -161L9 -61Q15 -63 24.5 -63.5Q34 -64 41 -64Q58 -64 64 -54Q70 -44 72 -26L118 601Q122 655 156 692Q190 729 248 729Q264 729 284.5 727Q305 725 322 720L313 621Q308 622 294.5 623Q281 624 273 624Q242 624 239 590L194 -38Q189 -100 157.5 -135Q126 -170 69 -170Z" glyph-name="integral" horiz-adv-x="336" unicode="&#8747;" /><glyph d="M42 734H173V598H42ZM42 535H173V0H160Q131 -13 115.5 -35Q100 -57 100 -80Q100 -103 112 -111.5Q124 -120 143 -120Q151 -120 163.5 -116.5Q176 -113 188 -106L219 -171Q179 -198 121 -198Q101 -198 82.5 -192.5Q64 -187 50 -175Q36 -163 27 -145Q18 -127 18 -101Q18 -69 32.5 -44Q47 -19 67 0H42Z" glyph-name="iogonek" horiz-adv-x="214" unicode="&#303;" /><glyph d="M-50 605Q-46 629 -38.5 650Q-31 671 -19 687Q-7 703 9 712.5Q25 722 45 722Q61 722 76.5 717.5Q92 713 107.5 707Q123 701 138 696.5Q153 692 168 692Q183 692 190.5 701Q198 710 205 730L266 714Q263 691 255.5 670Q248 649 236 633Q224 617 207.5 607Q191 597 170 597Q156 597 140 601.5Q124 606 108 611.5Q92 617 77.5 621.5Q63 626 51 626Q37 626 29.5 619Q22 612 16 589ZM42 535H172V0H42Z" glyph-name="itilde" horiz-adv-x="214" unicode="&#297;" /><glyph d="M47 734H178V598H47ZM51 -169Q34 -169 22.5 -167.5Q11 -166 -3 -163V-62H16Q36 -62 42 -52.5Q48 -43 48 -24V535H178V-41Q178 -103 143 -136Q108 -169 51 -169Z" glyph-name="j" horiz-adv-x="218" unicode="j" /><glyph d="M62 741H156L248 587H146L107 662L67 587H-30ZM51 -169Q34 -169 22.5 -167.5Q11 -166 -3 -163V-62H16Q36 -62 42 -52.5Q48 -43 48 -24V535H178V-41Q178 -103 143 -136Q108 -169 51 -169Z" glyph-name="jcircumflex" horiz-adv-x="218" unicode="&#309;" /><glyph d="M42 713H173V320L274 535H404L311 353L404 0H266L209 244L173 178V0H42Z" glyph-name="k" horiz-adv-x="416" unicode="k" /><glyph d="M42 713H173V320L274 535H404L311 353L404 0H266L209 244L173 178V0H42ZM166 -35H281L246 -188H156Z" glyph-name="kcommaaccent" horiz-adv-x="416" unicode="&#311;" /><glyph d="M42 535H173V320L274 535H404L311 353L404 0H266L209 244L173 178V0H42Z" glyph-name="kgreenlandic" horiz-adv-x="416" unicode="&#312;" /><glyph d="M152 -8Q92 -8 66 21.5Q40 51 40 98V713H171V139Q171 128 176.5 120Q182 112 198 112Q208 112 223 115V4Q191 -8 152 -8Z" glyph-name="l" horiz-adv-x="240" unicode="l" /><glyph d="M152 -8Q92 -8 66 21.5Q40 51 40 98V713H171V139Q171 128 176.5 120Q182 112 198 112Q208 112 223 115V4Q191 -8 152 -8ZM126 908H256L154 758H59Z" glyph-name="lacute" horiz-adv-x="240" unicode="&#314;" /><glyph d="M152 -8Q92 -8 66 21.5Q40 51 40 98V713H171V139Q171 128 176.5 120Q182 112 198 112Q208 112 223 115V4Q191 -8 152 -8ZM204 713H307L271 526H198Z" glyph-name="lcaron" horiz-adv-x="240" unicode="&#318;" /><glyph d="M152 -8Q92 -8 66 21.5Q40 51 40 98V713H171V139Q171 128 176.5 120Q182 112 198 112Q208 112 223 115V4Q191 -8 152 -8ZM67 -35H182L147 -188H57Z" glyph-name="lcommaaccent" horiz-adv-x="240" unicode="&#316;" /><glyph d="M204 458H314V319H204ZM152 -8Q92 -8 66 21.5Q40 51 40 98V713H171V139Q171 128 176.5 120Q182 112 198 112Q208 112 223 115V4Q191 -8 152 -8Z" glyph-name="ldot" horiz-adv-x="310" unicode="&#320;" /><glyph d="M42 285V354L348 501L387 420L169 319Q171 318 187 310.5Q203 303 227 292Q251 281 278 268.5Q305 256 329 245Q353 234 369 226.5Q385 219 387 218L348 138Z" glyph-name="less" horiz-adv-x="430" unicode="&lt;" /><glyph d="M41 125H394V35H41ZM46 318V386L354 526L393 446L167 352Q169 351 186 343.5Q203 336 227 326Q251 316 279 304Q307 292 331 282Q355 272 372 265Q389 258 391 257L351 177Z" glyph-name="lessequal" horiz-adv-x="436" unicode="&#8804;" /><glyph d="M349 273H34V362H441V156H349Z" glyph-name="logicalnot" horiz-adv-x="484" unicode="&#172;" /><glyph d="M302 341 212 558 130 350 218 140ZM29 336V353L180 713H251L402 353V336L251 -3H180Z" glyph-name="lozenge" horiz-adv-x="431" unicode="&#9674;" /><glyph d="M19 359 55 387V713H186V489L235 528V429L186 390V139Q186 128 191.5 120Q197 112 213 112Q223 112 238 115V4Q206 -8 167 -8Q107 -8 81 21.5Q55 51 55 98V287L19 259Z" glyph-name="lslash" horiz-adv-x="255" unicode="&#322;" /><glyph d="M42 535H171V486H172Q191 516 220 531.5Q249 547 284 547Q318 547 345.5 531.5Q373 516 384 484H386Q432 547 505 547Q527 547 546.5 539.5Q566 532 581 517.5Q596 503 604.5 482.5Q613 462 613 436V0H483V387Q483 407 474 422Q465 437 441 437Q420 437 407 419Q394 401 393 375V0H262V387Q262 407 253.5 422Q245 437 220 437Q199 437 186 418Q173 399 173 373V0H42Z" glyph-name="m" horiz-adv-x="652" unicode="m" /><glyph d="M53 690H288V598H53Z" glyph-name="macron" horiz-adv-x="341" unicode="&#175;" /><glyph d="M45 363H391V273H45Z" glyph-name="minus" horiz-adv-x="436" unicode="&#8722;" /><glyph d="M37 535H168V151Q168 129 178 114Q188 99 212 99Q231 99 246.5 115Q262 131 262 163V535H394V180Q394 154 402 142.5Q410 131 428 126L427 -3Q385 -1 354 14.5Q323 30 312 68Q302 36 280.5 12.5Q259 -11 220 -11Q206 -11 191 -7Q176 -3 163.5 4.5Q151 12 141 24Q131 36 127 52L122 50L163 -169L37 -179Z" glyph-name="mu" horiz-adv-x="446" unicode="&#181;" /><glyph d="M40 202 156 320Q147 328 131 344.5Q115 361 97 378.5Q79 396 63 412.5Q47 429 38 437L102 501L219 385Q226 392 242.5 408.5Q259 425 277 443Q295 461 311.5 477.5Q328 494 334 501L398 436L283 321Q291 312 307 295.5Q323 279 340.5 261Q358 243 374 227Q390 211 398 203L334 139L219 255L104 138Z" glyph-name="multiply" horiz-adv-x="436" unicode="&#215;" /><glyph d="M42 535H171V488H172Q211 547 284 547Q329 547 360.5 517.5Q392 488 392 436V0H262V387Q262 407 253.5 422Q245 437 220 437Q199 437 186 418Q173 399 173 373V0H42Z" glyph-name="n" horiz-adv-x="431" unicode="n" /><glyph d="M42 535H171V488H172Q211 547 284 547Q329 547 360.5 517.5Q392 488 392 436V0H262V387Q262 407 253.5 422Q245 437 220 437Q199 437 186 418Q173 399 173 373V0H42ZM237 737H367L265 587H170Z" glyph-name="nacute" horiz-adv-x="431" unicode="&#324;" /><glyph d="M42 535H171V488H172Q211 547 284 547Q329 547 360.5 517.5Q392 488 392 436V0H262V387Q262 407 253.5 422Q245 437 220 437Q199 437 186 418Q173 399 173 373V0H42ZM75 744H176L216 669L255 744H355L261 590H166Z" glyph-name="ncaron" horiz-adv-x="431" unicode="&#328;" /><glyph d="M42 535H171V488H172Q211 547 284 547Q329 547 360.5 517.5Q392 488 392 436V0H262V387Q262 407 253.5 422Q245 437 220 437Q199 437 186 418Q173 399 173 373V0H42ZM163 -35H278L243 -188H153Z" glyph-name="ncommaaccent" horiz-adv-x="431" unicode="&#326;" /><glyph d="M209 367Q228 367 243 381.5Q258 396 258 420V566Q258 586 246 600.5Q234 615 211 615Q185 615 174.5 599Q164 583 164 565V412Q164 389 178 378Q192 367 209 367ZM214 -11Q135 -11 88 31Q41 73 41 144V199H167V152Q167 130 178 117Q189 104 210 104Q234 104 246 118Q258 132 258 155V319Q220 274 161 274Q99 274 66.5 308Q34 342 34 399V564Q34 637 83 680.5Q132 724 214 724Q297 724 345.5 678.5Q394 633 394 558V171Q394 130 381 96.5Q368 63 344 39Q320 15 287 2Q254 -11 214 -11Z" glyph-name="nine" horiz-adv-x="430" unicode="9" /><glyph d="M213 367Q232 367 247 381.5Q262 396 262 420V566Q262 586 250 600.5Q238 615 215 615Q189 615 178.5 599Q168 583 168 565V412Q168 389 182 378Q196 367 213 367ZM218 -11Q139 -11 92 31Q45 73 45 144V199H171V152Q171 130 182 117Q193 104 214 104Q238 104 250 118Q262 132 262 155V319Q224 274 165 274Q103 274 70.5 308Q38 342 38 399V564Q38 637 87 680.5Q136 724 218 724Q301 724 349.5 678.5Q398 633 398 558V171Q398 130 385 96.5Q372 63 348 39Q324 15 291 2Q258 -11 218 -11Z" glyph-name="nine.LT" horiz-adv-x="436" unicode="&#58697;" /><glyph d="M141 206Q151 206 159 213.5Q167 221 168 235V304Q168 314 161 321.5Q154 329 141 329Q127 329 121.5 321Q116 313 116 303V231Q116 218 123 212Q130 206 141 206ZM140 -11Q89 -11 58 15Q27 41 27 86V113H115V91Q115 77 122.5 71Q130 65 142 65Q168 65 168 91V169Q142 145 104 145Q64 145 43 167.5Q22 190 22 225V302Q22 326 31.5 344.5Q41 363 57.5 375.5Q74 388 96 395Q118 402 143 402Q168 402 189.5 395.5Q211 389 227.5 376Q244 363 253.5 344Q263 325 263 301V96Q263 69 253 49Q243 29 226 15.5Q209 2 187 -4.5Q165 -11 140 -11Z" glyph-name="nine.dnom" horiz-adv-x="285" unicode="&#58379;" /><glyph d="M141 524Q151 524 159 531.5Q167 539 168 553V622Q168 632 161 639.5Q154 647 141 647Q127 647 121.5 639Q116 631 116 621V549Q116 536 123 530Q130 524 141 524ZM140 307Q89 307 58 333Q27 359 27 404V431H115V409Q115 395 122.5 389Q130 383 142 383Q168 383 168 409V487Q142 463 104 463Q64 463 43 485.5Q22 508 22 543V620Q22 644 31.5 662.5Q41 681 57.5 693.5Q74 706 96 713Q118 720 143 720Q168 720 189.5 713.5Q211 707 227.5 694Q244 681 253.5 662Q263 643 263 619V414Q263 387 253 367Q243 347 226 333.5Q209 320 187 313.5Q165 307 140 307Z" glyph-name="nine.numr" horiz-adv-x="285" unicode="&#58399;" /><glyph glyph-name="nonmarkingreturn" horiz-adv-x="175" /><glyph d="M114 112 139 184H41V275H173L201 351H41V441H233L265 524L333 502L311 441H395V351H278L250 275H395V184H217L182 90Z" glyph-name="notequal" horiz-adv-x="436" unicode="&#8800;" /><glyph d="M74 605Q78 629 85.5 650Q93 671 105 687Q117 703 133 712.5Q149 722 169 722Q185 722 200.5 717.5Q216 713 231.5 707Q247 701 262 696.5Q277 692 292 692Q307 692 314.5 701Q322 710 329 730L390 714Q387 691 379.5 670Q372 649 360 633Q348 617 331.5 607Q315 597 294 597Q280 597 264 601.5Q248 606 232 611.5Q216 617 201.5 621.5Q187 626 175 626Q161 626 153.5 619Q146 612 140 589ZM42 535H171V488H172Q211 547 284 547Q329 547 360.5 517.5Q392 488 392 436V0H262V387Q262 407 253.5 422Q245 437 220 437Q199 437 186 418Q173 399 173 373V0H42Z" glyph-name="ntilde" horiz-adv-x="431" unicode="&#241;" /><glyph d="M247 265 267 464H191L172 265ZM91 184H20L28 265H98L120 464H47L54 544H125L143 716H216L199 544H274L291 716H363L347 544H417L410 464H339L320 265H391L385 184H312L294 -2H221L238 184H165L147 -2H75Z" glyph-name="numbersign" horiz-adv-x="433" unicode="#" /><glyph d="M240 265 260 464H184L165 265ZM84 184H19L27 265H91L112 464H46L53 544H118L136 716H209L192 544H267L284 716H356L340 544H404L397 464H332L313 265H378L371 184H305L287 -2H214L231 184H157L140 -2H67Z" glyph-name="numbersign.LP" horiz-adv-x="421" unicode="&#58675;" /><glyph d="M211 94Q237 94 246 109Q255 124 255 144V390Q255 411 243.5 425.5Q232 440 210 440Q187 440 177 425Q167 410 167 389V143Q167 123 177.5 108.5Q188 94 211 94ZM211 -11Q174 -11 142 -1.5Q110 8 86 28Q62 48 48.5 78.5Q35 109 35 151V383Q35 423 49.5 454Q64 485 88 505.5Q112 526 144 536.5Q176 547 211 547Q246 547 277.5 537.5Q309 528 333 508Q357 488 371.5 458Q386 428 386 387V152Q386 110 372 79.5Q358 49 334 29Q310 9 278.5 -1Q247 -11 211 -11Z" glyph-name="o" horiz-adv-x="421" unicode="o" /><glyph d="M211 94Q237 94 246 109Q255 124 255 144V390Q255 411 243.5 425.5Q232 440 210 440Q187 440 177 425Q167 410 167 389V143Q167 123 177.5 108.5Q188 94 211 94ZM211 -11Q174 -11 142 -1.5Q110 8 86 28Q62 48 48.5 78.5Q35 109 35 151V383Q35 423 49.5 454Q64 485 88 505.5Q112 526 144 536.5Q176 547 211 547Q246 547 277.5 537.5Q309 528 333 508Q357 488 371.5 458Q386 428 386 387V152Q386 110 372 79.5Q358 49 334 29Q310 9 278.5 -1Q247 -11 211 -11ZM224 737H354L252 587H157Z" glyph-name="oacute" horiz-adv-x="421" unicode="&#243;" /><glyph d="M213 587Q147 587 109.5 624.5Q72 662 70 737H157Q161 702 172 683Q183 664 215 664Q241 664 252.5 683Q264 702 266 737H350Q350 698 339 669.5Q328 641 309 622.5Q290 604 265.5 595.5Q241 587 213 587ZM211 94Q237 94 246 109Q255 124 255 144V390Q255 411 243.5 425.5Q232 440 210 440Q187 440 177 425Q167 410 167 389V143Q167 123 177.5 108.5Q188 94 211 94ZM211 -11Q174 -11 142 -1.5Q110 8 86 28Q62 48 48.5 78.5Q35 109 35 151V383Q35 423 49.5 454Q64 485 88 505.5Q112 526 144 536.5Q176 547 211 547Q246 547 277.5 537.5Q309 528 333 508Q357 488 371.5 458Q386 428 386 387V152Q386 110 372 79.5Q358 49 334 29Q310 9 278.5 -1Q247 -11 211 -11Z" glyph-name="obreve" horiz-adv-x="421" unicode="&#335;" /><glyph d="M211 94Q237 94 246 109Q255 124 255 144V390Q255 411 243.5 425.5Q232 440 210 440Q187 440 177 425Q167 410 167 389V143Q167 123 177.5 108.5Q188 94 211 94ZM211 -11Q174 -11 142 -1.5Q110 8 86 28Q62 48 48.5 78.5Q35 109 35 151V383Q35 423 49.5 454Q64 485 88 505.5Q112 526 144 536.5Q176 547 211 547Q246 547 277.5 537.5Q309 528 333 508Q357 488 371.5 458Q386 428 386 387V152Q386 110 372 79.5Q358 49 334 29Q310 9 278.5 -1Q247 -11 211 -11ZM168 741H262L354 587H252L213 662L173 587H76Z" glyph-name="ocircumflex" horiz-adv-x="421" unicode="&#244;" /><glyph d="M211 94Q237 94 246 109Q255 124 255 144V390Q255 411 243.5 425.5Q232 440 210 440Q187 440 177 425Q167 410 167 389V143Q167 123 177.5 108.5Q188 94 211 94ZM211 -11Q174 -11 142 -1.5Q110 8 86 28Q62 48 48.5 78.5Q35 109 35 151V383Q35 423 49.5 454Q64 485 88 505.5Q112 526 144 536.5Q176 547 211 547Q246 547 277.5 537.5Q309 528 333 508Q357 488 371.5 458Q386 428 386 387V152Q386 110 372 79.5Q358 49 334 29Q310 9 278.5 -1Q247 -11 211 -11ZM237 732H339V590H237ZM82 732H184V590H82Z" glyph-name="odieresis" horiz-adv-x="421" unicode="&#246;" /><glyph d="M475 313V394Q475 415 464.5 429Q454 443 431 443Q408 443 398 428.5Q388 414 388 394V313ZM211 94Q237 94 246 109Q255 124 255 144V390Q255 411 243.5 425.5Q232 440 210 440Q187 440 177 425Q167 410 167 389V143Q167 123 177.5 108.5Q188 94 211 94ZM211 -11Q174 -11 142 -1.5Q110 8 86 28Q62 48 48.5 78.5Q35 109 35 151V383Q35 423 49.5 454Q64 485 88 505.5Q112 526 144 536.5Q176 547 211 547Q242 547 271 538.5Q300 530 323 513Q368 547 431 547Q508 547 549 503.5Q590 460 590 388V220H388V165Q388 130 407 112.5Q426 95 459 95Q487 95 514 102Q541 109 561 116L585 22Q549 5 515 -3Q481 -11 434 -11Q401 -11 372.5 -3.5Q344 4 321 21Q298 4 270 -3.5Q242 -11 211 -11Z" glyph-name="oe" horiz-adv-x="622" unicode="&#339;" /><glyph d="M151 -199Q129 -199 109 -193.5Q89 -188 74 -177Q59 -166 50 -148Q41 -130 41 -104Q41 -78 51 -56Q61 -34 76.5 -16Q92 2 112.5 15Q133 28 154 36L198 2Q158 -11 140 -33Q122 -55 122 -80Q122 -103 135 -113Q148 -123 167 -123Q181 -123 196 -117.5Q211 -112 222 -104L256 -165Q238 -179 213.5 -189Q189 -199 151 -199Z" glyph-name="ogonek" horiz-adv-x="281" unicode="&#731;" /><glyph d="M151 -199Q129 -199 109 -193Q89 -187 74 -175Q59 -163 50 -144.5Q41 -126 41 -101Q41 -75 51 -53Q61 -31 76.5 -14Q92 3 112.5 15.5Q133 28 154 36L181 14Q156 -2 139 -25Q122 -48 122 -80Q122 -103 135 -113Q148 -123 167 -123Q181 -123 196 -118Q211 -113 222 -105L256 -167Q237 -181 213 -190Q189 -199 151 -199Z" glyph-name="ogonekplus" horiz-adv-x="281" /><glyph d="M65 737H195L262 587H167ZM211 94Q237 94 246 109Q255 124 255 144V390Q255 411 243.5 425.5Q232 440 210 440Q187 440 177 425Q167 410 167 389V143Q167 123 177.5 108.5Q188 94 211 94ZM211 -11Q174 -11 142 -1.5Q110 8 86 28Q62 48 48.5 78.5Q35 109 35 151V383Q35 423 49.5 454Q64 485 88 505.5Q112 526 144 536.5Q176 547 211 547Q246 547 277.5 537.5Q309 528 333 508Q357 488 371.5 458Q386 428 386 387V152Q386 110 372 79.5Q358 49 334 29Q310 9 278.5 -1Q247 -11 211 -11Z" glyph-name="ograve" horiz-adv-x="421" unicode="&#242;" /><glyph d="M211 94Q237 94 246 109Q255 124 255 144V390Q255 411 243.5 425.5Q232 440 210 440Q187 440 177 425Q167 410 167 389V143Q167 123 177.5 108.5Q188 94 211 94ZM211 -11Q174 -11 142 -1.5Q110 8 86 28Q62 48 48.5 78.5Q35 109 35 151V383Q35 423 49.5 454Q64 485 88 505.5Q112 526 144 536.5Q176 547 211 547Q246 547 277.5 537.5Q309 528 333 508Q357 488 371.5 458Q386 428 386 387V152Q386 110 372 79.5Q358 49 334 29Q310 9 278.5 -1Q247 -11 211 -11ZM297 732H405L331 587H242ZM142 732H250L181 587H90Z" glyph-name="ohungarumlaut" horiz-adv-x="421" unicode="&#337;" /><glyph d="M211 94Q237 94 246 109Q255 124 255 144V390Q255 411 243.5 425.5Q232 440 210 440Q187 440 177 425Q167 410 167 389V143Q167 123 177.5 108.5Q188 94 211 94ZM211 -11Q174 -11 142 -1.5Q110 8 86 28Q62 48 48.5 78.5Q35 109 35 151V383Q35 423 49.5 454Q64 485 88 505.5Q112 526 144 536.5Q176 547 211 547Q246 547 277.5 537.5Q309 528 333 508Q357 488 371.5 458Q386 428 386 387V152Q386 110 372 79.5Q358 49 334 29Q310 9 278.5 -1Q247 -11 211 -11ZM92 690H327V598H92Z" glyph-name="omacron" horiz-adv-x="421" unicode="&#333;" /><glyph d="M93 577 41 566 23 667 149 715H225V0H93Z" glyph-name="one" horiz-adv-x="295" unicode="1" /><glyph d="M159 577 107 566 89 667 215 715H291V0H159Z" glyph-name="one.LT" horiz-adv-x="436" unicode="&#58689;" /><glyph d="M70 312 34 304 22 371 108 400H160V0H70Z" glyph-name="one.dnom" horiz-adv-x="216" unicode="&#58371;" /><glyph d="M70 630 34 622 22 689 108 718H160V318H70Z" glyph-name="one.numr" horiz-adv-x="216" unicode="&#58391;" /><glyph d="M421 716H485L177 -1H112ZM377 60 465 177Q484 206 497 233Q510 260 510 284V289Q510 303 504.5 313Q499 323 485 323Q471 323 465 312.5Q459 302 459 288V265H370V293Q370 344 401 372.5Q432 401 486 401Q544 401 574 371Q604 341 604 288Q604 264 597 242.5Q590 221 579.5 200.5Q569 180 555 161Q541 142 528 124L496 78H604V0H377ZM98 628 62 620 50 687 136 716H188V316H98Z" glyph-name="onehalf" horiz-adv-x="650" unicode="&#189;" /><glyph d="M430 716H494L186 -1H121ZM483 84H348V152L460 399H556L437 158H483V210L572 275V158H604V84H572V0H483ZM100 628 64 620 52 687 138 716H190V316H100Z" glyph-name="onequarter" horiz-adv-x="650" unicode="&#188;" /><glyph d="M70 692 34 684 22 751 108 780H160V380H70Z" glyph-name="onesuperior" horiz-adv-x="216" unicode="&#185;" /><glyph d="M43 358H240V289H43ZM132 451Q142 451 149.5 458.5Q157 466 157 479V538H143Q128 538 118.5 526.5Q109 515 109 493Q109 470 114.5 460.5Q120 451 132 451ZM99 389Q69 389 47 411Q25 433 25 484Q25 509 34.5 528.5Q44 548 60 560.5Q76 573 97 579.5Q118 586 141 586H157V628Q157 637 151.5 644Q146 651 132 651Q118 651 113.5 643.5Q109 636 109 628V603H32V629Q32 669 61 692Q90 715 138 715Q186 715 213.5 691.5Q241 668 241 626V466Q241 456 241.5 444.5Q242 433 242.5 422.5Q243 412 244 404.5Q245 397 245 395H166Q165 397 164.5 403.5Q164 410 162 425Q151 405 132 397Q113 389 99 389Z" glyph-name="ordfeminine" horiz-adv-x="278" unicode="&#170;" /><glyph d="M43 358H240V289H43ZM139 454Q153 454 159 462Q165 470 165 481V623Q165 635 158.5 642.5Q152 650 139 650Q126 650 120.5 642Q115 634 115 623V481Q115 469 120.5 461.5Q126 454 139 454ZM140 390Q92 390 60.5 412.5Q29 435 29 485V620Q29 668 62 692.5Q95 717 140 717Q161 717 181 711.5Q201 706 216.5 694Q232 682 241 664Q250 646 250 622V485Q250 436 217.5 413Q185 390 140 390Z" glyph-name="ordmasculine" horiz-adv-x="281" unicode="&#186;" /><glyph d="M211 94Q237 94 246 109Q255 124 255 144V315L179 107Q190 94 211 94ZM167 219 243 426Q229 440 210 440Q187 440 177 425Q167 410 167 389ZM73 -37 94 21Q66 41 50.5 73Q35 105 35 151V383Q35 423 49.5 454Q64 485 88 505.5Q112 526 144 536.5Q176 547 211 547Q248 547 283 536L303 590L350 575L327 512Q353 492 369.5 461.5Q386 431 386 387V152Q386 110 372 79.5Q358 49 334 29Q310 9 278.5 -1Q247 -11 211 -11Q174 -11 139 0L120 -54Z" glyph-name="oslash" horiz-adv-x="421" unicode="&#248;" /><glyph d="M211 94Q237 94 246 109Q255 124 255 144V315L179 107Q190 94 211 94ZM167 219 243 426Q229 440 210 440Q187 440 177 425Q167 410 167 389ZM73 -37 94 21Q66 41 50.5 73Q35 105 35 151V383Q35 423 49.5 454Q64 485 88 505.5Q112 526 144 536.5Q176 547 211 547Q248 547 283 536L303 590L350 575L327 512Q353 492 369.5 461.5Q386 431 386 387V152Q386 110 372 79.5Q358 49 334 29Q310 9 278.5 -1Q247 -11 211 -11Q174 -11 139 0L120 -54Z" glyph-name="oslashacute" horiz-adv-x="421" unicode="&#511;" /><glyph d="M53 605Q57 629 64.5 650Q72 671 84 687Q96 703 112 712.5Q128 722 148 722Q164 722 179.5 717.5Q195 713 210.5 707Q226 701 241 696.5Q256 692 271 692Q286 692 293.5 701Q301 710 308 730L369 714Q366 691 358.5 670Q351 649 339 633Q327 617 310.5 607Q294 597 273 597Q259 597 243 601.5Q227 606 211 611.5Q195 617 180.5 621.5Q166 626 154 626Q140 626 132.5 619Q125 612 119 589ZM211 94Q237 94 246 109Q255 124 255 144V390Q255 411 243.5 425.5Q232 440 210 440Q187 440 177 425Q167 410 167 389V143Q167 123 177.5 108.5Q188 94 211 94ZM211 -11Q174 -11 142 -1.5Q110 8 86 28Q62 48 48.5 78.5Q35 109 35 151V383Q35 423 49.5 454Q64 485 88 505.5Q112 526 144 536.5Q176 547 211 547Q246 547 277.5 537.5Q309 528 333 508Q357 488 371.5 458Q386 428 386 387V152Q386 110 372 79.5Q358 49 334 29Q310 9 278.5 -1Q247 -11 211 -11Z" glyph-name="otilde" horiz-adv-x="421" unicode="&#245;" /><glyph d="M221 93Q239 93 251 105Q263 117 263 141V394Q263 416 252 428.5Q241 441 221 441Q201 441 187 426.5Q173 412 173 381V147Q173 121 187.5 107Q202 93 221 93ZM42 535H171V486H173Q190 514 219 530Q248 546 276 546Q307 546 329.5 536Q352 526 366 508Q380 490 386.5 466Q393 442 393 414V118Q393 92 384.5 68.5Q376 45 360 27.5Q344 10 319.5 -0.5Q295 -11 264 -11Q240 -11 215.5 0.5Q191 12 175 34H173V-161H42Z" glyph-name="p" horiz-adv-x="428" unicode="p" /><glyph d="M161 224Q124 232 99 254Q74 276 59 307.5Q44 339 37.5 378Q31 417 31 460Q31 514 42 560Q53 606 75.5 640.5Q98 675 133.5 694.5Q169 714 217 714H414V642H372V-66H292V642H241V-66H161Z" glyph-name="paragraph" horiz-adv-x="441" unicode="&#182;" /><glyph d="M157 -172Q131 -130 110 -75.5Q89 -21 74.5 38.5Q60 98 52 159.5Q44 221 44 279Q44 339 51.5 399.5Q59 460 73.5 517.5Q88 575 109 627.5Q130 680 157 723L232 717Q214 660 200 611Q186 562 177 512Q168 462 163 406Q158 350 158 278Q158 158 178.5 49Q199 -60 232 -166Z" glyph-name="parenleft" horiz-adv-x="242" unicode="(" /><glyph d="M115 -71Q98 -48 84 -18Q70 12 60 45Q50 78 44.5 113Q39 148 39 183Q39 251 59.5 316.5Q80 382 115 430L160 429Q148 395 139 366.5Q130 338 124 309.5Q118 281 115.5 250.5Q113 220 113 183Q113 118 125 54.5Q137 -9 160 -69Z" glyph-name="parenleft.dnom" horiz-adv-x="172" unicode="&#58383;" /><glyph d="M115 247Q98 270 84 300Q70 330 60 363Q50 396 44.5 431Q39 466 39 501Q39 569 59.5 634.5Q80 700 115 748L160 747Q148 713 139 684.5Q130 656 124 627.5Q118 599 115.5 568.5Q113 538 113 501Q113 436 125 372.5Q137 309 160 249Z" glyph-name="parenleft.numr" horiz-adv-x="172" unicode="&#58403;" /><glyph d="M10 -166Q43 -60 63.5 49Q84 158 84 278Q84 350 79 406Q74 462 64.5 512Q55 562 41.5 611Q28 660 10 717L85 723Q112 680 133 627.5Q154 575 168.5 517.5Q183 460 190.5 399.5Q198 339 198 279Q198 221 190 159.5Q182 98 167.5 38.5Q153 -21 132 -75.5Q111 -130 85 -172Z" glyph-name="parenright" horiz-adv-x="242" unicode=")" /><glyph d="M25 -69Q48 -9 60 54.5Q72 118 72 183Q72 220 69.5 250.5Q67 281 61 309.5Q55 338 46 366.5Q37 395 25 429L71 430Q106 382 126 316.5Q146 251 146 183Q146 148 140.5 113Q135 78 125 45Q115 12 101 -18Q87 -48 71 -71Z" glyph-name="parenright.dnom" horiz-adv-x="172" unicode="&#58384;" /><glyph d="M25 249Q48 309 60 372.5Q72 436 72 501Q72 538 69.5 568.5Q67 599 61 627.5Q55 656 46 684.5Q37 713 25 747L71 748Q106 700 126 634.5Q146 569 146 501Q146 466 140.5 431Q135 396 125 363Q115 330 101 300Q87 270 71 247Z" glyph-name="parenright.numr" horiz-adv-x="172" unicode="&#58404;" /><glyph d="M210 94Q236 94 245 108.5Q254 123 254 143V378Q254 400 243 414Q232 428 210 428Q188 428 177 413Q166 398 166 378V142Q166 122 176.5 108Q187 94 210 94ZM210 -11Q173 -11 141 -1.5Q109 8 85 28Q61 48 47.5 78Q34 108 34 150V372Q34 435 67 473.5Q100 512 151 526Q161 529 176 529L66 711L209 720L357 470Q370 450 377.5 422Q385 394 385 366V151Q385 109 371 78.5Q357 48 333.5 28Q310 8 278 -1.5Q246 -11 210 -11Z" glyph-name="partialdiff" horiz-adv-x="417" unicode="&#8706;" /><glyph d="M475 62Q493 62 499.5 72.5Q506 83 506 95V262Q506 273 499 283.5Q492 294 475 294Q458 294 451 283.5Q444 273 444 262V95Q444 81 451 71.5Q458 62 475 62ZM476 -12Q427 -12 392 16Q357 44 357 97V250Q357 304 390.5 335.5Q424 367 475 367Q525 367 559.5 338Q594 309 594 255V98Q594 74 584.5 53.5Q575 33 558.5 18.5Q542 4 520.5 -4Q499 -12 476 -12ZM424 716H491L207 -1H138ZM150 421Q167 421 174 431.5Q181 442 181 454V620Q181 632 173.5 642Q166 652 149 652Q132 652 125 642Q118 632 118 620V453Q118 440 125 430.5Q132 421 150 421ZM150 347Q126 347 104.5 354Q83 361 66.5 375Q50 389 40.5 409.5Q31 430 31 456V613Q31 667 65 696Q99 725 149 725Q200 725 234 696Q268 667 268 613V455Q268 430 258.5 410Q249 390 232.5 376Q216 362 195 354.5Q174 347 150 347Z" glyph-name="percent" horiz-adv-x="625" unicode="%" /><glyph d="M36 155H160V0H36Z" glyph-name="period" horiz-adv-x="196" unicode="." /><glyph d="M39 104H130V0H39Z" glyph-name="period.dnom" horiz-adv-x="169" unicode="&#58382;" /><glyph d="M39 422H130V318H39Z" glyph-name="period.numr" horiz-adv-x="169" unicode="&#58402;" /><glyph d="M39 -29H130V-133H39Z" glyph-name="period.sub" horiz-adv-x="169" /><glyph d="M39 484H130V380H39Z" glyph-name="period.sup" horiz-adv-x="169" /><glyph d="M36 435H160V281H36Z" glyph-name="periodcentered" horiz-adv-x="196" unicode="&#8901;" /><glyph d="M475 62Q493 62 499.5 72.5Q506 83 506 95V262Q506 273 499 283.5Q492 294 475 294Q458 294 451 283.5Q444 273 444 262V95Q444 81 451 71.5Q458 62 475 62ZM476 -12Q427 -12 392 16Q357 44 357 97V250Q357 304 390.5 335.5Q424 367 475 367Q525 367 559.5 338Q594 309 594 255V98Q594 74 584.5 53.5Q575 33 558.5 18.5Q542 4 520.5 -4Q499 -12 476 -12ZM424 716H491L207 -1H138ZM150 421Q167 421 174 431.5Q181 442 181 454V620Q181 632 173.5 642Q166 652 149 652Q132 652 125 642Q118 632 118 620V453Q118 440 125 430.5Q132 421 150 421ZM150 347Q126 347 104.5 354Q83 361 66.5 375Q50 389 40.5 409.5Q31 430 31 456V613Q31 667 65 696Q99 725 149 725Q200 725 234 696Q268 667 268 613V455Q268 430 258.5 410Q249 390 232.5 376Q216 362 195 354.5Q174 347 150 347ZM749 62Q767 62 773.5 72.5Q780 83 780 95V262Q780 273 773 283.5Q766 294 749 294Q732 294 725 283.5Q718 273 718 262V95Q718 81 725 71.5Q732 62 749 62ZM750 -12Q701 -12 666 16Q631 44 631 97V250Q631 304 664.5 335.5Q698 367 749 367Q799 367 833.5 338Q868 309 868 255V98Q868 74 858.5 53.5Q849 33 832.5 18.5Q816 4 794.5 -4Q773 -12 750 -12Z" glyph-name="perthousand" horiz-adv-x="899" unicode="&#8240;" /><glyph d="M402 -4Q376 -4 349 0.5Q322 5 299 20Q276 35 261.5 64.5Q247 94 247 145V418H178Q177 363 175.5 312Q174 261 172 210Q170 159 167 107Q164 55 160 0H37Q42 55 46 106.5Q50 158 53 209Q56 260 58 311Q60 362 62 418H15L26 535H409V418L368 419V158Q368 141 374.5 128Q381 115 402 115Z" glyph-name="pi" horiz-adv-x="434" unicode="&#960;" /><glyph d="M174 273H38V363H174V506H263V363H398V273H263V131H174Z" glyph-name="plus" horiz-adv-x="436" unicode="+" /><glyph d="M41 125H394V35H41ZM174 307H38V397H174V524H264V397H398V307H264V184H174Z" glyph-name="plusminus" horiz-adv-x="436" unicode="&#177;" /><glyph d="M87 587H26V713H509V587H450V-133H320V587H218V-133H87Z" glyph-name="product" horiz-adv-x="535" unicode="&#8719;" /><glyph d="M209 96Q228 96 242 112Q256 128 256 155V389Q256 416 241 431Q226 446 208 446Q189 446 177.5 432.5Q166 419 166 394V146Q166 123 177.5 109.5Q189 96 209 96ZM256 42H254Q233 14 208 1.5Q183 -11 157 -11Q124 -11 101 -0.5Q78 10 63.5 27.5Q49 45 42 68Q35 91 35 117V413Q35 470 71 508Q107 546 171 546Q197 546 223 534Q249 522 266 496H267L268 537H387V-161H256Z" glyph-name="q" horiz-adv-x="428" unicode="q" /><glyph d="M120 155H244V0H120ZM122 233Q122 284 135.5 323.5Q149 363 169 393Q179 409 190 426Q201 443 209.5 461.5Q218 480 223.5 501Q229 522 229 548Q229 573 219 591Q209 609 185 609Q163 609 152.5 594Q142 579 142 553V500H29V553Q29 631 73.5 677Q118 723 194 723Q272 723 316 676.5Q360 630 361 545Q361 514 354.5 488Q348 462 338.5 439.5Q329 417 317 398Q305 379 293 362Q276 336 258 304Q240 272 240 238V209H122Z" glyph-name="question" horiz-adv-x="386" unicode="?" /><glyph d="M271 408H147V563H271ZM269 330Q269 279 255.5 239.5Q242 200 222 170Q211 153 200.5 136.5Q190 120 181.5 101.5Q173 83 167.5 62Q162 41 162 15Q162 -10 172 -28Q182 -46 206 -46Q228 -46 238.5 -31Q249 -16 249 10V63H362V10Q362 -68 317.5 -114Q273 -160 197 -160Q119 -160 75 -113.5Q31 -67 30 18Q30 49 36.5 75Q43 101 52.5 123.5Q62 146 74 165Q86 184 98 201Q107 214 116 228.5Q125 243 133 259Q141 275 146 291.5Q151 308 151 325V354H269Z" glyph-name="questiondown" horiz-adv-x="388" unicode="&#191;" /><glyph d="M208 588V714H324V588L307 440H225ZM40 588V714H156V588L138 440H58Z" glyph-name="quotedbl" horiz-adv-x="363" unicode="&quot;" /><glyph d="M253 8H210V155H334V16L286 -120H224ZM78 8H36V155H160V16L113 -120H51Z" glyph-name="quotedblbase" horiz-adv-x="370" unicode="&#8222;" /><glyph d="M210 579 257 714H319L291 586H334V440H210ZM36 579 83 714H146L117 586H159V440H36Z" glyph-name="quotedblleft" horiz-adv-x="370" unicode="&#8220;" /><glyph d="M253 567H210V713H334V574L286 439H224ZM78 567H36V713H160V574L113 439H51Z" glyph-name="quotedblright" horiz-adv-x="370" unicode="&#8221;" /><glyph d="M36 579 83 714H146L117 586H159V440H36Z" glyph-name="quoteleft" horiz-adv-x="195" unicode="&#8216;" /><glyph d="M78 567H36V713H160V574L113 439H51Z" glyph-name="quoteright" horiz-adv-x="196" unicode="&#8217;" /><glyph d="M77 8 36 17 39 155 160 146 158 6 111 -120 52 -111Z" glyph-name="quotesinglbase" horiz-adv-x="195" unicode="&#8218;" /><glyph d="M40 588V714H156V588L138 440H58Z" glyph-name="quotesingle" horiz-adv-x="198" unicode="&apos;" /><glyph d="M42 535H171V474H172Q186 504 208.5 522.5Q231 541 263 541Q271 541 282 540Q293 539 301 537V414Q288 416 273 417.5Q258 419 250 419Q236 419 222 415.5Q208 412 197 404.5Q186 397 179.5 385Q173 373 173 355V0H42Z" glyph-name="r" horiz-adv-x="317" unicode="r" /><glyph d="M42 535H171V474H172Q186 504 208.5 522.5Q231 541 263 541Q271 541 282 540Q293 539 301 537V414Q288 416 273 417.5Q258 419 250 419Q236 419 222 415.5Q208 412 197 404.5Q186 397 179.5 385Q173 373 173 355V0H42ZM146 737H276L174 587H79Z" glyph-name="racute" horiz-adv-x="317" unicode="&#341;" /><glyph d="M13 535H150L204 215H206L310 714H437L263 -3H136Z" glyph-name="radical" horiz-adv-x="446" unicode="&#8730;" /><glyph d="M42 535H171V474H172Q186 504 208.5 522.5Q231 541 263 541Q271 541 282 540Q293 539 301 537V414Q288 416 273 417.5Q258 419 250 419Q236 419 222 415.5Q208 412 197 404.5Q186 397 179.5 385Q173 373 173 355V0H42ZM22 744H123L163 669L202 744H302L208 590H113Z" glyph-name="rcaron" horiz-adv-x="317" unicode="&#345;" /><glyph d="M42 535H171V474H172Q186 504 208.5 522.5Q231 541 263 541Q271 541 282 540Q293 539 301 537V414Q288 416 273 417.5Q258 419 250 419Q236 419 222 415.5Q208 412 197 404.5Q186 397 179.5 385Q173 373 173 355V0H42ZM56 -35H171L136 -188H46Z" glyph-name="rcommaaccent" horiz-adv-x="317" unicode="&#343;" /><glyph d="M218 538Q232 538 239.5 547.5Q247 557 247 573Q247 588 239.5 598Q232 608 218 608H196V538ZM140 653H228Q263 653 283 632.5Q303 612 303 577Q303 554 293 534.5Q283 515 264 506L309 405H249L212 496H196V405H140ZM216 349Q244 349 269 361Q294 373 313.5 395.5Q333 418 344.5 450.5Q356 483 356 524Q356 565 345 597.5Q334 630 314.5 653Q295 676 269.5 688.5Q244 701 216 701Q188 701 163 689Q138 677 119 654Q100 631 89 598Q78 565 78 524Q78 483 89.5 450.5Q101 418 120 395.5Q139 373 164 361Q189 349 216 349ZM216 306Q172 306 137 323.5Q102 341 78 371Q54 401 41 440.5Q28 480 28 524Q28 569 42 608.5Q56 648 80.5 678Q105 708 139.5 725Q174 742 216 742Q259 742 294 725Q329 708 353.5 678.5Q378 649 391.5 609Q405 569 405 524Q405 480 391.5 440.5Q378 401 353.5 371Q329 341 294 323.5Q259 306 216 306Z" glyph-name="registered" horiz-adv-x="431" unicode="&#174;" /><glyph d="M126 627Q146 627 157.5 640Q169 653 169 673Q169 693 158 706.5Q147 720 126 720Q107 720 96 706.5Q85 693 85 673Q85 653 96.5 640Q108 627 126 627ZM126 578Q84 578 57 604Q30 630 30 671Q30 713 57.5 740Q85 767 126 767Q169 767 195.5 742Q222 717 222 675Q222 633 194 605.5Q166 578 126 578Z" glyph-name="ring" horiz-adv-x="251" unicode="&#730;" /><glyph d="M126 624Q145 624 155.5 636.5Q166 649 166 669Q166 690 156 702.5Q146 715 127 715Q108 715 98 702Q88 689 88 669Q88 624 126 624ZM126 580Q80 580 56.5 606Q33 632 33 666Q33 682 38.5 697.5Q44 713 55 726L126 822L217 802L156 750Q186 742 203 720.5Q220 699 220 670Q220 631 193 605.5Q166 580 126 580Z" glyph-name="ringacute" horiz-adv-x="251" /><glyph d="M186 -10Q156 -10 128.5 -2Q101 6 78.5 24.5Q56 43 41.5 73Q27 103 24 146L145 149Q147 121 157 104.5Q167 88 189 88Q223 88 223 128Q223 148 207.5 167.5Q192 187 162 211L121 246Q83 277 59.5 312.5Q36 348 36 397Q36 424 44.5 450.5Q53 477 71.5 498.5Q90 520 120 533.5Q150 547 193 547Q224 547 251 538.5Q278 530 298 511Q318 492 330.5 462.5Q343 433 345 390L234 387Q231 419 221.5 435Q212 451 191 451Q171 451 162.5 439.5Q154 428 154 413Q154 396 168.5 380Q183 364 206 344L256 300Q300 262 323.5 224.5Q347 187 347 139Q347 110 338 83.5Q329 57 309.5 36Q290 15 259.5 2.5Q229 -10 186 -10Z" glyph-name="s" horiz-adv-x="370" unicode="s" /><glyph d="M186 -10Q156 -10 128.5 -2Q101 6 78.5 24.5Q56 43 41.5 73Q27 103 24 146L145 149Q147 121 157 104.5Q167 88 189 88Q223 88 223 128Q223 148 207.5 167.5Q192 187 162 211L121 246Q83 277 59.5 312.5Q36 348 36 397Q36 424 44.5 450.5Q53 477 71.5 498.5Q90 520 120 533.5Q150 547 193 547Q224 547 251 538.5Q278 530 298 511Q318 492 330.5 462.5Q343 433 345 390L234 387Q231 419 221.5 435Q212 451 191 451Q171 451 162.5 439.5Q154 428 154 413Q154 396 168.5 380Q183 364 206 344L256 300Q300 262 323.5 224.5Q347 187 347 139Q347 110 338 83.5Q329 57 309.5 36Q290 15 259.5 2.5Q229 -10 186 -10ZM205 737H335L233 587H138Z" glyph-name="sacute" horiz-adv-x="370" unicode="&#347;" /><glyph d="M186 -10Q156 -10 128.5 -2Q101 6 78.5 24.5Q56 43 41.5 73Q27 103 24 146L145 149Q147 121 157 104.5Q167 88 189 88Q223 88 223 128Q223 148 207.5 167.5Q192 187 162 211L121 246Q83 277 59.5 312.5Q36 348 36 397Q36 424 44.5 450.5Q53 477 71.5 498.5Q90 520 120 533.5Q150 547 193 547Q224 547 251 538.5Q278 530 298 511Q318 492 330.5 462.5Q343 433 345 390L234 387Q231 419 221.5 435Q212 451 191 451Q171 451 162.5 439.5Q154 428 154 413Q154 396 168.5 380Q183 364 206 344L256 300Q300 262 323.5 224.5Q347 187 347 139Q347 110 338 83.5Q329 57 309.5 36Q290 15 259.5 2.5Q229 -10 186 -10ZM56 744H157L197 669L236 744H336L242 590H147Z" glyph-name="scaron" horiz-adv-x="371" unicode="&#353;" /><glyph d="M199 -194Q182 -194 159.5 -192Q137 -190 114 -184V-125Q135 -130 157 -133.5Q179 -137 193 -137Q211 -137 218.5 -131.5Q226 -126 226 -116Q226 -104 215 -100Q204 -96 191 -95L153 -92L171 -9Q144 -7 118.5 2Q93 11 73 29.5Q53 48 40 76.5Q27 105 24 146L145 149Q147 121 157 104.5Q167 88 189 88Q223 88 223 128Q223 148 207.5 167.5Q192 187 162 211L121 246Q83 277 59.5 312.5Q36 348 36 397Q36 424 44.5 450.5Q53 477 71.5 498.5Q90 520 120 533.5Q150 547 193 547Q224 547 251 538.5Q278 530 298 511Q318 492 330.5 462.5Q343 433 345 390L234 387Q231 419 221.5 435Q212 451 191 451Q171 451 162.5 439.5Q154 428 154 413Q154 396 168.5 380Q183 364 206 344L256 300Q300 262 323.5 224.5Q347 187 347 139Q347 114 340 90Q333 66 318 46.5Q303 27 280 13Q257 -1 225 -7L215 -49Q230 -49 247.5 -51.5Q265 -54 280 -60.5Q295 -67 304.5 -79.5Q314 -92 314 -112Q314 -132 304.5 -147Q295 -162 279.5 -172.5Q264 -183 243 -188.5Q222 -194 199 -194Z" glyph-name="scedilla" horiz-adv-x="370" unicode="&#351;" /><glyph d="M186 -10Q156 -10 128.5 -2Q101 6 78.5 24.5Q56 43 41.5 73Q27 103 24 146L145 149Q147 121 157 104.5Q167 88 189 88Q223 88 223 128Q223 148 207.5 167.5Q192 187 162 211L121 246Q83 277 59.5 312.5Q36 348 36 397Q36 424 44.5 450.5Q53 477 71.5 498.5Q90 520 120 533.5Q150 547 193 547Q224 547 251 538.5Q278 530 298 511Q318 492 330.5 462.5Q343 433 345 390L234 387Q231 419 221.5 435Q212 451 191 451Q171 451 162.5 439.5Q154 428 154 413Q154 396 168.5 380Q183 364 206 344L256 300Q300 262 323.5 224.5Q347 187 347 139Q347 110 338 83.5Q329 57 309.5 36Q290 15 259.5 2.5Q229 -10 186 -10ZM141 741H235L327 587H225L186 662L146 587H49Z" glyph-name="scircumflex" horiz-adv-x="370" unicode="&#349;" /><glyph d="M186 -10Q156 -10 128.5 -2Q101 6 78.5 24.5Q56 43 41.5 73Q27 103 24 146L145 149Q147 121 157 104.5Q167 88 189 88Q223 88 223 128Q223 148 207.5 167.5Q192 187 162 211L121 246Q83 277 59.5 312.5Q36 348 36 397Q36 424 44.5 450.5Q53 477 71.5 498.5Q90 520 120 533.5Q150 547 193 547Q224 547 251 538.5Q278 530 298 511Q318 492 330.5 462.5Q343 433 345 390L234 387Q231 419 221.5 435Q212 451 191 451Q171 451 162.5 439.5Q154 428 154 413Q154 396 168.5 380Q183 364 206 344L256 300Q300 262 323.5 224.5Q347 187 347 139Q347 110 338 83.5Q329 57 309.5 36Q290 15 259.5 2.5Q229 -10 186 -10ZM145 -35H260L225 -188H135Z" glyph-name="scommaaccent" horiz-adv-x="370" unicode="&#537;" /><glyph d="M230 283Q263 300 263 333Q263 365 221 384L201 392Q193 395 185.5 397.5Q178 400 175 401Q164 393 154.5 381Q145 369 145 347Q145 327 162 314.5Q179 302 191 298ZM198 -44Q171 -44 142.5 -38Q114 -32 91 -15.5Q68 1 53 29.5Q38 58 38 102V139H145V114Q145 84 158.5 63.5Q172 43 206 43Q221 43 231 49Q241 55 247 64.5Q253 74 255 85.5Q257 97 257 107Q257 137 239.5 154Q222 171 203 179Q192 184 181 188Q172 192 163.5 195Q155 198 151 200Q130 208 110 219.5Q90 231 74 248.5Q58 266 48 289Q38 312 38 342Q38 376 54.5 403Q71 430 94 453Q67 475 53.5 501Q40 527 40 571Q40 637 82 679Q124 721 204 721Q238 721 266.5 712.5Q295 704 316 686Q337 668 349 641Q361 614 361 577V541H259V571Q259 596 246 614.5Q233 633 205 633Q177 633 164 615.5Q151 598 151 575Q151 549 167.5 532Q184 515 203 507L260 484Q279 476 298.5 465Q318 454 334.5 438Q351 422 361.5 400Q372 378 372 349Q372 311 356.5 283Q341 255 317 232Q340 213 357.5 186.5Q375 160 374 116Q374 80 361.5 50.5Q349 21 325.5 0Q302 -21 269.5 -32.5Q237 -44 198 -44Z" glyph-name="section" horiz-adv-x="406" unicode="&#167;" /><glyph d="M36 535H160V380H36ZM83 8H36V155H160V16L116 -126H50Z" glyph-name="semicolon" horiz-adv-x="196" unicode=";" /><glyph d="M91 0Q91 86 103.5 170.5Q116 255 136 332Q156 409 181.5 476.5Q207 544 234 595H28V713H373V612Q302 481 264 325Q226 169 226 0Z" glyph-name="seven" horiz-adv-x="398" unicode="7" /><glyph d="M109 0Q109 86 121.5 170.5Q134 255 154 332Q174 409 199.5 476.5Q225 544 252 595H46V713H391V612Q320 481 282 325Q244 169 244 0Z" glyph-name="seven.LT" horiz-adv-x="436" unicode="&#58695;" /><glyph d="M62 0Q62 45 70.5 89Q79 133 92.5 174Q106 215 123.5 250.5Q141 286 160 315H21V396H260V329Q218 269 189.5 184Q161 99 161 0Z" glyph-name="seven.dnom" horiz-adv-x="280" unicode="&#58377;" /><glyph d="M62 318Q62 363 70.5 407Q79 451 92.5 492Q106 533 123.5 568.5Q141 604 160 633H21V714H260V647Q218 587 189.5 502Q161 417 161 318Z" glyph-name="seven.numr" horiz-adv-x="280" unicode="&#58397;" /><glyph d="M220 101Q246 101 256 116.5Q266 132 266 151V304Q266 327 253 337Q240 347 223 347Q202 347 188 332.5Q174 318 173 295V151Q173 130 184.5 115.5Q196 101 220 101ZM218 -11Q176 -11 142.5 1Q109 13 85.5 35Q62 57 49.5 87.5Q37 118 37 156V553Q37 595 51.5 627Q66 659 91 681Q116 703 150 714Q184 725 223 725Q302 725 346.5 683Q391 641 391 572V515H264V565Q264 585 253.5 598.5Q243 612 221 612Q195 612 184 597Q173 582 173 561V400Q193 420 218.5 430Q244 440 272 440Q334 440 366.5 406Q399 372 399 315V150Q399 114 386 84.5Q373 55 349 33.5Q325 12 291.5 0.5Q258 -11 218 -11Z" glyph-name="six" horiz-adv-x="432" unicode="6" /><glyph d="M220 101Q246 101 256 116.5Q266 132 266 151V304Q266 327 253 337Q240 347 223 347Q202 347 188 332.5Q174 318 173 295V151Q173 130 184.5 115.5Q196 101 220 101ZM218 -11Q176 -11 142.5 1Q109 13 85.5 35Q62 57 49.5 87.5Q37 118 37 156V553Q37 595 51.5 627Q66 659 91 681Q116 703 150 714Q184 725 223 725Q302 725 346.5 683Q391 641 391 572V515H264V565Q264 585 253.5 598.5Q243 612 221 612Q195 612 184 597Q173 582 173 561V400Q193 420 218.5 430Q244 440 272 440Q334 440 366.5 406Q399 372 399 315V150Q399 114 386 84.5Q373 55 349 33.5Q325 12 291.5 0.5Q258 -11 218 -11Z" glyph-name="six.LT" horiz-adv-x="436" unicode="&#58694;" /><glyph d="M144 63Q158 63 163.5 70.5Q169 78 169 88V161Q169 174 162 179.5Q155 185 144 185Q134 185 126 177.5Q118 170 118 156V88Q118 77 124.5 70Q131 63 144 63ZM142 -11Q117 -11 95.5 -4.5Q74 2 57.5 15Q41 28 31.5 47Q22 66 22 90V296Q22 323 32 343Q42 363 59 376Q76 389 98 395.5Q120 402 145 402Q197 402 228 376.5Q259 351 259 306V276H170V301Q170 314 162.5 320.5Q155 327 143 327Q130 327 124 319.5Q118 312 118 301V219Q129 230 146 236.5Q163 243 181 243Q221 243 242 221Q263 199 263 164V90Q263 66 253.5 47.5Q244 29 227.5 16Q211 3 189 -4Q167 -11 142 -11Z" glyph-name="six.dnom" horiz-adv-x="285" unicode="&#58376;" /><glyph d="M144 381Q158 381 163.5 388.5Q169 396 169 406V479Q169 492 162 497.5Q155 503 144 503Q134 503 126 495.5Q118 488 118 474V406Q118 395 124.5 388Q131 381 144 381ZM142 307Q117 307 95.5 313.5Q74 320 57.5 333Q41 346 31.5 365Q22 384 22 408V614Q22 641 32 661Q42 681 59 694Q76 707 98 713.5Q120 720 145 720Q197 720 228 694.5Q259 669 259 624V594H170V619Q170 632 162.5 638.5Q155 645 143 645Q130 645 124 637.5Q118 630 118 619V537Q129 548 146 554.5Q163 561 181 561Q221 561 242 539Q263 517 263 482V408Q263 384 253.5 365.5Q244 347 227.5 334Q211 321 189 314Q167 307 142 307Z" glyph-name="six.numr" horiz-adv-x="285" unicode="&#58396;" /><glyph d="M151 718H236L82 -162H-6Z" glyph-name="slash" horiz-adv-x="259" unicode="/" /><glyph glyph-name="space" horiz-adv-x="148" unicode=" " /><glyph d="M34 113H84V308H42V400H84V552Q84 597 99 629.5Q114 662 138.5 683Q163 704 196 714.5Q229 725 265 725Q337 725 381.5 685.5Q426 646 426 572V508H310V570Q310 592 298 604Q286 616 265 616Q245 616 232.5 603Q220 590 220 567V400H349V308H220V113H439L419 0H34Z" glyph-name="sterling" horiz-adv-x="468" unicode="&#163;" /><glyph d="M34 -24 198 301 30 608V713H390V589H205L349 322V287L198 -9H391V-133H34Z" glyph-name="summation" horiz-adv-x="424" unicode="&#8721;" /><glyph d="M191 -8Q166 -8 144.5 -2Q123 4 107 17.5Q91 31 81.5 51Q72 71 72 100V428H25V531H72V652H203V531H278V428H203V138Q203 123 209.5 114.5Q216 106 233 106Q258 106 276 111V6Q256 -1 233.5 -4.5Q211 -8 191 -8Z" glyph-name="t" horiz-adv-x="300" unicode="t" /><glyph d="M44 327H72V428H25V531H72V652H203V531H278V428H203V327H245V247H203V138Q203 123 209.5 114.5Q216 106 233 106Q258 106 276 111V6Q256 -1 233.5 -4.5Q211 -8 191 -8Q166 -8 144.5 -2Q123 4 107 17.5Q91 31 81.5 51Q72 71 72 100V247H44Z" glyph-name="tbar" horiz-adv-x="300" unicode="&#359;" /><glyph d="M191 -8Q166 -8 144.5 -2Q123 4 107 17.5Q91 31 81.5 51Q72 71 72 100V428H25V531H72V652H203V531H278V428H203V138Q203 123 209.5 114.5Q216 106 233 106Q258 106 276 111V6Q256 -1 233.5 -4.5Q211 -8 191 -8ZM237 714H333L304 563H231Z" glyph-name="tcaron" horiz-adv-x="300" unicode="&#357;" /><glyph d="M191 -8Q166 -8 144.5 -2Q123 4 107 17.5Q91 31 81.5 51Q72 71 72 100V428H25V531H72V652H203V531H278V428H203V138Q203 123 209.5 114.5Q216 106 233 106Q258 106 276 111V6Q256 -1 233.5 -4.5Q211 -8 191 -8ZM107 -35H222L187 -188H97Z" glyph-name="tcommaaccent" horiz-adv-x="300" unicode="&#355;" /><glyph d="M217 93Q235 93 247.5 105Q260 117 260 141V394Q260 416 248.5 429Q237 442 218 442Q198 442 184.5 428.5Q171 415 171 383V145Q171 119 185 106Q199 93 217 93ZM40 713H170V486H172Q189 514 218.5 530Q248 546 277 546Q308 546 330 536Q352 526 365.5 508Q379 490 385 466Q391 442 391 414V117Q391 91 382.5 68Q374 45 357.5 27.5Q341 10 317 -0.5Q293 -11 262 -11Q237 -11 213 0.5Q189 12 172 34H171V-161H40Z" glyph-name="thorn" horiz-adv-x="423" unicode="&#254;" /><glyph d="M205 -11Q157 -11 123.5 2.5Q90 16 69 39.5Q48 63 39 94Q30 125 30 161V206H153V158Q153 131 165 115.5Q177 100 200 100Q211 100 220 104.5Q229 109 235.5 120.5Q242 132 245.5 151.5Q249 171 249 202Q249 233 243 252Q237 271 227 281.5Q217 292 205 295.5Q193 299 181 299H131V420H183Q213 420 228.5 439.5Q244 459 244 519Q244 571 230.5 590Q217 609 198 609Q174 609 164.5 592.5Q155 576 155 550V506H32V548Q32 630 77 677Q122 724 209 724Q283 724 328.5 678Q374 632 374 537Q374 477 354.5 430Q335 383 287 366V362Q338 345 361 302Q384 259 384 200Q384 143 368.5 103Q353 63 328 37.5Q303 12 271 0.5Q239 -11 205 -11Z" glyph-name="three" horiz-adv-x="415" unicode="3" /><glyph d="M216 -11Q168 -11 134.5 2.5Q101 16 80 39.5Q59 63 50 94Q41 125 41 161V206H164V158Q164 131 176 115.5Q188 100 211 100Q222 100 231 104.5Q240 109 246.5 120.5Q253 132 256.5 151.5Q260 171 260 202Q260 233 254 252Q248 271 238 281.5Q228 292 216 295.5Q204 299 192 299H142V420H194Q224 420 239.5 439.5Q255 459 255 519Q255 571 241.5 590Q228 609 209 609Q185 609 175.5 592.5Q166 576 166 550V506H43V548Q43 630 88 677Q133 724 220 724Q294 724 339.5 678Q385 632 385 537Q385 477 365.5 430Q346 383 298 366V362Q349 345 372 302Q395 259 395 200Q395 143 379.5 103Q364 63 339 37.5Q314 12 282 0.5Q250 -11 216 -11Z" glyph-name="three.LT" horiz-adv-x="436" unicode="&#58691;" /><glyph d="M142 -12Q81 -12 52.5 18Q24 48 24 97V121H113V95Q113 80 120.5 72.5Q128 65 140 65Q154 65 160.5 75.5Q167 86 167 112Q167 141 155.5 151Q144 161 133 161H101V231H130Q147 231 156 241.5Q165 252 165 279Q165 302 157 312.5Q149 323 138 323Q124 323 118.5 312.5Q113 302 113 289V270H26V292Q26 342 55.5 371.5Q85 401 142 401Q194 401 225 373.5Q256 346 256 292Q256 260 243.5 235Q231 210 204 199V197Q234 188 248.5 163Q263 138 263 106Q263 73 253.5 50.5Q244 28 227.5 14Q211 0 189 -6Q167 -12 142 -12Z" glyph-name="three.dnom" horiz-adv-x="287" unicode="&#58373;" /><glyph d="M142 306Q81 306 52.5 336Q24 366 24 415V439H113V413Q113 398 120.5 390.5Q128 383 140 383Q154 383 160.5 393.5Q167 404 167 430Q167 459 155.5 469Q144 479 133 479H101V549H130Q147 549 156 559.5Q165 570 165 597Q165 620 157 630.5Q149 641 138 641Q124 641 118.5 630.5Q113 620 113 607V588H26V610Q26 660 55.5 689.5Q85 719 142 719Q194 719 225 691.5Q256 664 256 610Q256 578 243.5 553Q231 528 204 517V515Q234 506 248.5 481Q263 456 263 424Q263 391 253.5 368.5Q244 346 227.5 332Q211 318 189 312Q167 306 142 306Z" glyph-name="three.numr" horiz-adv-x="287" unicode="&#58393;" /><glyph d="M458 716H522L214 -1H149ZM146 304Q85 304 56.5 334Q28 364 28 413V437H117V411Q117 396 124.5 388.5Q132 381 144 381Q158 381 164.5 391.5Q171 402 171 428Q171 457 159.5 467Q148 477 137 477H105V547H134Q151 547 160 557.5Q169 568 169 595Q169 618 161 628.5Q153 639 142 639Q128 639 122.5 628.5Q117 618 117 605V586H30V608Q30 658 59.5 687.5Q89 717 146 717Q198 717 229 689.5Q260 662 260 608Q260 576 247.5 551Q235 526 208 515V513Q238 504 252.5 479Q267 454 267 422Q267 389 257.5 366.5Q248 344 231.5 330Q215 316 193 310Q171 304 146 304ZM498 84H363V152L475 399H571L452 158H498V210L587 275V158H619V84H587V0H498Z" glyph-name="threequarters" horiz-adv-x="650" unicode="&#190;" /><glyph d="M142 368Q81 368 52.5 398Q24 428 24 477V501H113V475Q113 460 120.5 452.5Q128 445 140 445Q154 445 160.5 455.5Q167 466 167 492Q167 521 155.5 531Q144 541 133 541H101V611H130Q147 611 156 621.5Q165 632 165 659Q165 682 157 692.5Q149 703 138 703Q124 703 118.5 692.5Q113 682 113 669V650H26V672Q26 722 55.5 751.5Q85 781 142 781Q194 781 225 753.5Q256 726 256 672Q256 640 243.5 615Q231 590 204 579V577Q234 568 248.5 543Q263 518 263 486Q263 453 253.5 430.5Q244 408 227.5 394Q211 380 189 374Q167 368 142 368Z" glyph-name="threesuperior" horiz-adv-x="287" unicode="&#179;" /><glyph d="M26 605Q30 629 37.5 650Q45 671 57 687Q69 703 85 712.5Q101 722 121 722Q137 722 152.5 717.5Q168 713 183.5 707Q199 701 214 696.5Q229 692 244 692Q259 692 266.5 701Q274 710 281 730L342 714Q339 691 331.5 670Q324 649 312 633Q300 617 283.5 607Q267 597 246 597Q232 597 216 601.5Q200 606 184 611.5Q168 617 153.5 621.5Q139 626 127 626Q113 626 105.5 619Q98 612 92 589Z" glyph-name="tilde" horiz-adv-x="362" unicode="&#732;" /><glyph d="M86 655H26V716H218V655H158V410H86ZM243 716H333L366 589L397 716H485V410H420V601L389 483H339L307 601V410H243Z" glyph-name="trademark" horiz-adv-x="524" unicode="&#8482;" /><glyph d="M39 514V522H381V514L218 196H211Z" glyph-name="triagdn" horiz-adv-x="420" unicode="&#9660;" /><glyph d="M47 351V357L365 529H373V187H365Z" glyph-name="triaglf" horiz-adv-x="420" unicode="&#9668;" /><glyph d="M47 529H54L373 357V351L54 187H47Z" glyph-name="triagrt" horiz-adv-x="420" unicode="&#9658;" /><glyph d="M39 203 203 522H209L381 203V196H39Z" glyph-name="triagup" horiz-adv-x="420" unicode="&#9650;" /><glyph d="M37 86 165 302Q200 363 220 420Q240 477 240 525V546Q240 571 230.5 591Q221 611 196 611Q171 611 162 593Q153 575 153 551V507H34V554Q34 631 77.5 678Q121 725 204 725Q290 725 330.5 674.5Q371 624 371 543Q371 499 360.5 456Q350 413 333 372Q316 331 295 292.5Q274 254 252 218L193 120V117H372V0H37Z" glyph-name="two" horiz-adv-x="403" unicode="2" /><glyph d="M52 86 180 302Q215 363 235 420Q255 477 255 525V546Q255 571 245.5 591Q236 611 211 611Q186 611 177 593Q168 575 168 551V507H49V554Q49 631 92.5 678Q136 725 219 725Q305 725 345.5 674.5Q386 624 386 543Q386 499 375.5 456Q365 413 348 372Q331 331 310 292.5Q289 254 267 218L208 120V117H387V0H52Z" glyph-name="two.LT" horiz-adv-x="436" unicode="&#58690;" /><glyph d="M33 60 121 177Q140 206 153 233Q166 260 166 284V289Q166 303 160.5 313Q155 323 141 323Q127 323 121 312.5Q115 302 115 288V265H26V293Q26 344 57 372.5Q88 401 142 401Q200 401 230 371Q260 341 260 288Q260 264 253 242.5Q246 221 235.5 200.5Q225 180 211 161Q197 142 184 124L152 78H260V0H33Z" glyph-name="two.dnom" horiz-adv-x="283" unicode="&#58372;" /><glyph d="M33 378 121 495Q140 524 153 551Q166 578 166 602V607Q166 621 160.5 631Q155 641 141 641Q127 641 121 630.5Q115 620 115 606V583H26V611Q26 662 57 690.5Q88 719 142 719Q200 719 230 689Q260 659 260 606Q260 582 253 560.5Q246 539 235.5 518.5Q225 498 211 479Q197 460 184 442L152 396H260V318H33Z" glyph-name="two.numr" horiz-adv-x="283" unicode="&#58392;" /><glyph d="M33 440 121 557Q140 586 153 613Q166 640 166 664V669Q166 683 160.5 693Q155 703 141 703Q127 703 121 692.5Q115 682 115 668V645H26V673Q26 724 57 752.5Q88 781 142 781Q200 781 230 751Q260 721 260 668Q260 644 253 622.5Q246 601 235.5 580.5Q225 560 211 541Q197 522 184 504L152 458H260V380H33Z" glyph-name="twosuperior" horiz-adv-x="283" unicode="&#178;" /><glyph d="M148 -12Q102 -12 70.5 18Q39 48 39 100V535H169V148Q169 129 178 114Q187 99 212 99Q233 99 246 118Q259 137 259 163V535H389V0H261V52H260Q240 21 211.5 4.5Q183 -12 148 -12Z" glyph-name="u" horiz-adv-x="431" unicode="u" /><glyph d="M148 -12Q102 -12 70.5 18Q39 48 39 100V535H169V148Q169 129 178 114Q187 99 212 99Q233 99 246 118Q259 137 259 163V535H389V0H261V52H260Q240 21 211.5 4.5Q183 -12 148 -12ZM233 737H363L261 587H166Z" glyph-name="uacute" horiz-adv-x="431" unicode="&#250;" /><glyph d="M218 587Q152 587 114.5 624.5Q77 662 75 737H162Q166 702 177 683Q188 664 220 664Q246 664 257.5 683Q269 702 271 737H355Q355 698 344 669.5Q333 641 314 622.5Q295 604 270.5 595.5Q246 587 218 587ZM148 -12Q102 -12 70.5 18Q39 48 39 100V535H169V148Q169 129 178 114Q187 99 212 99Q233 99 246 118Q259 137 259 163V535H389V0H261V52H260Q240 21 211.5 4.5Q183 -12 148 -12Z" glyph-name="ubreve" horiz-adv-x="431" unicode="&#365;" /><glyph d="M148 -12Q102 -12 70.5 18Q39 48 39 100V535H169V148Q169 129 178 114Q187 99 212 99Q233 99 246 118Q259 137 259 163V535H389V0H261V52H260Q240 21 211.5 4.5Q183 -12 148 -12ZM170 741H264L356 587H254L215 662L175 587H78Z" glyph-name="ucircumflex" horiz-adv-x="431" unicode="&#251;" /><glyph d="M148 -12Q102 -12 70.5 18Q39 48 39 100V535H169V148Q169 129 178 114Q187 99 212 99Q233 99 246 118Q259 137 259 163V535H389V0H261V52H260Q240 21 211.5 4.5Q183 -12 148 -12ZM241 732H343V590H241ZM86 732H188V590H86Z" glyph-name="udieresis" horiz-adv-x="431" unicode="&#252;" /><glyph d="M65 737H195L262 587H167ZM148 -12Q102 -12 70.5 18Q39 48 39 100V535H169V148Q169 129 178 114Q187 99 212 99Q233 99 246 118Q259 137 259 163V535H389V0H261V52H260Q240 21 211.5 4.5Q183 -12 148 -12Z" glyph-name="ugrave" horiz-adv-x="431" unicode="&#249;" /><glyph d="M304 732H412L338 587H249ZM149 732H257L188 587H97ZM148 -12Q102 -12 70.5 18Q39 48 39 100V535H169V148Q169 129 178 114Q187 99 212 99Q233 99 246 118Q259 137 259 163V535H389V0H261V52H260Q240 21 211.5 4.5Q183 -12 148 -12Z" glyph-name="uhungarumlaut" horiz-adv-x="431" unicode="&#369;" /><glyph d="M97 690H332V598H97ZM148 -12Q102 -12 70.5 18Q39 48 39 100V535H169V148Q169 129 178 114Q187 99 212 99Q233 99 246 118Q259 137 259 163V535H389V0H261V52H260Q240 21 211.5 4.5Q183 -12 148 -12Z" glyph-name="umacron" horiz-adv-x="431" unicode="&#363;" /><glyph d="M0 -53H396V-140H0Z" glyph-name="underscore" horiz-adv-x="396" unicode="_" /><glyph glyph-name="uni00A0" horiz-adv-x="148" unicode="&#160;" /><glyph d="M153 594H18V713H429V594H295V0H153ZM170 -35H285L250 -188H160Z" glyph-name="uni021A" horiz-adv-x="447" unicode="&#538;" /><glyph d="M191 -8Q166 -8 144.5 -2Q123 4 107 17.5Q91 31 81.5 51Q72 71 72 100V428H25V531H72V652H203V531H278V428H203V138Q203 123 209.5 114.5Q216 106 233 106Q258 106 276 111V6Q256 -1 233.5 -4.5Q211 -8 191 -8ZM107 -35H222L187 -188H97Z" glyph-name="uni021B" horiz-adv-x="300" unicode="&#539;" /><glyph d="M143 444Q157 444 163.5 452Q170 460 170 471V682Q170 692 163.5 699.5Q157 707 143 707Q129 707 122.5 699.5Q116 692 116 682V470Q116 459 122.5 451.5Q129 444 143 444ZM144 369Q120 369 98 375Q76 381 59.5 393.5Q43 406 33.5 425Q24 444 24 471V680Q24 706 34 725.5Q44 745 60.5 757.5Q77 770 98.5 776Q120 782 143 782Q165 782 186.5 776Q208 770 225 758Q242 746 252 726.5Q262 707 262 680V472Q262 446 252 426.5Q242 407 225.5 394.5Q209 382 188 375.5Q167 369 144 369Z" glyph-name="uni2070" horiz-adv-x="286" unicode="&#8304;" /><glyph d="M149 464H14V532L126 779H222L103 538H149V590L238 655V538H270V464H238V380H149Z" glyph-name="uni2074" horiz-adv-x="283" unicode="&#8308;" /><glyph d="M140 369Q87 369 55.5 393.5Q24 418 24 463V501H114V471Q114 459 120.5 451.5Q127 444 141 444Q168 444 168 475V537Q168 567 141 567Q132 567 125 562Q118 557 113 549L28 557L36 776H243V695H115Q115 692 114.5 679.5Q114 667 113.5 653Q113 639 112.5 626.5Q112 614 112 610Q123 620 139.5 625Q156 630 173 630Q189 630 205 625.5Q221 621 233.5 611Q246 601 254 584.5Q262 568 262 544V473Q262 447 251.5 427.5Q241 408 224 395Q207 382 185 375.5Q163 369 140 369Z" glyph-name="uni2075" horiz-adv-x="285" unicode="&#8309;" /><glyph d="M144 443Q158 443 163.5 450.5Q169 458 169 468V541Q169 554 162 559.5Q155 565 144 565Q134 565 126 557.5Q118 550 118 536V468Q118 457 124.5 450Q131 443 144 443ZM142 369Q117 369 95.5 375.5Q74 382 57.5 395Q41 408 31.5 427Q22 446 22 470V676Q22 703 32 723Q42 743 59 756Q76 769 98 775.5Q120 782 145 782Q197 782 228 756.5Q259 731 259 686V656H170V681Q170 694 162.5 700.5Q155 707 143 707Q130 707 124 699.5Q118 692 118 681V599Q129 610 146 616.5Q163 623 181 623Q221 623 242 601Q263 579 263 544V470Q263 446 253.5 427.5Q244 409 227.5 396Q211 383 189 376Q167 369 142 369Z" glyph-name="uni2076" horiz-adv-x="285" unicode="&#8310;" /><glyph d="M62 380Q62 425 70.5 469Q79 513 92.5 554Q106 595 123.5 630.5Q141 666 160 695H21V776H260V709Q218 649 189.5 564Q161 479 161 380Z" glyph-name="uni2077" horiz-adv-x="280" unicode="&#8311;" /><glyph d="M144 612Q156 612 163 619.5Q170 627 170 638V685Q170 699 162 705Q154 711 143 711Q132 711 124 705Q116 699 116 688V637Q116 612 144 612ZM144 440Q170 440 170 466V517Q170 531 162 537.5Q154 544 143 544Q132 544 123.5 537.5Q115 531 115 520V465Q115 453 123 446.5Q131 440 144 440ZM143 369Q91 369 57 392Q23 415 23 467V511Q23 534 32.5 551Q42 568 59 578Q44 588 36 605Q28 622 28 639V684Q28 732 61 757.5Q94 783 143 783Q191 783 224.5 758.5Q258 734 258 685V642Q258 599 227 579Q242 568 252.5 551Q263 534 263 514V465Q263 418 228.5 393.5Q194 369 143 369Z" glyph-name="uni2078" horiz-adv-x="286" unicode="&#8312;" /><glyph d="M141 586Q151 586 159 593.5Q167 601 168 615V684Q168 694 161 701.5Q154 709 141 709Q127 709 121.5 701Q116 693 116 683V611Q116 598 123 592Q130 586 141 586ZM140 369Q89 369 58 395Q27 421 27 466V493H115V471Q115 457 122.5 451Q130 445 142 445Q168 445 168 471V549Q142 525 104 525Q64 525 43 547.5Q22 570 22 605V682Q22 706 31.5 724.5Q41 743 57.5 755.5Q74 768 96 775Q118 782 143 782Q168 782 189.5 775.5Q211 769 227.5 756Q244 743 253.5 724Q263 705 263 681V476Q263 449 253 429Q243 409 226 395.5Q209 382 187 375.5Q165 369 140 369Z" glyph-name="uni2079" horiz-adv-x="285" unicode="&#8313;" /><glyph d="M115 309Q98 332 84 362Q70 392 60 425Q50 458 44.5 493Q39 528 39 563Q39 631 59.5 696.5Q80 762 115 810L160 809Q148 775 139 746.5Q130 718 124 689.5Q118 661 115.5 630.5Q113 600 113 563Q113 498 125 434.5Q137 371 160 311Z" glyph-name="uni207D" horiz-adv-x="172" unicode="&#8317;" /><glyph d="M25 311Q48 371 60 434.5Q72 498 72 563Q72 600 69.5 630.5Q67 661 61 689.5Q55 718 46 746.5Q37 775 25 809L71 810Q106 762 126 696.5Q146 631 146 563Q146 528 140.5 493Q135 458 125 425Q115 392 101 362Q87 332 71 309Z" glyph-name="uni207E" horiz-adv-x="172" unicode="&#8318;" /><glyph d="M143 -69Q157 -69 163.5 -61Q170 -53 170 -42V169Q170 179 163.5 186.5Q157 194 143 194Q129 194 122.5 186.5Q116 179 116 169V-43Q116 -54 122.5 -61.5Q129 -69 143 -69ZM144 -144Q120 -144 98 -138Q76 -132 59.5 -119.5Q43 -107 33.5 -88Q24 -69 24 -42V167Q24 193 34 212.5Q44 232 60.5 244.5Q77 257 98.5 263Q120 269 143 269Q165 269 186.5 263Q208 257 225 245Q242 233 252 213.5Q262 194 262 167V-41Q262 -67 252 -86.5Q242 -106 225.5 -118.5Q209 -131 188 -137.5Q167 -144 144 -144Z" glyph-name="uni2080" horiz-adv-x="286" unicode="&#8320;" /><glyph d="M70 179 34 171 22 238 108 267H160V-133H70Z" glyph-name="uni2081" horiz-adv-x="216" unicode="&#8321;" /><glyph d="M33 -73 121 44Q140 73 153 100Q166 127 166 151V156Q166 170 160.5 180Q155 190 141 190Q127 190 121 179.5Q115 169 115 155V132H26V160Q26 211 57 239.5Q88 268 142 268Q200 268 230 238Q260 208 260 155Q260 131 253 109.5Q246 88 235.5 67.5Q225 47 211 28Q197 9 184 -9L152 -55H260V-133H33Z" glyph-name="uni2082" horiz-adv-x="283" unicode="&#8322;" /><glyph d="M142 -145Q81 -145 52.5 -115Q24 -85 24 -36V-12H113V-38Q113 -53 120.5 -60.5Q128 -68 140 -68Q154 -68 160.5 -57.5Q167 -47 167 -21Q167 8 155.5 18Q144 28 133 28H101V98H130Q147 98 156 108.5Q165 119 165 146Q165 169 157 179.5Q149 190 138 190Q124 190 118.5 179.5Q113 169 113 156V137H26V159Q26 209 55.5 238.5Q85 268 142 268Q194 268 225 240.5Q256 213 256 159Q256 127 243.5 102Q231 77 204 66V64Q234 55 248.5 30Q263 5 263 -27Q263 -60 253.5 -82.5Q244 -105 227.5 -119Q211 -133 189 -139Q167 -145 142 -145Z" glyph-name="uni2083" horiz-adv-x="287" unicode="&#8323;" /><glyph d="M149 -49H14V19L126 266H222L103 25H149V77L238 142V25H270V-49H238V-133H149Z" glyph-name="uni2084" horiz-adv-x="283" unicode="&#8324;" /><glyph d="M140 -144Q87 -144 55.5 -119.5Q24 -95 24 -50V-12H114V-42Q114 -54 120.5 -61.5Q127 -69 141 -69Q168 -69 168 -38V24Q168 54 141 54Q132 54 125 49Q118 44 113 36L28 44L36 263H243V182H115Q115 179 114.5 166.5Q114 154 113.5 140Q113 126 112.5 113.5Q112 101 112 97Q123 107 139.5 112Q156 117 173 117Q189 117 205 112.5Q221 108 233.5 98Q246 88 254 71.5Q262 55 262 31V-40Q262 -66 251.5 -85.5Q241 -105 224 -118Q207 -131 185 -137.5Q163 -144 140 -144Z" glyph-name="uni2085" horiz-adv-x="285" unicode="&#8325;" /><glyph d="M144 -70Q158 -70 163.5 -62.5Q169 -55 169 -45V28Q169 41 162 46.5Q155 52 144 52Q134 52 126 44.5Q118 37 118 23V-45Q118 -56 124.5 -63Q131 -70 144 -70ZM142 -144Q117 -144 95.5 -137.5Q74 -131 57.5 -118Q41 -105 31.5 -86Q22 -67 22 -43V163Q22 190 32 210Q42 230 59 243Q76 256 98 262.5Q120 269 145 269Q197 269 228 243.5Q259 218 259 173V143H170V168Q170 181 162.5 187.5Q155 194 143 194Q130 194 124 186.5Q118 179 118 168V86Q129 97 146 103.5Q163 110 181 110Q221 110 242 88Q263 66 263 31V-43Q263 -67 253.5 -85.5Q244 -104 227.5 -117Q211 -130 189 -137Q167 -144 142 -144Z" glyph-name="uni2086" horiz-adv-x="285" unicode="&#8326;" /><glyph d="M62 -133Q62 -88 70.5 -44Q79 0 92.5 41Q106 82 123.5 117.5Q141 153 160 182H21V263H260V196Q218 136 189.5 51Q161 -34 161 -133Z" glyph-name="uni2087" horiz-adv-x="280" unicode="&#8327;" /><glyph d="M144 99Q156 99 163 106.5Q170 114 170 125V172Q170 186 162 192Q154 198 143 198Q132 198 124 192Q116 186 116 175V124Q116 99 144 99ZM144 -73Q170 -73 170 -47V4Q170 18 162 24.5Q154 31 143 31Q132 31 123.5 24.5Q115 18 115 7V-48Q115 -60 123 -66.5Q131 -73 144 -73ZM143 -144Q91 -144 57 -121Q23 -98 23 -46V-2Q23 21 32.5 38Q42 55 59 65Q44 75 36 92Q28 109 28 126V171Q28 219 61 244.5Q94 270 143 270Q191 270 224.5 245.5Q258 221 258 172V129Q258 86 227 66Q242 55 252.5 38Q263 21 263 1V-48Q263 -95 228.5 -119.5Q194 -144 143 -144Z" glyph-name="uni2088" horiz-adv-x="286" unicode="&#8328;" /><glyph d="M141 73Q151 73 159 80.5Q167 88 168 102V171Q168 181 161 188.5Q154 196 141 196Q127 196 121.5 188Q116 180 116 170V98Q116 85 123 79Q130 73 141 73ZM140 -144Q89 -144 58 -118Q27 -92 27 -47V-20H115V-42Q115 -56 122.5 -62Q130 -68 142 -68Q168 -68 168 -42V36Q142 12 104 12Q64 12 43 34.5Q22 57 22 92V169Q22 193 31.5 211.5Q41 230 57.5 242.5Q74 255 96 262Q118 269 143 269Q168 269 189.5 262.5Q211 256 227.5 243Q244 230 253.5 211Q263 192 263 168V-37Q263 -64 253 -84Q243 -104 226 -117.5Q209 -131 187 -137.5Q165 -144 140 -144Z" glyph-name="uni2089" horiz-adv-x="285" unicode="&#8329;" /><glyph d="M115 -204Q98 -181 84 -151Q70 -121 60 -88Q50 -55 44.5 -20Q39 15 39 50Q39 118 59.5 183.5Q80 249 115 297L160 296Q148 262 139 233.5Q130 205 124 176.5Q118 148 115.5 117.5Q113 87 113 50Q113 -15 125 -78.5Q137 -142 160 -202Z" glyph-name="uni208D" horiz-adv-x="172" unicode="&#8333;" /><glyph d="M25 -202Q48 -142 60 -78.5Q72 -15 72 50Q72 87 69.5 117.5Q67 148 61 176.5Q55 205 46 233.5Q37 262 25 296L71 297Q106 249 126 183.5Q146 118 146 50Q146 15 140.5 -20Q135 -55 125 -88Q115 -121 101 -151Q87 -181 71 -204Z" glyph-name="uni208E" horiz-adv-x="172" unicode="&#8334;" /><glyph d="M126 583H191V94H280Q310 94 310 142V705H394V163Q394 115 386 84Q378 53 363 34Q348 15 325.5 7.5Q303 0 274 0H126ZM26 705H164Q193 705 215.5 699.5Q238 694 253 678.5Q268 663 276 634Q284 605 284 557V122H218V563Q218 612 189 612H100V0H26Z" glyph-name="uni20AA" horiz-adv-x="420" unicode="&#8362;" /><glyph d="M484 -12Q423 -12 394.5 18Q366 48 366 97V121H455V95Q455 80 462.5 72.5Q470 65 482 65Q496 65 502.5 75.5Q509 86 509 112Q509 141 497.5 151Q486 161 475 161H443V231H472Q489 231 498 241.5Q507 252 507 279Q507 302 499 312.5Q491 323 480 323Q466 323 460.5 312.5Q455 302 455 289V270H368V292Q368 342 397.5 371.5Q427 401 484 401Q536 401 567 373.5Q598 346 598 292Q598 260 585.5 235Q573 210 546 199V197Q576 188 590.5 163Q605 138 605 106Q605 73 595.5 50.5Q586 28 569.5 14Q553 0 531 -6Q509 -12 484 -12ZM421 716H485L177 -1H112ZM98 628 62 620 50 687 136 716H188V316H98Z" glyph-name="uni2153" horiz-adv-x="650" unicode="&#8531;" /><glyph d="M497 -12Q436 -12 407.5 18Q379 48 379 97V121H468V95Q468 80 475.5 72.5Q483 65 495 65Q509 65 515.5 75.5Q522 86 522 112Q522 141 510.5 151Q499 161 488 161H456V231H485Q502 231 511 241.5Q520 252 520 279Q520 302 512 312.5Q504 323 493 323Q479 323 473.5 312.5Q468 302 468 289V270H381V292Q381 342 410.5 371.5Q440 401 497 401Q549 401 580 373.5Q611 346 611 292Q611 260 598.5 235Q586 210 559 199V197Q589 188 603.5 163Q618 138 618 106Q618 73 608.5 50.5Q599 28 582.5 14Q566 0 544 -6Q522 -12 497 -12ZM446 716H510L202 -1H137ZM18 376 106 493Q125 522 138 549Q151 576 151 600V605Q151 619 145.5 629Q140 639 126 639Q112 639 106 628.5Q100 618 100 604V581H11V609Q11 660 42 688.5Q73 717 127 717Q185 717 215 687Q245 657 245 604Q245 580 238 558.5Q231 537 220.5 516.5Q210 496 196 477Q182 458 169 440L137 394H245V316H18Z" glyph-name="uni2154" horiz-adv-x="650" unicode="&#8532;" /><glyph d="M425 716H489L181 -1H116ZM491 -11Q438 -11 406.5 13.5Q375 38 375 83V121H465V91Q465 79 471.5 71.5Q478 64 492 64Q519 64 519 95V157Q519 187 492 187Q483 187 476 182Q469 177 464 169L379 177L387 396H594V315H466Q466 312 465.5 299.5Q465 287 464.5 273Q464 259 463.5 246.5Q463 234 463 230Q474 240 490.5 245Q507 250 524 250Q540 250 556 245.5Q572 241 584.5 231Q597 221 605 204.5Q613 188 613 164V93Q613 67 602.5 47.5Q592 28 575 15Q558 2 536 -4.5Q514 -11 491 -11ZM92 628 56 620 44 687 130 716H182V316H92Z" glyph-name="uni2155" horiz-adv-x="650" unicode="&#8533;" /><glyph d="M441 716H505L197 -1H132ZM499 -11Q446 -11 414.5 13.5Q383 38 383 83V121H473V91Q473 79 479.5 71.5Q486 64 500 64Q527 64 527 95V157Q527 187 500 187Q491 187 484 182Q477 177 472 169L387 177L395 396H602V315H474Q474 312 473.5 299.5Q473 287 472.5 273Q472 259 471.5 246.5Q471 234 471 230Q482 240 498.5 245Q515 250 532 250Q548 250 564 245.5Q580 241 592.5 231Q605 221 613 204.5Q621 188 621 164V93Q621 67 610.5 47.5Q600 28 583 15Q566 2 544 -4.5Q522 -11 499 -11ZM18 376 106 493Q125 522 138 549Q151 576 151 600V605Q151 619 145.5 629Q140 639 126 639Q112 639 106 628.5Q100 618 100 604V581H11V609Q11 660 42 688.5Q73 717 127 717Q185 717 215 687Q245 657 245 604Q245 580 238 558.5Q231 537 220.5 516.5Q210 496 196 477Q182 458 169 440L137 394H245V316H18Z" glyph-name="uni2156" horiz-adv-x="650" unicode="&#8534;" /><glyph d="M499 -11Q446 -11 414.5 13.5Q383 38 383 83V121H473V91Q473 79 479.5 71.5Q486 64 500 64Q527 64 527 95V157Q527 187 500 187Q491 187 484 182Q477 177 472 169L387 177L395 396H602V315H474Q474 312 473.5 299.5Q473 287 472.5 273Q472 259 471.5 246.5Q471 234 471 230Q482 240 498.5 245Q515 250 532 250Q548 250 564 245.5Q580 241 592.5 231Q605 221 613 204.5Q621 188 621 164V93Q621 67 610.5 47.5Q600 28 583 15Q566 2 544 -4.5Q522 -11 499 -11ZM439 716H503L195 -1H130ZM131 304Q70 304 41.5 334Q13 364 13 413V437H102V411Q102 396 109.5 388.5Q117 381 129 381Q143 381 149.5 391.5Q156 402 156 428Q156 457 144.5 467Q133 477 122 477H90V547H119Q136 547 145 557.5Q154 568 154 595Q154 618 146 628.5Q138 639 127 639Q113 639 107.5 628.5Q102 618 102 605V586H15V608Q15 658 44.5 687.5Q74 717 131 717Q183 717 214 689.5Q245 662 245 608Q245 576 232.5 551Q220 526 193 515V513Q223 504 237.5 479Q252 454 252 422Q252 389 242.5 366.5Q233 344 216.5 330Q200 316 178 310Q156 304 131 304Z" glyph-name="uni2157" horiz-adv-x="650" unicode="&#8535;" /><glyph d="M440 716H504L196 -1H131ZM499 -11Q446 -11 414.5 13.5Q383 38 383 83V121H473V91Q473 79 479.5 71.5Q486 64 500 64Q527 64 527 95V157Q527 187 500 187Q491 187 484 182Q477 177 472 169L387 177L395 396H602V315H474Q474 312 473.5 299.5Q473 287 472.5 273Q472 259 471.5 246.5Q471 234 471 230Q482 240 498.5 245Q515 250 532 250Q548 250 564 245.5Q580 241 592.5 231Q605 221 613 204.5Q621 188 621 164V93Q621 67 610.5 47.5Q600 28 583 15Q566 2 544 -4.5Q522 -11 499 -11ZM136 400H1V468L113 715H209L90 474H136V526L225 591V474H257V400H225V316H136Z" glyph-name="uni2158" horiz-adv-x="650" unicode="&#8536;" /><glyph d="M426 716H490L182 -1H117ZM489 63Q503 63 508.5 70.5Q514 78 514 88V161Q514 174 507 179.5Q500 185 489 185Q479 185 471 177.5Q463 170 463 156V88Q463 77 469.5 70Q476 63 489 63ZM487 -11Q462 -11 440.5 -4.5Q419 2 402.5 15Q386 28 376.5 47Q367 66 367 90V296Q367 323 377 343Q387 363 404 376Q421 389 443 395.5Q465 402 490 402Q542 402 573 376.5Q604 351 604 306V276H515V301Q515 314 507.5 320.5Q500 327 488 327Q475 327 469 319.5Q463 312 463 301V219Q474 230 491 236.5Q508 243 526 243Q566 243 587 221Q608 199 608 164V90Q608 66 598.5 47.5Q589 29 572.5 16Q556 3 534 -4Q512 -11 487 -11ZM103 628 67 620 55 687 141 716H193V316H103Z" glyph-name="uni2159" horiz-adv-x="650" unicode="&#8537;" /><glyph d="M437 716H501L193 -1H128ZM137 305Q84 305 52.5 329.5Q21 354 21 399V437H111V407Q111 395 117.5 387.5Q124 380 138 380Q165 380 165 411V473Q165 503 138 503Q129 503 122 498Q115 493 110 485L25 493L33 712H240V631H112Q112 628 111.5 615.5Q111 603 110.5 589Q110 575 109.5 562.5Q109 550 109 546Q120 556 136.5 561Q153 566 170 566Q186 566 202 561.5Q218 557 230.5 547Q243 537 251 520.5Q259 504 259 480V409Q259 383 248.5 363.5Q238 344 221 331Q204 318 182 311.5Q160 305 137 305ZM492 63Q506 63 511.5 70.5Q517 78 517 88V161Q517 174 510 179.5Q503 185 492 185Q482 185 474 177.5Q466 170 466 156V88Q466 77 472.5 70Q479 63 492 63ZM490 -11Q465 -11 443.5 -4.5Q422 2 405.5 15Q389 28 379.5 47Q370 66 370 90V296Q370 323 380 343Q390 363 407 376Q424 389 446 395.5Q468 402 493 402Q545 402 576 376.5Q607 351 607 306V276H518V301Q518 314 510.5 320.5Q503 327 491 327Q478 327 472 319.5Q466 312 466 301V219Q477 230 494 236.5Q511 243 529 243Q569 243 590 221Q611 199 611 164V90Q611 66 601.5 47.5Q592 29 575.5 16Q559 3 537 -4Q515 -11 490 -11Z" glyph-name="uni215A" horiz-adv-x="650" unicode="&#8538;" /><glyph d="M428 716H492L184 -1H119ZM489 232Q501 232 508 239.5Q515 247 515 258V305Q515 319 507 325Q499 331 488 331Q477 331 469 325Q461 319 461 308V257Q461 232 489 232ZM489 60Q515 60 515 86V137Q515 151 507 157.5Q499 164 488 164Q477 164 468.5 157.5Q460 151 460 140V85Q460 73 468 66.5Q476 60 489 60ZM488 -11Q436 -11 402 12Q368 35 368 87V131Q368 154 377.5 171Q387 188 404 198Q389 208 381 225Q373 242 373 259V304Q373 352 406 377.5Q439 403 488 403Q536 403 569.5 378.5Q603 354 603 305V262Q603 219 572 199Q587 188 597.5 171Q608 154 608 134V85Q608 38 573.5 13.5Q539 -11 488 -11ZM103 628 67 620 55 687 141 716H193V316H103Z" glyph-name="uni215B" horiz-adv-x="650" unicode="&#8539;" /><glyph d="M441 716H505L197 -1H132ZM139 304Q78 304 49.5 334Q21 364 21 413V437H110V411Q110 396 117.5 388.5Q125 381 137 381Q151 381 157.5 391.5Q164 402 164 428Q164 457 152.5 467Q141 477 130 477H98V547H127Q144 547 153 557.5Q162 568 162 595Q162 618 154 628.5Q146 639 135 639Q121 639 115.5 628.5Q110 618 110 605V586H23V608Q23 658 52.5 687.5Q82 717 139 717Q191 717 222 689.5Q253 662 253 608Q253 576 240.5 551Q228 526 201 515V513Q231 504 245.5 479Q260 454 260 422Q260 389 250.5 366.5Q241 344 224.5 330Q208 316 186 310Q164 304 139 304ZM493 232Q505 232 512 239.5Q519 247 519 258V305Q519 319 511 325Q503 331 492 331Q481 331 473 325Q465 319 465 308V257Q465 232 493 232ZM493 60Q519 60 519 86V137Q519 151 511 157.5Q503 164 492 164Q481 164 472.5 157.5Q464 151 464 140V85Q464 73 472 66.5Q480 60 493 60ZM492 -11Q440 -11 406 12Q372 35 372 87V131Q372 154 381.5 171Q391 188 408 198Q393 208 385 225Q377 242 377 259V304Q377 352 410 377.5Q443 403 492 403Q540 403 573.5 378.5Q607 354 607 305V262Q607 219 576 199Q591 188 601.5 171Q612 154 612 134V85Q612 38 577.5 13.5Q543 -11 492 -11Z" glyph-name="uni215C" horiz-adv-x="650" unicode="&#8540;" /><glyph d="M437 716H501L193 -1H128ZM138 305Q85 305 53.5 329.5Q22 354 22 399V437H112V407Q112 395 118.5 387.5Q125 380 139 380Q166 380 166 411V473Q166 503 139 503Q130 503 123 498Q116 493 111 485L26 493L34 712H241V631H113Q113 628 112.5 615.5Q112 603 111.5 589Q111 575 110.5 562.5Q110 550 110 546Q121 556 137.5 561Q154 566 171 566Q187 566 203 561.5Q219 557 231.5 547Q244 537 252 520.5Q260 504 260 480V409Q260 383 249.5 363.5Q239 344 222 331Q205 318 183 311.5Q161 305 138 305ZM491 232Q503 232 510 239.5Q517 247 517 258V305Q517 319 509 325Q501 331 490 331Q479 331 471 325Q463 319 463 308V257Q463 232 491 232ZM491 60Q517 60 517 86V137Q517 151 509 157.5Q501 164 490 164Q479 164 470.5 157.5Q462 151 462 140V85Q462 73 470 66.5Q478 60 491 60ZM490 -11Q438 -11 404 12Q370 35 370 87V131Q370 154 379.5 171Q389 188 406 198Q391 208 383 225Q375 242 375 259V304Q375 352 408 377.5Q441 403 490 403Q538 403 571.5 378.5Q605 354 605 305V262Q605 219 574 199Q589 188 599.5 171Q610 154 610 134V85Q610 38 575.5 13.5Q541 -11 490 -11Z" glyph-name="uni215D" horiz-adv-x="650" unicode="&#8541;" /><glyph d="M424 716H488L180 -1H115ZM75 316Q75 361 83.5 405Q92 449 105.5 490Q119 531 136.5 566.5Q154 602 173 631H34V712H273V645Q231 585 202.5 500Q174 415 174 316ZM491 232Q503 232 510 239.5Q517 247 517 258V305Q517 319 509 325Q501 331 490 331Q479 331 471 325Q463 319 463 308V257Q463 232 491 232ZM491 60Q517 60 517 86V137Q517 151 509 157.5Q501 164 490 164Q479 164 470.5 157.5Q462 151 462 140V85Q462 73 470 66.5Q478 60 491 60ZM490 -11Q438 -11 404 12Q370 35 370 87V131Q370 154 379.5 171Q389 188 406 198Q391 208 383 225Q375 242 375 259V304Q375 352 408 377.5Q441 403 490 403Q538 403 571.5 378.5Q605 354 605 305V262Q605 219 574 199Q589 188 599.5 171Q610 154 610 134V85Q610 38 575.5 13.5Q541 -11 490 -11Z" glyph-name="uni215E" horiz-adv-x="650" unicode="&#8542;" /><glyph d="M157 354 161 238H79L86 480L93 485L334 493L336 416L219 415L384 249L322 188Z" glyph-name="uni2196" horiz-adv-x="445" unicode="&#8598;" /><glyph d="M79 249 245 415 127 416 130 493 371 485 378 480 384 238H303L307 354L141 188Z" glyph-name="uni2197" horiz-adv-x="445" unicode="&#8599;" /><glyph d="M127 265 245 266 79 431 141 493 307 328Q307 330 306.5 347.5Q306 365 305 386Q304 407 303.5 424.5Q303 442 303 444L384 443Q384 441 383.5 423Q383 405 382.5 379Q382 353 381 322.5Q380 292 379.5 266Q379 240 378.5 222Q378 204 378 202L371 196L130 188Z" glyph-name="uni2198" horiz-adv-x="445" unicode="&#8600;" /><glyph d="M93 196 86 202 79 443 161 444 157 328 322 493 384 431 219 266 336 265 334 188Z" glyph-name="uni2199" horiz-adv-x="445" unicode="&#8601;" /><glyph d="M40 284 36 289 277 532 283 526 387 181 382 176Z" glyph-name="uni25E2" horiz-adv-x="420" unicode="&#9698;" /><glyph d="M36 181 140 526 146 532 387 289 383 284 41 176Z" glyph-name="uni25E3" horiz-adv-x="420" unicode="&#9699;" /><glyph d="M140 181 36 526 41 532 383 423 387 418 146 176Z" glyph-name="uni25E4" horiz-adv-x="420" unicode="&#9700;" /><glyph d="M36 418 40 423 382 532 387 526 283 181 277 176Z" glyph-name="uni25E5" horiz-adv-x="420" unicode="&#9701;" /><glyph d="M148 -12Q102 -12 70.5 18Q39 48 39 100V535H169V148Q169 129 178 114Q187 99 212 99Q233 99 246 118Q259 137 259 163V535H389V0H261V52H260Q240 21 211.5 4.5Q183 -12 148 -12Z" glyph-name="uogonek" horiz-adv-x="431" unicode="&#371;" /><glyph d="M148 -12Q102 -12 70.5 18Q39 48 39 100V535H169V148Q169 129 178 114Q187 99 212 99Q233 99 246 118Q259 137 259 163V535H389V0H261V52H260Q240 21 211.5 4.5Q183 -12 148 -12ZM215 627Q235 627 246.5 640Q258 653 258 673Q258 693 247 706.5Q236 720 215 720Q196 720 185 706.5Q174 693 174 673Q174 653 185.5 640Q197 627 215 627ZM215 578Q173 578 146 604Q119 630 119 671Q119 713 146.5 740Q174 767 215 767Q258 767 284.5 742Q311 717 311 675Q311 633 283 605.5Q255 578 215 578Z" glyph-name="uring" horiz-adv-x="431" unicode="&#367;" /><glyph d="M57 605Q61 629 68.5 650Q76 671 88 687Q100 703 116 712.5Q132 722 152 722Q168 722 183.5 717.5Q199 713 214.5 707Q230 701 245 696.5Q260 692 275 692Q290 692 297.5 701Q305 710 312 730L373 714Q370 691 362.5 670Q355 649 343 633Q331 617 314.5 607Q298 597 277 597Q263 597 247 601.5Q231 606 215 611.5Q199 617 184.5 621.5Q170 626 158 626Q144 626 136.5 619Q129 612 123 589ZM148 -12Q102 -12 70.5 18Q39 48 39 100V535H169V148Q169 129 178 114Q187 99 212 99Q233 99 246 118Q259 137 259 163V535H389V0H261V52H260Q240 21 211.5 4.5Q183 -12 148 -12Z" glyph-name="utilde" horiz-adv-x="431" unicode="&#361;" /><glyph d="M6 535H145L200 201H203L263 535H382L263 -2H127Z" glyph-name="v" horiz-adv-x="388" unicode="v" /><glyph d="M15 535H152L191 247H195L241 535H361L405 247H408L451 535H571L465 -1H351L296 311H293L239 -1H121Z" glyph-name="w" horiz-adv-x="579" unicode="w" /><glyph d="M15 535H152L191 247H195L241 535H361L405 247H408L451 535H571L465 -1H351L296 311H293L239 -1H121ZM318 737H448L346 587H251Z" glyph-name="wacute" horiz-adv-x="579" unicode="&#7811;" /><glyph d="M15 535H152L191 247H195L241 535H361L405 247H408L451 535H571L465 -1H351L296 311H293L239 -1H121ZM242 741H336L428 587H326L287 662L247 587H150Z" glyph-name="wcircumflex" horiz-adv-x="579" unicode="&#373;" /><glyph d="M15 535H152L191 247H195L241 535H361L405 247H408L451 535H571L465 -1H351L296 311H293L239 -1H121ZM316 732H418V590H316ZM161 732H263V590H161Z" glyph-name="wdieresis" horiz-adv-x="579" unicode="&#7813;" /><glyph d="M180 737H310L377 587H282ZM15 535H152L191 247H195L241 535H361L405 247H408L451 535H571L465 -1H351L296 311H293L239 -1H121Z" glyph-name="wgrave" horiz-adv-x="579" unicode="&#7809;" /><glyph d="M423 74V641H118V74ZM43 713H497V0H43Z" glyph-name="whitesquare" horiz-adv-x="540" unicode="&#9633;" /><glyph d="M122 272 12 535H148L204 393L257 535H375L265 279L382 1H245L185 156L123 1H5Z" glyph-name="x" horiz-adv-x="387" unicode="x" /><glyph d="M110 -170Q87 -170 70 -168Q53 -166 38 -162L50 -59Q77 -65 94 -65Q125 -65 133 -36L143 4L6 535H142L207 213H210L264 535H383L253 -31Q235 -103 200 -136.5Q165 -170 110 -170Z" glyph-name="y" horiz-adv-x="389" unicode="y" /><glyph d="M221 737H351L249 587H154ZM110 -170Q87 -170 70 -168Q53 -166 38 -162L50 -59Q77 -65 94 -65Q125 -65 133 -36L143 4L6 535H142L207 213H210L264 535H383L253 -31Q235 -103 200 -136.5Q165 -170 110 -170Z" glyph-name="yacute" horiz-adv-x="389" unicode="&#253;" /><glyph d="M154 741H248L340 587H238L199 662L159 587H62ZM110 -170Q87 -170 70 -168Q53 -166 38 -162L50 -59Q77 -65 94 -65Q125 -65 133 -36L143 4L6 535H142L207 213H210L264 535H383L253 -31Q235 -103 200 -136.5Q165 -170 110 -170Z" glyph-name="ycircumflex" horiz-adv-x="389" unicode="&#375;" /><glyph d="M230 732H332V590H230ZM75 732H177V590H75ZM110 -170Q87 -170 70 -168Q53 -166 38 -162L50 -59Q77 -65 94 -65Q125 -65 133 -36L143 4L6 535H142L207 213H210L264 535H383L253 -31Q235 -103 200 -136.5Q165 -170 110 -170Z" glyph-name="ydieresis" horiz-adv-x="389" unicode="&#255;" /><glyph d="M153 227H39V315H138L4 713H152L231 448L307 713H444L310 315H409V227H295V0H153Z" glyph-name="yen" horiz-adv-x="448" unicode="&#165;" /><glyph d="M59 737H189L256 587H161ZM110 -170Q87 -170 70 -168Q53 -166 38 -162L50 -59Q77 -65 94 -65Q125 -65 133 -36L143 4L6 535H142L207 213H210L264 535H383L253 -31Q235 -103 200 -136.5Q165 -170 110 -170Z" glyph-name="ygrave" horiz-adv-x="389" unicode="&#7923;" /><glyph d="M27 92 183 427H30V535H331V439L177 110H330V0H27Z" glyph-name="z" horiz-adv-x="374" unicode="z" /><glyph d="M27 92 183 427H30V535H331V439L177 110H330V0H27ZM200 737H330L228 587H133Z" glyph-name="zacute" horiz-adv-x="357" unicode="&#378;" /><glyph d="M27 92 183 427H30V535H331V439L177 110H330V0H27ZM45 744H146L186 669L225 744H325L231 590H136Z" glyph-name="zcaron" horiz-adv-x="357" unicode="&#382;" /><glyph d="M125 733H234V590H125ZM27 92 183 427H30V535H331V439L177 110H330V0H27Z" glyph-name="zdotaccent" horiz-adv-x="357" unicode="&#380;" /><glyph d="M221 103Q247 103 258.5 117.5Q270 132 270 150V565Q270 584 257 596.5Q244 609 221 609Q198 609 185.5 596Q173 583 173 566V149Q173 131 185 117Q197 103 221 103ZM221 -11Q183 -11 150 -1Q117 9 92.5 29.5Q68 50 53.5 80.5Q39 111 39 153V562Q39 603 54 633.5Q69 664 94 684Q119 704 152 714Q185 724 221 724Q257 724 289.5 714Q322 704 347.5 684Q373 664 388 633.5Q403 603 403 562V153Q403 111 388.5 80.5Q374 50 349 29.5Q324 9 291 -1Q258 -11 221 -11Z" glyph-name="zero" horiz-adv-x="442" unicode="0" /><glyph d="M219 103Q245 103 256.5 117.5Q268 132 268 150V565Q268 584 255 596.5Q242 609 219 609Q196 609 183.5 596Q171 583 171 566V149Q171 131 183 117Q195 103 219 103ZM219 -11Q181 -11 148 -1Q115 9 90.5 29.5Q66 50 51.5 80.5Q37 111 37 153V562Q37 603 52 633.5Q67 664 92 684Q117 704 150 714Q183 724 219 724Q255 724 287.5 714Q320 704 345.5 684Q371 664 386 633.5Q401 603 401 562V153Q401 111 386.5 80.5Q372 50 347 29.5Q322 9 289 -1Q256 -11 219 -11Z" glyph-name="zero.LT" horiz-adv-x="436" unicode="&#58687;" /><glyph d="M143 64Q157 64 163.5 72Q170 80 170 91V302Q170 312 163.5 319.5Q157 327 143 327Q129 327 122.5 319.5Q116 312 116 302V90Q116 79 122.5 71.5Q129 64 143 64ZM144 -11Q120 -11 98 -5Q76 1 59.5 13.5Q43 26 33.5 45Q24 64 24 91V300Q24 326 34 345.5Q44 365 60.5 377.5Q77 390 98.5 396Q120 402 143 402Q165 402 186.5 396Q208 390 225 378Q242 366 252 346.5Q262 327 262 300V92Q262 66 252 46.5Q242 27 225.5 14.5Q209 2 188 -4.5Q167 -11 144 -11Z" glyph-name="zero.dnom" horiz-adv-x="286" unicode="&#58370;" /><glyph d="M143 382Q157 382 163.5 390Q170 398 170 409V620Q170 630 163.5 637.5Q157 645 143 645Q129 645 122.5 637.5Q116 630 116 620V408Q116 397 122.5 389.5Q129 382 143 382ZM144 307Q120 307 98 313Q76 319 59.5 331.5Q43 344 33.5 363Q24 382 24 409V618Q24 644 34 663.5Q44 683 60.5 695.5Q77 708 98.5 714Q120 720 143 720Q165 720 186.5 714Q208 708 225 696Q242 684 252 664.5Q262 645 262 618V410Q262 384 252 364.5Q242 345 225.5 332.5Q209 320 188 313.5Q167 307 144 307Z" glyph-name="zero.numr" horiz-adv-x="286" unicode="&#58390;" /></font>
</defs>
</svg>
